<?xml version="1.0" encoding="utf-8"?>
<!-- Generator: Adobe Illustrator 23.0.1, SVG Export Plug-In . SVG Version: 6.00 Build 0)  -->
<svg version="1.1" id="Layer_1" xmlns="http://www.w3.org/2000/svg" xmlns:xlink="http://www.w3.org/1999/xlink" x="0px" y="0px"
	 viewBox="0 0 457.39 366.88" style="enable-background:new 0 0 457.39 366.88;" xml:space="preserve">
<style type="text/css">
	.st0{fill:#DCF7FF;}
	.st1{fill:#55DAF9;}
	.st2{fill:#FFFFFF;}
	.st3{fill:#E0E0E0;}
	.st4{fill:#ED7E7E;}
	.st5{opacity:0.2;}
	.st6{fill:#212226;}
	.st7{fill:#393F5C;}
	.st8{fill:#D99393;}
	.st9{fill:#9A9FB3;}
	.st10{fill:#FFE7DB;}
	.st11{fill:#31AEE0;}
	.st12{fill:#FFADAD;}
	.st13{fill:#392ECF;}
	.st14{fill:#21D9F7;}
	.st15{fill:#05D3E8;}
	.st16{opacity:0.67;fill:#FFFFFF;}
	.st17{fill:#B2B210;}
	.st18{fill:#402C2C;}
	.st19{fill:#BAC121;}
	.st20{fill:#827E06;}
	.st21{fill:#F2BE9B;}
	.st22{fill:#FB7484;}
	.st23{fill:#FFF2DE;}
	.st24{fill:#FCB415;}
	.st25{fill:#F4CDAF;}
	.st26{fill:#2B3044;}
	.st27{fill:#F5CEB0;}
	.st28{fill:#062338;}
	.st29{fill:#F4536E;}
	.st30{fill:#EFF0F1;}
	.st31{fill:#122330;}
	.st32{fill:#A6A4A4;}
	.st33{fill:#FFD54D;}
	.st34{fill:#DBDAD9;}
	.st35{fill:#FAB71F;}
	.st36{fill:#FFDF3A;}
	.st37{fill:#F5F6F6;}
	.st38{fill:#EDECED;}
	.st39{fill:#C1C1C1;}
	.st40{fill:#98928D;}
	.st41{fill:#A19F9F;}
	.st42{fill:#05C0D3;}
	.st43{fill:#005467;}
	.st44{fill:#004263;}
	.st45{opacity:0.13;}
	.st46{fill:#A6D6CA;}
	.st47{fill:#B7B713;}
	.st48{fill:#AAAA04;}
	.st49{fill:#0A2132;}
	.st50{fill:#D5F7D5;}
	.st51{fill:#71CC77;}
	.st52{fill:#2DB22F;}
	.st53{fill:#FBB992;}
	.st54{fill:#292951;}
	.st55{fill:#373462;}
	.st56{fill:#EA4444;}
	.st57{fill:#231F20;}
	.st58{fill:#FC5954;}
	.st59{opacity:0.2;fill:#FFFFFF;}
	.st60{opacity:0.2;fill:#231F20;}
	.st61{opacity:0.5;fill:#FFFFFF;}
	.st62{fill:#C7F9F5;}
	.st63{fill:#34E2D9;}
	.st64{fill:#FFD0C1;}
	.st65{fill:#BCBEC0;}
	.st66{fill:#EAD2B7;}
	.st67{fill:#33435A;}
	.st68{fill:#222D3D;}
	.st69{fill:#D7765B;}
	.st70{fill:#263343;}
	.st71{fill:#FDC4B1;}
	.st72{fill:#D0E8F4;}
	.st73{fill:#E3E3E4;}
	.st74{fill:#CCCDCE;}
	.st75{fill:#9D9D9F;}
	.st76{fill:#EAEAEA;}
	.st77{fill:#F6F6F6;}
	.st78{fill:#FFBDB8;}
	.st79{opacity:0.12;}
	.st80{fill:#272426;}
	.st81{fill:#AAAAAB;}
	.st82{fill:#427CCC;}
	.st83{fill-rule:evenodd;clip-rule:evenodd;fill:#FFFFFF;}
	.st84{fill-rule:evenodd;clip-rule:evenodd;fill:#C27629;}
	.st85{fill-rule:evenodd;clip-rule:evenodd;fill:#D8924C;}
	.st86{fill-rule:evenodd;clip-rule:evenodd;fill:#D18334;}
	.st87{fill-rule:evenodd;clip-rule:evenodd;fill:#E6E6E6;}
	.st88{fill-rule:evenodd;clip-rule:evenodd;fill:#313C50;}
	.st89{fill:#FFCD69;}
	.st90{fill-rule:evenodd;clip-rule:evenodd;fill:#A8610A;}
	.st91{fill-rule:evenodd;clip-rule:evenodd;fill:#814743;}
	.st92{fill-rule:evenodd;clip-rule:evenodd;fill:#FCDABE;}
	.st93{fill-rule:evenodd;clip-rule:evenodd;fill:#0288D1;}
	.st94{fill-rule:evenodd;clip-rule:evenodd;fill:#DBAC86;}
	.st95{fill-rule:evenodd;clip-rule:evenodd;fill:#4D4D4D;}
	.st96{fill-rule:evenodd;clip-rule:evenodd;fill:#FF386A;}
	.st97{fill-rule:evenodd;clip-rule:evenodd;fill:#D99990;}
	.st98{fill-rule:evenodd;clip-rule:evenodd;fill:#F8C8B4;}
	.st99{fill-rule:evenodd;clip-rule:evenodd;fill:#F04152;}
</style>
<g>
	<g>
		<path class="st2" d="M439.97,367.5H17.42c-9.31,0-16.85-7.54-16.85-16.85V17.35C0.57,8.04,8.11,0.5,17.42,0.5h422.55
			c9.31,0,16.85,7.54,16.85,16.85v333.3C456.82,359.96,449.27,367.5,439.97,367.5z"/>
		<path class="st3" d="M439.97,368H17.42c-9.57,0-17.35-7.78-17.35-17.35V17.35C0.07,7.78,7.85,0,17.42,0h422.55
			c9.57,0,17.35,7.78,17.35,17.35v333.3C457.32,360.22,449.54,368,439.97,368z M17.42,1C8.4,1,1.07,8.33,1.07,17.35v333.3
			c0,9.02,7.33,16.35,16.35,16.35h422.55c9.02,0,16.35-7.33,16.35-16.35V17.35c0-9.02-7.33-16.35-16.35-16.35H17.42z"/>
	</g>
	<g>
		<path class="st50" d="M391.46,234.72c-5.48-11.2-24.26-17.92-23.05-30.9c0.56-5.98,5.34-10.73,8.57-16.1
			c7.6-12.63,14.01-32.52,2.36-44.91c-14.92-15.88-49.86-14.09-71.9-21.34c-11.95-3.93-21.66-10.54-30.68-17.33
			c-6.55-4.93-12.97-10.08-20.99-13.77c-16.47-7.59-39.11-7.9-55.98-0.77c-17.14,7.25-28.18,20.06-50.5,17.27
			c-9.26-1.16-18.68-3.66-28.04-1.87c-9.3,1.78-17.67,6.38-22.59,12.19c-13.55,16,8.55,32.91-0.69,49.43
			c-6.89,12.32-26.75,16.93-37.82,26.88c-8.91,8.01-11.02,18.2-8.29,28.01c5.51,19.77,9.91,40.79,20.43,59.59
			c11.54,20.63,45.97,20.83,72.87,20.85c40.87,0.03,83.21,2.26,123.74-1.2c31.63-2.7,68.45-9.08,94.72-22.39
			C382.55,268.78,399.83,251.84,391.46,234.72z"/>
		<rect x="298.21" y="147" class="st51" width="45.45" height="154.81"/>
		<rect x="343.65" y="147" class="st52" width="6.78" height="154.81"/>
		<g>
			<path class="st53" d="M134.14,144.01c0,0-0.55,1.02-0.35,1.49c0.2,0.47,0.96,1.84,0.6,3.03c-0.36,1.19-1.35,0.85-1.35,0.85
				s-0.28,1.52-0.8,1.44c-0.52-0.09-3.11-2.35-2.94-3.38s1.07-3.03,1.73-3.61s1.33-1.05,1.33-1.05L134.14,144.01z"/>
			<path class="st54" d="M155.59,151.32c0,0,21.18,4.71,23.74,5.31s1.37,4.08,1.37,4.08l-14.29,27.89l-3.3-0.9l5.04-19.3l3.67-5.88
				l-22.2,2.3c0,0-6.95-0.3-9.39-3.7c-2.45-3.4,2.39-10.65,2.39-10.65L155.59,151.32z"/>
			<path class="st55" d="M121.55,195.27l7.86-18.1l3.28-3.16c0,0,3.78-11.41,5.72-15.85c1.94-4.44,4.21-7.69,4.21-7.69l19.68,2.34
				l-23.21,25.04l-15.26,19.7L121.55,195.27z"/>
			<path class="st53" d="M168.3,101.27c1.25,0.24,4.29,0.31,5.47,2.84c1.18,2.52-0.24,7.75-0.24,7.75l1.05,3.05l-1.4-0.06
				c0,0,0.16,3.66-1.03,3.95c-1.19,0.29-4.23-1.28-4.23-1.28l-2.48,5.86l-6.89-2.08l3.12-7.31c0,0-1.35-7.21-0.17-9.58
				C162.68,102.05,164.6,100.56,168.3,101.27z"/>
			<path class="st55" d="M160.87,114.78l3.35-1.79l1.6-1.48l1.59,0.29l0.37-3.46c0,0,2.65,0.64,3.47-1.14
				c0.74,0.37,2.53,0.88,4.13-0.32c1.54-1.15,2.2-2.21,1.45-4.51c-0.75-2.3-3.57-3.02-3.57-3.02s-0.6,0.86-2.52,0.82
				c-1.92-0.04-6.17-0.8-7.89,0.08C156.2,103.62,160.87,114.78,160.87,114.78z"/>
			<path class="st56" d="M164.21,121.69c0.27-3.4-6.96-5.9-16.44-3.38c-9.49,2.51-8.19,2.13-8.99,3.17
				c-0.81,1.04-8.69,22.64-8.69,22.64l4.54-0.04c0,0,8.93-16.98,9.75-17.49c0.82-0.5,14.11-1.15,15.84-1.66
				C161.95,124.42,164.04,123.81,164.21,121.69z"/>
			<path class="st53" d="M188.33,123.75c0,0,0.87-0.76,0.85-1.27c-0.02-0.51-0.25-2.07,0.51-3.05c0.76-0.98,1.56-0.31,1.56-0.31
				s0.8-1.33,1.25-1.06c0.45,0.26,2.09,3.29,1.56,4.2c-0.52,0.91-2.07,2.46-2.89,2.77c-0.82,0.31-1.61,0.51-1.61,0.51L188.33,123.75
				z"/>
			<path class="st53" d="M165.89,111.41c0.16,0.93-0.19,1.76-0.77,1.86c-0.58,0.1-1.18-0.58-1.33-1.51
				c-0.16-0.93,0.19-1.76,0.77-1.86S165.73,110.48,165.89,111.41z"/>
			<polygon class="st57" points="117.68,195.95 121.55,205.97 125.13,207.17 124.05,203.92 123.82,197.54 121.55,195.27 			"/>
			<polygon class="st57" points="163.08,187.7 160.25,189.23 166.02,194.82 172.56,195.99 169.21,192.77 166.41,188.6 			"/>
			<path class="st58" d="M160.03,117.29c-1.65-0.02-6.01,0.81-9.16,8.47s-4.54,16.27-4.54,16.27l-7.33,14.55c0,0,1.72,1.39,8.73,1.9
				c6.83,0.5,14.38-5.23,14.38-5.23l3.28-13.56l3.14-7.23c0,0-0.33-9.24-2.8-11.9C163.26,117.91,161.68,117.31,160.03,117.29z"/>
			<path class="st58" d="M159.19,118.98c-2.78,1.98-0.05,9.12,7.96,14.78c8.02,5.66,6.89,4.91,8.21,4.86
				c1.32-0.05,15.89-12.46,15.89-12.46l-2.95-3.46c0,0-11.7,8.64-12.61,8.34c-0.91-0.3-9.94-10.08-11.45-11.08
				C162.74,118.96,160.92,117.75,159.19,118.98z"/>
		</g>
		<rect x="37.67" y="235.78" class="st51" width="45.45" height="66.03"/>
		<rect x="89.8" y="217.31" class="st51" width="45.45" height="84.49"/>
		<rect x="141.94" y="198.84" class="st51" width="45.45" height="102.96"/>
		<rect x="194.07" y="180.38" class="st51" width="45.45" height="121.43"/>
		<rect x="246.21" y="161.91" class="st51" width="45.45" height="139.89"/>
		<path class="st50" d="M90.93,99.17c-1.61,0-3.04,0.79-3.92,2.01c-0.3-3.5-3.23-6.25-6.8-6.25c-2.25,0-4.24,1.09-5.48,2.77
			C73.54,93.26,69.49,90,64.68,90c-4.37,0-8.11,2.69-9.65,6.51c-1.18-0.98-2.7-1.58-4.36-1.58c-3.39,0-6.2,2.47-6.73,5.71
			c-0.88-0.91-2.11-1.47-3.47-1.47c-1.48,0-2.8,0.66-3.68,1.71c-1.13-2.2-3.42-3.71-6.07-3.71c-3.77,0-6.83,3.06-6.83,6.83h71.89
			C95.76,101.33,93.6,99.17,90.93,99.17z"/>
		<path class="st50" d="M268.87,83.88c1.38,0,2.59,0.68,3.34,1.71c0.25-2.98,2.75-5.33,5.8-5.33c1.92,0,3.61,0.93,4.67,2.36
			c1.02-3.78,4.47-6.56,8.57-6.56c3.72,0,6.91,2.29,8.23,5.55c1.01-0.84,2.31-1.35,3.72-1.35c2.89,0,5.28,2.11,5.74,4.87
			c0.75-0.77,1.8-1.26,2.96-1.26c1.26,0,2.38,0.57,3.14,1.46c0.97-1.88,2.92-3.16,5.18-3.16c3.22,0,5.82,2.61,5.82,5.82h-61.28
			C264.76,85.73,266.6,83.88,268.87,83.88z"/>
		<circle class="st51" cx="391.59" cy="126.03" r="41.03"/>
		<path class="st59" d="M391.59,85c-7.61,0-14.73,2.08-20.84,5.69c-5.61,12.07-0.78,29.95,12.73,43.46
			c13.51,13.51,31.39,18.33,43.46,12.73c3.61-6.11,5.69-13.23,5.69-20.84C432.63,103.37,414.26,85,391.59,85z"/>
		
			<ellipse transform="matrix(0.7071 -0.7071 0.7071 0.7071 25.5752 313.8135)" class="st52" cx="391.59" cy="126.03" rx="32.71" ry="32.71"/>
		<circle class="st2" cx="391.69" cy="126.27" r="29.41"/>
		<path class="st60" d="M371.98,104.45c-4.71,5.22-7.59,12.13-7.59,19.71c0,16.24,13.17,29.41,29.41,29.41
			c7.58,0,14.5-2.87,19.71-7.59c-5.38,5.95-13.16,9.7-21.82,9.7c-16.24,0-29.41-13.17-29.41-29.41
			C362.29,117.61,366.03,109.83,371.98,104.45z"/>
		<path class="st61" d="M391.81,96.86c16.24,0,29.41,13.17,29.41,29.41c0,7.57-2.86,14.48-7.57,19.69
			c-0.88-0.41-1.73-0.82-2.52-1.22c-9.79-5.04-16.39-13.86-22.01-23.07c-3.93-6.44-7.55-13.23-9.41-20.58
			c-0.12-0.47-0.23-0.96-0.35-1.45C383.14,97.86,387.36,96.86,391.81,96.86z"/>
		<rect x="362.4" y="125.06" class="st55" width="9.95" height="2.26"/>
		
			<rect x="365.94" y="139.06" transform="matrix(0.866 -0.5 0.5 0.866 -20.3731 203.0365)" class="st55" width="5.49" height="0.95"/>
		<rect x="375.67" y="148.85" transform="matrix(0.5 -0.866 0.866 0.5 59.8937 402.379)" class="st55" width="5.49" height="0.95"/>
		
			<rect x="388.99" y="152.46" transform="matrix(6.123234e-17 -1 1 6.123234e-17 238.8024 544.663)" class="st55" width="5.49" height="0.95"/>
		
			<rect x="402.33" y="148.92" transform="matrix(-0.5 -0.866 0.866 -0.5 478.2276 574.898)" class="st55" width="5.49" height="0.95"/>
		
			<rect x="412.11" y="139.19" transform="matrix(-0.866 -0.5 0.5 -0.866 704.3037 468.0497)" class="st55" width="5.49" height="0.95"/>
		
			<rect x="415.72" y="125.87" transform="matrix(-1 -1.224647e-16 1.224647e-16 -1 836.9373 252.6902)" class="st55" width="5.49" height="0.95"/>
		
			<rect x="412.19" y="112.53" transform="matrix(-0.866 0.5 -0.5 -0.866 830.7793 3.3968)" class="st55" width="5.49" height="0.95"/>
		
			<rect x="402.46" y="102.75" transform="matrix(-0.5 0.866 -0.866 -0.5 697.1968 -196.0875)" class="st55" width="5.49" height="0.95"/>
		
			<rect x="389.14" y="99.14" transform="matrix(-1.836970e-16 1 -1 -1.836970e-16 491.4926 -292.2744)" class="st55" width="5.49" height="0.95"/>
		
			<rect x="375.8" y="102.67" transform="matrix(0.5 0.866 -0.866 0.5 278.5911 -276.255)" class="st55" width="5.49" height="0.95"/>
		
			<rect x="366.01" y="112.4" transform="matrix(0.866 0.5 -0.5 0.866 105.8449 -169.2598)" class="st55" width="5.49" height="0.95"/>
		<rect x="411.26" y="125.06" class="st55" width="9.95" height="2.26"/>
		
			<rect x="386.83" y="149.49" transform="matrix(6.123234e-17 -1 1 6.123234e-17 241.1835 542.4328)" class="st55" width="9.95" height="2.26"/>
		
			<rect x="386.83" y="100.63" transform="matrix(6.123234e-17 -1 1 6.123234e-17 290.0442 493.5721)" class="st55" width="9.95" height="2.26"/>
		<polygon class="st51" points="391.81,103.16 394.7,107.55 391.81,126.27 388.75,107.55 		"/>
		<polygon class="st51" points="374.63,126.29 377.9,124.15 391.79,126.29 377.9,128.56 		"/>
		<path class="st55" d="M394.68,126.27c0,1.59-1.29,2.87-2.87,2.87c-1.59,0-2.87-1.29-2.87-2.87c0-1.59,1.29-2.87,2.87-2.87
			C393.39,123.4,394.68,124.68,394.68,126.27z"/>
		<rect x="83.12" y="235.78" class="st52" width="6.78" height="66.03"/>
		<rect x="135.27" y="217.31" class="st52" width="6.78" height="84.49"/>
		<rect x="187.29" y="198.84" class="st52" width="6.78" height="102.96"/>
		<rect x="239.52" y="180.38" class="st52" width="6.78" height="121.43"/>
		<rect x="291.65" y="161.91" class="st52" width="6.78" height="139.89"/>
	</g>
</g>
</svg>
