<?xml version="1.0" encoding="utf-8"?>
<!-- Generator: Adobe Illustrator 23.0.2, SVG Export Plug-In . SVG Version: 6.00 Build 0)  -->
<svg version="1.1" id="Layer_1" xmlns="http://www.w3.org/2000/svg" xmlns:xlink="http://www.w3.org/1999/xlink" x="0px" y="0px"
	 viewBox="0 0 438.6 424.5" style="enable-background:new 0 0 438.6 424.5;" xml:space="preserve">
<style type="text/css">
	.st0{fill:#D5F7D5;}
	.st1{fill:#71CC77;}
	.st2{fill:#FFFFFF;}
	.st3{fill:#E0E0E0;}
	.st4{fill:#D1D3D4;}
	.st5{fill:#9FA0A3;}
	.st6{font-family:'SFProDisplay-Regular';}
	.st7{font-size:23.7859px;}
	.st8{opacity:0.56;fill:#FFFFFF;}
	.st9{opacity:7.000000e-02;}
</style>
<title>2</title>
<path class="st0" d="M117.9,65.6c0,0,226-66.4,304.8,4.4S121,292.8,121,292.8l282.3,62.6c0,0-102,169-309.2-18.2"/>
<path class="st1" d="M53.9,259.8c-25.8-21.8-38.2-42.7-36.7-62.1c1.5-20,17.7-31.8,20.7-33.8C-1.6,78.2-10.3,25.6,12.1,7.7
	c10.4-8.3,27.4-9.1,50.7-2.4c18.5,5.3,41,15.4,66.9,30c44,24.8,83,54.3,83.4,54.6l-0.8,1c-0.4-0.3-39.4-29.8-83.3-54.5
	C103.2,21.8,80.8,11.8,62.4,6.5C39.6-0.1,22.9,0.6,12.8,8.6C-9,26.2-0.1,78.4,39.2,164l0.2,0.5l-0.5,0.3
	c-0.2,0.1-18.9,11.8-20.6,33.1c-1.4,19,10.8,39.5,36.3,61L53.9,259.8z"/>
<g>
	<path class="st2" d="M429.6,384.5H54.6c-4.8,0-8.7-3.9-8.7-8.7V70.2c0-4.8,3.9-8.7,8.7-8.7h375.1c4.8,0,8.7,3.9,8.7,8.7v305.6
		C438.3,380.7,434.4,384.5,429.6,384.5z"/>
	<path class="st3" d="M432.9,384.9H51.3c-3.2,0-5.8-2.6-5.8-5.8V67c0-3.2,2.6-5.8,5.8-5.8h381.6c3.2,0,5.8,2.6,5.8,5.8v312.1
		C438.6,382.3,436.1,384.9,432.9,384.9z M51.3,61.9c-2.8,0-5.1,2.3-5.1,5.1v312.1c0,2.8,2.3,5.1,5.1,5.1h381.6
		c2.8,0,5.1-2.3,5.1-5.1V67c0-2.8-2.3-5.1-5.1-5.1H51.3z"/>
</g>
<path class="st4" d="M390.5,342H131.3c-2.2,0-4.1-1.8-4.1-4.1V326c0-2.2,1.8-4.1,4.1-4.1h259.1c2.2,0,4.1,1.8,4.1,4.1v11.9
	C394.5,340.2,392.7,342,390.5,342z"/>
<g>
	<path class="st2" d="M390.5,295H131.3c-2.2,0-4.1-1.8-4.1-4.1v-11.9c0-2.2,1.8-4.1,4.1-4.1h259.1c2.2,0,4.1,1.8,4.1,4.1V291
		C394.5,293.2,392.7,295,390.5,295z"/>
	<path class="st4" d="M392,295.3H129.8c-1.6,0-2.9-1.3-2.9-2.9v-14.9c0-1.6,1.3-2.9,2.9-2.9H392c1.6,0,2.9,1.3,2.9,2.9v14.9
		C394.8,294.1,393.6,295.3,392,295.3z M129.8,275.3c-1.2,0-2.2,1-2.2,2.2v14.9c0,1.2,1,2.2,2.2,2.2H392c1.2,0,2.2-1,2.2-2.2v-14.9
		c0-1.2-1-2.2-2.2-2.2H129.8z"/>
</g>
<path class="st4" d="M390.5,261.9H131.3c-2.2,0-4.1-1.8-4.1-4.1v-11.9c0-2.2,1.8-4.1,4.1-4.1h259.1c2.2,0,4.1,1.8,4.1,4.1v11.9
	C394.5,260,392.7,261.9,390.5,261.9z"/>
<g>
	<path class="st2" d="M390.5,213H131.3c-2.2,0-4.1-1.8-4.1-4.1v-11.9c0-2.2,1.8-4.1,4.1-4.1h259.1c2.2,0,4.1,1.8,4.1,4.1V209
		C394.5,211.2,392.7,213,390.5,213z"/>
	<path class="st4" d="M392,213.3H129.8c-1.6,0-2.9-1.3-2.9-2.9v-14.9c0-1.6,1.3-2.9,2.9-2.9H392c1.6,0,2.9,1.3,2.9,2.9v14.9
		C394.8,212.1,393.6,213.3,392,213.3z M129.8,193.3c-1.2,0-2.2,1-2.2,2.2v14.9c0,1.2,1,2.2,2.2,2.2H392c1.2,0,2.2-1,2.2-2.2v-14.9
		c0-1.2-1-2.2-2.2-2.2H129.8z"/>
</g>
<path class="st4" d="M390.5,179.9H131.3c-2.2,0-4.1-1.8-4.1-4.1v-11.9c0-2.2,1.8-4.1,4.1-4.1h259.1c2.2,0,4.1,1.8,4.1,4.1v11.9
	C394.5,178,392.7,179.9,390.5,179.9z"/>
<g>
	<path class="st2" d="M102.9,179.5H91.6c-2.4,0-4.4-2-4.4-4.4v-11.3c0-2.4,2-4.4,4.4-4.4h11.3c2.4,0,4.4,2,4.4,4.4v11.3
		C107.2,177.6,105.3,179.5,102.9,179.5z"/>
	<path class="st4" d="M104.5,179.9H89.9c-1.7,0-3-1.4-3-3v-14.6c0-1.7,1.4-3,3-3h14.6c1.7,0,3,1.4,3,3v14.6
		C107.5,178.5,106.2,179.9,104.5,179.9z M89.9,159.8c-1.3,0-2.4,1.1-2.4,2.4v14.6c0,1.3,1.1,2.4,2.4,2.4h14.6c1.3,0,2.4-1.1,2.4-2.4
		v-14.6c0-1.3-1.1-2.4-2.4-2.4H89.9z"/>
</g>
<g>
	<path class="st4" d="M102.9,213H91.6c-2.4,0-4.4-2-4.4-4.4v-11.3c0-2.4,2-4.4,4.4-4.4h11.3c2.4,0,4.4,2,4.4,4.4v11.3
		C107.2,211.1,105.3,213,102.9,213z"/>
	<path class="st4" d="M104.5,213.3H89.9c-1.7,0-3-1.4-3-3v-14.6c0-1.7,1.4-3,3-3h14.6c1.7,0,3,1.4,3,3v14.6
		C107.5,212,106.2,213.3,104.5,213.3z M89.9,193.3c-1.3,0-2.4,1.1-2.4,2.4v14.6c0,1.3,1.1,2.4,2.4,2.4h14.6c1.3,0,2.4-1.1,2.4-2.4
		v-14.6c0-1.3-1.1-2.4-2.4-2.4H89.9z"/>
</g>
<g>
	<path class="st2" d="M102.9,261.9H91.6c-2.4,0-4.4-2-4.4-4.4v-11.3c0-2.4,2-4.4,4.4-4.4h11.3c2.4,0,4.4,2,4.4,4.4v11.3
		C107.2,259.9,105.3,261.9,102.9,261.9z"/>
	<path class="st4" d="M104.5,262.2H89.9c-1.7,0-3-1.4-3-3v-14.6c0-1.7,1.4-3,3-3h14.6c1.7,0,3,1.4,3,3v14.6
		C107.5,260.8,106.2,262.2,104.5,262.2z M89.9,242.1c-1.3,0-2.4,1.1-2.4,2.4v14.6c0,1.3,1.1,2.4,2.4,2.4h14.6c1.3,0,2.4-1.1,2.4-2.4
		v-14.6c0-1.3-1.1-2.4-2.4-2.4H89.9z"/>
</g>
<g>
	<path class="st4" d="M102.9,296.3H91.6c-2.4,0-4.4-2-4.4-4.4v-11.3c0-2.4,2-4.4,4.4-4.4h11.3c2.4,0,4.4,2,4.4,4.4v11.3
		C107.2,294.3,105.3,296.3,102.9,296.3z"/>
	<path class="st4" d="M104.5,296.6H89.9c-1.7,0-3-1.4-3-3V279c0-1.7,1.4-3,3-3h14.6c1.7,0,3,1.4,3,3v14.6
		C107.5,295.2,106.2,296.6,104.5,296.6z M89.9,276.6c-1.3,0-2.4,1.1-2.4,2.4v14.6c0,1.3,1.1,2.4,2.4,2.4h14.6c1.3,0,2.4-1.1,2.4-2.4
		V279c0-1.3-1.1-2.4-2.4-2.4H89.9z"/>
</g>
<g>
	<path class="st2" d="M102.9,343.2H91.5c-2.4,0-4.4-2-4.4-4.4v-11.3c0-2.4,2-4.4,4.4-4.4h11.3c2.4,0,4.4,2,4.4,4.4v11.3
		C107.2,341.3,105.3,343.2,102.9,343.2z"/>
	<path class="st4" d="M104.5,343.5H89.9c-1.7,0-3-1.4-3-3v-14.6c0-1.7,1.4-3,3-3h14.6c1.7,0,3,1.4,3,3v14.6
		C107.5,342.2,106.2,343.5,104.5,343.5z M89.9,323.5c-1.3,0-2.4,1.1-2.4,2.4v14.6c0,1.3,1.1,2.4,2.4,2.4h14.6c1.3,0,2.4-1.1,2.4-2.4
		v-14.6c0-1.3-1.1-2.4-2.4-2.4H89.9z"/>
</g>
<path class="st1" d="M93.7,176.2l-4.3-4.3c-0.3-0.3-0.3-0.8,0-1.1c0.3-0.3,0.8-0.3,1.1,0l3.7,3.7l9.7-9.7c0.3-0.3,0.8-0.3,1.1,0
	c0.3,0.3,0.3,0.8,0,1.1l-10.3,10.3C94.5,176.5,94,176.5,93.7,176.2z"/>
<path class="st2" d="M93.7,292.6l-4.3-4.3c-0.3-0.3-0.3-0.8,0-1.1s0.8-0.3,1.1,0l3.7,3.7l9.7-9.7c0.3-0.3,0.8-0.3,1.1,0
	c0.3,0.3,0.3,0.8,0,1.1l-10.3,10.3C94.5,292.9,94,292.9,93.7,292.6z"/>
<path class="st2" d="M93.7,208.7l-4.3-4.3c-0.3-0.3-0.3-0.8,0-1.1c0.3-0.3,0.8-0.3,1.1,0l3.7,3.7l9.7-9.7c0.3-0.3,0.8-0.3,1.1,0
	c0.3,0.3,0.3,0.8,0,1.1l-10.3,10.3C94.5,209,94,209,93.7,208.7z"/>
<path class="st1" d="M93.7,338.9l-4.3-4.3c-0.3-0.3-0.3-0.8,0-1.1c0.3-0.3,0.8-0.3,1.1,0l3.7,3.7l9.7-9.7c0.3-0.3,0.8-0.3,1.1,0
	c0.3,0.3,0.3,0.8,0,1.1l-10.3,10.3C94.5,339.2,94,339.2,93.7,338.9z"/>
<circle class="st1" cx="97.2" cy="111.3" r="21.9"/>
<g>
	<text transform="matrix(1 0 0 1 139.2295 119.0854)" class="st5 st6 st7">Select </text>
</g>
<g>
	<path class="st2" d="M92.6,109.4h-7.1c-0.8,0-1.5-0.7-1.5-1.5v-7.1c0-0.8,0.7-1.5,1.5-1.5h7.1c0.8,0,1.5,0.7,1.5,1.5v7.1
		C94.1,108.8,93.4,109.4,92.6,109.4z"/>
	<path class="st2" d="M85.5,99.7c-0.6,0-1.2,0.5-1.2,1.2v7.1c0,0.6,0.5,1.2,1.2,1.2h7.1c0.6,0,1.2-0.5,1.2-1.2v-7.1
		c0-0.6-0.5-1.2-1.2-1.2H85.5z"/>
	<path class="st1" d="M87.3,107.5l-2.1-2.1c-0.2-0.2-0.2-0.4,0-0.6c0.2-0.2,0.4-0.2,0.6,0l1.8,1.8l4.7-4.7c0.2-0.2,0.4-0.2,0.6,0
		s0.2,0.4,0,0.6l-5,5C87.7,107.7,87.5,107.7,87.3,107.5z"/>
</g>
<path class="st2" d="M92.6,112.6h-7.1c-0.8,0-1.5,0.7-1.5,1.5v7.1c0,0.8,0.7,1.5,1.5,1.5h7.1c0.8,0,1.5-0.7,1.5-1.5V114
	C94.1,113.2,93.4,112.6,92.6,112.6z M93.8,121.1c0,0.6-0.5,1.2-1.2,1.2h-7.1c-0.6,0-1.2-0.5-1.2-1.2V114c0-0.6,0.5-1.2,1.2-1.2h7.1
	c0.6,0,1.2,0.5,1.2,1.2V121.1z"/>
<path class="st2" d="M87.3,120.7l-2.1-2.1c-0.2-0.2-0.2-0.4,0-0.6c0.2-0.2,0.4-0.2,0.6,0l1.8,1.8l4.7-4.7c0.2-0.2,0.4-0.2,0.6,0
	s0.2,0.4,0,0.6l-5,5C87.7,120.8,87.5,120.8,87.3,120.7z"/>
<rect x="97.5" y="102.2" class="st8" width="15" height="1.9"/>
<rect x="97.5" y="105.7" class="st8" width="11.6" height="1.9"/>
<rect x="97.5" y="114.1" class="st8" width="15" height="1.9"/>
<rect x="97.5" y="117.6" class="st8" width="11.6" height="1.9"/>
<path class="st9" d="M361.2,398.1c6.5-4.6,12.3-9.3,17.3-13.9H155.4c6.6,4.2,13,8,19.3,11.5C213.7,394.9,313.6,393.4,361.2,398.1z"
	/>
</svg>
