<svg id="Layer_1" data-name="Layer 1" xmlns="http://www.w3.org/2000/svg" viewBox="0 0 102 102"><defs><style>.cls-1{fill:#ff9c56;}.cls-2{fill:#fff;}</style></defs><title>Home</title><circle class="cls-1" cx="51" cy="51.29" r="51"/><path class="cls-2" d="M51,36.53A14.76,14.76,0,1,0,65.76,51.29,14.78,14.78,0,0,0,51,36.53Zm-4.36,4.65A16.15,16.15,0,0,0,44.28,46h-2.9a11.06,11.06,0,0,1,5.26-4.78Zm-6.2,13.23a11,11,0,0,1,0-6.24h3.31a19.11,19.11,0,0,0-.26,3.12,18.07,18.07,0,0,0,.26,3.12Zm.94,2.21h2.9a16.71,16.71,0,0,0,2.36,4.77,11,11,0,0,1-5.26-4.77Zm8.51,5.2a14.42,14.42,0,0,1-3.28-5.2h3.28Zm0-7.41H46a16.37,16.37,0,0,1,0-6.24h3.88Zm0-8.45H46.61a14,14,0,0,1,3.28-5.21Zm10.73,0h-2.9a16.78,16.78,0,0,0-2.36-4.78A11.06,11.06,0,0,1,60.62,46Zm-8.51-5.2A14.33,14.33,0,0,1,55.39,46H52.11Zm0,7.41H56a16.37,16.37,0,0,1,0,6.24H52.11Zm0,8.45h3.28a14,14,0,0,1-3.28,5.21Zm3.25,4.77a16,16,0,0,0,2.36-4.77h2.9a11,11,0,0,1-5.26,4.77Zm2.87-7a18,18,0,0,0,.27-3.12,17.1,17.1,0,0,0-.27-3.12h3.31a10.81,10.81,0,0,1,0,6.24Zm0,0"/><path class="cls-2" d="M27.54,53.78H32.9a17.37,17.37,0,0,1-.09-4.26H27.54a6.16,6.16,0,1,0,0,4.26Zm0,0"/><path class="cls-2" d="M48.88,27.83v5.3A16.53,16.53,0,0,1,51,33a16.31,16.31,0,0,1,2.12.13V27.81a6.14,6.14,0,1,0-4.24,0Zm0,0"/><path class="cls-2" d="M30.31,36.78a6.25,6.25,0,0,0,2.59-.57L36.66,40a18.75,18.75,0,0,1,3-3l-3.76-3.76a6.25,6.25,0,0,0,.57-2.59,6.17,6.17,0,1,0-6.18,6.18Zm0,0"/><path class="cls-2" d="M65.35,40l3.76-3.76a6.17,6.17,0,1,0-3-3l-3.77,3.77a19.11,19.11,0,0,1,3,3Zm0,0"/><path class="cls-2" d="M80.26,45.12a6.18,6.18,0,0,0-5.92,4.4H69.19a17.37,17.37,0,0,1-.09,4.26h5.51a6.17,6.17,0,1,0,5.65-8.66Zm0,0"/><path class="cls-2" d="M71.69,65.8a6.25,6.25,0,0,0-2.59.57l-3.75-3.75a18,18,0,0,1-3,3L66.1,69.4a6.17,6.17,0,0,0,5.59,8.76,6.18,6.18,0,0,0,0-12.36Zm0,0"/><path class="cls-2" d="M36.65,62.62,32.9,66.37a6.25,6.25,0,0,0-2.59-.57,6.16,6.16,0,1,0,5.59,3.57l3.77-3.76a17.43,17.43,0,0,1-3-3Zm0,0"/><path class="cls-2" d="M53.12,74.76V69.45a16.53,16.53,0,0,1-2.12.13,16.31,16.31,0,0,1-2.12-.13v5.31a6.17,6.17,0,1,0,4.24,0Zm0,0"/></svg>