<svg id="Layer_1" data-name="Layer 1" xmlns="http://www.w3.org/2000/svg" viewBox="0 0 36.25 36.25"><defs><style>.cls-1{fill:#71cc77;}</style></defs><title>Untitled-2</title><path class="cls-1" d="M1.13,13.59a1.14,1.14,0,0,0,1.14-1.13V2.27H12.46a1.14,1.14,0,0,0,0-2.27H1.13A1.14,1.14,0,0,0,0,1.13V12.46A1.14,1.14,0,0,0,1.13,13.59Z"/><path class="cls-1" d="M35.11,0H23.79a1.14,1.14,0,1,0,0,2.27H34V12.46a1.14,1.14,0,0,0,2.27,0V1.13A1.14,1.14,0,0,0,35.11,0Z"/><path class="cls-1" d="M12.46,34H2.27V23.79a1.14,1.14,0,1,0-2.27,0V35.11a1.14,1.14,0,0,0,1.13,1.14H12.46a1.14,1.14,0,0,0,0-2.27Z"/><path class="cls-1" d="M35.11,22.65A1.14,1.14,0,0,0,34,23.79V34H23.79a1.14,1.14,0,1,0,0,2.27H35.11a1.14,1.14,0,0,0,1.14-1.14V23.79A1.14,1.14,0,0,0,35.11,22.65Z"/><path class="cls-1" d="M16.18,21.41l0-.49a4.3,4.3,0,0,1,1.17-3.24,4.16,4.16,0,0,0,1.31-2.57c0-1-.6-1.6-1.78-1.62a3.32,3.32,0,0,0-1.9.59l-.45-1.19a4.92,4.92,0,0,1,2.68-.75c2.16,0,3.14,1.34,3.14,2.76a5,5,0,0,1-1.62,3.26,3.76,3.76,0,0,0-1.07,2.76l0,.49ZM15.77,24a1.11,1.11,0,0,1,1.12-1.18A1.18,1.18,0,1,1,15.77,24Z"/></svg>