<svg id="Layer_1" data-name="Layer 1" xmlns="http://www.w3.org/2000/svg" viewBox="0 0 102 102"><defs><style>.cls-1{fill:none;}.cls-2{fill:#71cc77;}.cls-3{fill:#fff;}.cls-4{fill:#ff9c56;}</style></defs><title>Home</title><rect class="cls-1" x="47.02" y="22.81" width="32.65" height="63.19"/><circle class="cls-2" cx="51" cy="51" r="51"/><path class="cls-3" d="M67.62,51A16.65,16.65,0,0,0,53.24,35.49q-.63-.09-1.26-.12v3.88H50V35.37A16.62,16.62,0,0,0,34.51,49.74c-.06.43-.09.84-.11,1.26h3.87v2H34.39a16.68,16.68,0,0,0,7,12.6,18.79,18.79,0,0,1,3.49-8.7,7.73,7.73,0,0,1-1.64-5.93A7.83,7.83,0,1,1,58.76,53a7.62,7.62,0,0,1-1.64,3.82,18.79,18.79,0,0,1,3.49,8.69c.15-.11.32-.2.47-.32a16.54,16.54,0,0,0,6.41-11c.06-.42.09-.84.11-1.26H63.73V51Zm0,0"/><path class="cls-3" d="M67.36,39.53a20.56,20.56,0,1,0-.5,25.53,20.41,20.41,0,0,0,.5-25.53Zm2.07,15A18.58,18.58,0,0,1,54.84,70.18l-.39.08c-.27,0-.54.1-.8.13l-.65.08-.65.07c-.37,0-.74,0-1.11,0H51c-.42,0-.84,0-1.27,0s-.85-.08-1.27-.13a17.26,17.26,0,0,1-1.77-.33,18.6,18.6,0,1,1,22.71-15.6Zm0,0"/><path class="cls-3" d="M54.88,57.25a1,1,0,0,1,.22-1.07,5.79,5.79,0,0,0,1.72-3.41,5.87,5.87,0,1,0-9.92,3.41,1,1,0,0,1,.28.84,1,1,0,0,1-.51.72,16.77,16.77,0,0,0-3.43,8.94l.29.16.79.37.68.28c.22.09.48.19.72.27s.6.18.9.26.39.12.59.16c.5.12,1,.22,1.55.3s.84.08,1.26.11V64.71h2v3.88l.35,0,.86-.1.65-.09.61-.13a17.28,17.28,0,0,0,1.84-.5l.11,0c.38-.13.76-.28,1.13-.43l.11,0c.38-.17.75-.35,1.13-.55a16.75,16.75,0,0,0-3.44-8.94,1,1,0,0,1-.45-.49Zm0,0"/><path class="cls-3" d="M70.58,76.46h-2v2H64.71V74.5h-2v3.92H58.83v-2H56.88v2H52v-2H50v2H45.13v-2h-2v2H39.25V74.5h-2v3.92H33.37v-2H31.42v2H27.5v2h47v-2H70.58Zm0,0"/><path class="cls-3" d="M51,27.5a1,1,0,0,0,.78-.39l2.94-3.92a1,1,0,0,0,.09-1,1,1,0,0,0-.87-.54H48.06a1,1,0,0,0-.87.54,1,1,0,0,0,.09,1l2.94,3.92a1,1,0,0,0,.78.39Zm1-3.92-1,1.31-1-1.31Zm0,0"/><circle class="cls-4" cx="51" cy="51" r="51"/><path class="cls-3" d="M67.62,51A16.65,16.65,0,0,0,53.24,35.49q-.63-.09-1.26-.12v3.88H50V35.37A16.62,16.62,0,0,0,34.51,49.74c-.06.43-.09.84-.11,1.26h3.87v2H34.39a16.68,16.68,0,0,0,7,12.6,18.79,18.79,0,0,1,3.49-8.7,7.73,7.73,0,0,1-1.64-5.93A7.83,7.83,0,1,1,58.76,53a7.62,7.62,0,0,1-1.64,3.82,18.79,18.79,0,0,1,3.49,8.69c.15-.11.32-.2.47-.32a16.54,16.54,0,0,0,6.41-11c.06-.42.09-.84.11-1.26H63.73V51Zm0,0"/><path class="cls-3" d="M67.36,39.53a20.56,20.56,0,1,0-.5,25.53,20.41,20.41,0,0,0,.5-25.53Zm2.07,15A18.58,18.58,0,0,1,54.84,70.18l-.39.08c-.27,0-.54.1-.8.13l-.65.08-.65.07c-.37,0-.74,0-1.11,0H51c-.42,0-.84,0-1.27,0s-.85-.08-1.27-.13a17.26,17.26,0,0,1-1.77-.33,18.6,18.6,0,1,1,22.71-15.6Zm0,0"/><path class="cls-3" d="M54.88,57.25a1,1,0,0,1,.22-1.07,5.79,5.79,0,0,0,1.72-3.41,5.87,5.87,0,1,0-9.92,3.41,1,1,0,0,1,.28.84,1,1,0,0,1-.51.72,16.77,16.77,0,0,0-3.43,8.94l.29.16.79.37.68.28c.22.09.48.19.72.27s.6.18.9.26.39.12.59.16c.5.12,1,.22,1.55.3s.84.08,1.26.11V64.71h2v3.88l.35,0,.86-.1.65-.09.61-.13a17.28,17.28,0,0,0,1.84-.5l.11,0c.38-.13.76-.28,1.13-.43l.11,0c.38-.17.75-.35,1.13-.55a16.75,16.75,0,0,0-3.44-8.94,1,1,0,0,1-.45-.49Zm0,0"/><path class="cls-3" d="M70.58,76.46h-2v2H64.71V74.5h-2v3.92H58.83v-2H56.88v2H52v-2H50v2H45.13v-2h-2v2H39.25V74.5h-2v3.92H33.37v-2H31.42v2H27.5v2h47v-2H70.58Zm0,0"/><path class="cls-3" d="M51,27.5a1,1,0,0,0,.78-.39l2.94-3.92a1,1,0,0,0,.09-1,1,1,0,0,0-.87-.54H48.06a1,1,0,0,0-.87.54,1,1,0,0,0,.09,1l2.94,3.92a1,1,0,0,0,.78.39Zm1-3.92-1,1.31-1-1.31Zm0,0"/></svg>