<svg id="Layer_1" data-name="Layer 1" xmlns="http://www.w3.org/2000/svg" viewBox="0 0 102 102"><defs><style>.cls-1{fill:#34e2d9;}.cls-2{fill:#fff;}</style></defs><title>Home</title><circle class="cls-1" cx="51" cy="51" r="51"/><path class="cls-2" d="M75.6,60.35c-1-.08-3.12,1.1-3.69,1.4a61.72,61.72,0,0,0-6.76,4.1l-.44.29A7.73,7.73,0,0,1,62,67.3a83,83,0,0,1-13.36,1.33l-.46,0a.68.68,0,0,1-.1-1.35l11.79-1.17a2.59,2.59,0,0,0,2.19-2.83,2.52,2.52,0,0,0-2.7-2.3l-10.48-.13a11.59,11.59,0,0,1-2.54-.4c-6.75-2-10.56-.13-12.59.76A2.43,2.43,0,0,0,31.47,60L27,60.34a2.72,2.72,0,0,0-2.53,2.91l.72,10.41a2.73,2.73,0,0,0,2.91,2.53l4.52-.32a2.41,2.41,0,0,0,2.07-1.5l19.85.88a10.3,10.3,0,0,0,6.23-1.09l.56-.31,15-9.11a2.54,2.54,0,0,0,1.28-2.08,2.11,2.11,0,0,0-2-2.31ZM29.7,73.72a1.54,1.54,0,1,1,1.54-1.54,1.54,1.54,0,0,1-1.54,1.54Zm0,0"/><path class="cls-2" d="M64.21,62a5,5,0,0,1,.23,1.05,5.18,5.18,0,0,1,0,.88l.47-.34a67.22,67.22,0,0,1,6.43-3.81A14.83,14.83,0,0,1,73.06,59a2.47,2.47,0,0,0-2.46-.22,68.4,68.4,0,0,0-6.37,3.14.24.24,0,0,1,0,.08Zm0,0"/><path class="cls-2" d="M66.55,57.56c-1,.43-3.37,1.22-4.4,1.78a5.09,5.09,0,0,1,1.17,1l.21-.14.75-.44c1.12-.63,3.47-1.49,4.7-2.06a2.49,2.49,0,0,0-2.43-.19Zm0,0"/><path class="cls-2" d="M40.51,41a.43.43,0,0,1,0,.59c-.66,1-1.32,2-1.95,3a1.67,1.67,0,0,0,.85,2.53c1.13.43,2.24.86,3.36,1.27a.43.43,0,0,1,.33.45c0,1.14.17,2.27.16,3.41A1.77,1.77,0,0,0,45.64,54c1.09-.35,2.22-.6,3.32-.92a.41.41,0,0,1,.5.17c.73.91,1.47,1.83,2.22,2.74a1.7,1.7,0,0,0,2.81,0l2.2-2.75a.4.4,0,0,1,.49-.18l3.45.93a1.7,1.7,0,0,0,2.24-1.62c.06-1.18.13-2.36.17-3.55a.46.46,0,0,1,.36-.47c1.09-.4,2.17-.83,3.25-1.26a1.69,1.69,0,0,0,.86-2.64c-.64-1-1.27-2-1.93-2.94a.45.45,0,0,1,0-.59c.64-1,1.26-1.92,1.88-2.89a1.71,1.71,0,0,0-.92-2.73c-1.08-.39-2.15-.82-3.22-1.21a.45.45,0,0,1-.32-.46c-.06-1.18-.12-2.34-.19-3.51a1.7,1.7,0,0,0-2.25-1.64c-1.13.31-2.26.6-3.39.93a.44.44,0,0,1-.55-.18c-.72-.91-1.47-1.82-2.2-2.71a1.69,1.69,0,0,0-2.8,0c-.72.89-1.45,1.78-2.15,2.69a.5.5,0,0,1-.65.21l-3-.82c-1.54-.37-2.45.27-2.54,1.53s-.13,2.37-.17,3.56a.42.42,0,0,1-.32.44c-1.11.42-2.22.84-3.33,1.28a1.67,1.67,0,0,0-.82,2.62c.59,1,1.24,2,1.89,3Zm8.35,5c.11-.39.22-.78.34-1.17s.26-.52.67-.3a6.71,6.71,0,0,0,2.26.68,2.81,2.81,0,0,0,1.49-.2,1.15,1.15,0,0,0,.27-2,3.93,3.93,0,0,0-.84-.49,20.81,20.81,0,0,1-2.31-1,3.25,3.25,0,0,1-1.85-3.14,3.45,3.45,0,0,1,2.52-3.19c.62-.23.62-.22.62-.86v-.66c0-.49.1-.57.58-.58h.45c1,0,1,0,1,1,0,.73,0,.73.73.85a6.42,6.42,0,0,1,1.6.48.48.48,0,0,1,.31.62c-.14.45-.26.9-.4,1.33s-.27.48-.66.29a5,5,0,0,0-2.54-.51,2,2,0,0,0-.68.15,1,1,0,0,0-.24,1.7,4.58,4.58,0,0,0,1.1.62,21.33,21.33,0,0,1,2,.91A3.61,3.61,0,0,1,56.5,46a3.87,3.87,0,0,1-2,1.29.56.56,0,0,0-.49.63c0,.35,0,.71,0,1.06a.43.43,0,0,1-.47.49H52.39A.46.46,0,0,1,51.9,49c0-.26,0-.51,0-.78,0-.56,0-.6-.58-.67a7.78,7.78,0,0,1-2-.58c-.51-.25-.55-.38-.41-.91Zm0,0"/></svg>