<svg xmlns="http://www.w3.org/2000/svg" xmlns:xlink="http://www.w3.org/1999/xlink" width="67" height="67" viewBox="0 0 67 67"><defs><path id="7kzea" d="M49.267 88.615c1.003-8.03 5.52-12.044 5.52-12.044 0-2.05.246-4.042.71-5.95a25.025 25.025 0 0 1 5.257-10.294 25.204 25.204 0 0 1 7.341-5.914 24.974 24.974 0 0 1 11.784-2.934c13.858 0 25.092 11.234 25.092 25.092 0 13.857-10.733 26.095-24.59 26.095-7.528 0-12.045-2.007-16.059-5.018-6.022-5.018-3.01-11.04-3.01-11.04 1.002-3.012 5.598-7.784 11.04-3.012 7.025 7.026-3.012 12.045-3.012 12.045 3.011 4.015 9.033 3.01 9.033 3.01 5.02-5.018 5.326-11.386 4.015-15.055-3.01-11.04-17.369-12.47-23.084-8.03-10.664 8.284-7.026 19.07-4.585 22.546 2.374 3.423 5.888 6.608 9.603 8.569 4.61 2.433 9.982 3.01 15.557 3.01 18.292 0 33.121-14.828 33.121-33.12 0-18.292-14.829-33.121-33.12-33.121-18.294 0-33.693 14.837-33.122 33.12.095 3.075.502 8.03 2.51 12.045z"/></defs><g><g transform="translate(-46 -43)"><use fill="#29aae1" xlink:href="#7kzea"/></g></g></svg>