<?xml version="1.0" encoding="utf-8"?>
<!-- Generator: Adobe Illustrator 23.0.2, SVG Export Plug-In . SVG Version: 6.00 Build 0)  -->
<svg version="1.1" id="Layer_1" xmlns="http://www.w3.org/2000/svg" xmlns:xlink="http://www.w3.org/1999/xlink" x="0px" y="0px"
	 viewBox="0 0 445 378.4" style="enable-background:new 0 0 445 378.4;" xml:space="preserve">
<style type="text/css">
	.st0{fill:#CAFCF7;}
	.st1{fill:#34E2D9;}
	.st2{fill:#FFFFFF;}
	.st3{fill:#E0E0E0;}
	.st4{fill:#D1D3D4;}
	.st5{fill:none;}
	.st6{fill:#F8F9F9;}
	.st7{fill:#CDFCF8;}
	.st8{clip-path:url(#SVGID_2_);}
	.st9{fill:url(#SVGID_3_);}
	.st10{fill:url(#SVGID_4_);}
	.st11{fill:#F9DAC5;}
	.st12{fill:#F2BE9B;}
	.st13{fill:#040B3A;}
	.st14{fill:url(#SVGID_5_);}
	.st15{fill:url(#SVGID_6_);}
	.st16{fill:#F7C9AA;}
	.st17{fill:url(#SVGID_7_);}
	.st18{fill:url(#SVGID_8_);}
	.st19{fill:url(#SVGID_9_);}
	.st20{fill:url(#SVGID_10_);}
	.st21{fill:url(#SVGID_11_);}
	.st22{fill:url(#SVGID_12_);}
</style>
<title>Untitled-1</title>
<path class="st0" d="M24.7,289.8c0,0-92.7-276.3,81.1-281.2S466,134,436,252.1C406.1,370.2,400.3,446.9,24.7,289.8z"/>
<path class="st1" d="M398,226.1l-0.9-1.6c28.4-16.9,42.9-33.6,45.6-52.5c4.9-34.1-27.6-76.4-89.1-142.4
	C334.6,9.3,312.4,0.1,287.7,2.2c-43.8,3.7-88.8,42.4-118.8,74.2c-20.2,21.5-38.7,44.6-55.3,68.9l-1.6-1
	c16.7-24.5,35.2-47.6,55.5-69.2c30.2-32,75.6-71,120-74.8c25.4-2.2,48,7.3,67.4,28c62,66.5,94.6,109.1,89.6,144
	C441.7,191.8,427,208.9,398,226.1z"/>
<path class="st2" d="M34.1,24.6h388.3c2.4,0,4.4,2,4.4,4.4v321.3c0,2.4-2,4.4-4.4,4.4H34.1c-2.4,0-4.4-2-4.4-4.4V29
	C29.6,26.6,31.6,24.6,34.1,24.6z"/>
<path class="st3" d="M422.4,355.2H34.1c-2.7,0-4.9-2.2-4.9-4.9V29c0-2.7,2.2-4.9,4.9-4.9h388.3c2.7,0,4.9,2.2,4.9,4.9l0,0v321.2
	C427.3,353,425.1,355.2,422.4,355.2z M34.1,25.1c-2.2,0-4,1.8-4,4c0,0,0,0,0,0v321.2c0,2.2,1.8,4,4,4h388.3c2.2,0,4-1.8,4-4V29
	c0-2.2-1.8-4-4-4l0,0L34.1,25.1z"/>
<rect x="113.1" y="108" class="st4" width="282.2" height="13"/>
<rect x="113.1" y="136.2" class="st2" width="216.3" height="13"/>
<path class="st4" d="M329.9,149.6H112.6v-13.9h217.3V149.6z M113.5,148.7h215.4v-12.1H113.5L113.5,148.7z"/>
<rect x="113.1" y="165.8" class="st4" width="216.3" height="52.7"/>
<rect x="66.9" y="57" class="st5" width="26.3" height="24.4"/>
<path class="st1" d="M79.2,99.6c-9.6,0-17.3-7.8-17.3-17.3c0-9.6,7.8-17.3,17.3-17.3c9.5,0,17.3,7.8,17.3,17.3
	C96.5,91.9,88.7,99.6,79.2,99.6C79.2,99.6,79.2,99.6,79.2,99.6z M79.2,66.9c-8.5,0-15.4,6.9-15.4,15.5c0,8.5,6.9,15.4,15.5,15.4
	c8.5,0,15.4-6.9,15.4-15.4C94.6,73.8,87.7,66.9,79.2,66.9C79.2,66.9,79.2,66.9,79.2,66.9z"/>
<path class="st1" d="M86,76c-0.1-0.1-0.2-0.1-0.2,0l-14.8,6.9c-0.1,0-0.1,0.1-0.1,0.2c0,0.1,0.1,0.2,0.1,0.2l4.2,2.1
	c0.1,0,0.2,0,0.2,0l4.1-3l-3.2,3.3c0,0-0.1,0.1-0.1,0.2l0.3,4.1c0,0.1,0.1,0.2,0.2,0.2h0.1c0.1,0,0.1,0,0.2-0.1l2.2-2.6l2.8,1.3
	c0.1,0,0.1,0,0.2,0c0.1,0,0.1-0.1,0.1-0.1L86,76.3C86.1,76.2,86,76.1,86,76L86,76z"/>
<path class="st1" d="M112.8,83.6c0.7,0.4,1.4,0.6,2.2,0.6c1.2,0,2-0.7,2-1.6s-0.5-1.4-1.8-1.9c-1.5-0.6-2.5-1.3-2.5-2.7
	c0-1.5,1.2-2.6,3.1-2.6c0.7,0,1.4,0.1,2.1,0.5l-0.3,1c-0.6-0.3-1.2-0.4-1.8-0.4c-1.3,0-1.8,0.8-1.8,1.4c0,0.9,0.6,1.3,1.9,1.8
	c1.6,0.6,2.4,1.4,2.4,2.8c0,1.4-1.1,2.7-3.3,2.7c-0.8,0-1.7-0.2-2.4-0.6L112.8,83.6z"/>
<path class="st1" d="M122,81.9c-0.1,1.2,0.8,2.2,2,2.4c0.1,0,0.2,0,0.4,0c0.6,0,1.3-0.1,1.9-0.3l0.2,0.9c-0.7,0.3-1.5,0.4-2.3,0.4
	c-1.7,0.1-3.2-1.2-3.3-3c0-0.1,0-0.3,0-0.4c0-2.1,1.2-3.7,3.2-3.7c2.2,0,2.8,1.9,2.8,3.2c0,0.2,0,0.4,0,0.6L122,81.9z M125.6,81
	c0.1-1-0.6-1.9-1.5-2c-0.1,0-0.1,0-0.2,0c-1,0.1-1.9,1-1.9,2H125.6z"/>
<path class="st1" d="M129.7,80.1c0-0.7,0-1.3-0.1-1.9h1.1l0.1,1.1l0,0c0.5-0.8,1.3-1.3,2.2-1.3c0.9,0,2.4,0.6,2.4,2.9v4.1h-1.2v-3.9
	c0-1.1-0.4-2-1.6-2c-0.8,0-1.4,0.5-1.7,1.3c-0.1,0.2-0.1,0.4-0.1,0.6v4.1h-1.2L129.7,80.1z"/>
<path class="st1" d="M144.8,75.1v8.2c0,0.6,0,1.3,0.1,1.8h-1.1l-0.1-1.2l0,0c-0.4,0.9-1.4,1.4-2.3,1.4c-1.6,0-2.9-1.4-2.9-3.5
	c0-2.3,1.4-3.6,3-3.6c0.8,0,1.6,0.4,2,1l0,0v-4.1H144.8z M143.5,81c0-0.2,0-0.4-0.1-0.5c-0.2-0.8-0.9-1.4-1.8-1.4
	c-1.3,0-2,1.1-2,2.6s0.7,2.5,2,2.5c0.9,0,1.6-0.6,1.8-1.5c0-0.2,0.1-0.4,0.1-0.5V81z"/>
<rect x="76.4" y="109.4" class="st6" width="7.5" height="169.6"/>
<circle class="st7" cx="81.5" cy="306" r="16.4"/>
<circle class="st5" cx="81.5" cy="306" r="16.4"/>
<g>
	<defs>
		<circle id="SVGID_1_" cx="81.5" cy="306" r="17.3"/>
	</defs>
	<clipPath id="SVGID_2_">
		<use xlink:href="#SVGID_1_"  style="overflow:visible;"/>
	</clipPath>
	<g class="st8">
		
			<radialGradient id="SVGID_3_" cx="85.9683" cy="77.9795" r="9.7563" gradientTransform="matrix(1 0 0 -1 0 378.3805)" gradientUnits="userSpaceOnUse">
			<stop  offset="0" style="stop-color:#040B3A"/>
			<stop  offset="1" style="stop-color:#040B3A"/>
		</radialGradient>
		<path class="st9" d="M79.6,288.6c2.7-0.9,5.7-0.5,8,1.3c1.7,1.3,3,3.1,3.7,5.2c1.5,4.1,1.1,8.6-1.1,12.3c-2,3.4-5.7,5.5-9.7,5.3
			C84.2,305,83.8,296,79.6,288.6z"/>
		
			<radialGradient id="SVGID_4_" cx="77.1903" cy="77.9788" r="9.7569" gradientTransform="matrix(1 0 0 -1 0 378.3805)" gradientUnits="userSpaceOnUse">
			<stop  offset="0" style="stop-color:#040B3A"/>
			<stop  offset="1" style="stop-color:#040B3A"/>
		</radialGradient>
		<path class="st10" d="M83.5,288.6c-2.7-0.9-5.7-0.5-8,1.3c-1.7,1.3-3,3.1-3.7,5.2c-1.5,4.1-1.1,8.6,1.1,12.3
			c2,3.4,5.7,5.5,9.7,5.3C79,305,79.3,296,83.5,288.6z"/>
		<path class="st11" d="M93.6,317.2c-0.6-0.4-1.2-0.7-1.9-0.9l-6.4-2l0,0c-0.4-0.2-0.8-0.6-0.8-1c-0.2-1.8-0.2-3.6-0.2-5.4
			c0,0,0-0.1-0.1-0.1h-5.6c0,0-0.1,0-0.1,0.1c0,1.8,0,3.6-0.2,5.4c0,0.5-0.4,0.9-0.8,1l0,0l-6.4,1.9c-0.6,0.2-1.1,0.4-1.6,0.8
			c-2.6,1.9-2.7,5-2.8,5.6c0,0,0,0.1,0.1,0.1c0,0,0,0,0,0H96c0,0,0.1,0,0.1-0.1c0,0,0,0,0,0C96,322.1,96,319.1,93.6,317.2z"/>
		<path class="st11" d="M93.6,317.2c-0.6-0.4-1.2-0.7-1.9-0.9l-6.4-2l0,0c-0.4-0.2-0.8-0.6-0.8-1c-0.2-1.8-0.2-3.6-0.2-5.4
			c0,0,0-0.1-0.1-0.1h-5.6c0,0-0.1,0-0.1,0.1c0,1.8,0,3.6-0.2,5.4c0,0.5-0.4,0.9-0.8,1l0,0l-6.4,1.9c-0.6,0.2-1.1,0.4-1.6,0.8
			c-2.6,1.9-2.7,5-2.8,5.6c0,0,0,0.1,0.1,0.1c0,0,0,0,0,0H96c0,0,0.1,0,0.1-0.1c0,0,0,0,0,0C96,322.1,96,319.1,93.6,317.2z"/>
		<path class="st12" d="M93.6,317.2c-0.6-0.4-1.2-0.7-1.9-0.9l-0.7-0.2l-5.6-1.8c-0.4-0.2-0.8-0.6-0.8-1c-0.2-1.8-0.2-3.6-0.2-5.4
			c0,0,0-0.1-0.1-0.1h-5.6c0,0-0.1,0-0.1,0.1c0,1.8,0,3.6-0.2,5.4c0,0.5-0.4,0.9-0.8,1l-5.6,1.8l-0.7,0.2c-0.6,0.2-1.1,0.4-1.6,0.8
			c-2.6,1.9-2.7,5-2.8,5.6c0,0,0,0.1,0.1,0.1c0,0,0,0,0,0h29.2c0,0,0.1,0,0.1-0.1c0,0,0,0,0,0C96,322.1,96,319.1,93.6,317.2z"/>
		<path class="st13" d="M96.1,323H66.9c-0.1,0-0.2,0-0.2-0.1c-0.1-0.1-0.1-0.2-0.1-0.3c0-0.1,0-0.2,0-0.3c0.1-2.1,1.1-4.1,2.8-5.5
			c0.5-0.4,1.1-0.7,1.7-0.8l6.4-2c0.3-0.1,0.6-0.5,0.6-0.8c0.2-1.8,0.2-3.6,0.2-5.3c0-0.1,0-0.2,0.1-0.2c0.1-0.1,0.1-0.1,0.2-0.1
			h5.6c0.1,0,0.2,0,0.2,0.1c0.1,0.1,0.1,0.1,0.1,0.2c0,1.8,0,3.6,0.2,5.3c0,0.4,0.3,0.7,0.6,0.8l6.4,2c0.7,0.2,1.4,0.6,2,1
			c1.5,1.3,2.5,3.2,2.6,5.3c0,0.1,0,0.2,0,0.3c0,0.1,0,0.2-0.1,0.3C96.2,322.9,96.2,323,96.1,323z M67.1,322.5h28.8v-0.1
			c-0.1-1.9-1-3.7-2.4-5l0,0c-0.5-0.4-1.2-0.7-1.8-0.9l-6.4-2c-0.5-0.2-0.9-0.7-0.9-1.2c-0.2-1.8-0.2-3.5-0.2-5.3h-5.3
			c0,1.8,0,3.5-0.2,5.3c-0.1,0.5-0.4,1-0.9,1.2l-6.4,2c-0.6,0.2-1.1,0.4-1.6,0.8c-1.6,1.3-2.5,3.1-2.6,5.2L67.1,322.5z"/>
		<path class="st1" d="M90.4,315.7c-0.2,0.9-1,2.9-4.2,3.8h-0.1c-2.9,0.8-5.9,0.8-8.7,0h-0.1c-3.2-0.9-4-2.9-4.2-3.8l-0.9,0.3v6.7
			h19.1V316L90.4,315.7z"/>
		<path class="st12" d="M84.4,310.8c0-1.2,0-2.3,0-2.6c0,0,0-0.1-0.1-0.1h-5.6c0,0-0.1,0-0.1,0.1c0,0,0,0,0,0c0,0.3,0,1.4,0,2.6"/>
		<path class="st13" d="M84.2,310.8c0-1,0-2.1,0-2.5h-5.3c0,0.4,0,1.4,0,2.5h-0.5c0-1.2,0-2.4,0-2.6c0-0.1,0-0.2,0.1-0.2
			c0.1-0.1,0.1-0.1,0.2-0.1h5.6c0.1,0,0.2,0,0.2,0.1c0.1,0.1,0.1,0.1,0.1,0.2c0,0.2,0,1.4,0,2.6H84.2z"/>
		<path class="st12" d="M74.7,300.6c0.5,1.2,0.2,3.1-0.6,3.4c-0.9,0.4-2-0.9-2.5-2.1c-0.5-1.2-0.2-2.5,0.6-2.8
			S74.2,299.4,74.7,300.6z"/>
		<path class="st12" d="M88.2,300.6c-0.5,1.2-0.2,3.1,0.6,3.4c0.9,0.4,2-0.9,2.5-2.1c0.5-1.2,0.2-2.5-0.6-2.8S88.8,299.4,88.2,300.6
			z"/>
		<path class="st12" d="M81.5,288.9c-8.6-0.3-8.7,7.9-8.6,10.6c0.2,2.1,0.6,4.2,1.3,6.2c0.2,0.8,0.7,1.6,1.3,2.2
			c2.2,2.1,6,2.9,6,2.9s3.7-0.7,6-2.9c0.6-0.6,1.1-1.3,1.3-2.2c0.6-2,1.1-4.1,1.3-6.2C90.2,296.8,90.1,288.6,81.5,288.9z"/>
		<path class="st13" d="M81.5,311L81.5,311c-2.3-0.5-4.4-1.5-6.2-2.9c-0.6-0.6-1.1-1.4-1.3-2.3c-0.6-2-1.1-4.1-1.3-6.3
			c-0.1-2.7,0.2-6.4,2.5-8.7c1.7-1.6,4-2.4,6.3-2.2c2.3-0.2,4.6,0.5,6.3,2.1c2.3,2.3,2.7,6,2.5,8.7c-0.2,2.1-0.7,4.2-1.3,6.3
			c-0.2,0.9-0.7,1.6-1.3,2.3C85.9,309.6,83.8,310.6,81.5,311z M81,289.2c-2-0.1-4,0.6-5.5,2c-2.3,2.3-2.5,6.2-2.4,8.3
			c0.2,2.1,0.6,4.2,1.3,6.2c0.2,0.8,0.6,1.5,1.2,2c1.7,1.4,3.7,2.4,5.9,2.8c2.2-0.4,4.2-1.4,5.9-2.8c0.6-0.6,1-1.3,1.2-2
			c0.6-2,1.1-4.1,1.3-6.2c0.1-2.1-0.1-6-2.4-8.3c-1.6-1.5-3.8-2.2-6-2L81,289.2L81,289.2z"/>
		<path class="st13" d="M81.5,307c-0.7,0-1.4-0.3-1.9-0.8L80,306c0.8,0.8,2.2,0.8,3,0l0.4,0.3C83,306.8,82.2,307.1,81.5,307z"/>
		
			<radialGradient id="SVGID_5_" cx="76.9935" cy="78.3957" r="1.2277" gradientTransform="matrix(1 0 0 -1 0 378.3805)" gradientUnits="userSpaceOnUse">
			<stop  offset="0" style="stop-color:#040B3A"/>
			<stop  offset="1" style="stop-color:#040B3A"/>
		</radialGradient>
		<path class="st14" d="M77,298.7c0.7-0.1,1.4,0.4,1.5,1.1c0.1,0.7-0.4,1.4-1.1,1.5c-0.7,0.1-1.4-0.4-1.5-1.1c0-0.1,0-0.1,0-0.2
			C75.8,299.3,76.3,298.7,77,298.7z"/>
		
			<radialGradient id="SVGID_6_" cx="85.6404" cy="78.397" r="1.2265" gradientTransform="matrix(1 0 0 -1 0 378.3805)" gradientUnits="userSpaceOnUse">
			<stop  offset="0" style="stop-color:#040B3A"/>
			<stop  offset="1" style="stop-color:#040B3A"/>
		</radialGradient>
		<ellipse class="st15" cx="85.6" cy="300" rx="1.1" ry="1.3"/>
		<path class="st16" d="M77,303.1c0,0.7-0.6,1.2-1.2,1.2s-1.2-0.6-1.2-1.2c0-0.7,0.6-1.2,1.2-1.2c0,0,0,0,0,0
			C76.4,301.9,77,302.5,77,303.1z"/>
		<path class="st16" d="M88,303.1c0,0.7-0.6,1.2-1.2,1.2s-1.2-0.6-1.2-1.2c0-0.7,0.6-1.2,1.2-1.2c0,0,0,0,0,0
			C87.4,301.9,88,302.4,88,303.1C88,303.1,88,303.1,88,303.1z"/>
		
			<radialGradient id="SVGID_7_" cx="86.5772" cy="78.6218" r="0.534" gradientTransform="matrix(1 0 0 -1 0 378.3805)" gradientUnits="userSpaceOnUse">
			<stop  offset="0" style="stop-color:#040B3A"/>
			<stop  offset="1" style="stop-color:#040B3A"/>
		</radialGradient>
		<polygon class="st17" points="85.9,299.8 87.3,299.4 86.7,300.1 		"/>
		
			<radialGradient id="SVGID_8_" cx="76.0567" cy="78.6218" r="0.534" gradientTransform="matrix(1 0 0 -1 0 378.3805)" gradientUnits="userSpaceOnUse">
			<stop  offset="0" style="stop-color:#040B3A"/>
			<stop  offset="1" style="stop-color:#040B3A"/>
		</radialGradient>
		<polygon class="st18" points="76.7,299.8 75.4,299.4 75.9,300.1 		"/>
		
			<radialGradient id="SVGID_9_" cx="81.4918" cy="82.2098" r="8.9528" gradientTransform="matrix(1 0 0 -1 0 378.3805)" gradientUnits="userSpaceOnUse">
			<stop  offset="0" style="stop-color:#040B3A"/>
			<stop  offset="1" style="stop-color:#040B3A"/>
		</radialGradient>
		<path class="st19" d="M81.5,288.3c-3.1-1-11.7,3.3-9.4,10.4c0.1,0,1,4.2,2.6,5.6c-0.8-1-1.1-2.3-0.8-3.6c0.2-0.9,0.5-1.8,0.9-2.7
			c3.3-1.6,5.7-5.8,6.7-6.7c0.9,0.9,3.7,4.6,6.6,6.4c0.5,0.9,0.8,1.9,1,2.9c0.3,1.3,0,2.6-0.8,3.6c1.5-1.4,2.5-5.6,2.6-5.6
			C93.2,291.5,84.5,287.2,81.5,288.3z"/>
		
			<radialGradient id="SVGID_10_" cx="87.2705" cy="66.8179" r="3.1571" gradientTransform="matrix(1 0 0 -1 0 378.3805)" gradientUnits="userSpaceOnUse">
			<stop  offset="0" style="stop-color:#040B3A"/>
			<stop  offset="1" style="stop-color:#040B3A"/>
		</radialGradient>
		<path class="st20" d="M87.8,312.9c0.6-0.8,1.6-1.3,2.1-2.1c0.3-0.6,0.4-1.3,0.1-2c-0.1-0.2-0.1-0.3-0.2-0.4
			c-0.6-0.2-1.2-0.2-1.8-0.2c-2.2,0.3-3.8,2.4-3.5,4.6c0.1,0.6,0.3,1.2,0.7,1.7c0.4,0.5,1.2,0.7,1.7,0.3c0.2-0.2,0.4-0.4,0.5-0.7
			C87.4,313.6,87.6,313.2,87.8,312.9z"/>
		
			<radialGradient id="SVGID_11_" cx="-3453.9146" cy="621.8356" r="2.4627" gradientTransform="matrix(-1 0 0 1 -3366.1299 -307.48)" gradientUnits="userSpaceOnUse">
			<stop  offset="0" style="stop-color:#040B3A"/>
			<stop  offset="1" style="stop-color:#040B3A"/>
		</radialGradient>
		<path class="st21" d="M87.4,313.3c-0.5,0.6-1.2,1-1.6,1.7c-0.3,0.5-0.3,1-0.1,1.6c0.1,0.1,0.1,0.2,0.2,0.4
			c0.5,0.1,0.9,0.2,1.4,0.1c1.5-0.2,2.7-1.5,2.7-3c0-0.7-0.2-1.3-0.5-1.9c-0.3-0.4-0.9-0.6-1.3-0.3c-0.2,0.1-0.4,0.4-0.4,0.6
			C87.7,312.8,87.6,313,87.4,313.3z"/>
		
			<radialGradient id="SVGID_12_" cx="86.9145" cy="59.1128" r="2.6161" gradientTransform="matrix(1 0 0 -1 0 378.3805)" gradientUnits="userSpaceOnUse">
			<stop  offset="0" style="stop-color:#040B3A"/>
			<stop  offset="1" style="stop-color:#040B3A"/>
		</radialGradient>
		<path class="st22" d="M86.1,316.8c-0.5,0.3-0.8,0.9-0.8,1.5c0,0.5,0.2,1,0.2,1.5c0.1,0.8-0.3,1.6-0.9,2.2c1.8,0.7,3.8-0.2,4.5-2
			c0.2-0.4,0.2-0.8,0.2-1.3c0-0.5-0.1-1-0.4-1.4C88.2,316.4,87,316.2,86.1,316.8z"/>
	</g>
</g>
<path class="st1" d="M81.5,323.3c-9.6,0-17.3-7.7-17.3-17.3c0-9.6,7.7-17.3,17.3-17.3c9.6,0,17.3,7.7,17.3,17.3c0,0,0,0,0,0
	C98.8,315.6,91.1,323.3,81.5,323.3z M81.5,289.7c-9,0-16.4,7.3-16.4,16.4s7.3,16.4,16.4,16.4S97.9,315,97.9,306l0,0
	C97.9,297,90.5,289.7,81.5,289.7z"/>
<rect x="113.1" y="233.8" class="st2" width="282.2" height="41.2"/>
<path class="st4" d="M395.7,275.4H112.6v-42.2h283.2V275.4z M113.5,274.5h281.3v-40.3H113.5L113.5,274.5z"/>
<path class="st4" d="M113.8,301.8c0.8-0.2,1.7-0.2,2.5-0.2c1-0.1,2.1,0.2,2.9,0.8c0.5,0.5,0.8,1.2,0.8,1.9c0,1.2-0.7,2.2-1.9,2.6v0
	c0.8,0.4,1.4,1.1,1.5,2c0.2,1,0.4,1.9,0.8,2.8H119c-0.3-0.8-0.5-1.6-0.7-2.4c-0.3-1.4-0.8-1.9-2-2H115v4.4h-1.3L113.8,301.8z
	 M115,306.4h1.3c1.4,0,2.3-0.8,2.3-1.9c0-1.3-0.9-1.9-2.3-1.9c-0.4,0-0.9,0-1.3,0.1V306.4z"/>
<path class="st4" d="M127.4,311.8l-0.1-0.9l0,0c-0.5,0.7-1.4,1.1-2.2,1.1c-1.1,0.1-2.1-0.8-2.2-1.9c0-0.1,0-0.1,0-0.2
	c0-1.8,1.6-2.7,4.4-2.7V307c0.1-0.8-0.5-1.6-1.3-1.7c-0.1,0-0.2,0-0.4,0c-0.7,0-1.3,0.2-1.9,0.5l-0.3-0.9c0.7-0.4,1.5-0.7,2.4-0.6
	c2.2,0,2.8,1.5,2.8,3v2.7c0,0.6,0,1.2,0.1,1.7L127.4,311.8z M127.2,308.1c-1.4,0-3.1,0.2-3.1,1.6c-0.1,0.6,0.4,1.2,1.1,1.3
	c0.1,0,0.1,0,0.2,0c0.8,0,1.5-0.5,1.8-1.2c0-0.1,0.1-0.3,0.1-0.4V308.1z"/>
<path class="st4" d="M131.9,310.4c0.5,0.3,1.1,0.5,1.7,0.5c0.9,0,1.4-0.5,1.4-1.1s-0.4-0.9-1.3-1.3c-1.3-0.5-1.9-1.2-1.9-2
	c0.1-1.2,1.1-2.2,2.3-2.1c0.1,0,0.1,0,0.2,0c0.6,0,1.2,0.1,1.8,0.4l-0.3,0.9c-0.4-0.3-1-0.4-1.5-0.4c-0.8,0-1.2,0.4-1.2,1
	s0.4,0.9,1.4,1.2c1.3,0.5,1.9,1.1,1.9,2.2c0,1.3-1,2.2-2.7,2.2c-0.7,0-1.4-0.2-2-0.5L131.9,310.4z"/>
<path class="st4" d="M139.6,301.2h1.3v4.5l0,0c0.2-0.4,0.5-0.7,0.9-0.9c0.4-0.2,0.9-0.4,1.3-0.4c0.9,0,2.5,0.6,2.5,3.1v4.3h-1.3
	v-4.2c0-1.2-0.4-2.2-1.7-2.2c-0.8,0-1.5,0.5-1.8,1.3c-0.1,0.2-0.1,0.4-0.1,0.6v4.4h-1.3V301.2z"/>
<path class="st4" d="M150.1,308.4c-0.1,1.3,0.8,2.4,2.1,2.5c0.1,0,0.3,0,0.4,0c0.7,0,1.4-0.1,2-0.4l0.2,0.9
	c-0.8,0.3-1.6,0.5-2.4,0.4c-1.9,0.1-3.5-1.3-3.6-3.1c0-0.2,0-0.3,0-0.5c0-2.2,1.3-3.9,3.4-3.9c2.4,0,3,2.1,3,3.4c0,0.2,0,0.4,0,0.6
	H150.1z M153.9,307.5c0.2-1-0.6-2-1.6-2.1c-0.1,0-0.2,0-0.3,0c-1.1,0.1-2,1-2,2.1H153.9z"/>
<path class="st4" d="M158.3,301.2h1.3v10.6h-1.3V301.2z"/>
<path class="st4" d="M167.9,310.2c0.7,0.4,1.5,0.6,2.3,0.7c1.3,0,2.1-0.7,2.1-1.7c0-1-0.5-1.5-1.9-2c-1.6-0.6-2.7-1.4-2.7-2.9
	c0-1.6,1.3-2.7,3.3-2.7c0.8,0,1.5,0.1,2.2,0.5l-0.4,1.1c-0.6-0.3-1.2-0.5-1.9-0.5c-1.4,0-1.9,0.8-1.9,1.5c0,0.9,0.6,1.4,2,1.9
	c1.7,0.7,2.6,1.5,2.6,3s-1.2,2.9-3.5,2.9c-0.9,0-1.8-0.2-2.6-0.6L167.9,310.2z"/>
<path class="st4" d="M180.9,311.8l-0.1-0.9l0,0c-0.5,0.7-1.4,1.1-2.3,1.1c-1.1,0.1-2.1-0.8-2.2-1.9c0-0.1,0-0.1,0-0.2
	c0-1.8,1.6-2.7,4.4-2.7V307c0.1-0.8-0.5-1.6-1.3-1.7c-0.1,0-0.2,0-0.4,0c-0.7,0-1.3,0.2-1.9,0.5l-0.3-0.9c0.7-0.4,1.5-0.7,2.4-0.6
	c2.2,0,2.7,1.5,2.7,3v2.7c0,0.6,0,1.2,0.1,1.7L180.9,311.8z M180.7,308.1c-1.4,0-3.1,0.2-3.1,1.6c-0.1,0.6,0.4,1.2,1.1,1.3
	c0.1,0,0.1,0,0.2,0c0.8,0,1.5-0.5,1.8-1.2c0-0.1,0.1-0.3,0.1-0.4V308.1z"/>
<path class="st4" d="M185.6,306.5c0-0.7,0-1.4-0.1-2h1.2l0.1,1.2l0,0c0.4-0.8,1.3-1.4,2.3-1.3c0.9,0,1.8,0.6,2.1,1.5l0,0
	c0.2-0.4,0.5-0.7,0.8-0.9c0.5-0.4,1-0.5,1.6-0.5c0.9,0,2.4,0.6,2.4,3.1v4.3h-1.3v-4.1c0-1.4-0.5-2.2-1.6-2.2c-0.7,0-1.3,0.5-1.6,1.2
	c-0.1,0.2-0.1,0.4-0.1,0.7v4.5h-1.2v-4.3c0-1.2-0.5-2-1.5-2c-0.8,0-1.4,0.6-1.6,1.3c-0.1,0.2-0.1,0.4-0.1,0.6v4.4h-1.3L185.6,306.5z
	"/>
<path class="st4" d="M289.8,308.2c-0.1-1-0.1-2.3-0.1-3.3l0,0c-0.3,0.9-0.6,1.8-0.9,2.9l-1.3,3.7h-0.8l-1.2-3.6
	c-0.4-1.1-0.7-2-0.9-2.9l0,0c0,0.9-0.1,2.2-0.1,3.3l-0.2,3.2h-0.9l0.5-7.6h1.2l1.3,3.7c0.3,0.9,0.6,1.8,0.8,2.5l0,0
	c0.2-0.8,0.5-1.6,0.8-2.5l1.3-3.7h1.2l0.5,7.6H290L289.8,308.2z"/>
<path class="st4" d="M296.7,311.5l-0.1-0.7l0,0c-0.4,0.5-1,0.8-1.7,0.8c-0.9,0.1-1.6-0.6-1.7-1.4c0,0,0-0.1,0-0.1c0-1.3,1.2-2,3.3-2
	v-0.1c0.1-0.6-0.3-1.2-1-1.3c-0.1,0-0.2,0-0.3,0c-0.5,0-1,0.1-1.4,0.4l-0.2-0.7c0.5-0.3,1.2-0.5,1.8-0.5c1.7,0,2.1,1.1,2.1,2.2v2
	c0,0.4,0,0.9,0.1,1.3L296.7,311.5z M296.5,308.7c-1.1,0-2.3,0.2-2.3,1.2c0,0.5,0.3,0.9,0.8,0.9c0,0,0.1,0,0.1,0
	c0.6,0,1.1-0.4,1.3-0.9c0-0.1,0.1-0.2,0.1-0.3V308.7z"/>
<path class="st4" d="M300.5,306l1.2,3.2c0.1,0.4,0.3,0.8,0.3,1.1l0,0c0.1-0.3,0.2-0.7,0.3-1.1l1.1-3.2h1l-1.5,3.9
	c-0.7,1.9-1.2,2.8-1.9,3.4c-0.3,0.3-0.8,0.5-1.2,0.6l-0.3-0.8c0.3-0.1,0.6-0.3,0.9-0.5c0.4-0.3,0.6-0.7,0.8-1.1
	c0-0.1,0.1-0.2,0.1-0.2c0-0.1,0-0.2-0.1-0.3l-2-5L300.5,306z"/>
<path class="st4" d="M311.8,305.1L311.8,305.1l-1.3,0.7l-0.2-0.8l1.6-0.8h0.8v7.3h-0.9L311.8,305.1z"/>
<path class="st4" d="M317.1,310.8c0.3,0,0.5,0,0.8,0c0.6-0.1,1.1-0.3,1.5-0.7c0.5-0.5,0.9-1.2,0.9-1.9l0,0c-0.8,0.9-2.2,1-3.1,0.3
	c-0.5-0.4-0.8-1.1-0.8-1.7c0-1.4,1-2.5,2.4-2.6c0,0,0,0,0.1,0c1.5,0,2.4,1.2,2.4,3.1c0.1,1.3-0.4,2.5-1.3,3.4
	c-0.6,0.5-1.3,0.9-2.1,0.9c-0.3,0-0.6,0.1-0.9,0.1L317.1,310.8z M317.5,306.6c-0.1,0.8,0.5,1.5,1.3,1.5c0,0,0.1,0,0.1,0
	c0.6,0,1.1-0.3,1.4-0.8c0.1-0.1,0.1-0.2,0.1-0.4c0-1.2-0.5-2.2-1.5-2.2C318.1,304.8,317.5,305.5,317.5,306.6z"/>
<path class="st4" d="M323.1,312.8c0.3-0.9,0.5-1.8,0.7-2.7l1.1-0.1c-0.3,0.9-0.6,1.9-1.1,2.7L323.1,312.8z"/>
<path class="st4" d="M326.9,311.5v-0.6l0.8-0.7c1.9-1.8,2.7-2.7,2.7-3.8c0.1-0.7-0.4-1.4-1.2-1.4c-0.1,0-0.2,0-0.3,0
	c-0.6,0-1.1,0.2-1.5,0.6l-0.3-0.7c0.6-0.5,1.3-0.7,2.1-0.7c1.1-0.1,2.1,0.7,2.2,1.9c0,0.1,0,0.2,0,0.3c0,1.3-0.9,2.4-2.5,3.9
	l-0.6,0.5l0,0h3.3v0.8L326.9,311.5z"/>
<path class="st4" d="M338.6,307.7c0,2.5-0.9,3.8-2.5,3.8c-1.4,0-2.4-1.3-2.4-3.7s1-3.8,2.5-3.8S338.6,305.4,338.6,307.7z
	 M334.6,307.9c0,1.9,0.6,3,1.5,3s1.5-1.2,1.5-3s-0.5-3-1.5-3C335.3,304.8,334.6,305.9,334.6,307.9z"/>
<path class="st4" d="M342.8,305.1L342.8,305.1l-1.3,0.7l-0.2-0.8l1.6-0.8h0.8v7.3h-0.9L342.8,305.1z"/>
<path class="st4" d="M347.4,309.6c0-0.9,0.6-1.7,1.4-1.9l0,0c-0.7-0.3-1.1-0.9-1.2-1.6c0.1-1.1,1-2,2.1-1.9c0,0,0.1,0,0.1,0
	c1-0.1,2,0.6,2.1,1.6c0,0.1,0,0.1,0,0.2c0,0.8-0.5,1.4-1.2,1.7l0,0c0.8,0.2,1.4,1,1.5,1.9c-0.1,1.2-1.1,2.2-2.3,2.1c0,0-0.1,0-0.1,0
	C348.3,311.6,347.4,310.7,347.4,309.6z M351.3,309.6c0-0.9-0.6-1.3-1.6-1.6c-0.7,0.1-1.3,0.8-1.3,1.5c0,0.7,0.6,1.4,1.3,1.4
	c0.1,0,0.1,0,0.2,0c0.7,0.1,1.4-0.5,1.4-1.2C351.3,309.7,351.3,309.6,351.3,309.6L351.3,309.6z M348.6,305.9c0,0.7,0.6,1.1,1.4,1.3
	c0.6-0.1,1.1-0.7,1.1-1.3c0-0.6-0.4-1.2-1.1-1.2c-0.1,0-0.1,0-0.2,0c-0.6-0.1-1.2,0.4-1.3,1C348.6,305.8,348.6,305.9,348.6,305.9
	L348.6,305.9z"/>
<path class="st4" d="M353.9,312l3.1-8.1h0.8l-3.1,8.1H353.9z"/>
<path class="st4" d="M364.2,307.7c0,2.5-0.9,3.8-2.5,3.8c-1.4,0-2.4-1.3-2.4-3.7c0-2.4,1-3.8,2.5-3.8S364.2,305.4,364.2,307.7z
	 M360.2,307.9c0,1.9,0.6,3,1.5,3c0.9,0,1.5-1.2,1.5-3s-0.5-3-1.5-3C360.9,304.8,360.2,305.9,360.2,307.9z"/>
<path class="st4" d="M366.2,311.5v-0.6l0.8-0.7c1.9-1.8,2.7-2.7,2.7-3.8c0.1-0.7-0.4-1.4-1.2-1.4c-0.1,0-0.2,0-0.3,0
	c-0.6,0-1.1,0.2-1.5,0.6l-0.3-0.7c0.6-0.5,1.3-0.7,2.1-0.7c1.1-0.1,2.1,0.7,2.2,1.9c0,0.1,0,0.2,0,0.3c0,1.3-1,2.4-2.5,3.9l-0.6,0.5
	l0,0h3.3v0.8L366.2,311.5z"/>
<path class="st4" d="M373.2,306.9c0-0.4,0.2-0.7,0.6-0.7c0.4,0,0.7,0.2,0.7,0.6c0,0.1,0,0.1,0,0.2c0,0.4-0.2,0.7-0.6,0.7
	c-0.4,0-0.7-0.2-0.7-0.6C373.2,307.1,373.2,307,373.2,306.9z M373.2,310.9c0-0.4,0.2-0.7,0.6-0.7c0.4,0,0.7,0.2,0.7,0.6
	c0,0.1,0,0.1,0,0.2c0,0.4-0.2,0.7-0.6,0.7c-0.4,0-0.7-0.2-0.7-0.6C373.2,311,373.2,311,373.2,310.9z"/>
<path class="st4" d="M376.5,311.5v-0.6l0.8-0.7c1.9-1.8,2.7-2.7,2.7-3.8c0.1-0.7-0.4-1.4-1.2-1.4c-0.1,0-0.2,0-0.3,0
	c-0.6,0-1.1,0.2-1.5,0.6l-0.3-0.7c0.6-0.5,1.3-0.7,2.1-0.7c1.1-0.1,2.1,0.7,2.2,1.9c0,0.1,0,0.2,0,0.3c0,1.3-0.9,2.4-2.5,3.9
	l-0.6,0.5l0,0h3.3v0.8L376.5,311.5z"/>
<path class="st4" d="M383.6,310.3c0.5,0.3,1.1,0.4,1.6,0.5c1.3,0,1.7-0.8,1.6-1.4c0-1-0.9-1.5-1.9-1.5h-0.5v-0.7h0.6
	c0.7,0,1.6-0.4,1.6-1.2c0-0.6-0.4-1.1-1.3-1.1c-0.5,0-1,0.2-1.5,0.5l-0.3-0.7c0.6-0.4,1.2-0.6,1.9-0.6c1.4,0,2.1,0.9,2.1,1.7
	c0,0.8-0.6,1.5-1.3,1.7l0,0c0.9,0.1,1.6,0.9,1.6,1.9c0,1.2-0.9,2.2-2.7,2.2c-0.7,0-1.3-0.2-1.9-0.5L383.6,310.3z"/>
<path class="st1" d="M316.7,61.7H388c4.8,0,8.8,3.9,8.8,8.8v13.4c0,4.8-3.9,8.8-8.8,8.8h-71.3c-4.8,0-8.8-3.9-8.8-8.8V70.5
	C307.9,65.6,311.8,61.7,316.7,61.7z"/>
<path class="st2" d="M324.1,73.1v10.2h-1.3V73.1H324.1z"/>
<path class="st2" d="M328.1,77.9c0-0.8,0-1.4-0.1-2h1.2l0.1,1.2l0,0c0.5-0.9,1.4-1.4,2.4-1.4c1,0,2.6,0.6,2.6,3.1v4.4H333v-4.2
	c0-1.2-0.4-2.2-1.7-2.2c-0.8,0-1.6,0.6-1.8,1.4c-0.1,0.2-0.1,0.4-0.1,0.6v4.4h-1.3V77.9z"/>
<path class="st2" d="M337.9,81.9c0.5,0.3,1.1,0.5,1.8,0.5c0.9,0,1.4-0.5,1.4-1.1c0-0.6-0.4-0.9-1.4-1.3c-1.3-0.5-1.9-1.2-1.9-2.1
	c0.1-1.3,1.1-2.2,2.4-2.2c0.1,0,0.1,0,0.2,0c0.6,0,1.3,0.2,1.8,0.5l-0.3,0.9c-0.4-0.3-1-0.4-1.5-0.4c-0.8,0-1.2,0.5-1.2,1
	s0.4,0.9,1.4,1.2c1.3,0.5,1.9,1.1,1.9,2.2c0,1.3-1,2.2-2.7,2.2c-0.7,0-1.4-0.2-2.1-0.5L337.9,81.9z"/>
<path class="st2" d="M346.3,79.9c-0.1,1.3,0.8,2.5,2.1,2.6c0.1,0,0.3,0,0.4,0c0.7,0,1.4-0.1,2-0.4l0.2,0.9c-0.8,0.3-1.6,0.5-2.4,0.4
	c-1.9,0.1-3.5-1.3-3.6-3.2c0-0.2,0-0.4,0-0.6c0-2.2,1.3-4,3.4-4c2.4,0,3,2.1,3,3.5c0,0.3,0,0.5,0,0.6L346.3,79.9z M350.2,78.9
	c0.2-1-0.5-2-1.5-2.1c-0.1,0-0.2,0-0.3,0c-1.1,0.1-2,1-2.1,2.2H350.2z"/>
<path class="st2" d="M354.7,78.2c0-0.9,0-1.6-0.1-2.3h1.2v1.4h0.1c0.3-0.9,1.1-1.6,2-1.6c0.1,0,0.3,0,0.4,0v1.3c-0.2,0-0.3,0-0.5,0
	c-0.9,0-1.7,0.8-1.8,1.7c0,0.2-0.1,0.4-0.1,0.6v3.9h-1.3L354.7,78.2z"/>
<path class="st2" d="M363.2,73.8v2.1h1.9v1h-1.9v4c0,0.9,0.3,1.4,1,1.4c0.3,0,0.5,0,0.8-0.1l0.1,1c-0.4,0.1-0.8,0.2-1.2,0.2
	c-0.5,0-1.1-0.2-1.4-0.6c-0.4-0.5-0.6-1.2-0.5-1.9v-4h-1.2v-1h1.1v-1.8L363.2,73.8z"/>
<polyline class="st2" points="384.5,76.9 380.4,81 376.2,76.9 "/>
<path class="st0" d="M194,70.9c0.7,0.7,0.7,1.7,0,2.4c0,0,0,0,0,0l-0.9,0.9l-3-3l0.9-0.9c0.7-0.7,1.7-0.7,2.4,0c0,0,0,0,0,0
	L194,70.9z"/>
<path class="st0" d="M193.2,74.2l-7.9,7.9l0,0l-3-3l7.9-7.9L193.2,74.2z"/>
<path class="st0" d="M182.3,79.1l3,3l0,0l-4.2,1.2L182.3,79.1z"/>
<path class="st1" d="M193.5,81.7c-0.3,0-0.5,0.2-0.5,0.5v4.4c0,0.8-0.7,1.5-1.5,1.5l0,0h-13.8c-0.8,0-1.5-0.7-1.5-1.5V73.7
	c0-0.8,0.7-1.5,1.5-1.5h4.4c0.3,0,0.5-0.2,0.5-0.5l0,0c0-0.3-0.2-0.5-0.5-0.5c0,0,0,0,0,0h-4.4c-1.4,0-2.5,1.1-2.5,2.5v12.8
	c0,1.4,1.1,2.5,2.4,2.5c0,0,0,0,0,0h13.8c1.4,0,2.5-1.1,2.5-2.5v-4.4C194,81.9,193.8,81.7,193.5,81.7
	C193.5,81.7,193.5,81.7,193.5,81.7L193.5,81.7z"/>
<path class="st1" d="M193.8,70c-0.9-0.9-2.3-0.9-3.1,0l-8.8,8.8c-0.1,0.1-0.1,0.1-0.1,0.2l-1.2,4.2c0,0.2,0,0.4,0.1,0.5
	c0.1,0.1,0.3,0.2,0.5,0.1l4.2-1.2c0.1,0,0.2-0.1,0.2-0.1l0,0l8.7-8.7c0.9-0.9,0.9-2.3,0-3.1L193.8,70z M182.5,80l1.9,1.9l-2.6,0.7
	L182.5,80z M185.3,82.1L185.3,82.1l0.3,0.3L185.3,82.1z M185.3,81.4l-2.3-2.3l7.2-7.2l2.3,2.3L185.3,81.4z M193.8,73l-0.5,0.5
	l-2.4-2.3l0.5-0.5c0.5-0.5,1.3-0.5,1.7,0l0.6,0.6C194.2,71.7,194.2,72.5,193.8,73L193.8,73z"/>
<rect x="175.3" y="69.3" class="st5" width="19.7" height="19.7"/>
<path class="st1" d="M214.7,82.1v-7.9h3.9c1.6,0,2.6,0.7,2.6,2c0,0.9-0.7,1.6-1.6,1.7l0,0c1.1,0,1.9,0.8,2,1.9
	c0,1.4-1.1,2.3-2.8,2.3L214.7,82.1z M217,77.3h0.9c0.6,0,0.9-0.3,0.9-0.8c0-0.5-0.4-0.8-0.9-0.8H217V77.3z M218,80.5
	c0.7,0,1.1-0.3,1.1-0.9s-0.4-0.9-1.1-0.9h-1v1.8L218,80.5z"/>
<path class="st1" d="M228.2,73.7h1l-1.3,8.4h-1L228.2,73.7z"/>
<path class="st1" d="M236.2,79.2c0.1,1.1,1,1.9,2.1,1.8c1-0.1,1.8-0.9,1.8-1.8v-5h1.2v5.2c0,1.7-1.2,2.9-3.2,2.9
	c-2,0-3.2-1.2-3.2-2.9v-5.2h1.2L236.2,79.2z"/>
<rect x="232.8" y="83.7" class="st1" width="10.7" height="1.9"/>
<path class="st1" d="M277.1,74.7h2.9c1.7,0,3.1,1.4,3.1,3.1v2.9c0,1.7-1.4,3.1-3.1,3.1h-2.9c-1.7,0-3.1-1.4-3.1-3.1v-2.9
	C274,76,275.3,74.7,277.1,74.7z"/>
<path class="st4" d="M269.8,79.5h-1.2l-0.3,0.9h-0.5l1.1-3.1h0.5l1.1,3.1h-0.5L269.8,79.5z M268.7,79.1h0.9l-0.5-1.4l0,0L268.7,79.1
	z"/>
<rect x="267.2" y="80.9" class="st1" width="3.9" height="1.4"/>
<polyline class="st2" points="290.9,78.3 288.9,80.3 286.9,78.3 "/>
<polygon class="st3" points="288.9,81 286.6,78.7 287.2,78 288.9,79.7 290.6,78 291.2,78.7 "/>
</svg>
