<svg id="Layer_1" data-name="Layer 1" xmlns="http://www.w3.org/2000/svg" viewBox="0 0 447.4 415.24"><defs><style>.cls-1{fill:#e3ffe3;}.cls-2{fill:#71cc77;}.cls-3{fill:#fff;}.cls-4{fill:#e0e0e0;}.cls-5{fill:none;}.cls-6{fill:#d6fcd7;}.cls-7{fill:#d1d3d4;}.cls-8{fill:#f8f9f9;}.cls-9{fill:#c7c7c7;}.cls-10{fill:#f9f7f7;}.cls-11{fill:#adadad;}.cls-12{fill:#949494;}</style></defs><title>Untitled-1</title><path class="cls-1" d="M84,401.63S-55.95,407,25.44,255.74,16,53.17,16,53.17-38-34.71,117.28,15.49,500.6,131.49,436.22,203,285.49,400.29,84,401.63Z"/><path class="cls-2" d="M349.15,415.24a249.61,249.61,0,0,1-32.3-2.26c-29.27-3.84-63.46-12.54-101.62-25.85A1005.64,1005.64,0,0,1,95.07,335.6l.47-.89a1002.09,1002.09,0,0,0,120,51.48c59.82,20.87,140.83,40.84,187.1,17.44,20.38-10.31,32.66-28.33,36.49-53.56,8-52.46-6.63-125.16-39-194.47C367.56,86,324.84,37,285.84,24.48c-34.53-11-64.88,7-87.79,52.28l-.9-.45c23.17-45.75,53.94-64,89-52.78C325.4,36.09,368.35,85.3,401,155.18c32.5,69.48,47.12,142.39,39.13,195-3.88,25.57-16.34,43.84-37,54.3C389,411.66,370.92,415.24,349.15,415.24Z"/><rect class="cls-3" x="15.05" y="18.4" width="387.13" height="366.1" rx="4.72"/><path class="cls-4" d="M397.45,385H19.77a5.22,5.22,0,0,1-5.22-5.22V23.12a5.22,5.22,0,0,1,5.22-5.22H397.45a5.23,5.23,0,0,1,5.23,5.22V379.78A5.23,5.23,0,0,1,397.45,385ZM19.77,18.9a4.23,4.23,0,0,0-4.22,4.22V379.78A4.23,4.23,0,0,0,19.77,384H397.45a4.23,4.23,0,0,0,4.23-4.22V23.12a4.23,4.23,0,0,0-4.23-4.22Z"/><rect class="cls-5" x="38.51" y="44.69" width="26.28" height="24.33"/><circle class="cls-3" cx="50.79" cy="56.85" r="16.33"/><path class="cls-2" d="M50.79,73.69A16.84,16.84,0,1,1,67.62,56.85,16.85,16.85,0,0,1,50.79,73.69Zm0-32.67A15.84,15.84,0,1,0,66.62,56.85,15.85,15.85,0,0,0,50.79,41Z"/><path class="cls-2" d="M57.59,49.86a.25.25,0,0,0-.25,0L42.56,56.69a.23.23,0,0,0-.13.21.24.24,0,0,0,.12.2l4.19,2.06a.22.22,0,0,0,.23,0l4.07-3-3.19,3.29a.2.2,0,0,0-.06.18l.31,4.14a.24.24,0,0,0,.16.2h.07a.21.21,0,0,0,.17-.08l2.22-2.58,2.75,1.32a.25.25,0,0,0,.19,0,.24.24,0,0,0,.12-.14L57.66,50.1a.24.24,0,0,0-.07-.24Zm0,0"/><path class="cls-2" d="M85.82,60.08a5.73,5.73,0,0,0,2.91.82c1.66,0,2.63-.87,2.63-2.14s-.67-1.85-2.37-2.5c-2-.73-3.32-1.79-3.32-3.57,0-2,1.62-3.41,4.07-3.41a5.83,5.83,0,0,1,2.78.61l-.45,1.33a5,5,0,0,0-2.39-.6c-1.72,0-2.37,1-2.37,1.89,0,1.17.77,1.75,2.5,2.42,2.13.82,3.21,1.85,3.21,3.7s-1.44,3.62-4.4,3.62a6.56,6.56,0,0,1-3.21-.8Z"/><path class="cls-2" d="M98.08,57.84a2.9,2.9,0,0,0,3.1,3.14,6,6,0,0,0,2.5-.47l.28,1.18a7.36,7.36,0,0,1-3,.56,4.2,4.2,0,0,1-4.44-4.56c0-2.72,1.61-4.87,4.24-4.87,3,0,3.73,2.6,3.73,4.26a5.51,5.51,0,0,1-.06.76Zm4.81-1.17A2.34,2.34,0,0,0,100.62,54a2.72,2.72,0,0,0-2.52,2.67Z"/><path class="cls-2" d="M108.38,55.47c0-.93,0-1.69-.07-2.44h1.45l.1,1.49h0a3.33,3.33,0,0,1,3-1.7c1.25,0,3.19.75,3.19,3.85v5.39h-1.64V56.85c0-1.45-.54-2.66-2.09-2.66a2.33,2.33,0,0,0-2.2,1.68,2.16,2.16,0,0,0-.12.76v5.43h-1.64Z"/><path class="cls-2" d="M128.41,48.81V59.73c0,.8,0,1.72.07,2.33H127l-.08-1.57h0a3.36,3.36,0,0,1-3.08,1.78c-2.19,0-3.87-1.85-3.87-4.59,0-3,1.85-4.86,4-4.86a3,3,0,0,1,2.73,1.39h0v-5.4Zm-1.65,7.9a2.77,2.77,0,0,0-.07-.7,2.42,2.42,0,0,0-2.37-1.9c-1.7,0-2.71,1.49-2.71,3.49,0,1.83.9,3.34,2.67,3.34a2.48,2.48,0,0,0,2.41-2,2.67,2.67,0,0,0,.07-.71Z"/><path class="cls-6" d="M207.78,43.21a2.82,2.82,0,0,1,0,4l-1.43,1.44-5-5,1.43-1.44a2.85,2.85,0,0,1,4,0Zm0,0"/><path class="cls-6" d="M206.35,48.67l-13,13h0l-5-5,13-13Zm0,0"/><path class="cls-6" d="M188.34,56.72l5,5,0,0-6.89,1.9,1.91-6.88Zm0,0"/><path class="cls-2" d="M206.91,61a.81.81,0,0,0-.81.81V69a2.45,2.45,0,0,1-2.44,2.44H180.84A2.45,2.45,0,0,1,178.4,69V47.84a2.44,2.44,0,0,1,2.44-2.44h7.22a.82.82,0,0,0,0-1.63h-7.22a4.07,4.07,0,0,0-4.07,4.07V69a4.07,4.07,0,0,0,4.07,4.06h22.82A4.07,4.07,0,0,0,207.73,69V61.81a.82.82,0,0,0-.82-.81Zm0,0"/><path class="cls-2" d="M207.41,41.68a3.66,3.66,0,0,0-5.18,0L187.72,56.19a.82.82,0,0,0-.21.36l-1.91,6.89a.81.81,0,0,0,1,1l6.89-1.91a.82.82,0,0,0,.36-.21l0,0,14.47-14.46a3.66,3.66,0,0,0,0-5.18ZM188.72,58.26l3.06,3.05-4.23,1.18Zm4.6,3.44h0l.53.53Zm0-1.15-3.83-3.83,11.88-11.88,3.83,3.83Zm13.89-13.89-.86.86-3.83-3.83.86-.86a2,2,0,0,1,2.88,0l1,1a2,2,0,0,1,0,2.88Zm0,0"/><rect class="cls-5" x="176.77" y="40.56" width="32.66" height="32.58"/><path class="cls-2" d="M242,61.73V48.58h6.46c2.69,0,4.27,1.23,4.27,3.28A2.89,2.89,0,0,1,250,54.7v.08a3.22,3.22,0,0,1,3.26,3.12c0,2.31-1.82,3.83-4.64,3.83Zm3.87-7.88h1.49c1,0,1.61-.52,1.61-1.32s-.58-1.3-1.55-1.3h-1.55Zm1.65,5.23c1.19,0,1.87-.54,1.87-1.53s-.69-1.49-1.85-1.49h-1.67v3Z"/><path class="cls-2" d="M264.31,47.84H266l-2.11,13.89H262.2Z"/><path class="cls-2" d="M277.5,56.94a3.29,3.29,0,0,0,6.57,0V48.58h2v8.53c0,2.83-2,4.84-5.32,4.84s-5.32-2-5.32-4.84V48.58h2Z"/><rect class="cls-2" x="271.96" y="65.37" width="17.73" height="1"/><rect class="cls-2" x="340.08" y="49.39" width="14.93" height="14.93" rx="3.29"/><path class="cls-7" d="M333.17,57.45h-2l-.48,1.4h-.84l1.88-5.2h.88l1.88,5.2h-.86Zm-1.78-.65H333l-.78-2.29h0Z"/><rect class="cls-2" x="328.95" y="59.64" width="6.47" height="2.31"/><polyline class="cls-3" points="368.11 55.45 364.81 58.75 361.51 55.45"/><polygon class="cls-4" points="364.81 59.46 361.16 55.81 361.86 55.1 364.81 58.05 367.75 55.1 368.46 55.81 364.81 59.46"/><rect class="cls-3" x="33.52" y="335.79" width="72.4" height="28.93" rx="6"/><path class="cls-2" d="M99.93,365.22H39.53a6.51,6.51,0,0,1-6.5-6.5V341.79a6.5,6.5,0,0,1,6.5-6.5h60.4a6.51,6.51,0,0,1,6.5,6.5v16.93A6.51,6.51,0,0,1,99.93,365.22Zm-60.4-28.93a5.5,5.5,0,0,0-5.5,5.5v16.93a5.5,5.5,0,0,0,5.5,5.5h60.4a5.51,5.51,0,0,0,5.5-5.5V341.79a5.5,5.5,0,0,0-5.5-5.5Z"/><path class="cls-2" d="M45.16,345.93h0l-1.69.91-.25-1,2.12-1.13h1.12v9.71H45.16Z"/><path class="cls-2" d="M51.77,352.91a4.42,4.42,0,0,0,2.16.61c1.68,0,2.21-1.07,2.19-1.88,0-1.36-1.24-1.94-2.51-1.94h-.73v-1h.73c1,0,2.17-.49,2.17-1.64,0-.78-.49-1.47-1.7-1.47a3.58,3.58,0,0,0-1.95.65l-.34-1a4.64,4.64,0,0,1,2.54-.75c1.91,0,2.78,1.14,2.78,2.32a2.41,2.41,0,0,1-1.79,2.28v0a2.53,2.53,0,0,1,2.16,2.5c0,1.55-1.21,2.91-3.54,2.91a4.83,4.83,0,0,1-2.52-.66Z"/><path class="cls-2" d="M65.69,349.55c0-.93,0-1.68-.06-2.36h1.18l.06,1.24h0A2.85,2.85,0,0,1,69.47,347c1.75,0,3.06,1.48,3.06,3.68,0,2.6-1.58,3.88-3.28,3.88A2.55,2.55,0,0,1,67,353.45h0v3.93h-1.3Zm1.3,1.92a2.87,2.87,0,0,0,.06.54,2,2,0,0,0,2,1.54c1.39,0,2.2-1.13,2.2-2.79,0-1.45-.76-2.69-2.15-2.69a2.09,2.09,0,0,0-2,1.63,2.35,2.35,0,0,0-.09.53Z"/><path class="cls-2" d="M76.08,347.19l1,1.55c.27.4.5.78.74,1.18h0c.24-.43.48-.81.72-1.19l1-1.54H81l-2.46,3.49,2.54,3.74h-1.5l-1.06-1.63c-.28-.42-.52-.82-.77-1.26h0c-.24.44-.5.83-.77,1.26l-1,1.63H74.5l2.57-3.69-2.45-3.54Z"/><path class="cls-2" d="M296.28,352.83a4.6,4.6,0,0,0,2.33.66c1.33,0,2.11-.7,2.11-1.72s-.54-1.48-1.9-2c-1.64-.58-2.66-1.43-2.66-2.85,0-1.57,1.3-2.74,3.26-2.74a4.52,4.52,0,0,1,2.23.5l-.36,1.06a4,4,0,0,0-1.92-.48c-1.37,0-1.89.82-1.89,1.51,0,.94.61,1.4,2,1.94,1.7.66,2.57,1.48,2.57,3s-1.15,2.9-3.53,2.9a5.2,5.2,0,0,1-2.57-.65Z"/><path class="cls-2" d="M306.09,351a2.32,2.32,0,0,0,2.48,2.51,4.73,4.73,0,0,0,2-.37l.23.94a5.89,5.89,0,0,1-2.41.45,3.36,3.36,0,0,1-3.55-3.65c0-2.18,1.28-3.9,3.39-3.9,2.36,0,3,2.08,3,3.41a3.87,3.87,0,0,1-.05.61Zm3.86-.94a1.88,1.88,0,0,0-1.83-2.14,2.17,2.17,0,0,0-2,2.14Z"/><path class="cls-2" d="M314.33,349.14c0-.74,0-1.36-.06-1.95h1.17l.07,1.19h0a2.68,2.68,0,0,1,2.39-1.36c1,0,2.56.6,2.56,3.08v4.32h-1.32v-4.17c0-1.17-.43-2.14-1.67-2.14a1.94,1.94,0,0,0-1.85,2v4.35h-1.32Z"/><path class="cls-2" d="M330.36,343.81v8.74c0,.64,0,1.37.06,1.87h-1.18l-.06-1.26h0a2.68,2.68,0,0,1-2.47,1.42c-1.75,0-3.09-1.48-3.09-3.67,0-2.41,1.48-3.89,3.24-3.89a2.42,2.42,0,0,1,2.18,1.11h0v-4.32ZM329,350.13a2.06,2.06,0,0,0-.06-.55,1.93,1.93,0,0,0-1.89-1.53c-1.36,0-2.17,1.2-2.17,2.8s.72,2.67,2.14,2.67A2,2,0,0,0,329,352a2.08,2.08,0,0,0,.06-.57Z"/><path class="cls-2" d="M340.27,345.11v2.08h1.88v1h-1.88v3.9c0,.89.25,1.4,1,1.4a2.77,2.77,0,0,0,.77-.09l.06,1a3.37,3.37,0,0,1-1.17.18,1.84,1.84,0,0,1-1.42-.56,2.68,2.68,0,0,1-.5-1.88v-3.94h-1.13v-1H339v-1.74Z"/><path class="cls-2" d="M345.76,351a2.32,2.32,0,0,0,2.48,2.51,4.82,4.82,0,0,0,2-.37l.22.94a5.85,5.85,0,0,1-2.41.45,3.36,3.36,0,0,1-3.55-3.65c0-2.18,1.28-3.9,3.39-3.9,2.36,0,3,2.08,3,3.41a3.87,3.87,0,0,1-.05.61Zm3.86-.94A1.88,1.88,0,0,0,347.8,348a2.18,2.18,0,0,0-2,2.14Z"/><path class="cls-2" d="M353.83,353.07a3.34,3.34,0,0,0,1.73.53c.95,0,1.4-.48,1.4-1.08s-.37-1-1.34-1.33c-1.3-.46-1.91-1.18-1.91-2.05A2.23,2.23,0,0,1,356.2,347a3.6,3.6,0,0,1,1.78.45l-.33,1a2.81,2.81,0,0,0-1.48-.42c-.78,0-1.21.45-1.21,1s.43.87,1.37,1.23c1.26.48,1.9,1.11,1.9,2.18,0,1.27-1,2.17-2.7,2.17a4.09,4.09,0,0,1-2-.5Z"/><path class="cls-2" d="M363,345.11v2.08h1.89v1H363v3.9c0,.89.26,1.4,1,1.4a2.69,2.69,0,0,0,.76-.09l.06,1a3.3,3.3,0,0,1-1.16.18,1.81,1.81,0,0,1-1.42-.56,2.63,2.63,0,0,1-.51-1.88v-3.94h-1.12v-1h1.12v-1.74Z"/><path class="cls-2" d="M287.15,343.26a.21.21,0,0,0-.24,0l-14.78,6.87a.24.24,0,0,0-.14.2.23.23,0,0,0,.13.21l4.18,2.05a.23.23,0,0,0,.24,0l4.07-3-3.19,3.29a.22.22,0,0,0-.07.17l.32,4.14a.23.23,0,0,0,.16.2h.07a.2.2,0,0,0,.17-.08l2.22-2.57L283,356a.25.25,0,0,0,.19,0,.25.25,0,0,0,.13-.14l3.87-12.33a.22.22,0,0,0-.07-.24Zm0,0"/><rect class="cls-2" x="133.84" y="343.25" width="2.8" height="2.8"/><rect class="cls-2" x="133.84" y="348.85" width="2.8" height="2.8"/><rect class="cls-2" x="133.84" y="354.45" width="2.8" height="2.8"/><rect class="cls-2" x="139.44" y="343.25" width="14.93" height="2.8"/><rect class="cls-2" x="139.44" y="348.85" width="14.93" height="2.8"/><rect class="cls-2" x="139.44" y="354.45" width="14.93" height="2.8"/><rect class="cls-2" x="178.64" y="343.18" width="14.93" height="2.8"/><rect class="cls-2" x="178.64" y="348.78" width="14.93" height="2.8"/><rect class="cls-2" x="178.64" y="354.38" width="14.93" height="2.8"/><path class="cls-2" d="M174.61,343.31h0l-.77.53v-.43l.78-.55h.45v2.95h-.45Z"/><path class="cls-2" d="M174.45,349.25a.88.88,0,0,1,1,.84c0,.34-.16.57-.69,1.1l-.67.67h1.41v.39h-2v-.32l1-1c.39-.4.48-.55.48-.78a.49.49,0,0,0-.52-.49.55.55,0,0,0-.59.55h-.43A1,1,0,0,1,174.45,349.25Z"/><path class="cls-2" d="M174.06,355.89h.35c.34,0,.56-.19.56-.47s-.17-.46-.52-.46a.54.54,0,0,0-.59.47h-.43a.93.93,0,0,1,1-.84c.6,0,1,.33,1,.77a.71.71,0,0,1-.62.69h0a.71.71,0,0,1,.72.71,1,1,0,0,1-1.07.88,1,1,0,0,1-1.08-.86h.44c0,.29.27.47.64.47a.54.54,0,0,0,.61-.49c0-.33-.24-.52-.64-.52h-.36Z"/><rect class="cls-7" x="81.6" y="156.36" width="292.2" height="11.51"/><rect class="cls-3" x="81.6" y="181.31" width="223.99" height="73.67"/><path class="cls-7" d="M306.09,255.48H81.1V180.81h225Zm-224-1h223V181.81H82.1Z"/><rect class="cls-8" x="43.62" y="158.29" width="7.74" height="148.57"/><rect class="cls-7" x="81.6" y="267.79" width="292.2" height="7.05"/><rect class="cls-7" x="81.6" y="283.16" width="292.2" height="7.05"/><rect class="cls-7" x="81.6" y="297.25" width="292.2" height="7.05"/><path class="cls-2" d="M44.18,107.59v1.12a5.4,5.4,0,0,0,1.41.18c1,0,1.65-.38,1.65-1.34,0-2-4.11-1-4.11-3.68,0-1.6,1.22-2.16,2.53-2.16a5.31,5.31,0,0,1,2.52.59V104H47.12v-1a3.85,3.85,0,0,0-1.4-.25c-.85,0-1.42.3-1.42,1.11,0,1.84,4.1.83,4.1,3.66,0,1.73-1.25,2.42-2.86,2.42a6.34,6.34,0,0,1-2.42-.42v-1.83Z"/><path class="cls-2" d="M53.22,104.09H55.1v4.67h.7v.94H54.1l-.14-.79a2,2,0,0,1-1.74.94c-1.25,0-2.06-.82-2.06-2.49V105h-.69v-.94h1.88v3.25c0,1,.52,1.43,1.2,1.43a1.33,1.33,0,0,0,1.36-1.41V105h-.69Z"/><path class="cls-2" d="M58.68,101.62v3.28a2,2,0,0,1,1.78-1C62,104,63,105.11,63,106.88s-1,3-2.48,3a2.17,2.17,0,0,1-1.84-1l-.1.83h-1.8v-.94h.71v-6.2h-.71v-.94Zm1.54,3.4c-.94,0-1.54.73-1.54,1.88s.6,1.92,1.54,1.92,1.52-.77,1.52-1.91S61.16,105,60.22,105Z"/><path class="cls-2" d="M64.22,112.24a2.42,2.42,0,0,1-.86-.11l.14-.94a2.43,2.43,0,0,0,.56.06c.44,0,.71-.38.71-.93V105h-.7v-.94H66v6.28A1.64,1.64,0,0,1,64.22,112.24Zm1.13-10.61a.71.71,0,1,1,0,1.42.71.71,0,1,1,0-1.42Z"/><path class="cls-2" d="M70.18,104a2.46,2.46,0,0,1,2.59,2.7v.4h-4a1.69,1.69,0,0,0,1.75,1.81,2.36,2.36,0,0,0,1.63-.56l.57.72a3.23,3.23,0,0,1-2.3.82,2.66,2.66,0,0,1-2.86-3A2.61,2.61,0,0,1,70.18,104ZM68.8,106.2h2.77a1.35,1.35,0,0,0-1.39-1.34C69.43,104.86,69,105.36,68.8,106.2Z"/><path class="cls-2" d="M77,108.82a2.16,2.16,0,0,0,1.44-.51l.6.77a3,3,0,0,1-2.18.76,2.7,2.7,0,0,1-2.88-3A2.64,2.64,0,0,1,76.69,104a2.9,2.9,0,0,1,2,.58v1.71H77.55v-1.09a1.75,1.75,0,0,0-.78-.16c-.93,0-1.6.64-1.6,1.88A1.72,1.72,0,0,0,77,108.82Z"/><path class="cls-2" d="M79.76,104.09h.9v-1.37h1.19v1.37h1.4V105h-1.4v2.76c0,.81.32,1,.79,1a2.55,2.55,0,0,0,.69-.11l.14.89a2.57,2.57,0,0,1-1,.2c-1.23,0-1.82-.65-1.82-2.19V105h-.9Z"/><path class="cls-2" d="M85.37,104a.7.7,0,0,1,.74.72.69.69,0,0,1-.74.71.68.68,0,0,1-.74-.71A.69.69,0,0,1,85.37,104Zm0,4.46a.7.7,0,0,1,.74.72.69.69,0,0,1-.74.71.68.68,0,0,1-.74-.71A.69.69,0,0,1,85.37,108.41Z"/><path class="cls-9" d="M105,106c0,2.31-1.41,3.54-3.12,3.54s-3-1.38-3-3.41,1.33-3.54,3.13-3.54S105,104,105,106Zm-5.22.11c0,1.43.78,2.72,2.15,2.72s2.15-1.27,2.15-2.79c0-1.34-.7-2.74-2.14-2.74S99.75,104.65,99.75,106.13Z"/><path class="cls-9" d="M107.07,106.2c0-.62,0-1.12,0-1.58h.78l0,.83h0a1.9,1.9,0,0,1,1.72-.94,2.19,2.19,0,0,1,2,2.46,2.29,2.29,0,0,1-2.2,2.59,1.7,1.7,0,0,1-1.49-.76h0v2.63h-.86Zm.86,1.28a2,2,0,0,0,0,.36,1.36,1.36,0,0,0,1.32,1c.93,0,1.47-.76,1.47-1.86s-.51-1.8-1.44-1.8A1.4,1.4,0,0,0,108,106.3a1.43,1.43,0,0,0-.06.36Z"/><path class="cls-9" d="M113.74,106.2c0-.62,0-1.12,0-1.58h.79l0,.83h0a1.9,1.9,0,0,1,1.72-.94,2.19,2.19,0,0,1,2,2.46,2.29,2.29,0,0,1-2.19,2.59,1.7,1.7,0,0,1-1.49-.76h0v2.63h-.87Zm.87,1.28a2,2,0,0,0,0,.36,1.36,1.36,0,0,0,1.32,1c.92,0,1.46-.76,1.46-1.86s-.51-1.8-1.43-1.8a1.4,1.4,0,0,0-1.33,1.09,1.43,1.43,0,0,0-.06.36Z"/><path class="cls-9" d="M120.42,106.13c0-.57,0-1.06,0-1.51h.77l0,.95h0a1.43,1.43,0,0,1,1.33-1.06,1,1,0,0,1,.25,0v.83a1.32,1.32,0,0,0-.3,0,1.22,1.22,0,0,0-1.17,1.13,2.48,2.48,0,0,0,0,.41v2.57h-.87Z"/><path class="cls-9" d="M126,103.23v1.39h1.26v.67H126v2.6c0,.6.17.94.66.94a2,2,0,0,0,.51-.06l0,.66a2.15,2.15,0,0,1-.78.12,1.2,1.2,0,0,1-.94-.37,1.79,1.79,0,0,1-.34-1.26v-2.63h-.75v-.67h.75v-1.16Z"/><path class="cls-9" d="M133.26,108.13c0,.5,0,.94,0,1.32h-.78l-.05-.79h0a1.82,1.82,0,0,1-1.6.9c-.75,0-1.66-.42-1.66-2.12v-2.82h.88v2.67c0,.92.27,1.54,1.07,1.54a1.27,1.27,0,0,0,1.16-.8,1.29,1.29,0,0,0,.08-.45v-3h.88Z"/><path class="cls-9" d="M135.71,105.93c0-.5,0-.91,0-1.31h.78l.05.8h0a1.78,1.78,0,0,1,1.6-.91c.67,0,1.71.4,1.71,2.06v2.88H139v-2.78c0-.78-.29-1.43-1.12-1.43a1.25,1.25,0,0,0-1.18.9,1.27,1.27,0,0,0-.06.41v2.9h-.88Z"/><path class="cls-9" d="M143.23,103.26a.55.55,0,0,1-1.09,0,.54.54,0,0,1,.55-.55A.52.52,0,0,1,143.23,103.26Zm-1,6.19v-4.83h.88v4.83Z"/><path class="cls-9" d="M146.64,103.23v1.39h1.26v.67h-1.26v2.6c0,.6.17.94.66.94a2,2,0,0,0,.51-.06l0,.66a2.15,2.15,0,0,1-.78.12,1.22,1.22,0,0,1-.95-.37,1.79,1.79,0,0,1-.34-1.26v-2.63H145v-.67h.75v-1.16Z"/><path class="cls-9" d="M150.29,104.62l1.06,2.85c.11.32.23.7.31,1h0c.09-.29.19-.66.31-1l1-2.83h.93l-1.32,3.44a7.37,7.37,0,0,1-1.66,3,2.38,2.38,0,0,1-1.08.57l-.22-.74a2.33,2.33,0,0,0,.77-.43,2.67,2.67,0,0,0,.74-1,.63.63,0,0,0,.07-.21.77.77,0,0,0-.06-.23l-1.79-4.45Z"/><path class="cls-9" d="M158.87,109.45v-4.16h-.67v-.67h.67v-.23a2.28,2.28,0,0,1,.56-1.69,1.67,1.67,0,0,1,1.18-.44,2,2,0,0,1,.75.14l-.12.67a1.31,1.31,0,0,0-.56-.11c-.75,0-.94.66-.94,1.4v.26h1.17v.67h-1.17v4.16Z"/><path class="cls-9" d="M166.94,107a2.36,2.36,0,0,1-2.41,2.56,2.3,2.3,0,0,1-2.31-2.48,2.36,2.36,0,0,1,2.39-2.57A2.29,2.29,0,0,1,166.94,107Zm-3.83,0c0,1,.6,1.85,1.46,1.85S166,108.11,166,107c0-.82-.41-1.86-1.45-1.86S163.11,106.13,163.11,107.05Z"/><path class="cls-9" d="M169,106.13c0-.57,0-1.06,0-1.51h.77l0,.95h0a1.45,1.45,0,0,1,1.34-1.06,1,1,0,0,1,.25,0v.83a1.32,1.32,0,0,0-.3,0,1.23,1.23,0,0,0-1.18,1.13,2.48,2.48,0,0,0,0,.41v2.57H169Z"/><path class="cls-9" d="M179.86,109.27a3.24,3.24,0,0,1-1.39.28,2.3,2.3,0,0,1-2.4-2.47,2.45,2.45,0,0,1,2.59-2.56,2.94,2.94,0,0,1,1.22.25l-.2.68a2,2,0,0,0-1-.23,1.67,1.67,0,0,0-1.7,1.83,1.65,1.65,0,0,0,1.67,1.8,2.5,2.5,0,0,0,1.08-.24Z"/><path class="cls-9" d="M186.2,107a2.36,2.36,0,0,1-2.41,2.56,2.3,2.3,0,0,1-2.31-2.48,2.36,2.36,0,0,1,2.39-2.57A2.29,2.29,0,0,1,186.2,107Zm-3.83,0c0,1,.6,1.85,1.46,1.85s1.47-.79,1.47-1.87c0-.82-.41-1.86-1.45-1.86S182.37,106.13,182.37,107.05Z"/><path class="cls-9" d="M188.3,105.93c0-.5,0-.91,0-1.31H189l0,.78h0a1.67,1.67,0,0,1,1.52-.89,1.43,1.43,0,0,1,1.37,1h0a2.13,2.13,0,0,1,.54-.63,1.65,1.65,0,0,1,1.07-.34c.64,0,1.59.42,1.59,2.1v2.84h-.86v-2.73c0-.93-.34-1.49-1.05-1.49a1.14,1.14,0,0,0-1,.8,1.45,1.45,0,0,0-.07.44v3h-.85v-2.89c0-.77-.34-1.33-1-1.33a1.31,1.31,0,0,0-1.16,1.31v2.91h-.86Z"/><path class="cls-9" d="M197.62,106.2c0-.62,0-1.12,0-1.58h.79l0,.83h0a1.9,1.9,0,0,1,1.72-.94,2.19,2.19,0,0,1,2,2.46c0,1.73-1.05,2.59-2.19,2.59a1.7,1.7,0,0,1-1.49-.76h0v2.63h-.87Zm.87,1.28a2,2,0,0,0,0,.36,1.36,1.36,0,0,0,1.32,1c.93,0,1.47-.76,1.47-1.86s-.51-1.8-1.44-1.8a1.4,1.4,0,0,0-1.33,1.09,1.43,1.43,0,0,0-.06.36Z"/><path class="cls-9" d="M207,109.45l-.07-.61h0a1.8,1.8,0,0,1-1.47.72,1.38,1.38,0,0,1-1.48-1.39c0-1.16,1-1.8,2.9-1.79v-.1a1,1,0,0,0-1.09-1.12,2.41,2.41,0,0,0-1.26.36l-.2-.58a3,3,0,0,1,1.59-.43c1.47,0,1.83,1,1.83,2v1.8a6.81,6.81,0,0,0,.08,1.16Zm-.13-2.46c-1,0-2,.14-2,1.08a.78.78,0,0,0,.83.84,1.2,1.2,0,0,0,1.16-.81.92.92,0,0,0,.05-.28Z"/><path class="cls-9" d="M210.11,105.93c0-.5,0-.91,0-1.31h.77l.06.8h0a1.78,1.78,0,0,1,1.6-.91c.67,0,1.71.4,1.71,2.06v2.88h-.88v-2.78c0-.78-.29-1.43-1.12-1.43a1.25,1.25,0,0,0-1.18.9,1.27,1.27,0,0,0-.06.41v2.9h-.87Z"/><path class="cls-9" d="M216.83,104.62l1.06,2.85c.11.32.23.7.31,1h0c.09-.29.19-.66.31-1l1-2.83h.92l-1.31,3.44a7.37,7.37,0,0,1-1.66,3,2.38,2.38,0,0,1-1.08.57l-.22-.74a2.33,2.33,0,0,0,.77-.43,2.67,2.67,0,0,0,.74-1,.63.63,0,0,0,.07-.21.77.77,0,0,0-.06-.23l-1.79-4.45Z"/><polyline class="cls-3" points="300.13 103.48 296.83 106.78 293.53 103.48"/><polygon class="cls-4" points="296.83 107.48 293.18 103.83 293.88 103.13 296.83 106.07 299.77 103.13 300.48 103.83 296.83 107.48"/><polyline class="cls-3" points="96.55 348.73 93.25 352.02 89.95 348.73"/><polygon class="cls-2" points="93.25 352.73 89.6 349.08 90.3 348.37 93.25 351.32 96.19 348.37 96.9 349.08 93.25 352.73"/><rect class="cls-10" x="251.87" y="71.41" width="174.63" height="203.95" rx="17.21"/><path class="cls-2" d="M409.36,275.86h-5.05v-1h5Zm-10,0h-5v-1h5Zm-10,0h-5v-1h5Zm-10,0h-5v-1h5Zm-10,0h-5v-1h5Zm-10,0h-5v-1h5Zm-10,0h-5v-1h5Zm-10,0h-5v-1h5Zm-10,0h-5v-1h5Zm-10,0h-5v-1h5Zm-10,0h-5v-1h5Zm-10,0h-5v-1h5Zm-10,0h-5v-1h5Zm-10,0h-5v-1h5Zm-10,0h-.67a18,18,0,0,1-4.39-.55l.25-1a17,17,0,0,0,4.14.52h.67Zm144.66-.76-.29-1a16.78,16.78,0,0,0,4.37-2l.55.83A17.33,17.33,0,0,1,414.41,275.1ZM260,273.34a17.84,17.84,0,0,1-4-3.23l.74-.68a16.55,16.55,0,0,0,3.73,3.05Zm162.87-3.8-.76-.65a16.71,16.71,0,0,0,2.54-4.1l.91.4A17.63,17.63,0,0,1,422.85,269.54Zm-169.7-3.66A17.74,17.74,0,0,1,251.6,261l1-.16a16.88,16.88,0,0,0,1.45,4.6Zm173.73-5.62-1-.12a16.52,16.52,0,0,0,.12-2v-2.92h1v2.92A18.57,18.57,0,0,1,426.88,260.26ZM252.37,256h-1v-5h1ZM427,250.24h-1v-5h1ZM252.37,246h-1v-5h1ZM427,240.27h-1v-5h1ZM252.37,236h-1v-5h1ZM427,230.31h-1v-5h1Zm-174.63-4.25h-1v-5h1ZM427,220.34h-1v-5h1ZM252.37,216.1h-1v-5h1ZM427,210.37h-1v-5h1Zm-174.63-4.24h-1v-5h1ZM427,200.41h-1v-5h1Zm-174.63-4.25h-1v-5h1ZM427,190.44h-1v-5h1ZM252.37,186.2h-1v-5h1ZM427,180.47h-1v-5h1Zm-174.63-4.24h-1v-5h1ZM427,170.5h-1v-5h1Zm-174.63-4.24h-1v-5h1ZM427,160.54h-1v-5h1ZM252.37,156.3h-1v-5h1ZM427,150.57h-1v-5h1Zm-174.63-4.24h-1v-5h1ZM427,140.6h-1v-5h1Zm-174.63-4.24h-1v-5h1ZM427,130.64h-1v-5h1ZM252.37,126.4h-1v-5h1ZM427,120.67h-1v-5h1Zm-174.63-4.24h-1v-5h1ZM427,110.7h-1v-5h1Zm-174.63-4.24h-1v-5h1ZM427,100.74h-1v-5h1ZM252.37,96.5h-1v-5h1ZM427,90.77h-1V88.62a16.87,16.87,0,0,0-.22-2.74l1-.16a18.82,18.82,0,0,1,.23,2.91ZM252.49,86.59l-1-.12a17.93,17.93,0,0,1,1.34-4.93l.92.4A16.72,16.72,0,0,0,252.49,86.59Zm171.82-5.3a16.62,16.62,0,0,0-2.72-4l.74-.68a18,18,0,0,1,2.88,4.22Zm-168-3.44-.77-.64a17.91,17.91,0,0,1,3.82-3.4l.55.84A16.63,16.63,0,0,0,256.31,77.85Zm161.54-3.58a16.83,16.83,0,0,0-4.45-1.85l.24-1a17.59,17.59,0,0,1,4.72,2ZM264.28,72.61l-.29-1a18.38,18.38,0,0,1,5.06-.74v1A17,17,0,0,0,264.28,72.61Zm144.3-.7h-5v-1h5Zm-10,0h-5v-1h5Zm-10,0h-5v-1h5Zm-10,0h-5v-1h5Zm-10,0h-5v-1h5Zm-10,0h-5v-1h5Zm-10,0h-5v-1h5Zm-10,0h-5v-1h5Zm-10,0h-5v-1h5Zm-10,0h-5v-1h5Zm-10,0h-5v-1h5Zm-10,0h-5v-1h5Zm-10,0h-5v-1h5Zm-10,0h-5v-1h5Z"/><path class="cls-2" d="M307.77,94.69v1.9h-1.11v-1h-1.32v6h.8v.94h-2.83v-.94h.81v-6h-1.3v1H301.7v-1.9Z"/><path class="cls-2" d="M310.65,96.8a2.47,2.47,0,0,1,2.6,2.7v.4h-4a1.67,1.67,0,0,0,1.75,1.81,2.38,2.38,0,0,0,1.63-.56l.57.72a3.25,3.25,0,0,1-2.3.81,2.67,2.67,0,0,1-2.87-3A2.61,2.61,0,0,1,310.65,96.8Zm-1.38,2.25h2.78a1.36,1.36,0,0,0-1.4-1.34C309.9,97.71,309.43,98.2,309.27,99.05Z"/><path class="cls-2" d="M318.06,101.61h.7V99.23c0-.93-.51-1.37-1.14-1.37a1.32,1.32,0,0,0-1.29,1.39v2.36h.7v.94h-2.58v-.94h.69V97.88h-.69v-.95h1.69l.14.77a1.89,1.89,0,0,1,1.65-.9,1.83,1.83,0,0,1,1.74,1,2.11,2.11,0,0,1,1.86-1c1.3,0,2,.85,2,2.37v2.44h.71v.94h-2.58v-.94h.69V99.23c0-1-.49-1.37-1.11-1.37A1.3,1.3,0,0,0,320,99v2.62h.7v.94h-2.59Z"/><path class="cls-2" d="M328,104.91h-2.82v-1h.69V97.88h-.69v-.95h1.69l.15.77a2,2,0,0,1,1.76-.9c1.49,0,2.53,1.16,2.53,2.93s-1,3-2.46,3a2.14,2.14,0,0,1-1.78-.86V104H328Zm.54-7c-1,0-1.54.73-1.54,1.87s.59,1.92,1.54,1.92,1.51-.76,1.51-1.91S329.48,97.87,328.54,97.87Z"/><path class="cls-2" d="M334.25,101.61H335v.94H332.4v-.94h.66v-6.2h-.7v-1h1.89Z"/><path class="cls-2" d="M341.42,102.55h-1.67l-.13-.72a2,2,0,0,1-1.76.85,1.63,1.63,0,0,1-1.83-1.74c0-1,.66-1.71,2.42-1.71h1.11V99a1.09,1.09,0,0,0-1.21-1.22,5.2,5.2,0,0,0-1,.09v.83h-1V97.13a4.83,4.83,0,0,1,2-.33c1.66,0,2.38.72,2.38,2.16v2.65h.66Zm-1.86-2.09v-.39h-1.1c-.83,0-1.2.3-1.2.85s.29.81.91.81A1.34,1.34,0,0,0,339.56,100.46Z"/><path class="cls-2" d="M342.16,96.93h.9V95.56h1.19v1.37h1.4v.95h-1.4v2.76c0,.81.32,1,.79,1a2.11,2.11,0,0,0,.68-.12l.15.9a2.77,2.77,0,0,1-1,.19c-1.23,0-1.82-.64-1.82-2.19V97.88h-.9Z"/><path class="cls-2" d="M349.35,96.8a2.46,2.46,0,0,1,2.59,2.7v.4h-4a1.69,1.69,0,0,0,1.75,1.81,2.34,2.34,0,0,0,1.63-.56l.58.72a3.27,3.27,0,0,1-2.31.81,2.66,2.66,0,0,1-2.86-3A2.61,2.61,0,0,1,349.35,96.8ZM348,99.05h2.77a1.34,1.34,0,0,0-1.39-1.34C348.6,97.71,348.13,98.2,348,99.05Z"/><path class="cls-2" d="M354.16,100.8v.89a8.12,8.12,0,0,0,1.29.11c.77,0,1.23-.24,1.23-.72s-.28-.61-1-.79l-.83-.2c-1.14-.27-1.69-.74-1.69-1.62,0-1.24,1.12-1.67,2.34-1.67a4.63,4.63,0,0,1,2.06.43v1.5h-1v-.9a4.5,4.5,0,0,0-1.11-.14c-.65,0-1.24.15-1.24.67,0,.3.19.52.9.69l.88.18c1,.23,1.75.6,1.75,1.67,0,1.35-1.07,1.78-2.29,1.78a7,7,0,0,1-2.26-.32V100.8Z"/><path class="cls-2" d="M272.23,96.44h-5.08v8.82a.57.57,0,0,0,.57.57h4.51Zm0,0"/><path class="cls-2" d="M286.48,95.31V92.4a.56.56,0,0,0-.56-.57h-14.8a4,4,0,0,0-3.94,3.48Zm0,0"/><path class="cls-2" d="M273.36,96.44v9.39h9.16a4,4,0,0,0,4-4V96.44Zm10.21,6a.56.56,0,0,1-.57.56h-5.35a.57.57,0,1,1,0-1.13H283a.56.56,0,0,1,.57.57Zm-.75-2.06a.58.58,0,0,1-.57.57h-5.73a.57.57,0,0,1,0-1.14h5.73a.58.58,0,0,1,.57.57Zm-7.44-2.62h6.11a.57.57,0,1,1,0,1.13h-6.11a.57.57,0,0,1,0-1.13Zm0,0"/><rect class="cls-3" x="261.33" y="124.74" width="157.17" height="21.83" rx="8.53"/><path class="cls-11" d="M275,139.18c-1.72,0-2.81-1.25-2.81-3.2s1.09-3.14,2.81-3.14a2.47,2.47,0,0,1,2.57,2h-.81a1.75,1.75,0,0,0-1.76-1.31c-1.26,0-2,.92-2,2.43s.78,2.51,2,2.51a1.71,1.71,0,0,0,1.84-1.74v-.11h-1.73V136h2.5v.58A2.41,2.41,0,0,1,275,139.18Z"/><path class="cls-11" d="M283,139.08h-.7v-.72h0a1.57,1.57,0,0,1-2.94-.83v-2.88h.74v2.75c0,.72.34,1.1,1,1.1a1.12,1.12,0,0,0,1.16-1.24v-2.61H283Z"/><path class="cls-11" d="M288.51,137.81a1.75,1.75,0,0,1-1.84,1.35,2,2,0,0,1-2-2.27,2,2,0,0,1,2-2.31,2,2,0,0,1,1.94,2.21v.28h-3.18v0a1.27,1.27,0,0,0,1.29,1.41,1.06,1.06,0,0,0,1.1-.71Zm-3.12-1.32h2.41a1.19,1.19,0,0,0-1.18-1.27A1.25,1.25,0,0,0,285.39,136.49Z"/><path class="cls-11" d="M291.74,134.58a1.48,1.48,0,0,1,1.65,1.35h-.71a.84.84,0,0,0-.94-.75c-.54,0-.9.27-.9.66s.23.51.72.63l.7.17c.9.22,1.22.57,1.22,1.2s-.73,1.32-1.71,1.32-1.69-.52-1.77-1.36h.74c.09.51.43.75,1,.75s1-.25,1-.65-.18-.5-.68-.63l-.71-.17c-.83-.2-1.24-.58-1.24-1.22S290.78,134.58,291.74,134.58Z"/><path class="cls-11" d="M296.11,133.59v1.06H297v.61h-.86v2.63c0,.41.17.59.55.59l.3,0v.62a2.64,2.64,0,0,1-.47,0c-.81,0-1.12-.34-1.12-1.19v-2.67h-.66v-.61h.66v-1.06Z"/><path class="cls-11" d="M305.34,136.87c0,1.39-.76,2.29-1.88,2.29a1.56,1.56,0,0,1-1.41-.8h0v2.2h-.75v-5.91H302v.75h0a1.61,1.61,0,0,1,1.43-.82C304.57,134.58,305.34,135.48,305.34,136.87Zm-.76,0c0-1-.49-1.64-1.28-1.64s-1.27.65-1.27,1.64.51,1.64,1.27,1.64S304.58,137.87,304.58,136.87Z"/><path class="cls-11" d="M306.75,136.87a2.06,2.06,0,1,1,2.05,2.29A2,2,0,0,1,306.75,136.87Zm3.34,0c0-1-.51-1.64-1.29-1.64s-1.3.6-1.3,1.64.52,1.64,1.3,1.64S310.09,137.91,310.09,136.87Z"/><path class="cls-11" d="M314,134.58a1.48,1.48,0,0,1,1.65,1.35H315a.84.84,0,0,0-.94-.75c-.54,0-.9.27-.9.66s.23.51.72.63l.7.17c.9.22,1.22.57,1.22,1.2s-.73,1.32-1.71,1.32-1.69-.52-1.77-1.36H313c.09.51.43.75,1,.75s1-.25,1-.65-.18-.5-.68-.63l-.71-.17c-.83-.2-1.23-.58-1.23-1.22S313.06,134.58,314,134.58Z"/><path class="cls-11" d="M318.39,133.59v1.06h.86v.61h-.86v2.63c0,.41.17.59.55.59l.3,0v.62a2.64,2.64,0,0,1-.47,0c-.81,0-1.12-.34-1.12-1.19v-2.67H317v-.61h.66v-1.06Z"/><path class="cls-12" d="M272.21,158.2c0-1.93,1.08-3.18,2.76-3.18a2.44,2.44,0,0,1,2.55,2h-.77a1.77,1.77,0,0,0-1.78-1.33c-1.2,0-2,1-2,2.47s.77,2.47,2,2.47a1.7,1.7,0,0,0,1.77-1.19h.77a2.37,2.37,0,0,1-2.55,1.89C273.28,161.37,272.21,160.14,272.21,158.2Z"/><path class="cls-12" d="M279,159.06a2.06,2.06,0,1,1,2,2.29A2,2,0,0,1,279,159.06Zm3.34,0c0-1.05-.51-1.64-1.29-1.64s-1.3.59-1.3,1.64.52,1.64,1.3,1.64S282.32,160.1,282.32,159.06Z"/><path class="cls-12" d="M284.7,156.84h.7v.71h0a1.57,1.57,0,0,1,2.93.85v2.87h-.74v-2.74c0-.72-.33-1.11-1-1.11a1.13,1.13,0,0,0-1.15,1.24v2.61h-.74Z"/><path class="cls-12" d="M291.15,155.77v1.07H292v.61h-.86v2.63c0,.41.17.59.55.59l.31,0v.62a2.91,2.91,0,0,1-.47,0c-.81,0-1.13-.33-1.13-1.18v-2.67h-.66v-.61h.66v-1.07Z"/><path class="cls-12" d="M297.22,160a1.76,1.76,0,0,1-1.85,1.35,2,2,0,0,1-2-2.28,2,2,0,0,1,2-2.3c1.19,0,1.93.86,1.93,2.21v.28h-3.18v0a1.26,1.26,0,0,0,1.3,1.4,1.07,1.07,0,0,0,1.1-.7Zm-3.12-1.32h2.4a1.18,1.18,0,0,0-1.17-1.27A1.24,1.24,0,0,0,294.1,158.68Z"/><path class="cls-12" d="M298.9,156.84h.69v.71h0a1.47,1.47,0,0,1,1.4-.78,1.46,1.46,0,0,1,1.54,1.63v2.87h-.74v-2.74c0-.72-.34-1.11-1-1.11a1.13,1.13,0,0,0-1.15,1.24v2.61h-.74Z"/><path class="cls-12" d="M305.35,155.77v1.07h.86v.61h-.86v2.63c0,.41.17.59.55.59l.3,0v.62a2.77,2.77,0,0,1-.46,0c-.82,0-1.13-.33-1.13-1.18v-2.67H304v-.61h.66v-1.07Z"/><path class="cls-12" d="M312.84,155.13a2,2,0,1,1,0,4h-1.41v2.19h-.77v-6.14Zm-1.42,3.27h1.22a1.3,1.3,0,1,0,0-2.59h-1.22Z"/><path class="cls-12" d="M316.45,156.84h.7v.73h0a1.08,1.08,0,0,1,1.07-.8,1.74,1.74,0,0,1,.3,0v.71a1.62,1.62,0,0,0-.4,0,.94.94,0,0,0-.95,1v2.76h-.74Z"/><path class="cls-12" d="M319.59,159.06a2.06,2.06,0,1,1,2.05,2.29A2,2,0,0,1,319.59,159.06Zm3.34,0c0-1.05-.51-1.64-1.29-1.64s-1.3.59-1.3,1.64.51,1.64,1.3,1.64S322.93,160.1,322.93,159.06Z"/><path class="cls-12" d="M325.31,156.84h.7v.71h0a1.32,1.32,0,0,1,1.25-.78,1.24,1.24,0,0,1,1.25.84h0a1.48,1.48,0,0,1,1.39-.84,1.35,1.35,0,0,1,1.44,1.44v3.06h-.74v-2.89a.86.86,0,0,0-.92-1,1,1,0,0,0-1,1v2.81H328v-3a.84.84,0,0,0-.9-.88,1,1,0,0,0-1,1.07v2.78h-.74Z"/><path class="cls-12" d="M333,159.06a2.06,2.06,0,1,1,2,2.29A2,2,0,0,1,333,159.06Zm3.35,0c0-1.05-.51-1.64-1.3-1.64s-1.3.59-1.3,1.64.52,1.64,1.3,1.64S336.33,160.1,336.33,159.06Z"/><path class="cls-12" d="M339.68,155.77v1.07h.86v.61h-.86v2.63c0,.41.17.59.55.59l.31,0v.62a2.83,2.83,0,0,1-.47,0c-.81,0-1.13-.33-1.13-1.18v-2.67h-.66v-.61h.66v-1.07Z"/><path class="cls-12" d="M342.15,155.59a.46.46,0,0,1,.47-.46.46.46,0,0,1,0,.92A.46.46,0,0,1,342.15,155.59Zm.1,1.25H343v4.43h-.74Z"/><path class="cls-12" d="M344.65,159.06a2.06,2.06,0,1,1,2.05,2.29A2,2,0,0,1,344.65,159.06Zm3.34,0c0-1.05-.51-1.64-1.29-1.64s-1.3.59-1.3,1.64.51,1.64,1.3,1.64S348,160.1,348,159.06Z"/><path class="cls-12" d="M350.37,156.84h.7v.71h0a1.57,1.57,0,0,1,2.93.85v2.87h-.74v-2.74c0-.72-.33-1.11-1-1.11a1.14,1.14,0,0,0-1.16,1.24v2.61h-.74Z"/><path class="cls-12" d="M274.48,190h-4.26v-7h.88v6.23h3.38Z"/><path class="cls-12" d="M280.36,188.51a2,2,0,0,1-2.1,1.54,2.3,2.3,0,0,1-2.34-2.6,2.35,2.35,0,0,1,2.3-2.64c1.37,0,2.21,1,2.21,2.53v.32H276.8v.05a1.45,1.45,0,0,0,1.48,1.6,1.21,1.21,0,0,0,1.25-.8ZM276.8,187h2.75a1.36,1.36,0,0,0-1.35-1.46A1.42,1.42,0,0,0,276.8,187Z"/><path class="cls-12" d="M282.08,188.53c0-.87.67-1.41,1.83-1.48l1.45-.08v-.43c0-.62-.41-1-1.11-1a1.07,1.07,0,0,0-1.17.81h-.81a1.79,1.79,0,0,1,2-1.55c1.19,0,1.94.64,1.94,1.65V190h-.8v-.87h0a1.85,1.85,0,0,1-1.63,1A1.52,1.52,0,0,1,282.08,188.53Zm3.28-.49v-.42l-1.35.09c-.68,0-1.07.34-1.07.82s.4.8,1,.8A1.33,1.33,0,0,0,285.36,188Z"/><path class="cls-12" d="M288,187.43c0-1.59.87-2.62,2.15-2.62a1.79,1.79,0,0,1,1.61.91h0v-2.78h.84v7h-.8v-.86h0a1.79,1.79,0,0,1-1.63,1C288.92,190.05,288,189,288,187.43Zm.87,0c0,1.15.56,1.87,1.46,1.87s1.45-.74,1.45-1.87-.58-1.88-1.45-1.88S288.91,186.28,288.91,187.43Z"/><path class="cls-12" d="M300.93,190.08c-2,0-3.21-1.44-3.21-3.67s1.25-3.59,3.21-3.59a2.82,2.82,0,0,1,2.94,2.3H303a2,2,0,0,0-2-1.49c-1.44,0-2.31,1-2.31,2.78s.88,2.86,2.31,2.86a2,2,0,0,0,2.11-2v-.12h-2v-.77h2.85v.66A2.75,2.75,0,0,1,300.93,190.08Z"/><path class="cls-12" d="M310.1,188.51a2,2,0,0,1-2.11,1.54,2.3,2.3,0,0,1-2.33-2.6,2.34,2.34,0,0,1,2.29-2.64c1.37,0,2.21,1,2.21,2.53v.32h-3.63v.05a1.45,1.45,0,0,0,1.48,1.6,1.21,1.21,0,0,0,1.25-.8ZM306.53,187h2.75a1.36,1.36,0,0,0-1.35-1.46A1.43,1.43,0,0,0,306.53,187Z"/><path class="cls-12" d="M312,184.9h.8v.81h0a1.7,1.7,0,0,1,1.61-.9,1.66,1.66,0,0,1,1.75,1.86V190h-.85v-3.14c0-.81-.38-1.26-1.16-1.26a1.29,1.29,0,0,0-1.32,1.42v3H312Z"/><path class="cls-12" d="M322.46,188.51a2,2,0,0,1-2.11,1.54,2.3,2.3,0,0,1-2.33-2.6,2.34,2.34,0,0,1,2.29-2.64c1.37,0,2.21,1,2.21,2.53v.32h-3.63v.05a1.45,1.45,0,0,0,1.48,1.6,1.21,1.21,0,0,0,1.26-.8ZM318.9,187h2.75a1.36,1.36,0,0,0-1.35-1.46A1.42,1.42,0,0,0,318.9,187Z"/><path class="cls-12" d="M324.38,184.9h.8v.82h0a1.24,1.24,0,0,1,1.22-.91,2.09,2.09,0,0,1,.34,0v.83a1.4,1.4,0,0,0-.45,0,1.06,1.06,0,0,0-1.08,1.18V190h-.85Z"/><path class="cls-12" d="M328.15,188.53c0-.87.67-1.41,1.84-1.48l1.45-.08v-.43c0-.62-.41-1-1.11-1a1.06,1.06,0,0,0-1.17.81h-.82a1.79,1.79,0,0,1,2-1.55c1.19,0,1.94.64,1.94,1.65V190h-.8v-.87h0a1.84,1.84,0,0,1-1.63,1A1.52,1.52,0,0,1,328.15,188.53Zm3.29-.49v-.42l-1.36.09c-.68,0-1.07.34-1.07.82s.4.8,1,.8A1.34,1.34,0,0,0,331.44,188Z"/><path class="cls-12" d="M335.48,183.67v1.23h1v.69h-1v3c0,.46.19.67.63.67l.35,0V190a3.51,3.51,0,0,1-.54,0c-.93,0-1.29-.38-1.29-1.36v-3h-.75v-.69h.75v-1.23Z"/><path class="cls-12" d="M338.3,183.47a.53.53,0,0,1,.53-.53.52.52,0,0,1,.53.53.53.53,0,0,1-.53.53A.53.53,0,0,1,338.3,183.47Zm.11,1.43h.85V190h-.85Z"/><path class="cls-12" d="M341.15,187.43a2.36,2.36,0,1,1,2.35,2.62A2.34,2.34,0,0,1,341.15,187.43Zm3.83,0c0-1.19-.59-1.88-1.48-1.88s-1.49.69-1.49,1.88.59,1.87,1.49,1.87S345,188.62,345,187.43Z"/><path class="cls-12" d="M347.69,184.9h.8v.81h0a1.69,1.69,0,0,1,1.61-.9,1.66,1.66,0,0,1,1.75,1.86V190H351v-3.14c0-.81-.38-1.26-1.16-1.26a1.29,1.29,0,0,0-1.32,1.42v3h-.85Z"/><path class="cls-12" d="M274.64,199.62a2,2,0,0,1,0,3.95h-1.42v2.19h-.77v-6.14Zm-1.43,3.27h1.23a1.3,1.3,0,1,0,0-2.59h-1.23Z"/><path class="cls-12" d="M279.13,205.76h-.77v-6.14h2.3a1.78,1.78,0,0,1,2,1.83,1.74,1.74,0,0,1-1.23,1.76l1.42,2.55h-.9l-1.31-2.43h-1.47Zm0-3.1h1.47a1.1,1.1,0,0,0,1.23-1.18,1.13,1.13,0,0,0-1.27-1.18h-1.43Z"/><path class="cls-12" d="M291.06,203.55c0,1.39-.76,2.29-1.88,2.29a1.56,1.56,0,0,1-1.41-.8h0v2.2H287v-5.9h.71v.74h0a1.61,1.61,0,0,1,1.43-.82C290.29,201.26,291.06,202.16,291.06,203.55Zm-.76,0c0-1-.49-1.64-1.28-1.64s-1.27.66-1.27,1.64.51,1.64,1.27,1.64S290.3,204.55,290.3,203.55Z"/><path class="cls-12" d="M292.63,200.08a.47.47,0,0,1,.93,0,.47.47,0,1,1-.93,0Zm.09,1.26h.74v4.42h-.74Z"/><path class="cls-12" d="M296.32,200.27v1.07h.86v.6h-.86v2.64c0,.4.17.58.55.58l.3,0v.62a1.91,1.91,0,0,1-.46,0c-.82,0-1.13-.33-1.13-1.19v-2.67h-.66v-.6h.66v-1.07Z"/><path class="cls-12" d="M301.67,202.79a1.09,1.09,0,0,0-1.13-.88c-.77,0-1.29.63-1.29,1.64s.53,1.64,1.3,1.64a1.06,1.06,0,0,0,1.12-.85h.73a1.75,1.75,0,0,1-1.86,1.5,2.31,2.31,0,0,1,0-4.58,1.76,1.76,0,0,1,1.86,1.53Z"/><path class="cls-12" d="M304,199.62h.74V202h0a1.46,1.46,0,0,1,1.4-.78,1.5,1.5,0,0,1,1.56,1.64v2.86H307V203a1,1,0,0,0-1.05-1.12,1.15,1.15,0,0,0-1.19,1.26v2.58H304Z"/><rect class="cls-3" x="261.33" y="168.39" width="157.17" height="21.83" rx="8.53"/><rect class="cls-3" x="261.33" y="212.68" width="157.17" height="21.83" rx="8.53"/><path class="cls-11" d="M276.17,183.35h-3.73v-6.14h.77v5.45h3Z"/><path class="cls-11" d="M277.73,177.67a.45.45,0,0,1,.46-.46.46.46,0,0,1,.47.46.47.47,0,0,1-.47.47A.46.46,0,0,1,277.73,177.67Zm.09,1.25h.74v4.43h-.74Z"/><path class="cls-11" d="M280.44,178.92h.7v.71h0a1.48,1.48,0,0,1,1.41-.78,1.45,1.45,0,0,1,1.53,1.63v2.87h-.74v-2.74c0-.72-.34-1.11-1-1.11a1.13,1.13,0,0,0-1.15,1.25v2.6h-.74Z"/><path class="cls-11" d="M288.65,178.92h.9l-1.92,1.91,2,2.52h-.86l-1.65-2.06-.41.39v1.67H286v-6.14h.74v3.68Z"/><path class="cls-11" d="M293.8,183.35v-6.14h2.33a1.57,1.57,0,0,1,1.76,1.53,1.38,1.38,0,0,1-1.06,1.34v0a1.47,1.47,0,0,1,1.37,1.51c0,1.08-.77,1.72-2.08,1.72Zm.77-3.49h1.15c.9,0,1.4-.37,1.4-1s-.42-1-1.17-1h-1.38Zm1.43,2.81c.93,0,1.41-.37,1.41-1.08s-.5-1.08-1.48-1.08h-1.36v2.16Z"/><path class="cls-11" d="M303.47,183.35h-.7v-.72h0a1.57,1.57,0,0,1-2.93-.83v-2.88h.74v2.74c0,.72.33,1.11,1,1.11a1.12,1.12,0,0,0,1.15-1.25v-2.6h.74Z"/><path class="cls-11" d="M305.25,177.67a.46.46,0,0,1,.47-.46.45.45,0,0,1,.46.46.46.46,0,0,1-.46.47A.47.47,0,0,1,305.25,177.67Zm.1,1.25h.74v4.43h-.74Z"/><path class="cls-11" d="M308,177.21h.75v6.14H308Z"/><path class="cls-11" d="M310.4,181.14c0-1.39.76-2.29,1.88-2.29a1.56,1.56,0,0,1,1.41.79h0v-2.43h.74v6.14h-.71v-.75h0a1.59,1.59,0,0,1-1.43.83C311.17,183.43,310.4,182.52,310.4,181.14Zm.76,0c0,1,.5,1.64,1.28,1.64s1.27-.65,1.27-1.64-.51-1.64-1.27-1.64S311.16,180.14,311.16,181.14Z"/><path class="cls-11" d="M316.27,177.67a.46.46,0,0,1,.47-.46.45.45,0,0,1,.46.46.46.46,0,0,1-.46.47A.47.47,0,0,1,316.27,177.67Zm.1,1.25h.74v4.43h-.74Z"/><path class="cls-11" d="M319,178.92h.7v.71h0a1.47,1.47,0,0,1,1.4-.78,1.46,1.46,0,0,1,1.54,1.63v2.87h-.74v-2.74c0-.72-.34-1.11-1-1.11a1.14,1.14,0,0,0-1.16,1.25v2.6H319Z"/><path class="cls-11" d="M324.41,183.72h.77a1.14,1.14,0,0,0,1.13.67,1.09,1.09,0,0,0,1.23-1.1v-.7h0a1.61,1.61,0,0,1-1.42.79c-1.13,0-1.87-.88-1.87-2.26s.74-2.27,1.89-2.27a1.61,1.61,0,0,1,1.44.82h0v-.75h.7v4.34a2,2,0,0,1-3.87.46Zm3.13-2.6c0-1-.51-1.62-1.28-1.62s-1.26.63-1.26,1.62.5,1.61,1.26,1.61S327.54,182.09,327.54,181.12Z"/><path class="cls-11" d="M272.21,224.11c0-1.93,1.08-3.17,2.76-3.17a2.43,2.43,0,0,1,2.55,2h-.77a1.76,1.76,0,0,0-1.78-1.34c-1.2,0-2,1-2,2.47s.77,2.47,2,2.47a1.7,1.7,0,0,0,1.77-1.19h.77a2.37,2.37,0,0,1-2.55,1.89C273.28,227.28,272.21,226.05,272.21,224.11Z"/><path class="cls-11" d="M282.83,227.18h-.7v-.72h0a1.57,1.57,0,0,1-2.94-.83v-2.88h.74v2.75c0,.71.34,1.1,1,1.1a1.12,1.12,0,0,0,1.16-1.24v-2.61h.74Z"/><path class="cls-11" d="M286.22,222.68a1.47,1.47,0,0,1,1.64,1.35h-.7a.85.85,0,0,0-.94-.75c-.54,0-.9.27-.9.66s.22.51.72.63l.7.17c.89.22,1.22.57,1.22,1.2s-.73,1.32-1.72,1.32a1.57,1.57,0,0,1-1.77-1.36h.74c.09.51.43.75,1,.75s1-.25,1-.65-.17-.5-.68-.63l-.7-.17c-.83-.2-1.24-.59-1.24-1.22S285.26,222.68,286.22,222.68Z"/><path class="cls-11" d="M290.58,221.69v1.06h.86v.61h-.86V226c0,.41.17.59.55.59l.31,0v.62a2.74,2.74,0,0,1-.47,0c-.81,0-1.13-.34-1.13-1.19v-2.67h-.66v-.61h.66v-1.06Z"/><path class="cls-11" d="M292.76,225a2.06,2.06,0,1,1,2.05,2.29A2,2,0,0,1,292.76,225Zm3.35,0c0-1.05-.51-1.64-1.3-1.64s-1.3.59-1.3,1.64.52,1.64,1.3,1.64S296.11,226,296.11,225Z"/><path class="cls-11" d="M298.49,222.75h.69v.71h0a1.32,1.32,0,0,1,1.26-.78,1.23,1.23,0,0,1,1.24.84h0a1.46,1.46,0,0,1,1.38-.84,1.36,1.36,0,0,1,1.45,1.45v3.05h-.74v-2.89a.86.86,0,0,0-.92-1,1,1,0,0,0-1,1v2.81h-.74v-3a.84.84,0,0,0-.91-.88,1,1,0,0,0-1,1.08v2.77h-.74Z"/><path class="cls-11" d="M310,225.91a1.76,1.76,0,0,1-1.85,1.35,2,2,0,0,1-2-2.28,2,2,0,0,1,2-2.3c1.2,0,1.93.87,1.93,2.21v.28h-3.17v0a1.26,1.26,0,0,0,1.29,1.41,1.07,1.07,0,0,0,1.1-.71Zm-3.12-1.32h2.41a1.19,1.19,0,0,0-1.18-1.27A1.24,1.24,0,0,0,306.92,224.59Z"/><path class="cls-11" d="M315.36,221.69v1.06h.86v.61h-.86V226c0,.41.17.59.55.59l.31,0v.62a2.74,2.74,0,0,1-.47,0c-.81,0-1.13-.34-1.13-1.19v-2.67H314v-.61h.66v-1.06Z"/><path class="cls-11" d="M321.42,225.91a1.74,1.74,0,0,1-1.84,1.35,2,2,0,0,1-2-2.28,2,2,0,0,1,2-2.3,1.94,1.94,0,0,1,1.93,2.21v.28H318.3v0a1.27,1.27,0,0,0,1.3,1.41,1.08,1.08,0,0,0,1.1-.71Zm-3.11-1.32h2.4a1.18,1.18,0,0,0-1.18-1.27A1.24,1.24,0,0,0,318.31,224.59Z"/><path class="cls-11" d="M323.1,222.75h.7v.71h0a1.32,1.32,0,0,1,1.25-.78,1.24,1.24,0,0,1,1.25.84h0a1.48,1.48,0,0,1,1.39-.84,1.35,1.35,0,0,1,1.44,1.45v3.05h-.74v-2.89a.86.86,0,0,0-.92-1,1,1,0,0,0-1,1v2.81h-.74v-3a.83.83,0,0,0-.9-.88,1,1,0,0,0-1,1.08v2.77h-.74Z"/><path class="cls-11" d="M335,225c0,1.39-.76,2.29-1.87,2.29a1.54,1.54,0,0,1-1.41-.8h0v2.2H331v-5.91h.7v.75h0a1.58,1.58,0,0,1,1.43-.82C334.27,222.68,335,223.58,335,225Zm-.75,0c0-1-.5-1.64-1.28-1.64s-1.27.65-1.27,1.64.51,1.64,1.27,1.64S334.28,226,334.28,225Z"/><path class="cls-11" d="M336.7,221h.74v6.14h-.74Z"/><path class="cls-11" d="M339.14,225.93c0-.76.58-1.23,1.6-1.29l1.27-.08v-.37c0-.54-.36-.86-1-.86a.93.93,0,0,0-1,.7h-.72a1.56,1.56,0,0,1,1.76-1.35c1,0,1.69.56,1.69,1.44v3.06h-.7v-.76h0a1.61,1.61,0,0,1-1.42.84A1.33,1.33,0,0,1,339.14,225.93Zm2.87-.43v-.36l-1.18.07c-.6,0-.94.3-.94.72s.35.7.88.7A1.17,1.17,0,0,0,342,225.5Z"/><path class="cls-11" d="M345.55,221.69v1.06h.86v.61h-.86V226c0,.41.17.59.55.59l.31,0v.62a2.74,2.74,0,0,1-.47,0c-.82,0-1.13-.34-1.13-1.19v-2.67h-.66v-.61h.66v-1.06Z"/><path class="cls-11" d="M351.61,225.91a1.75,1.75,0,0,1-1.84,1.35,2,2,0,0,1-2-2.28,2,2,0,0,1,2-2.3,2,2,0,0,1,1.94,2.21v.28h-3.18v0a1.27,1.27,0,0,0,1.3,1.41,1.06,1.06,0,0,0,1.09-.71Zm-3.11-1.32h2.4a1.19,1.19,0,0,0-1.18-1.27A1.24,1.24,0,0,0,348.5,224.59Z"/></svg>