<svg id="Layer_1" data-name="Layer 1" xmlns="http://www.w3.org/2000/svg" xmlns:xlink="http://www.w3.org/1999/xlink" viewBox="0 0 475 403.9"><defs><style>.cls-1{fill:none;}.cls-2{fill:#cafcf7;}.cls-3{fill:#34e2d9;}.cls-4{fill:#fff;}.cls-5{fill:#e0e0e0;}.cls-6{fill:#d1d3d4;}.cls-7{fill:#f8f9f9;}.cls-8{fill:#cdfcf8;}.cls-9{clip-path:url(#clip-path);}.cls-10{fill:url(#radial-gradient);}.cls-11{fill:url(#radial-gradient-2);}.cls-12{fill:#f9dac5;}.cls-13{fill:#f2be9b;}.cls-14{fill:#040b3a;}.cls-15{fill:url(#radial-gradient-3);}.cls-16{fill:url(#radial-gradient-4);}.cls-17{fill:#f7c9aa;}.cls-18{fill:url(#radial-gradient-5);}.cls-19{fill:url(#radial-gradient-6);}.cls-20{fill:url(#radial-gradient-7);}.cls-21{fill:url(#radial-gradient-8);}.cls-22{fill:url(#radial-gradient-9);}.cls-23{fill:url(#radial-gradient-10);}</style><clipPath id="clip-path"><circle class="cls-1" cx="86.98" cy="326.64" r="18.48"/></clipPath><radialGradient id="radial-gradient" cx="91.76" cy="320.67" r="10.43" gradientUnits="userSpaceOnUse"><stop offset="0" stop-color="#040b3a"/><stop offset="1" stop-color="#040b3a"/></radialGradient><radialGradient id="radial-gradient-2" cx="82.39" cy="320.67" r="10.43" xlink:href="#radial-gradient"/><radialGradient id="radial-gradient-3" cx="82.18" cy="320.21" r="1.31" xlink:href="#radial-gradient"/><radialGradient id="radial-gradient-4" cx="91.41" cy="320.21" r="1.31" xlink:href="#radial-gradient"/><radialGradient id="radial-gradient-5" cx="92.41" cy="319.97" r="0.57" xlink:href="#radial-gradient"/><radialGradient id="radial-gradient-6" cx="81.18" cy="319.97" r="0.57" xlink:href="#radial-gradient"/><radialGradient id="radial-gradient-7" cx="86.98" cy="316.14" r="9.56" xlink:href="#radial-gradient"/><radialGradient id="radial-gradient-8" cx="93.15" cy="332.57" r="3.37" xlink:href="#radial-gradient"/><radialGradient id="radial-gradient-9" cx="-3309.83" cy="198.86" r="2.63" gradientTransform="translate(-3216.13 534.41) rotate(180)" xlink:href="#radial-gradient"/><radialGradient id="radial-gradient-10" cx="92.77" cy="340.79" r="2.79" xlink:href="#radial-gradient"/></defs><title>Untitled-1</title><path class="cls-2" d="M26.36,309.37S-72.59,14.44,112.94,9.25,497.4,143.07,465.45,269.09,427.31,477,26.36,309.37Z"/><path class="cls-3" d="M424.86,241.35l-1-1.72c30.32-18,45.78-35.85,48.66-56,5.19-36.38-29.44-81.5-95.16-152C357.15,9.91,333.51.06,307.06,2.31c-46.77,4-94.77,45.27-126.8,79.2a606.33,606.33,0,0,0-59,73.6L119.58,154a606.92,606.92,0,0,1,59.2-73.86C211.06,46,259.48,4.35,306.89.32,334-2,358.18,8.08,378.81,30.22c66.14,71,101,116.5,95.67,153.68C471.51,204.7,455.74,223,424.86,241.35Z"/><rect class="cls-4" x="31.63" y="26.26" width="423.95" height="352.38" rx="4.72"/><path class="cls-5" d="M450.86,379.14H36.36a5.24,5.24,0,0,1-5.23-5.23V31a5.23,5.23,0,0,1,5.23-5.22h414.5A5.22,5.22,0,0,1,456.08,31V373.91A5.23,5.23,0,0,1,450.86,379.14ZM36.36,26.76A4.23,4.23,0,0,0,32.13,31V373.91a4.24,4.24,0,0,0,4.23,4.23h414.5a4.23,4.23,0,0,0,4.22-4.23V31a4.22,4.22,0,0,0-4.22-4.22Z"/><rect class="cls-6" x="120.67" y="115.28" width="301.26" height="13.87"/><rect class="cls-4" x="120.67" y="145.33" width="230.93" height="13.87"/><path class="cls-6" d="M352.1,159.7H120.17V144.83H352.1Zm-230.93-1H351.1V145.83H121.17Z"/><rect class="cls-6" x="120.67" y="177" width="230.93" height="56.27"/><rect class="cls-1" x="71.38" y="60.88" width="28.09" height="26.01"/><path class="cls-3" d="M84.5,106.31A18.46,18.46,0,1,1,103,87.85,18.48,18.48,0,0,1,84.5,106.31Zm0-34.92A16.46,16.46,0,1,0,101,87.85,16.48,16.48,0,0,0,84.5,71.39Z"/><path class="cls-3" d="M91.77,81.17a.23.23,0,0,0-.26,0l-15.8,7.34a.26.26,0,0,0-.15.22.26.26,0,0,0,.14.22l4.47,2.19a.25.25,0,0,0,.26,0l4.34-3.25-3.41,3.51a.26.26,0,0,0-.07.19L81.63,96a.26.26,0,0,0,.17.21h.08a.27.27,0,0,0,.18-.08l2.37-2.75,2.94,1.4a.23.23,0,0,0,.2,0,.24.24,0,0,0,.13-.15l4.14-13.18a.23.23,0,0,0-.07-.25Zm0,0"/><path class="cls-3" d="M120.38,89.21a4.61,4.61,0,0,0,2.34.66c1.33,0,2.11-.7,2.11-1.72s-.54-1.48-1.9-2c-1.65-.59-2.67-1.44-2.67-2.86,0-1.57,1.3-2.74,3.26-2.74a4.62,4.62,0,0,1,2.23.49l-.36,1.06a4,4,0,0,0-1.91-.47c-1.38,0-1.9.82-1.9,1.51,0,.94.61,1.4,2,1.94,1.71.66,2.58,1.48,2.58,3S125,91,122.63,91a5.21,5.21,0,0,1-2.58-.64Z"/><path class="cls-3" d="M130.21,87.42a2.32,2.32,0,0,0,2.49,2.51,4.73,4.73,0,0,0,2-.37l.23.94a5.85,5.85,0,0,1-2.41.45A3.36,3.36,0,0,1,129,87.3c0-2.19,1.28-3.91,3.39-3.91,2.37,0,3,2.08,3,3.41a4.15,4.15,0,0,1,0,.62Zm3.87-1a1.89,1.89,0,0,0-1.83-2.14,2.18,2.18,0,0,0-2,2.14Z"/><path class="cls-3" d="M138.48,85.52c0-.75,0-1.36-.06-2h1.16l.08,1.19h0a2.68,2.68,0,0,1,2.39-1.36c1,0,2.56.6,2.56,3.08V90.8h-1.31V86.62c0-1.16-.44-2.14-1.68-2.14a1.89,1.89,0,0,0-1.77,1.35,1.93,1.93,0,0,0-.09.62V90.8h-1.31Z"/><path class="cls-3" d="M154.54,80.17v8.76c0,.64,0,1.38.06,1.87h-1.18l-.07-1.26h0A2.69,2.69,0,0,1,150.86,91c-1.76,0-3.1-1.49-3.1-3.69,0-2.41,1.48-3.89,3.25-3.89a2.43,2.43,0,0,1,2.18,1.11h0V80.17Zm-1.32,6.34a2.14,2.14,0,0,0-.06-.56,1.93,1.93,0,0,0-1.9-1.53c-1.36,0-2.17,1.2-2.17,2.8s.72,2.68,2.14,2.68a2,2,0,0,0,1.93-1.57,2.08,2.08,0,0,0,.06-.57Z"/><rect class="cls-7" x="81.51" y="116.78" width="7.98" height="181.09"/><circle class="cls-8" cx="86.98" cy="326.64" r="17.46"/><circle class="cls-1" cx="86.98" cy="326.64" r="17.46"/><g class="cls-9"><path class="cls-10" d="M85,308.05a9.12,9.12,0,0,1,8.53,1.38,12.36,12.36,0,0,1,4,5.52,15.53,15.53,0,0,1-1.16,13.15,11.3,11.3,0,0,1-10.33,5.65A28.29,28.29,0,0,0,85,308.05Z"/><path class="cls-11" d="M89.11,308.05a9.13,9.13,0,0,0-8.53,1.38,12.44,12.44,0,0,0-4,5.52,15.61,15.61,0,0,0,1.16,13.15,11.31,11.31,0,0,0,10.34,5.65A28.29,28.29,0,0,1,89.11,308.05Z"/><path class="cls-12" d="M99.91,338.59a6.38,6.38,0,0,0-2-1l-6.78-2.12h0a1.29,1.29,0,0,1-.85-1.09,49.41,49.41,0,0,1-.2-5.76.09.09,0,0,0-.09-.08H84s-.09,0-.08.08a52.62,52.62,0,0,1-.21,5.76,1.27,1.27,0,0,1-.85,1.09h0L76,337.55a5.76,5.76,0,0,0-1.76.86c-2.76,2-2.84,5.35-3,6a.08.08,0,0,0,.08.1h31.13a.08.08,0,0,0,.08-.1C102.51,343.78,102.47,340.63,99.91,338.59Z"/><path class="cls-12" d="M99.91,338.59a6.38,6.38,0,0,0-2-1l-6.78-2.12h0a1.29,1.29,0,0,1-.85-1.09,49.41,49.41,0,0,1-.2-5.76.09.09,0,0,0-.09-.08H84s-.09,0-.08.08a52.62,52.62,0,0,1-.21,5.76,1.27,1.27,0,0,1-.85,1.09h0L76,337.55a5.76,5.76,0,0,0-1.76.86c-2.76,2-2.84,5.35-3,6a.08.08,0,0,0,.08.1h31.13a.08.08,0,0,0,.08-.1C102.51,343.78,102.47,340.63,99.91,338.59Z"/><path class="cls-13" d="M99.91,338.59a6.38,6.38,0,0,0-2-1l-.75-.23-6-1.89a1.29,1.29,0,0,1-.85-1.09,49.41,49.41,0,0,1-.2-5.76.09.09,0,0,0-.09-.08H84s-.09,0-.08.08a52.62,52.62,0,0,1-.21,5.76,1.27,1.27,0,0,1-.85,1.09l-6,1.89-.77.24a5.76,5.76,0,0,0-1.76.86c-2.76,2-2.84,5.35-3,6a.08.08,0,0,0,.08.1h31.13a.08.08,0,0,0,.08-.1C102.51,343.78,102.47,340.63,99.91,338.59Z"/><path class="cls-14" d="M102.54,344.74H71.41a.35.35,0,0,1-.26-.13.32.32,0,0,1-.07-.27c0-.07,0-.17,0-.29a8.1,8.1,0,0,1,3-5.85,6.25,6.25,0,0,1,1.83-.9l6.81-2.12a1.07,1.07,0,0,0,.67-.89,50.31,50.31,0,0,0,.2-5.71.35.35,0,0,1,.1-.24.31.31,0,0,1,.24-.1h6a.31.31,0,0,1,.24.1.35.35,0,0,1,.1.24,49.68,49.68,0,0,0,.2,5.71,1.09,1.09,0,0,0,.67.89L98,337.3a6.21,6.21,0,0,1,2.09,1.09,8,8,0,0,1,2.77,5.64c0,.14,0,.24,0,.31a.32.32,0,0,1-.07.27A.35.35,0,0,1,102.54,344.74Zm-30.94-.51h30.75l0-.14a7.56,7.56,0,0,0-2.58-5.3h0a6.12,6.12,0,0,0-1.93-1L91,335.67a1.54,1.54,0,0,1-1-1.3,44.55,44.55,0,0,1-.22-5.63H84.15a49.28,49.28,0,0,1-.21,5.63,1.57,1.57,0,0,1-1,1.3l-6.81,2.12a5.84,5.84,0,0,0-1.68.82,7.64,7.64,0,0,0-2.81,5.5Z"/><path class="cls-3" d="M96.52,337c-.23,1-1.11,3.09-4.48,4.06l-.11,0a16.37,16.37,0,0,1-9.33,0l-.08,0c-3.39-1-4.26-3.09-4.49-4.07l-1,.29v7.17h20.4v-7.17Z"/><path class="cls-13" d="M90.07,331.71c0-1.28,0-2.49,0-2.81a.09.09,0,0,0-.09-.09H84a.08.08,0,0,0-.08.09c0,.32,0,1.53,0,2.81"/><path class="cls-14" d="M89.82,331.71c0-1.12,0-2.2,0-2.64H84.15c0,.44,0,1.51,0,2.64h-.51c0-1.32,0-2.56,0-2.8a.37.37,0,0,1,.1-.24.35.35,0,0,1,.24-.1h6a.35.35,0,0,1,.24.1.37.37,0,0,1,.1.24c0,.24,0,1.49,0,2.8Z"/><path class="cls-13" d="M79.76,320.83c.54,1.28.23,3.28-.69,3.66s-2.1-1-2.64-2.26-.23-2.63.69-3S79.22,319.55,79.76,320.83Z"/><path class="cls-13" d="M94.19,320.83c-.53,1.28-.23,3.28.69,3.66s2.1-1,2.64-2.26.23-2.63-.69-3S94.73,319.55,94.19,320.83Z"/><path class="cls-13" d="M87,308.43c-9.19-.36-9.32,8.4-9.18,11.28a33.33,33.33,0,0,0,1.36,6.64,5,5,0,0,0,1.38,2.3c2.39,2.28,6.44,3.06,6.44,3.06s4-.78,6.44-3.06a5.12,5.12,0,0,0,1.37-2.3,34,34,0,0,0,1.37-6.64C96.29,316.83,96.16,308.07,87,308.43Z"/><path class="cls-14" d="M87,332h0a14.87,14.87,0,0,1-6.57-3.13,5.38,5.38,0,0,1-1.44-2.41,33.69,33.69,0,0,1-1.38-6.7c-.13-2.86.22-6.79,2.7-9.28A8.62,8.62,0,0,1,87,308.18a8.6,8.6,0,0,1,6.73,2.26c2.48,2.49,2.83,6.42,2.7,9.28a33.69,33.69,0,0,1-1.38,6.7,5.38,5.38,0,0,1-1.44,2.41A14.87,14.87,0,0,1,87,332Zm-.54-23.3a7.85,7.85,0,0,0-5.84,2.13c-2.47,2.49-2.66,6.64-2.55,8.9a33.81,33.81,0,0,0,1.35,6.58,4.85,4.85,0,0,0,1.31,2.18,14.43,14.43,0,0,0,6.27,3,14.46,14.46,0,0,0,6.26-3,4.85,4.85,0,0,0,1.31-2.18,33.09,33.09,0,0,0,1.35-6.58c.11-2.26-.08-6.41-2.55-8.9A8.15,8.15,0,0,0,87,308.68h-.55Z"/><path class="cls-14" d="M87,327.75a2.45,2.45,0,0,1-2-.87l.41-.29a2.33,2.33,0,0,0,3.23,0l.42.29A2.47,2.47,0,0,1,87,327.75Z"/><path class="cls-15" d="M82.18,318.8a1.43,1.43,0,1,1-1.2,1.41A1.31,1.31,0,0,1,82.18,318.8Z"/><ellipse class="cls-16" cx="91.41" cy="320.21" rx="1.2" ry="1.41"/><path class="cls-17" d="M82.18,323.59a1.33,1.33,0,1,1-1.33-1.33A1.33,1.33,0,0,1,82.18,323.59Z"/><path class="cls-17" d="M93.93,323.59a1.33,1.33,0,1,1-1.33-1.33A1.32,1.32,0,0,1,93.93,323.59Z"/><polygon class="cls-18" points="91.69 320.01 93.13 319.6 92.57 320.35 91.69 320.01"/><polygon class="cls-19" points="81.9 320.01 80.46 319.6 81.02 320.35 81.9 320.01"/><path class="cls-20" d="M87,307.69c-3.26-1.1-12.54,3.51-10,11.1.09,0,1.1,4.46,2.74,6a4.77,4.77,0,0,1-.86-3.85,12.09,12.09,0,0,1,.95-2.85c3.47-1.76,6.06-6.14,7.16-7.12,1,.93,4,4.93,7,6.83a12.84,12.84,0,0,1,1.08,3.14,4.77,4.77,0,0,1-.86,3.85c1.64-1.51,2.65-6,2.75-6C99.51,311.2,90.23,306.59,87,307.69Z"/><path class="cls-21" d="M93.72,334c.64-.84,1.68-1.35,2.19-2.28a2.52,2.52,0,0,0,.11-2.13,2.77,2.77,0,0,0-.26-.48,4.29,4.29,0,0,0-1.9-.17,4.34,4.34,0,0,0-3,6.72,1.3,1.3,0,0,0,2.33-.49A3.09,3.09,0,0,1,93.72,334Z"/><path class="cls-22" d="M93.26,334.43c-.51.65-1.32,1.05-1.71,1.78a2,2,0,0,0-.1,1.66,2.32,2.32,0,0,0,.21.38,3.35,3.35,0,0,0,1.49.13,3.42,3.42,0,0,0,2.93-3.24,3.36,3.36,0,0,0-.57-2,1,1,0,0,0-1.82.38A2.67,2.67,0,0,1,93.26,334.43Z"/><path class="cls-23" d="M91.88,338.11a2,2,0,0,0-.86,1.57c0,.54.19,1.07.23,1.61a2.7,2.7,0,0,1-1,2.3,3.69,3.69,0,0,0,5-3.5,2.75,2.75,0,0,0-.43-1.48A2.21,2.21,0,0,0,91.88,338.11Z"/></g><path class="cls-3" d="M87,345.12a18.48,18.48,0,1,1,18.47-18.48A18.5,18.5,0,0,1,87,345.12Zm0-35.94a17.46,17.46,0,1,0,17.46,17.46A17.49,17.49,0,0,0,87,309.18Z"/><rect class="cls-4" x="120.67" y="249.53" width="301.26" height="43.98"/><path class="cls-6" d="M422.43,294H120.17V249H422.43Zm-301.26-1H421.43V250H121.17Z"/><path class="cls-6" d="M121.42,322.18a13.79,13.79,0,0,1,2.66-.23,4.37,4.37,0,0,1,3.11.88,2.65,2.65,0,0,1,.85,2,2.82,2.82,0,0,1-2,2.75v.05a2.65,2.65,0,0,1,1.58,2.17,17.45,17.45,0,0,0,.83,3H127a13.21,13.21,0,0,1-.72-2.57c-.32-1.48-.9-2-2.16-2.09H122.8v4.66h-1.38Zm1.38,4.9h1.42c1.49,0,2.43-.82,2.43-2.05,0-1.39-1-2-2.47-2a6,6,0,0,0-1.38.13Z"/><path class="cls-6" d="M136,332.79l-.11-1h0A2.89,2.89,0,0,1,133.5,333a2.21,2.21,0,0,1-2.37-2.22c0-1.87,1.67-2.89,4.65-2.88v-.16a1.59,1.59,0,0,0-1.76-1.78,3.89,3.89,0,0,0-2,.57l-.32-.92a4.77,4.77,0,0,1,2.54-.69c2.36,0,2.94,1.61,2.94,3.16v2.89a10.45,10.45,0,0,0,.13,1.85Zm-.21-3.94c-1.53,0-3.27.24-3.27,1.74a1.24,1.24,0,0,0,1.32,1.34,1.92,1.92,0,0,0,1.87-1.29,1.47,1.47,0,0,0,.08-.45Z"/><path class="cls-6" d="M140.84,331.35a3.68,3.68,0,0,0,1.85.56c1,0,1.5-.51,1.5-1.15s-.4-1-1.44-1.42c-1.38-.49-2-1.26-2-2.18a2.39,2.39,0,0,1,2.67-2.27,3.84,3.84,0,0,1,1.9.48l-.35,1a3.07,3.07,0,0,0-1.59-.45c-.83,0-1.29.48-1.29,1.06s.46.92,1.47,1.3c1.34.52,2,1.19,2,2.34,0,1.35-1.06,2.31-2.89,2.31a4.37,4.37,0,0,1-2.17-.53Z"/><path class="cls-6" d="M149,321.46h1.4v4.82h0a2.67,2.67,0,0,1,1-1,2.87,2.87,0,0,1,1.44-.4c1,0,2.69.64,2.69,3.3v4.6h-1.4v-4.44c0-1.24-.46-2.3-1.79-2.3a2,2,0,0,0-1.88,1.41,1.69,1.69,0,0,0-.1.67v4.66H149Z"/><path class="cls-6" d="M160.18,329.18a2.47,2.47,0,0,0,2.65,2.68,5.16,5.16,0,0,0,2.14-.39l.24,1a6.29,6.29,0,0,1-2.57.48,3.59,3.59,0,0,1-3.8-3.9c0-2.33,1.37-4.16,3.63-4.16,2.52,0,3.19,2.22,3.19,3.64a4.38,4.38,0,0,1,0,.65Zm4.12-1a2,2,0,0,0-2-2.29,2.32,2.32,0,0,0-2.15,2.29Z"/><path class="cls-6" d="M169,321.46h1.41v11.33H169Z"/><path class="cls-6" d="M179.19,331.1a4.94,4.94,0,0,0,2.49.7c1.42,0,2.25-.75,2.25-1.84s-.57-1.58-2-2.13c-1.75-.63-2.84-1.54-2.84-3.05,0-1.68,1.39-2.92,3.48-2.92a4.93,4.93,0,0,1,2.38.52l-.38,1.14a4.18,4.18,0,0,0-2-.51c-1.47,0-2,.87-2,1.61,0,1,.65,1.5,2.14,2.07,1.82.71,2.74,1.58,2.74,3.16s-1.23,3.1-3.76,3.1a5.51,5.51,0,0,1-2.75-.69Z"/><path class="cls-6" d="M193.12,332.79l-.11-1h0A2.93,2.93,0,0,1,190.6,333a2.21,2.21,0,0,1-2.36-2.22c0-1.87,1.66-2.89,4.65-2.88v-.16a1.59,1.59,0,0,0-1.76-1.78,3.84,3.84,0,0,0-2,.57l-.32-.92a4.75,4.75,0,0,1,2.54-.69c2.36,0,2.93,1.61,2.93,3.16v2.89a11.5,11.5,0,0,0,.13,1.85Zm-.2-3.94c-1.53,0-3.27.24-3.27,1.74a1.24,1.24,0,0,0,1.32,1.34,1.93,1.93,0,0,0,1.87-1.29,1.47,1.47,0,0,0,.08-.45Z"/><path class="cls-6" d="M198.14,327.16c0-.8,0-1.46-.07-2.1h1.23l.06,1.25h0a2.67,2.67,0,0,1,2.43-1.42,2.3,2.3,0,0,1,2.19,1.55h0a3.21,3.21,0,0,1,.86-1,2.63,2.63,0,0,1,1.71-.54c1,0,2.54.67,2.54,3.35v4.55h-1.38v-4.37c0-1.49-.54-2.38-1.67-2.38a1.82,1.82,0,0,0-1.66,1.28,2.09,2.09,0,0,0-.12.7v4.77H203v-4.63c0-1.23-.54-2.12-1.61-2.12a1.91,1.91,0,0,0-1.74,1.4,2,2,0,0,0-.11.69v4.66h-1.37Z"/><path class="cls-6" d="M309.39,328.93c-.06-1.12-.13-2.48-.12-3.48h0c-.28.94-.61,1.95-1,3.06l-1.42,3.91H306l-1.31-3.84c-.38-1.13-.7-2.17-.93-3.13h0c0,1-.09,2.36-.16,3.56l-.21,3.46h-1l.56-8.06h1.33l1.38,3.9c.33,1,.61,1.88.81,2.71h0c.2-.81.49-1.7.85-2.71l1.43-3.9h1.33l.5,8.06h-1Z"/><path class="cls-6" d="M316.66,332.47l-.08-.73h0a2.13,2.13,0,0,1-1.77.86,1.65,1.65,0,0,1-1.77-1.66c0-1.4,1.25-2.17,3.48-2.15v-.12a1.19,1.19,0,0,0-1.31-1.34,2.84,2.84,0,0,0-1.51.43l-.24-.7a3.6,3.6,0,0,1,1.9-.51c1.77,0,2.2,1.21,2.2,2.37v2.16a8.24,8.24,0,0,0,.1,1.39Zm-.15-3c-1.15,0-2.46.18-2.46,1.3a.93.93,0,0,0,1,1,1.44,1.44,0,0,0,1.4-1,1.35,1.35,0,0,0,.06-.34Z"/><path class="cls-6" d="M320.71,326.68,322,330.1c.13.39.27.84.37,1.19h0c.11-.35.23-.79.37-1.21l1.15-3.4H325l-1.57,4.13c-.76,2-1.27,3-2,3.62a2.7,2.7,0,0,1-1.29.68l-.27-.88a2.68,2.68,0,0,0,.92-.51,3.22,3.22,0,0,0,.89-1.18.69.69,0,0,0,.08-.25.81.81,0,0,0-.07-.27l-2.14-5.34Z"/><path class="cls-6" d="M332.85,325.68h0l-1.35.73-.2-.81,1.7-.9h.89v7.77h-1Z"/><path class="cls-6" d="M338.51,331.73a4.43,4.43,0,0,0,.85,0,2.93,2.93,0,0,0,1.63-.75,3.42,3.42,0,0,0,1-2.07h0a2.34,2.34,0,0,1-4.13-1.54,2.68,2.68,0,0,1,2.66-2.77c1.59,0,2.57,1.3,2.57,3.28a4.94,4.94,0,0,1-1.34,3.65,3.88,3.88,0,0,1-2.26,1,5.09,5.09,0,0,1-1,.06Zm.38-4.47a1.5,1.5,0,0,0,1.5,1.65,1.75,1.75,0,0,0,1.53-.82.67.67,0,0,0,.09-.38c0-1.33-.49-2.35-1.59-2.35C339.52,325.36,338.89,326.15,338.89,327.26Z"/><path class="cls-6" d="M344.89,333.94a17.06,17.06,0,0,0,.72-2.86l1.17-.12a13.89,13.89,0,0,1-1.14,2.91Z"/><path class="cls-6" d="M348.91,332.47v-.65l.83-.8c2-1.89,2.88-2.89,2.89-4.06a1.39,1.39,0,0,0-1.54-1.52,2.69,2.69,0,0,0-1.65.65l-.34-.74a3.45,3.45,0,0,1,2.2-.79,2.19,2.19,0,0,1,2.38,2.26c0,1.44-1,2.6-2.67,4.18l-.63.57v0h3.5v.87Z"/><path class="cls-6" d="M361.42,328.5c0,2.64-1,4.1-2.71,4.1-1.52,0-2.54-1.42-2.57-4s1.12-4.05,2.7-4.05S361.42,326,361.42,328.5Zm-4.23.12c0,2,.63,3.17,1.58,3.17s1.59-1.26,1.59-3.24-.49-3.17-1.58-3.17C357.86,325.38,357.19,326.5,357.19,328.62Z"/><path class="cls-6" d="M365.87,325.68h0l-1.35.73-.21-.81,1.7-.9h.9v7.77h-1Z"/><path class="cls-6" d="M370.83,330.5a2.21,2.21,0,0,1,1.54-2.08v0a1.93,1.93,0,0,1-1.23-1.75,2.18,2.18,0,0,1,2.4-2.07,2,2,0,0,1,2.26,1.92,2,2,0,0,1-1.28,1.82v0a2.16,2.16,0,0,1,1.57,2,2.39,2.39,0,0,1-2.64,2.26C371.81,332.6,370.83,331.63,370.83,330.5Zm4.18-.05c0-.95-.65-1.4-1.71-1.7a1.68,1.68,0,0,0-1.39,1.6,1.44,1.44,0,0,0,1.55,1.49A1.4,1.4,0,0,0,375,330.45Zm-2.89-3.89c0,.78.59,1.2,1.48,1.44a1.54,1.54,0,0,0,1.19-1.41,1.21,1.21,0,0,0-1.32-1.27A1.23,1.23,0,0,0,372.12,326.56Z"/><path class="cls-6" d="M377.71,333l3.34-8.67h.81L378.51,333Z"/><path class="cls-6" d="M388.73,328.5c0,2.64-1,4.1-2.7,4.1-1.52,0-2.55-1.42-2.57-4s1.12-4.05,2.7-4.05S388.73,326,388.73,328.5Zm-4.22.12c0,2,.62,3.17,1.58,3.17s1.59-1.26,1.59-3.24-.49-3.17-1.58-3.17C385.18,325.38,384.51,326.5,384.51,328.62Z"/><path class="cls-6" d="M390.9,332.47v-.65l.83-.8c2-1.89,2.88-2.89,2.89-4.06a1.39,1.39,0,0,0-1.54-1.52,2.69,2.69,0,0,0-1.65.65l-.34-.74a3.45,3.45,0,0,1,2.2-.79,2.19,2.19,0,0,1,2.39,2.26c0,1.44-1.05,2.6-2.68,4.18l-.63.57v0h3.5v.87Z"/><path class="cls-6" d="M398.32,327.64a.72.72,0,1,1,1.43,0,.72.72,0,1,1-1.43,0Zm0,4.22a.72.72,0,1,1,1.43,0,.72.72,0,1,1-1.43,0Z"/><path class="cls-6" d="M401.91,332.47v-.65l.83-.8c2-1.89,2.88-2.89,2.89-4.06a1.39,1.39,0,0,0-1.54-1.52,2.71,2.71,0,0,0-1.65.65l-.34-.74a3.46,3.46,0,0,1,2.21-.79,2.19,2.19,0,0,1,2.38,2.26c0,1.44-1,2.6-2.68,4.18l-.62.57v0h3.49v.87Z"/><path class="cls-6" d="M409.5,331.26a3.57,3.57,0,0,0,1.73.49c1.35,0,1.77-.86,1.75-1.5,0-1.09-1-1.56-2-1.56h-.58v-.79H411c.77,0,1.74-.39,1.74-1.31,0-.63-.4-1.18-1.37-1.18a2.85,2.85,0,0,0-1.55.52l-.28-.77a3.71,3.71,0,0,1,2-.6c1.53,0,2.22.91,2.22,1.86a1.93,1.93,0,0,1-1.43,1.83v0a2,2,0,0,1,1.73,2c0,1.24-1,2.33-2.83,2.33a3.94,3.94,0,0,1-2-.52Z"/><rect class="cls-3" x="328.68" y="65.86" width="94.8" height="33.06" rx="9.37"/><path class="cls-4" d="M346,78V88.91h-1.41V78Z"/><path class="cls-4" d="M350.2,83.18c0-.81,0-1.47-.06-2.12h1.26l.08,1.3h0a2.87,2.87,0,0,1,2.59-1.48c1.09,0,2.77.65,2.77,3.34v4.69h-1.42V84.38c0-1.26-.47-2.31-1.82-2.31a2,2,0,0,0-1.91,1.45,2,2,0,0,0-.1.67v4.72H350.2Z"/><path class="cls-4" d="M360.63,87.45a3.7,3.7,0,0,0,1.88.57c1,0,1.52-.52,1.52-1.17s-.4-1-1.45-1.44c-1.42-.51-2.08-1.29-2.08-2.23a2.42,2.42,0,0,1,2.71-2.3,3.93,3.93,0,0,1,1.93.49l-.36,1a3,3,0,0,0-1.6-.46c-.85,0-1.32.49-1.32,1.07s.47.94,1.49,1.33c1.37.52,2.06,1.2,2.06,2.37,0,1.38-1.07,2.35-2.93,2.35a4.54,4.54,0,0,1-2.21-.53Z"/><path class="cls-4" d="M369.66,85.24A2.52,2.52,0,0,0,372.35,88a5.13,5.13,0,0,0,2.18-.41l.24,1a6.48,6.48,0,0,1-2.61.48,3.64,3.64,0,0,1-3.86-4c0-2.36,1.39-4.23,3.68-4.23,2.56,0,3.24,2.26,3.24,3.7,0,.29,0,.52,0,.66Zm4.19-1a2,2,0,0,0-2-2.32,2.36,2.36,0,0,0-2.19,2.32Z"/><path class="cls-4" d="M378.61,83.51c0-.93,0-1.72-.06-2.45h1.25l0,1.54h.07a2.37,2.37,0,0,1,2.17-1.72,1.64,1.64,0,0,1,.41.05v1.35a1.8,1.8,0,0,0-.49,0,2,2,0,0,0-1.91,1.83,4.18,4.18,0,0,0-.07.67v4.18h-1.41Z"/><path class="cls-4" d="M387.64,78.8v2.26h2.05v1.09h-2.05v4.23c0,1,.28,1.52,1.08,1.52a3.15,3.15,0,0,0,.82-.09l.07,1.07a3.65,3.65,0,0,1-1.27.19,2,2,0,0,1-1.54-.6,2.93,2.93,0,0,1-.55-2V82.15H385V81.06h1.22V79.18Z"/><polyline class="cls-4" points="410.43 82.08 406.02 86.49 401.61 82.08"/><path class="cls-2" d="M207.11,75.7a1.82,1.82,0,0,1,0,2.59l-.93.93L203,76l.93-.93a1.82,1.82,0,0,1,2.59,0Zm0,0"/><path class="cls-2" d="M206.18,79.22l-8.4,8.4h0l-3.21-3.21L203,76Zm0,0"/><path class="cls-2" d="M194.57,84.41l3.21,3.21,0,0-4.44,1.24,1.23-4.45Zm0,0"/><path class="cls-3" d="M206.55,87.17a.53.53,0,0,0-.53.53v4.66a1.57,1.57,0,0,1-1.57,1.57H189.73a1.59,1.59,0,0,1-1.58-1.57V78.68a1.59,1.59,0,0,1,1.58-1.57h4.66a.52.52,0,0,0,.52-.52.52.52,0,0,0-.52-.53h-4.66a2.62,2.62,0,0,0-2.62,2.62V92.36A2.62,2.62,0,0,0,189.73,95h14.72a2.62,2.62,0,0,0,2.62-2.62V87.7a.52.52,0,0,0-.52-.53Zm0,0"/><path class="cls-3" d="M206.87,74.71a2.37,2.37,0,0,0-3.34,0l-9.36,9.36a.62.62,0,0,0-.14.23l-1.23,4.45a.52.52,0,0,0,.14.51.52.52,0,0,0,.51.13l4.44-1.23a.48.48,0,0,0,.23-.13l0,0,9.33-9.33a2.37,2.37,0,0,0,0-3.34ZM194.82,85.4l2,2-2.73.75Zm3,2.22h0l.34.35Zm0-.74-2.47-2.47L203,76.75l2.47,2.47Zm9-9-.56.56L203.71,76l.56-.56a1.31,1.31,0,0,1,1.85,0l.62.62a1.31,1.31,0,0,1,0,1.85Zm0,0"/><rect class="cls-1" x="187.11" y="73.99" width="21.07" height="21.01"/><path class="cls-3" d="M229.16,87.64V79.16h4.17c1.73,0,2.75.8,2.75,2.12a1.86,1.86,0,0,1-1.72,1.83v0a2.08,2.08,0,0,1,2.1,2c0,1.49-1.17,2.47-3,2.47Zm2.49-5.08h1c.64,0,1-.34,1-.85s-.38-.84-1-.84h-1Zm1.07,3.37c.77,0,1.21-.34,1.21-1s-.45-1-1.2-1h-1.08v1.94Z"/><path class="cls-3" d="M243.57,78.69h1.12l-1.37,9h-1.11Z"/><path class="cls-3" d="M252.08,84.55a2.12,2.12,0,0,0,4.23,0V79.16h1.31v5.5c0,1.83-1.3,3.12-3.43,3.12s-3.43-1.29-3.43-3.12v-5.5h1.32Z"/><rect class="cls-3" x="248.5" y="89.31" width="11.44" height="2"/><rect class="cls-3" x="292.44" y="79.68" width="9.63" height="9.63" rx="3.29"/><path class="cls-6" d="M288,84.88H286.7l-.31.91h-.54l1.21-3.36h.56l1.22,3.36h-.55Zm-1.15-.42h1l-.5-1.47h0Z"/><rect class="cls-3" x="285.26" y="86.3" width="4.17" height="1.49"/><polyline class="cls-4" points="310.52 83.6 308.39 85.72 306.26 83.6"/><polygon class="cls-5" points="308.39 86.43 305.91 83.95 306.61 83.24 308.39 85.02 310.16 83.24 310.87 83.95 308.39 86.43"/></svg>