<?xml version="1.0" encoding="utf-8"?>
<!-- Generator: Adobe Illustrator 23.0.1, SVG Export Plug-In . SVG Version: 6.00 Build 0)  -->
<svg version="1.1" id="Layer_1" xmlns="http://www.w3.org/2000/svg" xmlns:xlink="http://www.w3.org/1999/xlink" x="0px" y="0px"
	 viewBox="0 0 457.39 366.88" style="enable-background:new 0 0 457.39 366.88;" xml:space="preserve">
<style type="text/css">
	.st0{fill:#DCF7FF;}
	.st1{fill:#55DAF9;}
	.st2{fill:#FFFFFF;}
	.st3{fill:#E0E0E0;}
	.st4{fill:#ED7E7E;}
	.st5{opacity:0.2;}
	.st6{fill:#212226;}
	.st7{fill:#393F5C;}
	.st8{fill:#D99393;}
	.st9{fill:#9A9FB3;}
	.st10{fill:#FFE7DB;}
	.st11{fill:#31AEE0;}
	.st12{fill:#FFADAD;}
	.st13{fill:#392ECF;}
	.st14{fill:#21D9F7;}
	.st15{fill:#05D3E8;}
	.st16{opacity:0.67;fill:#FFFFFF;}
	.st17{fill:#B2B210;}
	.st18{fill:#402C2C;}
	.st19{fill:#BAC121;}
	.st20{fill:#827E06;}
	.st21{fill:#F2BE9B;}
	.st22{fill:#FB7484;}
	.st23{fill:#FFF2DE;}
	.st24{fill:#FCB415;}
	.st25{fill:#F4CDAF;}
	.st26{fill:#2B3044;}
	.st27{fill:#F5CEB0;}
	.st28{fill:#062338;}
	.st29{fill:#F4536E;}
	.st30{fill:#EFF0F1;}
	.st31{fill:#122330;}
	.st32{fill:#A6A4A4;}
	.st33{fill:#FFD54D;}
	.st34{fill:#DBDAD9;}
	.st35{fill:#FAB71F;}
	.st36{fill:#FFDF3A;}
	.st37{fill:#F5F6F6;}
	.st38{fill:#EDECED;}
	.st39{fill:#C1C1C1;}
	.st40{fill:#98928D;}
	.st41{fill:#A19F9F;}
	.st42{fill:#05C0D3;}
	.st43{fill:#005467;}
	.st44{fill:#004263;}
	.st45{opacity:0.13;}
	.st46{fill:#A6D6CA;}
	.st47{fill:#B7B713;}
	.st48{fill:#AAAA04;}
	.st49{fill:#0A2132;}
	.st50{fill:#D5F7D5;}
	.st51{fill:#71CC77;}
	.st52{fill:#2DB22F;}
	.st53{fill:#FBB992;}
	.st54{fill:#292951;}
	.st55{fill:#373462;}
	.st56{fill:#EA4444;}
	.st57{fill:#231F20;}
	.st58{fill:#FC5954;}
	.st59{opacity:0.2;fill:#FFFFFF;}
	.st60{opacity:0.2;fill:#231F20;}
	.st61{opacity:0.5;fill:#FFFFFF;}
	.st62{fill:#C7F9F5;}
	.st63{fill:#34E2D9;}
	.st64{fill:#FFD0C1;}
	.st65{fill:#BCBEC0;}
	.st66{fill:#EAD2B7;}
	.st67{fill:#33435A;}
	.st68{fill:#222D3D;}
	.st69{fill:#D7765B;}
	.st70{fill:#263343;}
	.st71{fill:#FDC4B1;}
	.st72{fill:#D0E8F4;}
	.st73{fill:#E3E3E4;}
	.st74{fill:#CCCDCE;}
	.st75{fill:#9D9D9F;}
	.st76{fill:#EAEAEA;}
	.st77{fill:#F6F6F6;}
	.st78{fill:#FFBDB8;}
	.st79{opacity:0.12;}
	.st80{fill:#272426;}
	.st81{fill:#AAAAAB;}
	.st82{fill:#427CCC;}
	.st83{fill-rule:evenodd;clip-rule:evenodd;fill:#FFFFFF;}
	.st84{fill-rule:evenodd;clip-rule:evenodd;fill:#C27629;}
	.st85{fill-rule:evenodd;clip-rule:evenodd;fill:#D8924C;}
	.st86{fill-rule:evenodd;clip-rule:evenodd;fill:#D18334;}
	.st87{fill-rule:evenodd;clip-rule:evenodd;fill:#E6E6E6;}
	.st88{fill-rule:evenodd;clip-rule:evenodd;fill:#313C50;}
	.st89{fill:#FFCD69;}
	.st90{fill-rule:evenodd;clip-rule:evenodd;fill:#A8610A;}
	.st91{fill-rule:evenodd;clip-rule:evenodd;fill:#814743;}
	.st92{fill-rule:evenodd;clip-rule:evenodd;fill:#FCDABE;}
	.st93{fill-rule:evenodd;clip-rule:evenodd;fill:#0288D1;}
	.st94{fill-rule:evenodd;clip-rule:evenodd;fill:#DBAC86;}
	.st95{fill-rule:evenodd;clip-rule:evenodd;fill:#4D4D4D;}
	.st96{fill-rule:evenodd;clip-rule:evenodd;fill:#FF386A;}
	.st97{fill-rule:evenodd;clip-rule:evenodd;fill:#D99990;}
	.st98{fill-rule:evenodd;clip-rule:evenodd;fill:#F8C8B4;}
	.st99{fill-rule:evenodd;clip-rule:evenodd;fill:#F04152;}
</style>
<g>
	<g>
		<path class="st2" d="M440.04,366.38H17.35c-9.31,0-16.85-7.54-16.85-16.85V17.35C0.5,8.04,8.04,0.5,17.35,0.5h422.69
			c9.31,0,16.85,7.54,16.85,16.85v332.18C456.89,358.83,449.34,366.38,440.04,366.38z"/>
		<path class="st3" d="M440.04,366.88H17.35C7.78,366.88,0,359.1,0,349.53V17.35C0,7.78,7.78,0,17.35,0h422.69
			c9.57,0,17.35,7.78,17.35,17.35v332.18C457.39,359.1,449.6,366.88,440.04,366.88z M17.35,1C8.33,1,1,8.33,1,17.35v332.18
			c0,9.02,7.33,16.35,16.35,16.35h422.69c9.02,0,16.35-7.33,16.35-16.35V17.35c0-9.02-7.33-16.35-16.35-16.35H17.35z"/>
	</g>
	<path class="st0" d="M189.14,333.66c0,0-18.18-1.16-40.42-5.67c-47.3-9.58-112.99-34.26-61.26-94.97
		c76.05-89.26,61.52-261.66,144.41-162.77s169.41,286.85,45.4,271.63"/>
	<path class="st2" d="M222.71,84.85c0-11.66-10.09-20.96-22.02-19.64c-9.11,1.01-16.45,8.4-17.41,17.52
		c-0.58,5.58,1.16,10.73,4.37,14.64c2.22,2.69,3.47,6.05,3.76,9.53l0.36,4.31h22.31l0.36-4.31c0.29-3.45,1.51-6.81,3.72-9.48
		C221.01,94,222.71,89.62,222.71,84.85z"/>
	<path class="st4" d="M207.45,111.7h-9.01l-2.46-18.39c0-1.48,0.84-3.45,2.22-3.45c0.57,0,0.96,0.55,1.27,0.99
		c0.08,0.12,0.16,0.22,0.23,0.31l0.55,0.33l-0.38-0.33c0.07-0.08,0.15-0.19,0.23-0.31c0.31-0.44,0.7-0.99,1.27-0.99
		s0.96,0.55,1.27,0.99c0.08,0.12,0.16,0.23,0.23,0.31l0.55,0.33l-0.38-0.33c0.07-0.08,0.15-0.19,0.23-0.31
		c0.31-0.44,0.7-0.99,1.27-0.99s0.96,0.55,1.27,0.99c0.08,0.12,0.16,0.23,0.23,0.31l0.55,0.33l-0.38-0.33
		c0.07-0.08,0.15-0.19,0.23-0.31c0.31-0.44,0.7-0.99,1.27-0.99c1.38,0,2.22,1.97,2.22,3.38L207.45,111.7z M199.31,110.7h7.26
		l2.34-17.53c0-1.1-0.69-2.28-1.2-2.31c-0.12,0.06-0.36,0.4-0.47,0.56c-0.1,0.15-0.2,0.28-0.29,0.39c-0.43,0.5-1.25,0.5-1.68,0
		c-0.09-0.1-0.19-0.24-0.29-0.39c-0.12-0.17-0.37-0.52-0.49-0.57c-0.05,0.05-0.3,0.4-0.42,0.57c-0.1,0.15-0.2,0.28-0.29,0.39
		c-0.43,0.5-1.26,0.5-1.69,0c-0.09-0.1-0.19-0.24-0.29-0.39c-0.12-0.17-0.37-0.52-0.49-0.57c-0.05,0.05-0.3,0.4-0.41,0.57
		c-0.1,0.15-0.2,0.28-0.29,0.39c-0.43,0.5-1.25,0.5-1.68,0c-0.09-0.1-0.19-0.24-0.29-0.39c-0.12-0.17-0.37-0.52-0.49-0.57
		c-0.47,0-1.18,1.2-1.18,2.38L199.31,110.7z"/>
	<polygon class="st5" points="191.47,107.47 191.79,111.2 214.1,111.2 214.41,107.47 	"/>
	<path class="st6" d="M257.78,189.63c0,0-9.38,2.08-10.35,4.17h15.03l-1.93-4.17H257.78z"/>
	<path class="st6" d="M267.54,210.41l-3.65,8.35c0,0-2.16,0.21-2.83,2.25l7.89-0.78l4.39-6.85l-1.79-2.98H267.54z"/>
	<path class="st7" d="M251.35,137.81c0,0-16.08,24.22-14.59,29.78c1.49,5.56,19.95,22.73,19.95,22.73h4.91
		c0,0-8.98-22.63-14.64-24.12l16.33-20.15l-2.14-8.24H251.35z"/>
	<path class="st5" d="M258.9,143.99l-21.05,25.86c4.3,6.92,18.86,20.47,18.86,20.47h4.91c0,0-8.98-22.63-14.64-24.12l14.13-17.44
		L258.9,143.99z"/>
	<path class="st7" d="M254.03,139.45l3.24,8.79l2.42,27.99l7.35,35.04h5.56c0,0,0.3-29.46-3.87-37.65l3.03-36.85L254.03,139.45z"/>
	<path class="st5" d="M261.18,137.81h-9.83c0,0-0.85,1.28-2.13,3.3c3.45,2.13,12.01,6.43,21.84,4.03l0.69-8.38l-10.43,1.58
		L261.18,137.81z"/>
	<path class="st6" d="M243.04,87.85c0,0-5.18-3.12-6.28-5.1c-1.1-1.98,0.57-1.67,0.57-1.67s-2.46-3.65-1.27-4.88
		c1.19-1.23,5.62,1.05,5.62,1.05s-1.54-2.86-0.44-3.38c1.1-0.53,2.23,1.21,5.13,2.3c2,0.75,6.95,1.97,6.91,4.47
		c2.37,0.92,3.87,4.04,2.86,6.76c-1.01,2.72-3.08,7.57-3.08,7.57L243.04,87.85z"/>
	<polygon class="st8" points="235.07,116.07 229.06,121.68 210.35,114.47 207.27,112.15 205.93,112.7 207.57,114.93 202.16,115.53 
		203.05,119.6 211.29,119.5 230.75,128.73 240.48,120.44 	"/>
	<g>
		<path class="st6" d="M205.65,113.88h-5.4c-2.2,0-3.99,1.79-3.99,3.99v8.22c0,2.2,1.79,3.99,3.99,3.99h5.4
			c2.2,0,3.99-1.79,3.99-3.99v-8.22C209.64,115.67,207.85,113.88,205.65,113.88z"/>
		<rect x="191.42" y="110" class="st9" width="23.05" height="16.97"/>
		<g>
			<polygon class="st5" points="214.47,112.77 191.42,114.84 191.42,113.84 214.47,111.77 			"/>
			<polygon class="st5" points="214.47,116.22 191.42,118.29 191.42,117.29 214.47,115.22 			"/>
			<polygon class="st5" points="214.47,119.67 191.42,121.75 191.42,120.74 214.47,118.67 			"/>
			<polygon class="st5" points="214.47,123.13 191.42,125.2 191.42,124.2 214.47,122.12 			"/>
		</g>
	</g>
	<polygon class="st10" points="241.07,106.39 232.51,117.04 240.08,122.55 246.09,115.82 	"/>
	<path class="st11" d="M251.57,98.58c3.58-0.7,10.27,1.19,13.18,7c2.9,5.81,9.31,23.08,8.49,33.36c0,0-12.58,5.81-23.01,1.49
		c0,0-1.06-12.81-2.65-18.24c-1.59-5.44-4.52-5.51-6.51-15.78C241.07,106.39,245.84,99.69,251.57,98.58z"/>
	<path class="st5" d="M249.9,136.92l12.13-24.76l-14.43,10.07C248.65,125.86,249.47,132.74,249.9,136.92z"/>
	<path class="st12" d="M247.87,115.38l-7.05,8.04l-22.63-5.43c0,0-5.86-4.75-6.45-4.3c-0.6,0.45,1.69,3.33,1.69,3.33l-5.46,0.97
		l-3.62-0.28l2.28,5.11l4.27,0.6l6.6-0.87l25.26,8.81l13.2-10.62L247.87,115.38z"/>
	<path class="st10" d="M260.88,104.19c-3.23-2.11-6.55,0.27-9.13,3.15c-2.58,2.88-6.18,8.04-6.18,8.04l9.52,8.04
		c0,0,6.93-9.19,7.74-11.56C264.06,108.28,263.09,105.63,260.88,104.19z"/>
	<path class="st12" d="M242.3,83.98l-1.05,5.58h1.58c0,0-0.22,2.77-0.22,3.95c0,1.19,0.66,2.37,3.49,2.02l0.64,7.64
		c0,0,3.73,1.63,7.07-4.39l-1.45-7.38c0,0,1.98-0.31,2.15-2.37c0.18-2.06-2.42-1.05-2.42-1.05l-0.61,3.95l-1.84,0.4l0.18-6.68
		c0,0-4.29,0.88-5.49-0.26c-0.63-0.6-1.05-1.41-1.05-1.41H242.3z"/>
	<polygon class="st13" points="261.53,169.36 229.36,169.36 228.56,166.5 260.73,166.5 	"/>
	<polygon class="st13" points="265.26,182.74 233.1,182.74 232.3,179.88 264.46,179.88 	"/>
	<polygon class="st14" points="269,196.11 236.83,196.11 236.03,193.25 268.2,193.25 	"/>
	<polygon class="st14" points="272.73,209.48 240.57,209.48 239.77,206.62 271.93,206.62 	"/>
	<polygon class="st14" points="276.46,222.86 244.3,222.86 243.5,220 275.67,220 	"/>
	<polygon class="st14" points="280.2,236.23 248.04,236.23 247.24,233.37 279.4,233.37 	"/>
	<polygon class="st14" points="283.93,249.61 251.77,249.61 250.97,246.75 283.14,246.75 	"/>
	<polygon class="st14" points="287.67,262.98 255.5,262.98 254.71,260.12 286.87,260.12 	"/>
	<polygon class="st14" points="291.4,276.35 259.24,276.35 258.44,273.5 290.6,273.5 	"/>
	<polygon class="st14" points="295.14,289.73 262.97,289.73 262.18,286.87 294.34,286.87 	"/>
	<polygon class="st14" points="298.87,303.1 266.71,303.1 265.91,300.24 298.07,300.24 	"/>
	<polygon class="st14" points="302.61,316.48 270.44,316.48 269.64,313.62 301.81,313.62 	"/>
	<g>
		<polygon class="st15" points="280.1,344.66 276.53,344.66 223.17,153.59 226.75,153.59 		"/>
		<polygon class="st15" points="312.26,344.66 308.69,344.66 255.34,153.59 258.91,153.59 		"/>
	</g>
	<g>
		<path class="st2" d="M162.48,288.82l-4.15,51.68c-0.1,1.24,0.8,2.34,2.03,2.5c1.24,0.15,2.38-0.69,2.58-1.92l8.68-51.11
			L162.48,288.82z"/>
		<path class="st2" d="M249.62,288.82l4.15,51.68c0.1,1.24-0.8,2.34-2.03,2.5c-1.24,0.15-2.38-0.69-2.58-1.92l-8.68-51.11
			L249.62,288.82z"/>
	</g>
	<g>
		<path class="st2" d="M141.48,283.68l-4.15,51.68c-0.1,1.24,0.8,2.34,2.03,2.5c1.24,0.15,2.38-0.69,2.58-1.92l8.68-51.11
			L141.48,283.68z"/>
		<path class="st2" d="M228.62,283.68l4.15,51.68c0.1,1.24-0.8,2.34-2.03,2.5c-1.24,0.15-2.38-0.69-2.58-1.92l-8.68-51.11
			L228.62,283.68z"/>
	</g>
	<rect x="154.93" y="149.36" class="st2" width="102.24" height="147.87"/>
	
		<rect x="133.93" y="149.36" transform="matrix(-1 -1.224647e-16 1.224647e-16 -1 288.8568 446.5865)" class="st16" width="21" height="147.87"/>
	<rect x="158.41" y="152.54" class="st14" width="95.29" height="141.51"/>
	<g>
		<path class="st2" d="M251.41,262.87c0.13-1.23,0.21-2.48,0.17-3.75c-0.03-1.27-0.17-2.51-0.36-3.74l-5.95,0.15
			c-0.29-1.51-0.72-2.97-1.28-4.35l5.09-3.12c-1.03-2.31-2.37-4.44-3.94-6.38l-5.05,3.09c-0.99-1.15-2.1-2.2-3.3-3.13l2.83-5.2
			c-2.02-1.47-4.21-2.69-6.57-3.61l-2.85,5.24c-1.42-0.49-2.89-0.85-4.41-1.06l-0.15-5.95c-1.23-0.13-2.48-0.21-3.75-0.17
			c-1.27,0.03-2.51,0.17-3.74,0.36l0.15,5.95c-1.51,0.29-2.97,0.72-4.35,1.28l-3.12-5.09c-2.31,1.03-4.44,2.37-6.38,3.94l3.09,5.05
			c-1.15,0.99-2.2,2.1-3.13,3.3l-5.2-2.83c-1.47,2.02-2.69,4.21-3.61,6.57l5.24,2.85c-0.49,1.42-0.85,2.89-1.06,4.41l-5.95,0.15
			c-0.13,1.23-0.21,2.48-0.17,3.75c0.03,1.27,0.17,2.51,0.36,3.74l5.95-0.15c0.29,1.51,0.72,2.97,1.28,4.35l-5.09,3.12
			c1.03,2.31,2.37,4.44,3.94,6.38l5.05-3.09c0.99,1.15,2.1,2.2,3.3,3.13l-2.83,5.2c2.02,1.47,4.21,2.69,6.57,3.61l2.85-5.24
			c1.42,0.49,2.89,0.85,4.41,1.06l0.15,5.95c1.23,0.13,2.48,0.21,3.75,0.17c1.27-0.03,2.51-0.17,3.74-0.36l-0.15-5.95
			c1.51-0.29,2.97-0.72,4.35-1.28l3.12,5.09c2.31-1.03,4.44-2.37,6.38-3.94l-3.09-5.05c1.15-0.99,2.2-2.1,3.13-3.3l5.2,2.83
			c1.47-2.02,2.69-4.21,3.61-6.57l-5.24-2.85c0.49-1.42,0.85-2.89,1.06-4.41L251.41,262.87z M222.76,265.2
			c-2.95,0.08-5.41-2.26-5.49-5.21c-0.08-2.95,2.26-5.41,5.21-5.49c2.95-0.08,5.41,2.26,5.49,5.21
			C228.05,262.67,225.72,265.13,222.76,265.2z"/>
		<path class="st9" d="M222.62,272.66c-6.91,0-12.62-5.53-12.8-12.48c-0.18-7.06,5.42-12.95,12.48-13.13
			c7.07-0.16,12.95,5.42,13.13,12.48l0,0c0.18,7.06-5.42,12.95-12.48,13.13C222.84,272.66,222.73,272.66,222.62,272.66z
			 M222.63,248.05c-0.1,0-0.2,0-0.31,0c-6.51,0.17-11.67,5.6-11.5,12.11c0.17,6.51,5.62,11.7,12.11,11.5
			c6.51-0.17,11.67-5.6,11.5-12.11l0,0C234.27,253.15,229.01,248.05,222.63,248.05z"/>
		<path class="st9" d="M222.62,277.95c-9.76,0-17.83-7.81-18.08-17.63c-0.12-4.83,1.64-9.42,4.97-12.92s7.82-5.5,12.65-5.62
			c4.81-0.12,9.42,1.64,12.92,4.97s5.5,7.82,5.62,12.65l0,0c0.25,9.97-7.65,18.29-17.62,18.55
			C222.93,277.94,222.78,277.95,222.62,277.95z M222.64,242.76c-0.15,0-0.3,0-0.45,0.01c-4.56,0.12-8.81,2-11.95,5.31
			c-3.15,3.31-4.81,7.65-4.7,12.21c0.24,9.42,8.07,16.87,17.52,16.65c9.42-0.24,16.89-8.1,16.65-17.52l0,0
			c-0.12-4.56-2-8.81-5.31-11.95C231.2,244.42,227.04,242.76,222.64,242.76z"/>
	</g>
	<g>
		<path class="st2" d="M236.01,201.96c0.21-1.61,0.35-3.24,0.35-4.9s-0.14-3.29-0.35-4.9h-7.78c-0.32-1.99-0.84-3.9-1.53-5.74
			l6.76-3.91c-1.27-3.05-2.95-5.88-4.93-8.47l-6.71,3.87c-1.26-1.54-2.67-2.95-4.21-4.21l3.87-6.71c-2.59-1.98-5.42-3.66-8.47-4.93
			l-3.91,6.76c-1.84-0.69-3.75-1.21-5.74-1.53v-7.78c-1.61-0.21-3.24-0.35-4.9-0.35c-1.66,0-3.29,0.14-4.9,0.35v7.78
			c-1.99,0.32-3.9,0.84-5.74,1.53l-3.91-6.76c-3.05,1.27-5.88,2.95-8.47,4.93l3.87,6.71c-1.54,1.26-2.95,2.67-4.21,4.21l-6.71-3.87
			c-1.98,2.59-3.66,5.42-4.93,8.47l6.76,3.91c-0.69,1.84-1.21,3.75-1.53,5.74h-7.78c-0.21,1.61-0.35,3.24-0.35,4.9
			s0.14,3.29,0.35,4.9h7.78c0.32,1.99,0.84,3.9,1.53,5.74l-6.76,3.91c1.27,3.05,2.95,5.88,4.93,8.47l6.71-3.87
			c1.26,1.54,2.67,2.95,4.21,4.21l-3.87,6.71c2.59,1.98,5.42,3.66,8.47,4.93l3.91-6.76c1.84,0.69,3.75,1.21,5.74,1.53v7.78
			c1.61,0.21,3.24,0.35,4.9,0.35c1.66,0,3.29-0.14,4.9-0.35v-7.78c1.99-0.32,3.9-0.84,5.74-1.53l3.91,6.76
			c3.05-1.27,5.88-2.95,8.47-4.93l-3.87-6.71c1.54-1.26,2.95-2.67,4.21-4.21l6.71,3.87c1.98-2.59,3.66-5.42,4.93-8.47l-6.76-3.91
			c0.69-1.84,1.21-3.75,1.53-5.74H236.01z M198.47,204.06c-3.87,0-7-3.13-7-7c0-3.87,3.13-7,7-7c3.87,0,7,3.13,7,7
			C205.47,200.93,202.33,204.06,198.47,204.06z"/>
		<path class="st9" d="M198.47,213.66c-9.16,0-16.6-7.45-16.6-16.6s7.45-16.6,16.6-16.6c9.15,0,16.6,7.45,16.6,16.6
			S207.62,213.66,198.47,213.66z M198.47,181.46c-8.6,0-15.6,7-15.6,15.6s7,15.6,15.6,15.6c8.6,0,15.6-7,15.6-15.6
			S207.07,181.46,198.47,181.46z"/>
		<path class="st9" d="M198.47,220.57c-12.97,0-23.51-10.55-23.51-23.51s10.55-23.51,23.51-23.51s23.51,10.55,23.51,23.51
			S211.43,220.57,198.47,220.57z M198.47,174.55c-12.41,0-22.51,10.1-22.51,22.51c0,12.41,10.1,22.51,22.51,22.51
			c12.41,0,22.51-10.1,22.51-22.51C220.98,184.65,210.88,174.55,198.47,174.55z"/>
	</g>
	<path class="st7" d="M149.62,235.2l7,102.89h-7c0,0-9.23-35.89-8.04-45.86l-12.51-57.03H149.62z"/>
	<path class="st5" d="M132.11,249.06l9.47,43.17c-1.19,9.98,8.04,45.86,8.04,45.86h7l-3.67-53.92l-13.86-39.26L132.11,249.06z"/>
	<path class="st7" d="M142.85,236.69l-28.81,101.41h-6.7c0,0,4.62-42.89,10.57-50.7l4.02-50.7h21.59"/>
	<path class="st12" d="M159,185.09l29.26-22.11l7.67-6.63l5.06,0.37l1.49,2.16l-6.03,2.9c0,0,4.47,1.04,4.47,1.56s-7,1.79-9.46,1.86
		l-23.01,23.16l-10.05,5.96L159,185.09z"/>
	<path class="st17" d="M150.76,187.3l9.51-5.26c0,0,3.57,6.4,3.95,12.06l-16.08,13.7L150.76,187.3z"/>
	<polygon class="st5" points="152.55,204.04 150.64,188.29 150.64,188.29 148.13,207.8 	"/>
	<polygon class="st12" points="106,233.3 110.76,222.05 116.71,225.32 112.84,235.2 	"/>
	<path class="st12" d="M137.18,172.24l3.99,6.52l-1.99,0.95c0,0,1.36,3.92,0.73,5.38c-0.63,1.46-2.72,2.28-2.72,3.61
		s0.57,4.05,0.57,4.05l-7.52,3.1c0,0-1.03-6.77-1.97-7.46c-0.95-0.7-7.02-3.48-6.33-8.16l11.14-8.92L137.18,172.24z"/>
	<path class="st18" d="M131.23,184.83c-1.01,0.06-2.15-0.19-2.85-2.02c-0.7-1.83,0.32-2.47,1.2-2.59c0.89-0.13,2.34,3.35,2.88,2.91
		c0.54-0.44-0.35-4.81-0.35-4.81c1.33-1.77,0.37-4.3,0.37-4.3l-1.67-0.92l-8.89,7.12c-0.7,4.68,5.38,7.47,6.33,8.16
		c0.32,0.23,0.62,0.98,0.88,1.86C132.15,188.24,131.23,184.83,131.23,184.83z"/>
	<path class="st19" d="M117.91,201.99c7.74-5.66,26.9-10.82,32.86-14.69c0,0-1.62,40.78,1.81,54.03c0,0-13.75,3.03-33.5,1.84
		C119.07,243.17,122.87,214.4,117.91,201.99z"/>
	<path class="st5" d="M135.82,197.95c0,0,5.86,24.61,2.08,38.73C141.78,223.81,139.1,206.24,135.82,197.95z"/>
	<path class="st5" d="M124.06,214.93l-3.56,2.23c0.15,3.72,0.07,7.43-0.1,10.71L124.06,214.93z"/>
	<path class="st17" d="M117.91,201.99c-4.07,3.18-10.57,21.94-10.57,21.94l12.48,4.69l4.25-13.69
		C124.06,214.93,122.17,204.77,117.91,201.99z"/>
	<path class="st5" d="M136.26,215.01c-0.09-0.67-0.23-1.33-0.44-1.99c-0.21-0.66-0.47-1.29-0.78-1.89l-2.99,0.94
		c-0.48-0.81-1.08-1.52-1.77-2.12l1.45-2.78c-1.08-0.83-2.31-1.47-3.61-1.88l-1.45,2.78c-0.89-0.22-1.81-0.31-2.75-0.24l-0.94-2.99
		c-0.67,0.09-1.33,0.23-1.99,0.44c-0.66,0.21-1.29,0.47-1.89,0.78l0.94,2.99c-0.81,0.48-1.52,1.08-2.12,1.77l-2.78-1.45
		c-0.83,1.08-1.47,2.31-1.88,3.61l2.78,1.45c-0.22,0.89-0.31,1.81-0.24,2.75l-2.99,0.94c0.09,0.67,0.23,1.33,0.44,1.99
		c0.21,0.66,0.47,1.29,0.78,1.89l2.99-0.94c0.48,0.81,1.08,1.52,1.77,2.12l-1.45,2.78c1.08,0.83,2.31,1.47,3.61,1.88l1.45-2.78
		c0.89,0.22,1.81,0.31,2.75,0.24l0.94,2.99c0.67-0.09,1.33-0.23,1.99-0.44c0.66-0.21,1.29-0.47,1.89-0.78l-0.94-2.99
		c0.81-0.48,1.52-1.08,2.12-1.77l2.78,1.45c0.83-1.08,1.47-2.31,1.88-3.61l-2.78-1.45c0.22-0.89,0.31-1.81,0.24-2.75L136.26,215.01z
		 M125.3,218.99c-1.34,0.42-2.77-0.32-3.19-1.66c-0.42-1.34,0.32-2.77,1.66-3.19c1.34-0.42,2.77,0.32,3.19,1.66
		C127.38,217.14,126.63,218.57,125.3,218.99z"/>
	<path class="st2" d="M137.45,213.82c-0.09-0.67-0.23-1.33-0.44-1.99c-0.21-0.66-0.47-1.29-0.78-1.89l-2.99,0.94
		c-0.48-0.81-1.08-1.52-1.77-2.12l1.45-2.78c-1.08-0.83-2.31-1.47-3.61-1.88l-1.45,2.78c-0.89-0.22-1.81-0.31-2.75-0.24l-0.94-2.99
		c-0.67,0.09-1.33,0.23-1.99,0.44c-0.66,0.21-1.29,0.47-1.89,0.78l0.94,2.99c-0.81,0.48-1.52,1.08-2.12,1.77l-2.78-1.45
		c-0.83,1.08-1.47,2.31-1.88,3.61l2.78,1.45c-0.22,0.89-0.31,1.81-0.24,2.75l-2.99,0.94c0.09,0.67,0.23,1.33,0.44,1.99
		c0.21,0.66,0.47,1.29,0.78,1.89l2.99-0.94c0.48,0.81,1.08,1.52,1.77,2.12l-1.45,2.78c1.08,0.83,2.31,1.47,3.61,1.88l1.45-2.78
		c0.89,0.22,1.81,0.31,2.75,0.24l0.94,2.99c0.67-0.09,1.33-0.23,1.99-0.44c0.66-0.21,1.29-0.47,1.89-0.78l-0.94-2.99
		c0.81-0.48,1.52-1.08,2.12-1.77l2.78,1.45c0.83-1.08,1.47-2.31,1.88-3.61l-2.78-1.45c0.22-0.89,0.31-1.81,0.24-2.75L137.45,213.82z
		 M126.49,217.8c-1.34,0.42-2.77-0.32-3.19-1.66c-0.42-1.34,0.32-2.77,1.66-3.19c1.34-0.42,2.77,0.32,3.19,1.66
		C128.57,215.95,127.83,217.38,126.49,217.8z"/>
	<path class="st20" d="M129.81,193.42c0,0,1.47,1.15,4.58,0.79v3.74l-5.2-1.69L129.81,193.42z"/>
	<path class="st20" d="M134.39,194.21l2.72,2.85l2.59-4.87l-2-1.68C137.71,190.51,136.99,192.4,134.39,194.21z"/>
	<polygon class="st5" points="137.18,172.24 133.07,171.29 121.93,180.21 138.58,174.53 	"/>
	<path class="st4" d="M121.93,180.21c0,0,22.08-10.44,21.96-10.82c-0.13-0.38-6.26,1.9-6.26,1.9s-2.59-5.13-7.02-4.43
		c-4.43,0.7-9.05,5.31-9.43,7.53C120.79,176.61,121.93,180.21,121.93,180.21z"/>
	<path class="st12" d="M105.47,236.69c1.06,2.7,6.4,2.75,24.64-9.9c0,0,4.32-0.37,6.11-1.94c1.79-1.56,3.57-5.44,3.57-5.44
		l-0.74-0.45c0,0-5.14,2.83-6.03,2.46c-0.89-0.37,1.56-3.57,1.19-3.8s-4.39,2.75-5.81,5.36c0,0-12.58,4.99-17.42,7.07
		C106.14,232.15,104.5,234.23,105.47,236.69z"/>
	<path class="st21" d="M273.38,283.54l11.2,7.46l-5.58,17.4c0,0-4.06,1.81-4.8,3.21c-0.74,1.4-2.06,3.21-1.32,3.13
		c0.74-0.08,2.88-1.89,3.29-1.89s-0.66,4.94-0.66,4.94s3.71-0.49,5.1-2.63c1.4-2.14,2.24-5.93,2.24-5.93s6.65-12.43,8.3-21.08
		c0,0-12.51-10.79-16.55-12.35C270.58,274.24,268.11,280.61,273.38,283.54z"/>
	<path class="st5" d="M279,287.29l5.58,3.72l-5.58,17.4c0,0-4.06,1.81-4.8,3.21c-0.74,1.4-2.06,3.21-1.32,3.13
		c0.74-0.08,2.88-1.89,3.29-1.89c0.41,0-0.66,4.94-0.66,4.94s3.71-0.49,5.1-2.63c1.4-2.14,2.24-5.93,2.24-5.93
		s5.39-10.08,7.67-18.39L279,287.29z"/>
	<path class="st7" d="M262.8,305.07l-1.37,2.2c0,0-30.54-1.59-34.61,3.72c-4.08,5.31,5.31,14.7,16.43,21.86s7.29,4.94,7.29,4.94
		s-10.62,1.48-10.5,3.09c0.12,1.61,20.25,0,20.25,0l-18.03-20.62l25.32,1.23l5.43-15.19L262.8,305.07z"/>
	<g class="st5">
		<path d="M250.53,337.8c0,0-10.62,1.48-10.5,3.09c0.12,1.61,20.25,0,20.25,0l-17.26-19.74c-3.27,2.09-6.28,4.03-8.36,5.39
			c2.56,2.19,5.5,4.34,8.58,6.32C254.36,340.02,250.53,337.8,250.53,337.8z"/>
		<path d="M261.43,309.46c0,0-9.07,5.73-17.17,10.9l23.31,1.14l5.43-15.19l-9.75-1.18L261.43,309.46z"/>
	</g>
	<path class="st7" d="M263.68,304.09l-0.88,5.93c0,0-14.12,9.02-19.68,16.8s-10.15,16.24-7.98,19.51
		c3.78,5.68,39.59-9.51,39.59-9.51l-1.11,5.93c0,0-5.28,3.33-4.68,4.2c0.6,0.86,11.1-2.35,11.1-2.35s3.21-13.46,2.1-16.3
		c-1.11-2.84-8.11,3.58-8.11,3.58l-17.98,2.23c0,0,13.61-6.43,21.02-12.11c5.46-4.19,6.72-11.49,3.3-17.91H263.68z"/>
	<path class="st18" d="M248,258.14c0,0-6.42,8.46,5.74,10.99c12.16,2.53,10.09-4.3,9.29-5.97S252.2,256.54,248,258.14z"/>
	<path class="st21" d="M249.23,261.35c0,0,1.19,5.22,0,7.14h1.85c0,0,1.06,2.05,1.78,3.44c0.73,1.39,3.11-0.59,4.03,0
		c0.93,0.59,2.67,5.64,2.67,5.64l9.1-2.73l-7.6-15.73L249.23,261.35z"/>
	<path class="st22" d="M257.08,274.02c0,0,3.21,0.55,7.82-2.25l1.65,1.65l5.85,0.63c0,0,5.27,6.54,6.18,14.52
		c0.91,7.99,1.81,12.6,3.54,14.33c1.73,1.73,0.16,3.7-1.4,4.03c-1.56,0.33-15.15,0.74-17.91,0.74s-1.77-2.63-0.62-3.7
		c1.15-1.07,1.32-6.59-0.82-8.64c-2.14-2.06-5.01-3.51-6.01-6.75c-1.44-4.65,2.47-11.94,2.47-11.94L257.08,274.02z"/>
	<path class="st21" d="M241.53,294.85c0,0,8.44-8.62,10.67-11.58c2.22-2.96,6.11-5.71,8.58-2.67c2.13,2.63-1.61,6.62-2.41,7.85
		c-0.61,0.95-9.54,9.03-13.69,12.76c-1.25,1.13-3.08,1.33-4.56,0.52l-16.38-9.05c0,0-1.52,0.8-3.56,0.55
		c-2.04-0.25-1.74-0.21-2.61-1.02c-0.86-0.8-3.71-2.75-3.71-3.93c0,0,6.3,0.92,7.22,0.05c0.93-0.86-1.05-3.52-0.06-4.38l3.45,4.33
		L241.53,294.85z"/>
	<path class="st5" d="M254.14,264.72c0.49,4.9,5.93,4.95,7.71,7.88c1.78,2.93,0.56,5.07,3.86,6.21c3.23,1.11,8.51,6.86,11.17,3.26
		c-1.86-4.74-4.5-8.02-4.5-8.02l-4.33-0.46l-5.03-10.41l0,0l0,0l-1.96-4.06l-3.48,0.66c-3.31-1.42-7.3-2.49-9.58-1.62
		c0,0-0.59,0.79-1.08,1.95C247.28,265.07,254.14,264.72,254.14,264.72z"/>
	<path class="st18" d="M246.62,258.02c0.36-4.79,8.23-6.18,12.84-4.36c4.61,1.81,5.19,5.85,9.22,7.66c4.03,1.81,4.12,5.43,6.26,7.57
		c2.14,2.14,5.6,5.85,3.29,10.13c-2.31,4.28-8.15-1.32-11.53-2.22c-3.38-0.91-2.31-3.13-4.28-5.93c-1.98-2.8-7.41-2.47-8.23-7.33
		C254.19,263.54,246.12,264.52,246.62,258.02z"/>
	<polygon class="st15" points="158.41,224.82 158.41,294.05 205.21,294.05 	"/>
	<polygon class="st15" points="253.7,204.92 253.7,152.68 218.38,152.68 	"/>
	<g>
		<rect x="184.49" y="137.65" class="st9" width="30.08" height="11.71"/>
		<rect x="184.49" y="145.44" class="st5" width="30.08" height="3.92"/>
	</g>
	<path class="st0" d="M68.31,213.11c0,0,34.15-33.3,74.29-136.62S36.71,79.06,68.31,213.11z"/>
	<path class="st0" d="M281.38,111.98c0,0,101.15-39.83,110.87,45.12c9.72,84.96-38.01,110.97-38.01,110.97
		S327.09,120.88,281.38,111.98z"/>
</g>
</svg>
