<?xml version="1.0" encoding="utf-8"?>
<!-- Generator: Adobe Illustrator 23.0.2, SVG Export Plug-In . SVG Version: 6.00 Build 0)  -->
<svg version="1.1" id="Layer_1" xmlns="http://www.w3.org/2000/svg" xmlns:xlink="http://www.w3.org/1999/xlink" x="0px" y="0px"
	 viewBox="0 0 744.9 636" style="enable-background:new 0 0 744.9 636;" xml:space="preserve">
<style type="text/css">
	.st0{clip-path:url(#SVGID_2_);fill:#CAFCF7;}
</style>
<title>Home</title>
<g>
	<defs>
		<path id="SVGID_1_" d="M737.4,636H7.4c-4.1,0-7.5-3.4-7.5-7.5V7.5C-0.1,3.4,3.3,0,7.4,0h730c4.1,0,7.5,3.4,7.5,7.5v621
			C744.9,632.6,741.6,636,737.4,636z"/>
	</defs>
	<clipPath id="SVGID_2_">
		<use xlink:href="#SVGID_1_"  style="overflow:visible;"/>
	</clipPath>
	<path class="st0" d="M-13.1,466c0,0,193-163,134-276s205-21,205-21s272.5,95,424.3-78.5S467.9-101,467.9-101l-453,8l-146,168
		c0,0-24,265-18,270S-13.1,466-13.1,466z"/>
</g>
</svg>
