<svg id="Layer_1" data-name="Layer 1" xmlns="http://www.w3.org/2000/svg" xmlns:xlink="http://www.w3.org/1999/xlink" viewBox="0 0 444.36 501.32"><defs><style>.cls-1{fill:none;}.cls-2{fill:#cafcf7;}.cls-3{opacity:0.1;}.cls-4{opacity:0.14;}.cls-5{clip-path:url(#clip-path);}.cls-6{fill:#34e2d9;}.cls-7{fill:#fff;}.cls-8{fill:#e0e0e0;}.cls-9{fill:#d1d3d4;}</style><clipPath id="clip-path"><rect class="cls-1" x="44.24" y="36.18" width="361.28" height="80.01" rx="13.7"/></clipPath></defs><title>2</title><path class="cls-2" d="M38.63,254.64l81.87-82.82S-3.26,6.8,199.26,74.93s-23.75-19.37-23.75-19.37,456.28-255,180,335.65L250.57,413S-117.62,655,38.63,254.64Z"/><path class="cls-3" d="M51.75,425a63.32,63.32,0,0,0-3.18,8.49c-4.48,15-7.29,43.86,41.93,34,65.63-13.13,85.26-13.28,85.26-13.28l17-8.83-16.66-17.27"/><g class="cls-4"><g class="cls-5"><path d="M42.11,278.81l80.21-92.16S1.08,3.06,199.47,78.86,176.2,57.3,176.2,57.3s447-283.74,176.36,373.45L249.74,455S-111,724.24,42.11,278.81Z"/></g></g><path class="cls-6" d="M245.2,501.32c-32.9,0-74.89-19.86-125.32-59.32l1.24-1.57c64,50.1,114.13,68.37,148.94,54.3s41.28-57,41.34-57.4l0-.27.16-.21,59.08-76.13c-6.59-6.18-61.3-57-123.61-101.91-38.8-27.94-72.91-48.13-101.37-60-35.35-14.74-61.94-16.6-79-5.53C45.42,207,34.2,223,33.29,240.72c-1.68,33,33.11,61.3,33.46,61.58l-1.25,1.56c-.36-.29-35.94-29.28-34.21-63.24.94-18.4,12.48-34.89,34.29-49,17.69-11.45,44.9-9.64,80.9,5.37,28.6,11.93,62.85,32.19,101.78,60.23,66.23,47.7,123.88,102.14,124.46,102.68l.65.63-60,77.36c-.61,3.75-8,44.78-42.53,58.72A67.86,67.86,0,0,1,245.2,501.32Z"/><rect class="cls-7" x="40.81" y="36.58" width="349.4" height="68.13" rx="13.7"/><path class="cls-8" d="M376.51,105.21h-322A14.22,14.22,0,0,1,40.31,91V50.28a14.22,14.22,0,0,1,14.2-14.2h322a14.22,14.22,0,0,1,14.2,14.2V91A14.22,14.22,0,0,1,376.51,105.21Zm-322-68.13a13.21,13.21,0,0,0-13.2,13.2V91a13.22,13.22,0,0,0,13.2,13.21h322A13.22,13.22,0,0,0,389.71,91V50.28a13.21,13.21,0,0,0-13.2-13.2Z"/><rect class="cls-7" x="40.81" y="122.83" width="349.4" height="322.53" rx="13.7"/><path class="cls-8" d="M376.51,445.86h-322a14.22,14.22,0,0,1-14.2-14.2V136.54a14.22,14.22,0,0,1,14.2-14.21h322a14.22,14.22,0,0,1,14.2,14.21V431.66A14.22,14.22,0,0,1,376.51,445.86Zm-322-322.53a13.22,13.22,0,0,0-13.2,13.21V431.66a13.21,13.21,0,0,0,13.2,13.2h322a13.21,13.21,0,0,0,13.2-13.2V136.54a13.22,13.22,0,0,0-13.2-13.21Z"/><path class="cls-9" d="M108,83.66l-6.74-6.73a12.89,12.89,0,0,1-3.89,3.89l6.74,6.74a2.75,2.75,0,0,0,3.89-3.9Zm0,0"/><path class="cls-9" d="M101.51,70a11,11,0,1,0-11,11,11,11,0,0,0,11-11Zm-11,8.25A8.26,8.26,0,1,1,98.75,70a8.27,8.27,0,0,1-8.25,8.25Zm0,0"/><path class="cls-9" d="M84.08,70h1.83a4.6,4.6,0,0,1,4.59-4.59V63.59A6.44,6.44,0,0,0,84.08,70Zm0,0"/><rect class="cls-7" x="65.81" y="149.09" width="301.28" height="52.5" rx="14.93"/><path class="cls-9" d="M352.16,202.09H80.74a15.45,15.45,0,0,1-15.43-15.43V164a15.44,15.44,0,0,1,15.43-15.42H352.16A15.43,15.43,0,0,1,367.58,164v22.65A15.44,15.44,0,0,1,352.16,202.09ZM80.74,149.59A14.44,14.44,0,0,0,66.31,164v22.65a14.44,14.44,0,0,0,14.43,14.43H352.16a14.44,14.44,0,0,0,14.42-14.43V164a14.44,14.44,0,0,0-14.42-14.42Z"/><rect class="cls-7" x="65.81" y="220.97" width="301.28" height="52.5" rx="14.93"/><path class="cls-8" d="M352.16,274H80.74a15.44,15.44,0,0,1-15.43-15.42V235.89a15.44,15.44,0,0,1,15.43-15.42H352.16a15.44,15.44,0,0,1,15.42,15.42v22.66A15.44,15.44,0,0,1,352.16,274ZM80.74,221.47a14.44,14.44,0,0,0-14.43,14.42v22.66A14.44,14.44,0,0,0,80.74,273H352.16a14.44,14.44,0,0,0,14.42-14.42V235.89a14.44,14.44,0,0,0-14.42-14.42Z"/><rect class="cls-7" x="65.81" y="293.47" width="301.28" height="52.5" rx="14.93"/><path class="cls-8" d="M352.16,346.48H80.74a15.45,15.45,0,0,1-15.43-15.43V308.4A15.45,15.45,0,0,1,80.74,293H352.16a15.44,15.44,0,0,1,15.42,15.43v22.65A15.44,15.44,0,0,1,352.16,346.48ZM80.74,294A14.44,14.44,0,0,0,66.31,308.4v22.65a14.45,14.45,0,0,0,14.43,14.43H352.16a14.45,14.45,0,0,0,14.42-14.43V308.4A14.44,14.44,0,0,0,352.16,294Z"/><rect class="cls-7" x="65.81" y="364.73" width="301.28" height="52.5" rx="14.93"/><path class="cls-8" d="M352.16,417.73H80.74a15.44,15.44,0,0,1-15.43-15.42V379.65a15.44,15.44,0,0,1,15.43-15.42H352.16a15.44,15.44,0,0,1,15.42,15.42v22.66A15.44,15.44,0,0,1,352.16,417.73ZM80.74,365.23a14.44,14.44,0,0,0-14.43,14.42v22.66a14.44,14.44,0,0,0,14.43,14.42H352.16a14.44,14.44,0,0,0,14.42-14.42V379.65a14.44,14.44,0,0,0-14.42-14.42Z"/><rect class="cls-7" x="83.31" y="165.96" width="18.13" height="18.13" rx="4.38"/><path class="cls-6" d="M97.05,184.59H87.69a4.89,4.89,0,0,1-4.88-4.88v-9.37a4.89,4.89,0,0,1,4.88-4.88h9.36a4.89,4.89,0,0,1,4.89,4.88v9.37A4.89,4.89,0,0,1,97.05,184.59Zm-9.36-18.13a3.88,3.88,0,0,0-3.88,3.88v9.37a3.88,3.88,0,0,0,3.88,3.88h9.36a3.89,3.89,0,0,0,3.89-3.88v-9.37a3.89,3.89,0,0,0-3.89-3.88Z"/><rect class="cls-9" x="120.5" y="166.31" width="222.52" height="5.62"/><rect class="cls-7" x="120.5" y="178.48" width="170.58" height="5.62"/><path class="cls-9" d="M291.57,184.6H120V178H291.57ZM121,183.6H290.57V179H121Z"/><rect class="cls-6" x="83.31" y="237.84" width="18.13" height="18.13" rx="4.38"/><rect class="cls-9" x="120.5" y="238.19" width="188.15" height="5.62"/><rect class="cls-7" x="120.5" y="250.36" width="144.23" height="5.62"/><path class="cls-9" d="M265.22,256.48H120v-6.62H265.22Zm-144.22-1H264.22v-4.62H121Z"/><rect class="cls-7" x="83.31" y="310.97" width="18.13" height="18.13" rx="4.38"/><path class="cls-6" d="M97.05,329.6H87.69a4.89,4.89,0,0,1-4.88-4.88v-9.36a4.89,4.89,0,0,1,4.88-4.89h9.36a4.89,4.89,0,0,1,4.89,4.89v9.36A4.89,4.89,0,0,1,97.05,329.6Zm-9.36-18.13a3.89,3.89,0,0,0-3.88,3.89v9.36a3.88,3.88,0,0,0,3.88,3.88h9.36a3.89,3.89,0,0,0,3.89-3.88v-9.36a3.89,3.89,0,0,0-3.89-3.89Z"/><rect class="cls-9" x="120.5" y="311.32" width="222.52" height="5.62"/><rect class="cls-7" x="120.5" y="323.49" width="170.58" height="5.62"/><path class="cls-9" d="M291.57,329.61H120V323H291.57Zm-170.57-1H290.57V324H121Z"/><rect class="cls-6" x="83.31" y="382.23" width="18.13" height="18.13" rx="4.38"/><rect class="cls-9" x="120.5" y="382.57" width="222.52" height="5.62"/><rect class="cls-7" x="120.5" y="394.75" width="170.58" height="5.62"/><path class="cls-9" d="M291.57,400.87H120v-6.62H291.57Zm-170.57-1H290.57v-4.62H121Z"/></svg>