<?xml version="1.0" encoding="utf-8"?>
<!-- Generator: Adobe Illustrator 23.0.1, SVG Export Plug-In . SVG Version: 6.00 Build 0)  -->
<svg version="1.1" id="Layer_1" xmlns="http://www.w3.org/2000/svg" xmlns:xlink="http://www.w3.org/1999/xlink" x="0px" y="0px"
	 viewBox="0 0 457.39 366.88" style="enable-background:new 0 0 457.39 366.88;" xml:space="preserve">
<style type="text/css">
	.st0{fill:#DCF7FF;}
	.st1{fill:#55DAF9;}
	.st2{fill:#FFFFFF;}
	.st3{fill:#E0E0E0;}
	.st4{fill:#ED7E7E;}
	.st5{opacity:0.2;}
	.st6{fill:#212226;}
	.st7{fill:#393F5C;}
	.st8{fill:#D99393;}
	.st9{fill:#9A9FB3;}
	.st10{fill:#FFE7DB;}
	.st11{fill:#31AEE0;}
	.st12{fill:#FFADAD;}
	.st13{fill:#392ECF;}
	.st14{fill:#21D9F7;}
	.st15{fill:#05D3E8;}
	.st16{opacity:0.67;fill:#FFFFFF;}
	.st17{fill:#B2B210;}
	.st18{fill:#402C2C;}
	.st19{fill:#BAC121;}
	.st20{fill:#827E06;}
	.st21{fill:#F2BE9B;}
	.st22{fill:#FB7484;}
	.st23{fill:#FFF2DE;}
	.st24{fill:#FCB415;}
	.st25{fill:#F4CDAF;}
	.st26{fill:#2B3044;}
	.st27{fill:#F5CEB0;}
	.st28{fill:#062338;}
	.st29{fill:#F4536E;}
	.st30{fill:#EFF0F1;}
	.st31{fill:#122330;}
	.st32{fill:#A6A4A4;}
	.st33{fill:#FFD54D;}
	.st34{fill:#DBDAD9;}
	.st35{fill:#FAB71F;}
	.st36{fill:#FFDF3A;}
	.st37{fill:#F5F6F6;}
	.st38{fill:#EDECED;}
	.st39{fill:#C1C1C1;}
	.st40{fill:#98928D;}
	.st41{fill:#A19F9F;}
	.st42{fill:#05C0D3;}
	.st43{fill:#005467;}
	.st44{fill:#004263;}
	.st45{opacity:0.13;}
	.st46{fill:#A6D6CA;}
	.st47{fill:#B7B713;}
	.st48{fill:#AAAA04;}
	.st49{fill:#0A2132;}
	.st50{fill:#D5F7D5;}
	.st51{fill:#71CC77;}
	.st52{fill:#2DB22F;}
	.st53{fill:#FBB992;}
	.st54{fill:#292951;}
	.st55{fill:#373462;}
	.st56{fill:#EA4444;}
	.st57{fill:#231F20;}
	.st58{fill:#FC5954;}
	.st59{opacity:0.2;fill:#FFFFFF;}
	.st60{opacity:0.2;fill:#231F20;}
	.st61{opacity:0.5;fill:#FFFFFF;}
	.st62{fill:#C7F9F5;}
	.st63{fill:#34E2D9;}
	.st64{fill:#FFD0C1;}
	.st65{fill:#BCBEC0;}
	.st66{fill:#EAD2B7;}
	.st67{fill:#33435A;}
	.st68{fill:#222D3D;}
	.st69{fill:#D7765B;}
	.st70{fill:#263343;}
	.st71{fill:#FDC4B1;}
	.st72{fill:#D0E8F4;}
	.st73{fill:#E3E3E4;}
	.st74{fill:#CCCDCE;}
	.st75{fill:#9D9D9F;}
	.st76{fill:#EAEAEA;}
	.st77{fill:#F6F6F6;}
	.st78{fill:#FFBDB8;}
	.st79{opacity:0.12;}
	.st80{fill:#272426;}
	.st81{fill:#AAAAAB;}
	.st82{fill:#427CCC;}
	.st83{fill-rule:evenodd;clip-rule:evenodd;fill:#FFFFFF;}
	.st84{fill-rule:evenodd;clip-rule:evenodd;fill:#C27629;}
	.st85{fill-rule:evenodd;clip-rule:evenodd;fill:#D8924C;}
	.st86{fill-rule:evenodd;clip-rule:evenodd;fill:#D18334;}
	.st87{fill-rule:evenodd;clip-rule:evenodd;fill:#E6E6E6;}
	.st88{fill-rule:evenodd;clip-rule:evenodd;fill:#313C50;}
	.st89{fill:#FFCD69;}
	.st90{fill-rule:evenodd;clip-rule:evenodd;fill:#A8610A;}
	.st91{fill-rule:evenodd;clip-rule:evenodd;fill:#814743;}
	.st92{fill-rule:evenodd;clip-rule:evenodd;fill:#FCDABE;}
	.st93{fill-rule:evenodd;clip-rule:evenodd;fill:#0288D1;}
	.st94{fill-rule:evenodd;clip-rule:evenodd;fill:#DBAC86;}
	.st95{fill-rule:evenodd;clip-rule:evenodd;fill:#4D4D4D;}
	.st96{fill-rule:evenodd;clip-rule:evenodd;fill:#FF386A;}
	.st97{fill-rule:evenodd;clip-rule:evenodd;fill:#D99990;}
	.st98{fill-rule:evenodd;clip-rule:evenodd;fill:#F8C8B4;}
	.st99{fill-rule:evenodd;clip-rule:evenodd;fill:#F04152;}
</style>
<g>
	<g>
		<path class="st2" d="M439.97,367.5H17.42c-9.31,0-16.85-7.54-16.85-16.85V17.35C0.57,8.04,8.11,0.5,17.42,0.5h422.55
			c9.31,0,16.85,7.54,16.85,16.85v333.3C456.82,359.96,449.27,367.5,439.97,367.5z"/>
		<path class="st3" d="M439.97,368H17.42c-9.57,0-17.35-7.78-17.35-17.35V17.35C0.07,7.78,7.85,0,17.42,0h422.55
			c9.57,0,17.35,7.78,17.35,17.35v333.3C457.32,360.22,449.54,368,439.97,368z M17.42,1C8.4,1,1.07,8.33,1.07,17.35v333.3
			c0,9.02,7.33,16.35,16.35,16.35h422.55c9.02,0,16.35-7.33,16.35-16.35V17.35c0-9.02-7.33-16.35-16.35-16.35H17.42z"/>
	</g>
	<path class="st23" d="M211.69,61c0,0,130,11,170,55S457.69,22,211.69,61z"/>
	<path class="st23" d="M218.82,304.38c0,0-185.71,19.55-148.14-77.1s-64.41-54.3-2.15-131.4s381.08,22.81,348.88,89.05
		S405.61,271.8,218.82,304.38z"/>
	<g>
		<g>
			<path class="st83" d="M280.89,261.52l56.18,23.89c1.28,0.54,1.88,2.03,1.33,3.31l0,0c-0.54,1.28-2.03,1.88-3.31,1.33
				l-56.18-23.89c-1.28-0.54-1.88-2.03-1.33-3.31v0C278.13,261.57,279.61,260.97,280.89,261.52z"/>
			<path class="st83" d="M287.58,265.64L287.58,265.64c2.04,0.87,3,3.25,2.13,5.29l-2.07,4.86c-0.87,2.04-3.25,3-5.29,2.13l0,0
				c-2.04-0.87-3-3.25-2.13-5.29l2.07-4.86C283.16,265.74,285.54,264.78,287.58,265.64z"/>
			<path class="st83" d="M331.81,284.45L331.81,284.45c2.04,0.87,3,3.25,2.13,5.29l-2.07,4.86c-0.87,2.04-3.25,3-5.29,2.13l0,0
				c-2.04-0.87-3-3.25-2.13-5.29l2.07-4.86C327.38,284.55,329.76,283.59,331.81,284.45z"/>
			<path class="st83" d="M308.81,273.87L308.81,273.87c2.04,0.87,3,3.25,2.13,5.29l-2.07,4.86c-0.87,2.04-3.25,3-5.29,2.13l0,0
				c-2.04-0.87-3-3.25-2.13-5.29l2.07-4.86C304.38,273.96,306.76,273,308.81,273.87z"/>
			
				<rect x="302.39" y="247.45" transform="matrix(0.3913 -0.9203 0.9203 0.3913 -35.6007 445.6337)" class="st83" width="33.37" height="4.56"/>
			<path class="st2" d="M374.04,233.59l-5.08,11.93c-1.47,3.45-4.22,5.99-7.46,7.3c-3.24,1.31-6.98,1.38-10.44-0.08l-56.36-23.97
				c-3.45-1.47-5.99-4.22-7.3-7.46c-1.31-3.24-1.38-6.98,0.08-10.44l5.08-11.93l2.76,1.17l-5.08,11.93
				c-1.15,2.69-1.08,5.61-0.06,8.14c1.02,2.53,3,4.68,5.69,5.82l56.36,23.97c2.69,1.15,5.61,1.08,8.14,0.06
				c2.53-1.02,4.68-3,5.82-5.69l5.08-11.93L374.04,233.59z"/>
			<path class="st84" d="M317.12,240.55l9.93,4.22l22.39-52.63c1.16-2.73-0.12-5.92-2.85-7.08h0c-2.73-1.16-5.92,0.12-7.08,2.85
				L317.12,240.55z"/>
			<path class="st85" d="M302.9,220.17l48.68,20.71c3.34,1.42,4.9,5.31,3.49,8.64l0,0c-1.42,3.34-5.31,4.9-8.64,3.49l-48.68-20.71
				c-3.34-1.42-4.9-5.31-3.49-8.64l0,0C295.67,220.32,299.56,218.76,302.9,220.17z"/>
			
				<rect x="303" y="259.69" transform="matrix(0.3914 -0.9202 0.9202 0.3914 -53.7186 448.9439)" class="st84" width="19.09" height="10.79"/>
			<path class="st85" d="M373.06,172.14l-6.14,37.84c-1.33,8.2-12.37,11.78-20,8.54l-24.67-10.49c-7.62-3.24-12.7-13.68-7.72-20.33
				l23-30.67C348.49,142.4,373.75,154.8,373.06,172.14z"/>
			<path class="st84" d="M372.31,227.37l4.65,1.98c1.44,0.61,2.12,2.3,1.51,3.74l-1.72,4.04c-0.61,1.44-2.3,2.12-3.74,1.51
				l-4.65-1.98c-1.44-0.61-2.12-2.3-1.51-3.74l1.72-4.04C369.18,227.44,370.87,226.76,372.31,227.37z"/>
			<path class="st84" d="M293.6,193.9l4.65,1.98c1.44,0.61,2.12,2.3,1.51,3.74l-1.72,4.04c-0.61,1.44-2.3,2.12-3.74,1.51l-4.65-1.98
				c-1.44-0.61-2.12-2.3-1.51-3.74l1.72-4.04C290.47,193.96,292.16,193.28,293.6,193.9z"/>
		</g>
		<g>
			<rect x="105.61" y="294.32" class="st86" width="46.42" height="5.44"/>
			<rect x="163.86" y="294.32" class="st86" width="46.42" height="5.44"/>
			<g>
				<polygon class="st85" points="99.56,305.45 122.25,228.08 128.83,228.08 106.14,305.45 				"/>
				<polygon class="st85" points="158.09,305.45 135.41,228.08 128.83,228.08 151.51,305.45 				"/>
				<polygon class="st85" points="158.77,305.45 181.45,228.08 188.03,228.08 165.35,305.45 				"/>
				<polygon class="st85" points="217.3,305.45 194.61,228.08 188.03,228.08 210.72,305.45 				"/>
			</g>
			<rect x="117.55" y="228.63" class="st84" width="22.55" height="5.44"/>
			<g>
				<polygon class="st84" points="115.42,251.35 122.25,228.08 128.83,228.08 122,251.35 				"/>
				<polygon class="st84" points="142.23,251.35 135.41,228.08 128.83,228.08 135.65,251.35 				"/>
				<polygon class="st84" points="174.63,251.35 181.45,228.08 188.03,228.08 181.21,251.35 				"/>
				<polygon class="st84" points="201.44,251.35 194.61,228.08 188.03,228.08 194.86,251.35 				"/>
			</g>
			<rect x="176.36" y="228.63" class="st84" width="22.55" height="5.44"/>
			<rect x="102.25" y="220" class="st86" width="102.27" height="8.75"/>
			<rect x="135.89" y="220" class="st85" width="78.72" height="8.75"/>
		</g>
		<g>
			<g>
				<polygon class="st87" points="155.92,195.97 170.78,193.45 179.89,204.89 151.1,209.77 				"/>
				<path class="st83" d="M121.2,158.57l70.03-11.88c1.97-0.33,3.86,1,4.19,2.97l6.46,38.11c0.33,1.97-1,3.86-2.98,4.19
					l-70.03,11.88c-1.97,0.33-3.86-1-4.19-2.98l-6.46-38.11C117.89,160.79,119.23,158.91,121.2,158.57z"/>
				
					<rect x="122.95" y="154.46" transform="matrix(0.9859 -0.1672 0.1672 0.9859 -26.701 29.1413)" class="st88" width="73.48" height="37.31"/>
				<path class="st83" d="M197.53,188.47c0.26-0.04,0.5,0.13,0.54,0.39c0.04,0.26-0.13,0.5-0.39,0.54c-0.26,0.04-0.5-0.13-0.54-0.39
					C197.1,188.76,197.27,188.52,197.53,188.47z"/>
				<path class="st83" d="M195.71,188.78c0.26-0.04,0.5,0.13,0.54,0.39c0.04,0.26-0.13,0.5-0.39,0.54c-0.26,0.04-0.5-0.13-0.54-0.39
					C195.28,189.07,195.45,188.82,195.71,188.78z"/>
				<path class="st83" d="M193.89,189.09c0.26-0.04,0.5,0.13,0.54,0.39c0.04,0.26-0.13,0.5-0.39,0.54c-0.26,0.04-0.5-0.13-0.54-0.39
					C193.46,189.38,193.64,189.13,193.89,189.09z"/>
				<path class="st83" d="M122.11,210.77l85.48-14.5c1.05-0.18,2.05,0.53,2.23,1.58l0,0c0.18,1.05-0.53,2.05-1.58,2.23l-85.48,14.5
					c-1.05,0.18-2.05-0.53-2.23-1.58l0,0C120.35,211.95,121.06,210.95,122.11,210.77z"/>
				<path class="st87" d="M209.81,197.85c0.18,1.05-0.53,2.05-1.58,2.23l-85.48,14.5c-1.05,0.18-2.05-0.53-2.23-1.58L209.81,197.85z
					"/>
			</g>
			<g>
				<path class="st89" d="M149.26,169.97l-12.92,21.64l-2.7-1.61l12.92-21.64l2.47-0.3L149.26,169.97L149.26,169.97z M146.56,168.35
					l1.04-1.74l1.43,1.44L146.56,168.35L146.56,168.35z M163.7,187.32l-16.9-17.06l2.23-2.21l16.9,17.06l0.29,1.81L163.7,187.32
					L163.7,187.32z M166.22,186.92l-0.98,1.97l-1.55-1.56L166.22,186.92L166.22,186.92z M191.57,136.02l-25.35,50.9l-2.82-1.4
					l25.35-50.9L191.57,136.02L191.57,136.02z M198.3,118.98l0.04,21.53l-17.24-8.58L198.3,118.98z"/>
			</g>
		</g>
		<g>
			<polygon class="st87" points="109.71,194.13 120.03,198.77 111.97,213.53 104.02,209.96 			"/>
			
				<rect x="114.51" y="189.78" transform="matrix(0.41 -0.9121 0.9121 0.41 -110.7438 220.5713)" class="st83" width="1.23" height="12.22"/>
			<polygon class="st87" points="110.26,193.03 120.49,197.63 120.78,195.23 111.87,191.22 			"/>
			<polygon class="st90" points="118.53,201.53 114.33,209.22 105.68,205.33 108.65,197.09 			"/>
			<path class="st83" d="M113.27,200.03c1.8,0.81,2.61,2.93,1.8,4.74c-0.81,1.8-2.93,2.61-4.74,1.8c-1.8-0.81-2.61-2.93-1.8-4.74
				C109.34,200.02,111.46,199.22,113.27,200.03z"/>
			<path class="st83" d="M112.62,201.46c1.01,0.46,1.47,1.65,1.01,2.66c-0.46,1.01-1.65,1.47-2.66,1.01
				c-1.01-0.46-1.47-1.65-1.01-2.66C110.42,201.46,111.61,201,112.62,201.46z"/>
			<path class="st90" d="M112.5,201.73c0.87,0.39,1.25,1.41,0.86,2.27c-0.39,0.87-1.41,1.25-2.27,0.86
				c-0.87-0.39-1.25-1.41-0.86-2.27C110.62,201.73,111.64,201.34,112.5,201.73z"/>
		</g>
		<path class="st91" d="M243.21,151.29c-20.17-3.51-17.8-27.66-14.79-39.22c5.61-21.56,27.13-26.45,33.75-17.38
			c8.6,1.68,10.54,13.14,9.14,25.52C269.44,136.7,259.82,154.18,243.21,151.29z"/>
		<path class="st92" d="M198.57,99.31l8.63,25.86c2.8,5.54,9.82,4.68,7.01-2.34l-10.1-25.07L198.57,99.31z"/>
		<path class="st88" d="M226.76,153.66l-18.95-26.49c-2.08-2.9,4.73-6.11,6.79-3.58l20.13,22.16
			C240.46,152.05,231.04,160.51,226.76,153.66z"/>
		<polygon class="st92" points="259.75,146.32 245.52,194.47 234.67,192.35 223.43,190.16 229.84,140.08 		"/>
		<path class="st88" d="M259.47,153.13l-5.55,6.53l-0.33,1.25l-4.23,34.3l-26.1-4.97l2.52-34.98l-0.15-3.43l2.54-5.11
			C241.46,153.79,238.55,158.1,259.47,153.13z"/>
		<path class="st88" d="M202.86,115.38l3.96,10.39c3.04,5.41,11.2,5.08,8.07-1.81l-4.11-11.46L202.86,115.38L202.86,115.38z"/>
		<path class="st92" d="M302.02,121.35l-16.26,19.13c-4.67,4.09-10.86,0.65-5.62-4.81l16.87-18.8L302.02,121.35z"/>
		<path class="st88" d="M256.67,162.16l27.78-20.05c2.9-2.09-2.09-7.44-4.95-5.87l-27.25,15.59
			C244.86,156.06,250.13,166.9,256.67,162.16z"/>
		<path class="st93" d="M229.86,140.11c-5.37,8.8-10.37,31.41-10.07,48.3l31.69,1.41c2-17.06,5.21-31.9,10.24-43.35l-8.89-1.73
			l-13.71,25.72l-2.91-28.96L229.86,140.11z"/>
		<path class="st92" d="M254.65,125.56l-3.37,17.31c-2.11,10.84-15.42,8.03-13.35-2.6l3.37-17.31
			C243.03,114.13,256.37,116.73,254.65,125.56z"/>
		<path class="st94" d="M254.65,125.56l-2.13,10.95c-2.91,1.48-5.56,2.12-7.27,1.78c-1.71-0.33-3.93-1.91-6.07-4.38l2.13-10.95
			C243.03,114.13,256.37,116.73,254.65,125.56z"/>
		<path class="st92" d="M245.77,135.57c-4.34-0.85-12.19-9.47-13.12-19.8c-0.94-10.44,7.22-23.55,21.05-20.86
			c13.83,2.7,16.46,17.92,11.67,27.24C260.63,131.37,250.12,136.41,245.77,135.57z"/>
		<g>
			<g>
				<path class="st95" d="M239.75,108.68c-0.37,1.19,0.1,2.43,1.06,3.09c0.52-0.5,0.97-0.38,1.81-0.52
					C241.39,111.01,239.86,109.88,239.75,108.68z"/>
				<path class="st95" d="M238.03,109.07c-0.48,1.55,0.46,3.18,2.05,3.53l0.91-0.87C239.77,111.5,238.14,110.28,238.03,109.07z"/>
				<path class="st95" d="M246.33,113.72c-0.66-1.55-5.46-2.33-6.28-1.01C240.89,110.05,246.33,111.29,246.33,113.72z"/>
			</g>
			<g>
				<path class="st95" d="M261.45,112.91c-0.11,1.24-1.01,2.21-2.14,2.47c-0.3-0.66-0.76-0.72-1.48-1.16
					C259.06,114.46,260.9,113.98,261.45,112.91z"/>
				<path class="st95" d="M262.9,113.92c-0.14,1.61-1.62,2.77-3.23,2.5l-0.52-1.15C260.38,115.51,262.35,115,262.9,113.92z"/>
				<path class="st95" d="M253.47,115.12c1.2-1.19,5.94-0.1,6.2,1.42C259.88,113.75,254.38,112.85,253.47,115.12z"/>
			</g>
		</g>
		<path class="st96" d="M240.79,121.44c5.19,0.28,4.9,4.79,6.74,5.15c1.84,0.36,4.2-4.22,8.18-2.24
			C252.77,132.02,241.72,130.32,240.79,121.44z"/>
		<path class="st97" d="M241.29,121.56c1.8-0.04,11.51,2.03,13.91,2.89C252.05,130.27,242.48,127.66,241.29,121.56z"/>
		<path class="st83" d="M241.29,121.56c1.8-0.04,11.51,2.03,13.91,2.89C252.49,126.01,242.9,123.63,241.29,121.56z"/>
		<path class="st96" d="M240.79,121.44c2.64-0.76,12.75,1.2,14.92,2.91C250.38,124.31,243.74,122.28,240.79,121.44z"/>
		<path class="st92" d="M231.09,109.27c1.51-0.33,3.2,1.53,3.77,4.15c0.57,2.62-0.2,5.01-1.72,5.34c-1.51,0.33-3.2-1.53-3.77-4.15
			C228.8,111.99,229.57,109.6,231.09,109.27z"/>
		<path class="st92" d="M269.65,116.79c-1.28-0.87-3.54,0.21-5.05,2.43c-1.51,2.21-1.69,4.72-0.41,5.59
			c1.28,0.87,3.54-0.21,5.05-2.43C270.74,120.17,270.93,117.66,269.65,116.79z"/>
		<path class="st91" d="M266.73,122.22c9.64-21.49-5.46-28.41-14.71-30.21c-10.41-2.03-20.92,7.53-21.97,22.27
			c7.07-2.1,12.64-6.66,26.88-15.08c-1.66,3.09-7.62,8.6-14.94,10.84c6.25,1.08,14.91-0.1,21.5-5.23
			C263.84,111,264.73,117.89,266.73,122.22z"/>
		<path class="st94" d="M247.69,119.22c1.71,0.39,3.79-0.49,3.83-2.01C252.09,119.69,249.82,120.53,247.69,119.22z"/>
		<path class="st98" d="M258.49,116.74c1.67,0.32,2.82,1.56,2.59,2.77c-0.23,1.2-1.77,1.92-3.44,1.59
			c-1.67-0.32-2.83-1.56-2.59-2.77C255.29,117.13,256.83,116.42,258.49,116.74z"/>
		<path class="st98" d="M239.99,112.93c1.67,0.32,2.83,1.56,2.59,2.77c-0.23,1.2-1.77,1.92-3.44,1.59
			c-1.67-0.32-2.83-1.56-2.59-2.77C236.78,113.32,238.32,112.6,239.99,112.93z"/>
		<path class="st92" d="M232.45,276.11c1.1,4.63,2.59,13.73,4.27,16.17c0.95,1.38,2.77,2.31,3.92,1.16
			c4.95-4.98,3.49-8.68,4.45-11.06c1.68-4.13-0.21-5.72-5.9-7.94C233.51,272.21,231.32,271.39,232.45,276.11z"/>
		<path class="st92" d="M220.94,202.59l15.01-1.55l1.56,14.36c-0.71,0.29-1.25,1.46-1.09,3.47l4.41,56.33l-8.38,0.91L220.94,202.59z
			"/>
		<path class="st92" d="M229.43,201.81l15.38-5.08l9.43,34.82c2.14,7.88-8.48,10.85-10.97,4.03l-6.38-17.51
			c-0.85-2.33-2.15-3.07-2.93-2.54L229.43,201.81z"/>
		<path class="st88" d="M219.85,188.24c0.58,13.71,1.37,23.81,3.41,32.06l27.62-3.08c-0.63-10.27-0.44-19.4,0.73-27.86
			L219.85,188.24z"/>
		<path class="st99" d="M235.22,288.41c0.26,1.52,0.8,2.85,1.5,3.86c2.45,3.56,4.78,0.73,6.31-1.88c2.04-3.47,1.3-6.15,2.06-8.03
			c1.51-3.71,0.14-5.37-4.28-7.28c3.11,2.62,1.66,6.31,0.65,10.87C240.47,290.53,236.6,292,235.22,288.41z"/>
		<polygon class="st92" points="244.43,229.83 269.45,210.41 275.67,215.43 251.98,238.36 		"/>
		<path class="st92" d="M277.8,213.39c3.13-3.57,6.97-5.38,8.19-8.08c0.69-1.52,0.55-3.57-1.04-3.96c-6.82-1.67-9.23,1.5-11.77,1.9
			c-4.4,0.7-4.8,3.13-3.75,9.15C270.46,218.43,275.22,216.77,277.8,213.39z"/>
		<path class="st99" d="M283.34,208.41c1.17-1.01,2.13-1.97,2.64-3.1c1.78-3.94-1.85-4.47-4.87-4.44c-4.03,0.05-5.94,2.07-7.94,2.38
			c-3.95,0.62-4.67,2.66-4.02,7.43c0.64-4.02,4.54-4.68,8.97-6.17C282.55,203.01,285.7,205.38,283.34,208.41z"/>
		<g>
			<path class="st92" d="M205.98,94.72c-0.34-2.39-1.74-4.76-1.88-6.05c-0.14-1.28-3.17,3.72-4.39,5.29
				C198.5,95.54,206.2,96.17,205.98,94.72z"/>
			<path class="st92" d="M202.22,81.41L202.22,81.41c-0.6,0.06-1.04,0.61-0.98,1.21l0.87,8.14c0.06,0.6,0.61,1.04,1.21,0.98h0
				c0.6-0.06,1.04-0.61,0.98-1.21l-0.87-8.14C203.37,81.79,202.82,81.35,202.22,81.41z"/>
			<path class="st92" d="M203.87,91.92c2.35,1.51,3.04,4.64,1.53,7c-1.51,2.35-4.64,3.04-7,1.53c-2.35-1.51-3.33-5.73-2.19-7.61
				C197.12,91.59,201.51,90.41,203.87,91.92z"/>
			<path class="st94" d="M204.28,95.72c0.81,0.99,0.49,2.47-0.72,3.31c-1.21,0.84-2.84,0.71-3.65-0.28
				c-0.81-0.99-0.49-2.47,0.72-3.31C201.84,94.6,203.47,94.72,204.28,95.72z"/>
			<path class="st92" d="M204.98,95.85c0.77,1.01,0.29,2.55-1.07,3.44c-1.35,0.89-3.07,0.79-3.84-0.22
				c-0.77-1.01-0.29-2.55,1.07-3.44C202.49,94.74,204.21,94.84,204.98,95.85z"/>
			<path class="st92" d="M197.52,82.59L197.52,82.59c-0.57,0.22-0.85,0.86-0.63,1.42l2.93,7.65c0.22,0.56,0.86,0.85,1.42,0.63h0
				c0.57-0.22,0.85-0.86,0.63-1.42l-2.93-7.65C198.72,82.66,198.09,82.37,197.52,82.59z"/>
			<path class="st94" d="M197.62,92.05l1.73,2.75c0.78,1.23,2.64,0.06,1.86-1.17l-1.73-2.75C198.7,89.64,196.84,90.82,197.62,92.05z
				"/>
			<path class="st92" d="M197.78,91.62l1.73,2.75c0.78,1.23,2.64,0.06,1.86-1.17l-1.73-2.75C198.87,89.22,197,90.39,197.78,91.62z"
				/>
			<path class="st94" d="M200.67,88.58l4.12,4.17c0.5,0.51,0.41,1.7-0.1,2.19l0,0c-0.51,0.5-1.33,0.49-1.83-0.02l-3.04-3.06
				C197.76,89.89,199.38,87.29,200.67,88.58z"/>
			<path class="st92" d="M200.6,88.77l4.77,4.87c1.56,1.59,0.01,3.44-1.26,2.15l-4.34-4.44C198.42,89.97,199.34,87.48,200.6,88.77z"
				/>
			<path class="st94" d="M196.11,93.79l1.51,2.4c0.68,1.07,2.3,0.05,1.62-1.02l-1.51-2.4C197.06,91.69,195.43,92.72,196.11,93.79z"
				/>
			<path class="st92" d="M196.25,93.42l1.51,2.4c0.68,1.07,2.3,0.05,1.62-1.02l-1.51-2.4C197.2,91.32,195.58,92.35,196.25,93.42z"/>
		</g>
		<g>
			<path class="st92" d="M296.91,113.82c1.39-1.98,3.72-3.45,4.42-4.53c0.71-1.08,1.13,4.75,1.5,6.71
				C303.2,117.95,296.06,115.01,296.91,113.82z"/>
			<path class="st92" d="M306.32,103.68L306.32,103.68c0.51,0.33,0.65,1.02,0.32,1.52l-4.48,6.86c-0.33,0.51-1.02,0.65-1.52,0.32
				l0,0c-0.51-0.33-0.65-1.02-0.32-1.52l4.48-6.86C305.12,103.49,305.81,103.35,306.32,103.68z"/>
			<path class="st92" d="M300.07,112.28c-2.78,0.27-4.82,2.75-4.54,5.54c0.27,2.78,2.75,4.82,5.54,4.54
				c2.78-0.27,5.57-3.59,5.41-5.78C306.22,115.06,302.86,112.01,300.07,112.28z"/>
			<path class="st94" d="M297.97,115.48c-1.17,0.52-1.56,1.98-0.86,3.28c0.7,1.29,2.21,1.92,3.38,1.41
				c1.17-0.52,1.56-1.98,0.86-3.28C300.66,115.59,299.15,114.96,297.97,115.48z"/>
			<path class="st92" d="M297.29,115.28c-1.14,0.55-1.42,2.14-0.61,3.55c0.8,1.41,2.38,2.11,3.52,1.56
				c1.14-0.55,1.42-2.14,0.61-3.55C300.01,115.42,298.43,114.73,297.29,115.28z"/>
			<path class="st92" d="M309.97,106.86L309.97,106.86c0.4,0.45,0.37,1.15-0.08,1.55l-6.09,5.48c-0.45,0.4-1.15,0.37-1.55-0.08l0,0
				c-0.4-0.45-0.37-1.15,0.08-1.55l6.09-5.48C308.86,106.38,309.56,106.41,309.97,106.86z"/>
			<path class="st94" d="M305.58,115.24l-2.79,1.66c-1.25,0.74-2.37-1.15-1.12-1.89l2.79-1.66
				C305.71,112.61,306.83,114.5,305.58,115.24z"/>
			<path class="st92" d="M305.62,114.79l-2.79,1.66c-1.25,0.74-2.37-1.15-1.12-1.89l2.79-1.66
				C305.75,112.15,306.88,114.05,305.62,114.79z"/>
			<path class="st94" d="M304.43,110.76l-5.56,1.83c-0.67,0.23-1.13,1.32-0.91,2l0,0c0.22,0.67,0.96,1.05,1.64,0.82l4.1-1.34
				C306.43,113.25,306.17,110.21,304.43,110.76z"/>
			<path class="st92" d="M304.41,110.97l-6.46,2.16c-2.11,0.71-1.58,3.06,0.14,2.48l5.88-1.98
				C305.81,113.02,306.12,110.4,304.41,110.97z"/>
			<path class="st94" d="M306.13,117.48l-2.44,1.45c-1.09,0.65-2.07-1-0.98-1.65l2.44-1.45
				C306.24,115.18,307.22,116.83,306.13,117.48z"/>
			<path class="st92" d="M306.17,117.09l-2.44,1.45c-1.09,0.65-2.07-1-0.98-1.65l2.44-1.45
				C306.28,114.79,307.26,116.44,306.17,117.09z"/>
		</g>
		<path class="st88" d="M292.61,134.13l-7.82,7.91c-4.97,3.72-12.3,0.13-6.66-4.91l8.38-8.83L292.61,134.13L292.61,134.13z"/>
	</g>
</g>
</svg>
