<?xml version="1.0" encoding="utf-8"?>
<!-- Generator: Adobe Illustrator 23.0.1, SVG Export Plug-In . SVG Version: 6.00 Build 0)  -->
<svg version="1.1" id="Layer_1" xmlns="http://www.w3.org/2000/svg" xmlns:xlink="http://www.w3.org/1999/xlink" x="0px" y="0px"
	 viewBox="0 0 489.93 413.24" style="enable-background:new 0 0 489.93 413.24;" xml:space="preserve">
<style type="text/css">
	.st0{fill:#DCF7FF;}
	.st1{fill:#55DAF9;}
	.st2{fill:#FFFFFF;}
	.st3{fill:#E0E0E0;}
	.st4{fill:#ED7E7E;}
	.st5{opacity:0.2;}
	.st6{fill:#212226;}
	.st7{fill:#393F5C;}
	.st8{fill:#D99393;}
	.st9{fill:#9A9FB3;}
	.st10{fill:#FFE7DB;}
	.st11{fill:#31AEE0;}
	.st12{fill:#FFADAD;}
	.st13{fill:#392ECF;}
	.st14{fill:#21D9F7;}
	.st15{fill:#05D3E8;}
	.st16{opacity:0.67;fill:#FFFFFF;}
	.st17{fill:#B2B210;}
	.st18{fill:#402C2C;}
	.st19{fill:#BAC121;}
	.st20{fill:#827E06;}
	.st21{fill:#F2BE9B;}
	.st22{fill:#FB7484;}
	.st23{fill:#FFF2DE;}
	.st24{fill:#FCB415;}
	.st25{fill:#F4CDAF;}
	.st26{fill:#2B3044;}
	.st27{fill:#F5CEB0;}
	.st28{fill:#062338;}
	.st29{fill:#F4536E;}
	.st30{fill:#EFF0F1;}
	.st31{fill:#122330;}
	.st32{fill:#A6A4A4;}
	.st33{fill:#FFD54D;}
	.st34{fill:#DBDAD9;}
	.st35{fill:#FAB71F;}
	.st36{fill:#FFDF3A;}
	.st37{fill:#F5F6F6;}
	.st38{fill:#EDECED;}
	.st39{fill:#C1C1C1;}
	.st40{fill:#98928D;}
	.st41{fill:#A19F9F;}
	.st42{fill:#05C0D3;}
	.st43{fill:#005467;}
	.st44{fill:#004263;}
	.st45{opacity:0.13;}
	.st46{fill:#A6D6CA;}
	.st47{fill:#B7B713;}
	.st48{fill:#AAAA04;}
	.st49{fill:#0A2132;}
	.st50{fill:#D5F7D5;}
	.st51{fill:#71CC77;}
	.st52{fill:#2DB22F;}
	.st53{fill:#FBB992;}
	.st54{fill:#292951;}
	.st55{fill:#373462;}
	.st56{fill:#EA4444;}
	.st57{fill:#231F20;}
	.st58{fill:#FC5954;}
	.st59{opacity:0.2;fill:#FFFFFF;}
	.st60{opacity:0.2;fill:#231F20;}
	.st61{opacity:0.5;fill:#FFFFFF;}
	.st62{fill:#C7F9F5;}
	.st63{fill:#34E2D9;}
	.st64{fill:#FFD0C1;}
	.st65{fill:#BCBEC0;}
	.st66{fill:#EAD2B7;}
	.st67{fill:#33435A;}
	.st68{fill:#222D3D;}
	.st69{fill:#D7765B;}
	.st70{fill:#263343;}
	.st71{fill:#FDC4B1;}
	.st72{fill:#D0E8F4;}
	.st73{fill:#E3E3E4;}
	.st74{fill:#CCCDCE;}
	.st75{fill:#9D9D9F;}
	.st76{fill:#EAEAEA;}
	.st77{fill:#F6F6F6;}
	.st78{fill:#FFBDB8;}
	.st79{opacity:0.12;}
	.st80{fill:#272426;}
	.st81{fill:#AAAAAB;}
	.st82{fill:#427CCC;}
	.st83{fill-rule:evenodd;clip-rule:evenodd;fill:#FFFFFF;}
	.st84{fill-rule:evenodd;clip-rule:evenodd;fill:#C27629;}
	.st85{fill-rule:evenodd;clip-rule:evenodd;fill:#D8924C;}
	.st86{fill-rule:evenodd;clip-rule:evenodd;fill:#D18334;}
	.st87{fill-rule:evenodd;clip-rule:evenodd;fill:#E6E6E6;}
	.st88{fill-rule:evenodd;clip-rule:evenodd;fill:#313C50;}
	.st89{fill:#FFCD69;}
	.st90{fill-rule:evenodd;clip-rule:evenodd;fill:#A8610A;}
	.st91{fill-rule:evenodd;clip-rule:evenodd;fill:#814743;}
	.st92{fill-rule:evenodd;clip-rule:evenodd;fill:#FCDABE;}
	.st93{fill-rule:evenodd;clip-rule:evenodd;fill:#0288D1;}
	.st94{fill-rule:evenodd;clip-rule:evenodd;fill:#DBAC86;}
	.st95{fill-rule:evenodd;clip-rule:evenodd;fill:#4D4D4D;}
	.st96{fill-rule:evenodd;clip-rule:evenodd;fill:#FF386A;}
	.st97{fill-rule:evenodd;clip-rule:evenodd;fill:#D99990;}
	.st98{fill-rule:evenodd;clip-rule:evenodd;fill:#F8C8B4;}
	.st99{fill-rule:evenodd;clip-rule:evenodd;fill:#F04152;}
</style>
<g>
	<path class="st50" d="M4.88,147.14c0,0,13.95-217.18,199.33-107.09S576.96,207.18,446.4,337.29S-31,422.36,4.88,147.14z"/>
	<path class="st51" d="M175.54,413.24c-30.69,0-60.21-4.87-87.32-14.66c-45.24-16.33-73.41-43.5-83.73-80.78
		c-6.71-24.22-5.9-52.89,2.39-85.23c6.61-25.81,17.99-53.99,33.8-83.78c26.91-50.69,57.8-88.98,58.11-89.36L99,59.24
		c0.54-0.37,54.28-37.07,123.56-52.45c40.73-9.04,78.8-9.06,113.14-0.05C378.64,18,415.81,43.48,446.19,82.47
		c24.19,31.05,35.58,64.87,33.86,100.53c-1.55,32.17-14.23,65.63-36.65,96.77c-35.04,48.67-92.11,89.94-156.58,113.22
		C249.49,406.47,211.71,413.24,175.54,413.24z M100.25,60.81c-1.88,2.33-31.73,39.79-57.82,88.95c-24.7,46.53-51,113.37-36.01,167.5
		C16.55,353.88,44.3,380.6,88.9,396.7c27.57,9.95,56.59,14.46,85.81,14.46c105.62,0,214.02-58.86,267.08-132.56
		c47.9-66.54,48.91-135.75,2.83-194.9C376.48-3.76,286.51-5.34,223.05,8.74C155.7,23.67,103.1,58.88,100.25,60.81z"/>
</g>
</svg>
