<svg id="Layer_1" data-name="Layer 1" xmlns="http://www.w3.org/2000/svg" xmlns:xlink="http://www.w3.org/1999/xlink" viewBox="0 0 960.33 928.32"><defs><style>.cls-1{fill:none;}.cls-2{clip-path:url(#clip-path);}.cls-3{fill:#393f5c;}.cls-4,.cls-7{fill:#cdddfc;}.cls-5{opacity:0.33;}.cls-6{clip-path:url(#clip-path-2);}.cls-7{opacity:0.83;}.cls-8{fill:#3e85f7;}.cls-9{fill:#fff;}.cls-10{fill:#eaeced;}.cls-11{fill:#3d4252;}.cls-12{fill:#ff4143;}.cls-13{fill:#fcb415;}.cls-14{fill:#45c693;}</style><clipPath id="clip-path"><rect class="cls-1" x="-830" y="1" width="706" height="215" rx="11.74"/></clipPath><clipPath id="clip-path-2"><path class="cls-1" d="M612,934.14S355.17,890,115.58,782.08L281,582.14l284,76,342,106,52,72Z"/></clipPath></defs><title>Home</title><g class="cls-2"><rect class="cls-3" x="-251.9" y="235.72" width="356.21" height="5.54"/></g><path class="cls-4" d="M897.53,127.55S654.34-114,316.2,132.82s23.4,54.82,23.4,54.82l-164.42,355S-546.92,1207,941,791.82,897.53,127.55,897.53,127.55Z"/><g class="cls-5"><g class="cls-6"><path d="M897.53,127.55S654.34-114,316.2,132.82s23.4,54.82,23.4,54.82l-164.42,355S-546.92,1207,941,791.82,897.53,127.55,897.53,127.55Z"/><path class="cls-7" d="M897.53,127.55S654.34-114,316.2,132.82s23.4,54.82,23.4,54.82l-164.42,355S-546.92,1207,941,791.82,897.53,127.55,897.53,127.55Z"/></g></g><path class="cls-8" d="M120.8,484.24l-.4-.3c-.51-.38-51.41-39.24-57.33-103.41-4.37-47.32,16.22-96.12,61.19-145.06,52.61-57.25,91-97.83,114-120.62,14.61-14.44,19.23-18,21-18.66a148.73,148.73,0,0,1,17.82-35.1c12-17.62,33.42-41.09,67.5-52.93C373.14-1.76,406.27-2.13,443,7c44.18,11,94.15,36,148.53,74.28,45,31.68,64.73,66.12,58.6,102.36-6.1,36-37.76,74.19-94.13,113.53-45,31.38-105.69,63.6-180.5,95.76-127.31,54.72-253,90.78-254.27,91.13ZM260,98c-1.49.41-15,9-134.23,138.8-44.57,48.5-65,96.78-60.68,143.5,5.56,60.32,51.43,98,56.15,101.72,8.7-2.51,130.37-38,253.56-90.92,74.68-32.1,135.28-64.25,180.13-95.56,55.91-39,87.3-76.78,93.3-112.22S634.76,114.16,590.42,83C490.65,12.75,408.17-11.78,345.25,10,281,32.33,261.15,96.78,261,97.43l-1-.21-.6.61A.76.76,0,0,0,260,98Z"/><path class="cls-9" d="M962,785.14H100.08A10.14,10.14,0,0,1,89.94,775V84.28a10.14,10.14,0,0,1,10.14-10.14H962Z"/><path class="cls-10" d="M104.12,74.14H962a0,0,0,0,1,0,0v45a0,0,0,0,1,0,0H90a0,0,0,0,1,0,0V88.26A14.12,14.12,0,0,1,104.12,74.14Z"/><path class="cls-11" d="M89.94,119.14h83.71a0,0,0,0,1,0,0v666a0,0,0,0,1,0,0H100.08A10.14,10.14,0,0,1,89.94,775V119.14A0,0,0,0,1,89.94,119.14Z"/><path class="cls-11" d="M89.94,600.14h83.71a0,0,0,0,1,0,0v185a0,0,0,0,1,0,0H98a8.07,8.07,0,0,1-8.07-8.07V600.14A0,0,0,0,1,89.94,600.14Z"/><path class="cls-9" d="M113.78,157.78a3.8,3.8,0,0,0,3.8,3.8H146a3.8,3.8,0,0,0,3.8-3.8V129.35a3.8,3.8,0,0,0-3.8-3.8H117.58a3.8,3.8,0,0,0-3.8,3.8Zm32.23,2H117.58a2,2,0,0,1-2-2V153l6.84-6.83,5.83,5.84a.91.91,0,0,0,1.28,0l10.54-10.54,7.93,7.93v8.35a2,2,0,0,1-2,2Zm-28.43-32.42H146a2,2,0,0,1,2,2v17.53l-7.3-7.29a.88.88,0,0,0-1.27,0l-10.54,10.54-5.84-5.84a.91.91,0,0,0-1.28,0l-6.19,6.19V129.35a2,2,0,0,1,2-2Zm0,0"/><path class="cls-9" d="M125,140a4.59,4.59,0,1,0-4.59-4.59A4.59,4.59,0,0,0,125,140Zm0-7.37a2.79,2.79,0,1,1-2.79,2.78,2.78,2.78,0,0,1,2.79-2.78Zm0,0"/><path class="cls-9" d="M113.78,255.27a3.81,3.81,0,0,0,3.8,3.8H146a3.8,3.8,0,0,0,3.8-3.8V226.84A3.8,3.8,0,0,0,146,223H117.58a3.8,3.8,0,0,0-3.8,3.8Zm32.23,2H117.58a2,2,0,0,1-2-2v-4.75l6.84-6.83,5.83,5.84a.91.91,0,0,0,1.28,0L140.07,239l7.93,7.94v8.35a2,2,0,0,1-2,2Zm-28.43-32.42H146a2,2,0,0,1,2,2v17.52l-7.3-7.29a.9.9,0,0,0-1.27,0l-10.54,10.54-5.84-5.84a.91.91,0,0,0-1.28,0L115.58,248V226.84a2,2,0,0,1,2-2Zm0,0"/><path class="cls-9" d="M125,237.47a4.59,4.59,0,1,0-4.59-4.58,4.59,4.59,0,0,0,4.59,4.58Zm0-7.36a2.78,2.78,0,1,1-2.79,2.78,2.78,2.78,0,0,1,2.79-2.78Zm0,0"/><path class="cls-9" d="M113.78,352.75a3.8,3.8,0,0,0,3.8,3.8H146a3.8,3.8,0,0,0,3.8-3.8V324.32a3.8,3.8,0,0,0-3.8-3.8H117.58a3.8,3.8,0,0,0-3.8,3.8Zm32.23,2H117.58a2,2,0,0,1-2-2V348l6.84-6.83,5.83,5.84a.91.91,0,0,0,1.28,0l10.54-10.54L148,344.4v8.35a2,2,0,0,1-2,2Zm-28.43-32.42H146a2,2,0,0,1,2,2v17.53l-7.3-7.3a.9.9,0,0,0-1.27,0L128.89,345.1l-5.84-5.84a.89.89,0,0,0-1.28,0l-6.19,6.19V324.32a2,2,0,0,1,2-2Zm0,0"/><path class="cls-9" d="M125,335a4.59,4.59,0,1,0-4.59-4.59A4.59,4.59,0,0,0,125,335Zm0-7.37a2.79,2.79,0,1,1-2.79,2.78,2.78,2.78,0,0,1,2.79-2.78Zm0,0"/><path class="cls-9" d="M113.78,450.24a3.8,3.8,0,0,0,3.8,3.79H146a3.8,3.8,0,0,0,3.8-3.79V421.81A3.8,3.8,0,0,0,146,418H117.58a3.8,3.8,0,0,0-3.8,3.8Zm32.23,2H117.58a2,2,0,0,1-2-2v-4.75l6.84-6.83,5.83,5.83a.89.89,0,0,0,1.28,0L140.07,434l7.93,7.94v8.35a2,2,0,0,1-2,2Zm-28.43-32.42H146a2,2,0,0,1,2,2v17.52L140.7,432a.9.9,0,0,0-1.27,0l-10.54,10.54-5.84-5.84a.91.91,0,0,0-1.28,0l-6.19,6.19V421.81a2,2,0,0,1,2-2Zm0,0"/><path class="cls-9" d="M125,432.44a4.59,4.59,0,1,0-4.59-4.58,4.59,4.59,0,0,0,4.59,4.58Zm0-7.37a2.79,2.79,0,1,1-2.79,2.79,2.79,2.79,0,0,1,2.79-2.79Zm0,0"/><path class="cls-9" d="M113.78,547.72a3.8,3.8,0,0,0,3.8,3.8H146a3.8,3.8,0,0,0,3.8-3.8V519.29a3.8,3.8,0,0,0-3.8-3.8H117.58a3.8,3.8,0,0,0-3.8,3.8Zm32.23,2H117.58a2,2,0,0,1-2-2V543l6.84-6.83,5.83,5.84a.91.91,0,0,0,1.28,0l10.54-10.54,7.93,7.93v8.35a2,2,0,0,1-2,2ZM117.58,517.3H146a2,2,0,0,1,2,2v17.53l-7.3-7.3a.9.9,0,0,0-1.27,0l-10.54,10.54-5.84-5.83a.89.89,0,0,0-1.28,0l-6.19,6.19V519.29a2,2,0,0,1,2-2Zm0,0"/><path class="cls-9" d="M125,529.93a4.59,4.59,0,1,0-4.59-4.59,4.59,4.59,0,0,0,4.59,4.59Zm0-7.37a2.78,2.78,0,1,1-2.79,2.78,2.78,2.78,0,0,1,2.79-2.78Zm0,0"/><path class="cls-9" d="M113.78,644.14a3.8,3.8,0,0,0,3.8,3.8H146a3.8,3.8,0,0,0,3.8-3.8V615.72a3.8,3.8,0,0,0-3.8-3.8H117.58a3.8,3.8,0,0,0-3.8,3.8Zm32.23,2H117.58a2,2,0,0,1-2-2V639.4l6.84-6.83,5.83,5.83a.89.89,0,0,0,1.28,0l10.54-10.54L148,635.8v8.34a2,2,0,0,1-2,2Zm-28.43-32.42H146a2,2,0,0,1,2,2v17.52L140.7,626a.88.88,0,0,0-1.27,0l-10.54,10.54-5.84-5.84a.91.91,0,0,0-1.28,0l-6.19,6.19V615.72a2,2,0,0,1,2-2Zm0,0"/><path class="cls-9" d="M125,626.35a4.59,4.59,0,1,0-4.59-4.58,4.59,4.59,0,0,0,4.59,4.58Zm0-7.37a2.79,2.79,0,1,1-2.79,2.79A2.78,2.78,0,0,1,125,619Zm0,0"/><path class="cls-9" d="M113.78,740.57a3.8,3.8,0,0,0,3.8,3.8H146a3.8,3.8,0,0,0,3.8-3.8V712.14a3.8,3.8,0,0,0-3.8-3.8H117.58a3.8,3.8,0,0,0-3.8,3.8Zm32.23,2H117.58a2,2,0,0,1-2-2v-4.75l6.84-6.83,5.83,5.84a.91.91,0,0,0,1.28,0l10.54-10.54,7.93,7.93v8.35a2,2,0,0,1-2,2Zm-28.43-32.42H146a2,2,0,0,1,2,2v17.53l-7.3-7.3a.9.9,0,0,0-1.27,0l-10.54,10.54-5.84-5.83a.89.89,0,0,0-1.28,0l-6.19,6.19V712.14a2,2,0,0,1,2-2Zm0,0"/><path class="cls-9" d="M125,722.78a4.59,4.59,0,1,0-4.59-4.59,4.59,4.59,0,0,0,4.59,4.59Zm0-7.37a2.78,2.78,0,1,1-2.79,2.78,2.78,2.78,0,0,1,2.79-2.78Zm0,0"/><circle class="cls-12" cx="121" cy="98.14" r="7"/><circle class="cls-13" cx="143.11" cy="98.14" r="7"/><circle class="cls-14" cx="165.21" cy="98.14" r="7"/></svg>