<?xml version="1.0" encoding="utf-8"?>
<!-- Generator: Adobe Illustrator 23.0.1, SVG Export Plug-In . SVG Version: 6.00 Build 0)  -->
<svg version="1.1" id="Layer_1" xmlns="http://www.w3.org/2000/svg" xmlns:xlink="http://www.w3.org/1999/xlink" x="0px" y="0px"
	 viewBox="0 0 489.93 413.24" style="enable-background:new 0 0 489.93 413.24;" xml:space="preserve">
<style type="text/css">
	.st0{fill:#DCF7FF;}
	.st1{fill:#55DAF9;}
	.st2{fill:#FFFFFF;}
	.st3{fill:#E0E0E0;}
	.st4{fill:#ED7E7E;}
	.st5{opacity:0.2;}
	.st6{fill:#212226;}
	.st7{fill:#393F5C;}
	.st8{fill:#D99393;}
	.st9{fill:#9A9FB3;}
	.st10{fill:#FFE7DB;}
	.st11{fill:#31AEE0;}
	.st12{fill:#FFADAD;}
	.st13{fill:#392ECF;}
	.st14{fill:#21D9F7;}
	.st15{fill:#05D3E8;}
	.st16{opacity:0.67;fill:#FFFFFF;}
	.st17{fill:#B2B210;}
	.st18{fill:#402C2C;}
	.st19{fill:#BAC121;}
	.st20{fill:#827E06;}
	.st21{fill:#F2BE9B;}
	.st22{fill:#FB7484;}
	.st23{fill:#FFF2DE;}
	.st24{fill:#FCB415;}
	.st25{fill:#F4CDAF;}
	.st26{fill:#2B3044;}
	.st27{fill:#F5CEB0;}
	.st28{fill:#062338;}
	.st29{fill:#F4536E;}
	.st30{fill:#EFF0F1;}
	.st31{fill:#122330;}
	.st32{fill:#A6A4A4;}
	.st33{fill:#FFD54D;}
	.st34{fill:#DBDAD9;}
	.st35{fill:#FAB71F;}
	.st36{fill:#FFDF3A;}
	.st37{fill:#F5F6F6;}
	.st38{fill:#EDECED;}
	.st39{fill:#C1C1C1;}
	.st40{fill:#98928D;}
	.st41{fill:#A19F9F;}
	.st42{fill:#05C0D3;}
	.st43{fill:#005467;}
	.st44{fill:#004263;}
	.st45{opacity:0.13;}
	.st46{fill:#A6D6CA;}
	.st47{fill:#B7B713;}
	.st48{fill:#AAAA04;}
	.st49{fill:#0A2132;}
	.st50{fill:#D5F7D5;}
	.st51{fill:#71CC77;}
	.st52{fill:#2DB22F;}
	.st53{fill:#FBB992;}
	.st54{fill:#292951;}
	.st55{fill:#373462;}
	.st56{fill:#EA4444;}
	.st57{fill:#231F20;}
	.st58{fill:#FC5954;}
	.st59{opacity:0.2;fill:#FFFFFF;}
	.st60{opacity:0.2;fill:#231F20;}
	.st61{opacity:0.5;fill:#FFFFFF;}
	.st62{fill:#C7F9F5;}
	.st63{fill:#34E2D9;}
	.st64{fill:#FFD0C1;}
	.st65{fill:#BCBEC0;}
	.st66{fill:#EAD2B7;}
	.st67{fill:#33435A;}
	.st68{fill:#222D3D;}
	.st69{fill:#D7765B;}
	.st70{fill:#263343;}
	.st71{fill:#FDC4B1;}
	.st72{fill:#D0E8F4;}
	.st73{fill:#E3E3E4;}
	.st74{fill:#CCCDCE;}
	.st75{fill:#9D9D9F;}
	.st76{fill:#EAEAEA;}
	.st77{fill:#F6F6F6;}
	.st78{fill:#FFBDB8;}
	.st79{opacity:0.12;}
	.st80{fill:#272426;}
	.st81{fill:#AAAAAB;}
	.st82{fill:#427CCC;}
	.st83{fill-rule:evenodd;clip-rule:evenodd;fill:#FFFFFF;}
	.st84{fill-rule:evenodd;clip-rule:evenodd;fill:#C27629;}
	.st85{fill-rule:evenodd;clip-rule:evenodd;fill:#D8924C;}
	.st86{fill-rule:evenodd;clip-rule:evenodd;fill:#D18334;}
	.st87{fill-rule:evenodd;clip-rule:evenodd;fill:#E6E6E6;}
	.st88{fill-rule:evenodd;clip-rule:evenodd;fill:#313C50;}
	.st89{fill:#FFCD69;}
	.st90{fill-rule:evenodd;clip-rule:evenodd;fill:#A8610A;}
	.st91{fill-rule:evenodd;clip-rule:evenodd;fill:#814743;}
	.st92{fill-rule:evenodd;clip-rule:evenodd;fill:#FCDABE;}
	.st93{fill-rule:evenodd;clip-rule:evenodd;fill:#0288D1;}
	.st94{fill-rule:evenodd;clip-rule:evenodd;fill:#DBAC86;}
	.st95{fill-rule:evenodd;clip-rule:evenodd;fill:#4D4D4D;}
	.st96{fill-rule:evenodd;clip-rule:evenodd;fill:#FF386A;}
	.st97{fill-rule:evenodd;clip-rule:evenodd;fill:#D99990;}
	.st98{fill-rule:evenodd;clip-rule:evenodd;fill:#F8C8B4;}
	.st99{fill-rule:evenodd;clip-rule:evenodd;fill:#F04152;}
</style>
<path class="st0" d="M84.04,370.11c-4.54-1.66-154.55-193.83-42.69-300.56S501.58,3.8,489.63,77.23S553.67,541.73,84.04,370.11z"/>
<path class="st1" d="M133.98,402.68c-27.02,0-49.08-3.92-65.99-11.75c-18.18-8.42-30.48-21.49-36.55-38.85l-0.01-0.02
	c-0.13-0.4-13.15-40.61-21.07-88.18c-7.32-44.01-11.64-103.51,9.36-137.08c9.36-14.97,23.06-23.79,40.7-26.23
	c41.7-5.76,49.72-31.37,57.48-56.14c5.3-16.91,10.31-32.89,26.11-40.27c20.26-9.46,56.12-2.91,112.84,20.63
	c64.24,26.65,122.61,63.29,164.37,103.15c42.5,40.57,65.64,82.64,65.16,118.44c-0.52,38.91-28.36,70.06-80.5,90.07
	c-73.58,28.24-138.91,47.78-194.16,58.05C182.46,399.96,156.5,402.68,133.98,402.68z M33.33,351.43
	c5.89,16.82,17.84,29.5,35.5,37.69c76.59,35.48,243.6-18.93,336.33-54.53c51.32-19.7,78.71-50.21,79.22-88.23
	c0.47-35.25-22.45-76.79-64.54-116.97c-41.58-39.69-99.73-76.18-163.75-102.75C199.93,3.34,164.58-3.23,144.87,5.98
	c-15.01,7.01-19.89,22.58-25.05,39.06c-7.58,24.18-16.17,51.59-59.12,57.52c-17.03,2.35-30.24,10.87-39.28,25.31
	c-20.67,33.04-16.35,92.02-9.08,135.69C20.19,310.75,33.08,350.66,33.33,351.43z"/>
</svg>
