<?xml version="1.0" encoding="utf-8"?>
<!-- Generator: Adobe Illustrator 23.0.1, SVG Export Plug-In . SVG Version: 6.00 Build 0)  -->
<svg version="1.1" id="Layer_1" xmlns="http://www.w3.org/2000/svg" xmlns:xlink="http://www.w3.org/1999/xlink" x="0px" y="0px"
	 viewBox="0 0 457.39 366.88" style="enable-background:new 0 0 457.39 366.88;" xml:space="preserve">
<style type="text/css">
	.st0{fill:#DCF7FF;}
	.st1{fill:#55DAF9;}
	.st2{fill:#FFFFFF;}
	.st3{fill:#E0E0E0;}
	.st4{fill:#ED7E7E;}
	.st5{opacity:0.2;}
	.st6{fill:#212226;}
	.st7{fill:#393F5C;}
	.st8{fill:#D99393;}
	.st9{fill:#9A9FB3;}
	.st10{fill:#FFE7DB;}
	.st11{fill:#31AEE0;}
	.st12{fill:#FFADAD;}
	.st13{fill:#392ECF;}
	.st14{fill:#21D9F7;}
	.st15{fill:#05D3E8;}
	.st16{opacity:0.67;fill:#FFFFFF;}
	.st17{fill:#B2B210;}
	.st18{fill:#402C2C;}
	.st19{fill:#BAC121;}
	.st20{fill:#827E06;}
	.st21{fill:#F2BE9B;}
	.st22{fill:#FB7484;}
	.st23{fill:#FFF2DE;}
	.st24{fill:#FCB415;}
	.st25{fill:#F4CDAF;}
	.st26{fill:#2B3044;}
	.st27{fill:#F5CEB0;}
	.st28{fill:#062338;}
	.st29{fill:#F4536E;}
	.st30{fill:#EFF0F1;}
	.st31{fill:#122330;}
	.st32{fill:#A6A4A4;}
	.st33{fill:#FFD54D;}
	.st34{fill:#DBDAD9;}
	.st35{fill:#FAB71F;}
	.st36{fill:#FFDF3A;}
	.st37{fill:#F5F6F6;}
	.st38{fill:#EDECED;}
	.st39{fill:#C1C1C1;}
	.st40{fill:#98928D;}
	.st41{fill:#A19F9F;}
	.st42{fill:#05C0D3;}
	.st43{fill:#005467;}
	.st44{fill:#004263;}
	.st45{opacity:0.13;}
	.st46{fill:#A6D6CA;}
	.st47{fill:#B7B713;}
	.st48{fill:#AAAA04;}
	.st49{fill:#0A2132;}
	.st50{fill:#D5F7D5;}
	.st51{fill:#71CC77;}
	.st52{fill:#2DB22F;}
	.st53{fill:#FBB992;}
	.st54{fill:#292951;}
	.st55{fill:#373462;}
	.st56{fill:#EA4444;}
	.st57{fill:#231F20;}
	.st58{fill:#FC5954;}
	.st59{opacity:0.2;fill:#FFFFFF;}
	.st60{opacity:0.2;fill:#231F20;}
	.st61{opacity:0.5;fill:#FFFFFF;}
	.st62{fill:#C7F9F5;}
	.st63{fill:#34E2D9;}
	.st64{fill:#FFD0C1;}
	.st65{fill:#BCBEC0;}
	.st66{fill:#EAD2B7;}
	.st67{fill:#33435A;}
	.st68{fill:#222D3D;}
	.st69{fill:#D7765B;}
	.st70{fill:#263343;}
	.st71{fill:#FDC4B1;}
	.st72{fill:#D0E8F4;}
	.st73{fill:#E3E3E4;}
	.st74{fill:#CCCDCE;}
	.st75{fill:#9D9D9F;}
	.st76{fill:#EAEAEA;}
	.st77{fill:#F6F6F6;}
	.st78{fill:#FFBDB8;}
	.st79{opacity:0.12;}
	.st80{fill:#272426;}
	.st81{fill:#AAAAAB;}
	.st82{fill:#427CCC;}
	.st83{fill-rule:evenodd;clip-rule:evenodd;fill:#FFFFFF;}
	.st84{fill-rule:evenodd;clip-rule:evenodd;fill:#C27629;}
	.st85{fill-rule:evenodd;clip-rule:evenodd;fill:#D8924C;}
	.st86{fill-rule:evenodd;clip-rule:evenodd;fill:#D18334;}
	.st87{fill-rule:evenodd;clip-rule:evenodd;fill:#E6E6E6;}
	.st88{fill-rule:evenodd;clip-rule:evenodd;fill:#313C50;}
	.st89{fill:#FFCD69;}
	.st90{fill-rule:evenodd;clip-rule:evenodd;fill:#A8610A;}
	.st91{fill-rule:evenodd;clip-rule:evenodd;fill:#814743;}
	.st92{fill-rule:evenodd;clip-rule:evenodd;fill:#FCDABE;}
	.st93{fill-rule:evenodd;clip-rule:evenodd;fill:#0288D1;}
	.st94{fill-rule:evenodd;clip-rule:evenodd;fill:#DBAC86;}
	.st95{fill-rule:evenodd;clip-rule:evenodd;fill:#4D4D4D;}
	.st96{fill-rule:evenodd;clip-rule:evenodd;fill:#FF386A;}
	.st97{fill-rule:evenodd;clip-rule:evenodd;fill:#D99990;}
	.st98{fill-rule:evenodd;clip-rule:evenodd;fill:#F8C8B4;}
	.st99{fill-rule:evenodd;clip-rule:evenodd;fill:#F04152;}
</style>
<g>
	<g>
		<path class="st2" d="M439.97,367.5H17.42c-9.31,0-16.85-7.54-16.85-16.85V17.35C0.57,8.04,8.11,0.5,17.42,0.5h422.55
			c9.31,0,16.85,7.54,16.85,16.85v333.3C456.82,359.96,449.27,367.5,439.97,367.5z"/>
		<path class="st3" d="M439.97,368H17.42c-9.57,0-17.35-7.78-17.35-17.35V17.35C0.07,7.78,7.85,0,17.42,0h422.55
			c9.57,0,17.35,7.78,17.35,17.35v333.3C457.32,360.22,449.54,368,439.97,368z M17.42,1C8.4,1,1.07,8.33,1.07,17.35v333.3
			c0,9.02,7.33,16.35,16.35,16.35h422.55c9.02,0,16.35-7.33,16.35-16.35V17.35c0-9.02-7.33-16.35-16.35-16.35H17.42z"/>
	</g>
	<path class="st23" d="M211.69,61c0,0,130,11,170,55S457.69,22,211.69,61z"/>
	<g>
		<path class="st23" d="M214.14,295.26c0,0-180.62,18.79-144.08-74.13S7.42,168.92,67.97,94.8s370.64,21.93,339.32,85.61
			S395.8,263.93,214.14,295.26z"/>
		<g>
			<g>
				<path class="st25" d="M184.16,156.21c-0.94,1.7-2.36,3.07-3.56,4.6c-1.16,1.49-1.64,2.88-2.06,4.68c-0.3,1.3-0.84,2.29-2.44,2.4
					c-3.01,0.2-1.98-2.2-2.52-4.04c-0.62-2.11-2.15-3.85-3.17-5.76c-2.94-5.53-1.21-15.91,5.89-17.62
					C184.05,138.59,187,151.05,184.16,156.21z"/>
			</g>
		</g>
		<g>
			<path class="st26" d="M172.46,150.2c-0.86-0.03-1.81-0.03-2.5,0.5c-0.68,0.53-0.71,1.8,0.13,1.99c0.75,0.18,1.8-0.54,2.23,0.07
				c0.25,0.36-0.03,0.84-0.27,1.22c-0.91,1.47-1.28,3.22-1.03,4.87c-0.34,0.27-0.8-0.07-1.06-0.39c-1.26-1.61-2.2-3.44-2.76-5.39
				c-0.31,0.44-0.74,0.8-1.24,1.03c0.34-0.69,0.22-1.49,0.09-2.23c-0.45-2.72-0.66-5.89,1.37-7.93c1.09-1.09,2.65-1.65,4.2-1.82
				c1.55-0.17,3.1,0.02,4.63,0.2c0.66,0.08,1.46,0.28,1.57,0.9c-1.49,0.47-3.07,1.49-3.89,2.8
				C173.7,146.43,172.55,150.2,172.46,150.2z"/>
		</g>
		<g>
			<path class="st26" d="M175.99,144c-0.06,0.03-0.11,0.07-0.16,0.1c-0.69,0.45-1.35,1.01-2.16,1.17c-1.17,0.23-2.35-0.41-3.5-0.1
				c-1.29,0.34-2.23,1.78-3.21,2.6c-1.61,1.35-3.56,2.28-5.61,2.74c-1.05,0.24-2.12,0.35-3.19,0.33c-0.49-0.01-1.14,0.03-1.6-0.13
				c-0.62-0.22-0.58-0.5,0.11-0.67c2.17-0.52,3.05-3.44,3.04-5.42c-0.01-1.56-0.43-3.23,0.27-4.63c0.54-1.07,1.55-1.56,2.54-2.13
				c1.09-0.62,2.2-0.35,3.4-0.59c1.25-0.26,2.33-1.15,3.6-1.3c1.34-0.16,2.62,0.52,3.93,0.88c1.08,0.29,2.22,0.36,3.32,0.21
				c0.99-0.14,1.97-0.47,2.97-0.38c1.47,0.12,2.76,1.14,3.53,2.4c1.09,1.78,1.66,4.73,1.07,6.93c0.09-0.34-0.98-1.68-1.2-1.97
				c-0.46-0.61-1.03-1.18-1.8-1.33C179.6,142.37,177.47,143.09,175.99,144z"/>
		</g>
		<g>
			<path class="st27" d="M228.42,278.9c-0.43-0.3-0.87-0.6-1.3-0.9l-10.74,21.31l3.59,1.66l12.92-19.01
				C231.4,280.94,229.91,279.92,228.42,278.9z"/>
			<polygon class="st28" points="220.2,300.3 223.46,305.39 221.87,307.4 214.23,301.82 216.37,298.85 			"/>
		</g>
		<g>
			<path class="st27" d="M253.35,280.56c-0.52-0.1-1.04-0.19-1.56-0.29l-1.1,23.84l3.96,0.05l4.03-22.63
				C256.9,281.21,255.12,280.89,253.35,280.56z"/>
			<polygon class="st28" points="254.58,303.46 259.64,306.77 259.01,309.25 249.75,307.28 250.5,303.7 			"/>
		</g>
		<polygon class="st7" points="266.13,220.91 231.22,215.73 228.04,229.45 226.03,264.36 218.74,289.85 228.56,294.12 
			239.09,273.22 246.08,248.11 247.79,245.41 249.44,267.18 249.13,293.69 259.73,295.23 264.38,272.28 264.54,238.26 
			264.53,238.22 		"/>
		<g>
			<path class="st27" d="M282.46,217.25c1.08,1.36,2.37,2.46,4.26,2.76c0.3,0.05,0.62,0.08,0.9-0.06c0.23-0.12,0.4-0.33,0.56-0.55
				c0.59-0.82,1.07-1.72,1.43-2.67c0.1-0.27,0.2-0.57,0.1-0.83c-0.06-0.16-0.18-0.28-0.3-0.4c-0.36-0.36-0.74-0.7-1.13-1.02
				c-0.02,0.22-0.04,0.45-0.13,0.65s-0.3,0.37-0.51,0.35c-0.11-0.01-0.21-0.06-0.31-0.13c-1.5-1,1.81-1.74,0.15-2.59
				c-0.29-0.15-0.62-0.15-0.94-0.18c-0.96-0.07-1.9-0.29-2.78-0.66c-0.74-0.31-1.1-0.82-1.78-0.32c-0.69,0.51-1.26,1.61-1.8,2.3
				C280.93,215.03,281.63,216.22,282.46,217.25z"/>
		</g>
		<path class="st29" d="M279.75,213.96l3.31-3.52l-13.95-13.77l-5.37-20.79c-0.84-3.25-4.04-5.31-7.35-4.74l0,0
			c-3.96,0.69-6.32,4.79-4.94,8.56l7.72,21.12L279.75,213.96z"/>
		<g>
			<g>
				<g>
					<path class="st25" d="M136.97,215c0,0-0.11-0.93-0.11-0.94c0-0.11-3.73-0.66-4.1-0.84c-1.95-0.93-3.74-3.31-5.27-4.8
						c-0.48-0.47-0.99-0.95-1.51-1.43c-0.98,1.62-1.98,3.23-3,4.82c0.02,0.01,0.03,0.02,0.05,0.03c2.03,1.23,4.63,1.96,6.51,3.34
						c1.8,1.33,3.03,3.58,4.62,5.16l3.49-1.16l0.73-3.08l-2.74-0.5l0.41-0.52L136.97,215z"/>
				</g>
			</g>
			<path class="st30" d="M100.14,177.2l9.15,26.43l19.84,12.54l2.57-4.37c0,0-15.7-15.88-15.7-15.88
				c-1.95-1.97-1.58-12.01-1.94-14.74c-1-7.57-1.95-14.1-11.66-12.75C97.93,169.04,99.79,173.83,100.14,177.2z"/>
		</g>
		<g>
			<g id="XMLID_188_">
				<g id="XMLID_209_">
					<path class="st25" d="M94.19,272.21c0,0-9.12,11.74-9.12,11.74c-3.84,5.38-8.66,10.06-12.5,15.44
						c-0.88,1.24-1.54,2.75-2.75,3.72c-1.18,0.95-2.28,0.45-2.79-0.88c-0.68-1.77,0.93-3.48,1.75-4.99
						c5.43-10.12,9.82-20.59,14.91-30.9c0.07-0.14,0.15-0.29,0.3-0.32c0.12-0.03,0.24,0.04,0.34,0.1
						C85.28,266.7,93.99,272.46,94.19,272.21z"/>
				</g>
			</g>
			<g>
				<polygon class="st31" points="67.58,299.47 65.24,300.74 66.15,306.94 69.31,309.87 71.85,309.04 70.7,301.45 				"/>
			</g>
		</g>
		<path class="st7" d="M76.13,225.01l0.88,11.7l3,30.64l-12.25,29.16l5.82,2.49l25.49-31.6l2.21-44.44
			C101.28,222.97,75.95,225.92,76.13,225.01z"/>
		<g>
			<g id="XMLID_210_">
				<g id="XMLID_211_">
					<path class="st25" d="M106.75,266.42l0.95,14.84c0.1,4.13,0.66,8.22,1.11,12.31c0.41,3.8-0.17,7.77,1.81,11.22
						c0.62,1.08,1.87,1.8,2.72,0.47c0.66-1.02,0.25-2.71,0.37-3.87c0.9-8.67,2.95-17.19,3.76-25.87
						C118.34,266.43,114.85,266.84,106.75,266.42z"/>
				</g>
			</g>
			<g>
				<polygon class="st31" points="109.31,302.31 108.48,304.84 113.37,308.75 117.69,308.72 118.97,306.38 112.94,301.62 				"/>
			</g>
		</g>
		<polygon class="st7" points="95.61,223.03 108.19,298.79 116.63,299.27 118.74,255.45 114.02,217.14 94.92,218.05 		"/>
		<g>
			<path id="XMLID_212_" class="st32" d="M168.21,126.99v2.82c0,0.92,0.72,1.66,1.62,1.66h7.22c0.89,0,1.62-0.74,1.62-1.66v-2.82
				H168.21z"/>
			<path class="st33" d="M190.95,89.15c0-9.92-7.84-17.95-17.51-17.95c-9.67,0-17.51,8.04-17.51,17.95c0,3.52,0.99,6.81,2.7,9.58h0
				c4.87,8.37,6,15.38,6,15.38h8.81h8.81c0,0,1.13-7.01,6-15.38h0C189.95,95.96,190.95,92.67,190.95,89.15z"/>
			<path class="st34" d="M164.42,114.11v11.97c0,0.5,0.39,0.91,0.86,0.91h16.31c0.48,0,0.86-0.41,0.86-0.91v-11.97H164.42z"/>
			<path class="st35" d="M190.63,85.79c-4.45,8.92-13.09,22.69-26.02,28.28c0,0.03,0.01,0.05,0.01,0.05h8.81h8.81
				c0,0,1.13-7.01,6-15.38h0c1.71-2.77,2.7-6.06,2.7-9.58C190.95,88,190.84,86.88,190.63,85.79z"/>
			<g>
				<path class="st36" d="M158.78,90.62c0-8.66,6.85-15.67,15.29-15.67c4.94,0,9.32,2.4,12.12,6.12c-2.64-4.7-7.59-7.86-13.26-7.86
					c-8.44,0-15.29,7.02-15.29,15.67c0,3.6,1.18,6.91,3.17,9.56C159.52,96.14,158.78,93.47,158.78,90.62z"/>
			</g>
			<g>
				<polygon class="st37" points="170.03,114.11 167.91,91.13 170.86,93.65 173.44,89.46 176.06,93.52 178.96,91.11 176.84,114.11 
					177.74,114.11 180.06,89.01 176.26,92.16 173.42,87.76 170.65,92.27 166.8,88.99 169.12,114.11 				"/>
			</g>
			<g>
				<path class="st38" d="M168.91,111.82l0.21,2.29h0.9l-0.26-2.83C169.48,111.47,169.2,111.65,168.91,111.82z"/>
				<path class="st38" d="M177.71,104.64l-0.87,9.47h0.9l0.97-10.54C178.39,103.93,178.05,104.29,177.71,104.64z"/>
			</g>
			<g>
				<rect x="164.42" y="117.09" class="st39" width="18.03" height="2.21"/>
				<rect x="164.42" y="121.81" class="st39" width="18.03" height="2.21"/>
			</g>
			<g>
				<path class="st40" d="M174.3,121.81h8.15v-2.51h-5.02C176.37,120.25,175.33,121.08,174.3,121.81z"/>
				<path class="st40" d="M182.45,117.09v-2.97h-0.28c-0.83,1.08-1.67,2.07-2.51,2.97H182.45z"/>
				<path class="st40" d="M165.28,126.99h16.31c0.48,0,0.86-0.41,0.86-0.91v-2.07h-11.77c-2.39,1.23-4.54,1.91-6.23,2.29
					C164.54,126.7,164.88,126.99,165.28,126.99z"/>
				<path class="st32" d="M177.42,119.3h5.02v-2.21h-2.79C178.91,117.89,178.17,118.62,177.42,119.3z"/>
				<path class="st32" d="M170.68,124.02h11.77v-2.21h-8.15C173.05,122.69,171.84,123.42,170.68,124.02z"/>
			</g>
			<path class="st41" d="M178.66,128.7c-2.03,2.01-5.93,2.61-7.22,2.76h5.6c0.89,0,1.62-0.74,1.62-1.66V128.7z"/>
		</g>
		<g>
			<path class="st25" d="M217.1,215.83c-0.01-0.11-0.03-0.22-0.06-0.33c-0.28-1.03-1.31-1.26-1.8-2.07
				c-0.22-0.36-0.02-1.61-0.71-1.49c-0.25,0.05-1.12,0.13-1.99,0.26c-1.26,0.2-2.4-0.55-3.44-1.12c-1.4-0.77-2.8-1.54-4.2-2.31
				c-1.22-0.67-2.44-1.34-3.53-2.2c-2.63-2.07-4.06-4.9-5.76-7.65c-1.81-2.92-3.65-6.02-5.86-8.65c-0.78-0.93-1.67-1.83-2.8-2.27
				c-2.84-1.12-4.5,1.18-3.96,3.82c0.23,1.11,0.72,2.14,1.25,3.14c1.43,2.7,3.14,5.24,5.09,7.59c0.91,1.09,1.87,2.15,2.83,3.2
				c2.47,2.71,5.03,4.79,8.18,6.67c1.55,0.75,3.17,1.34,4.77,1.95c0.98,0.38,3.34,0.79,3.56,1.99c0.04,0.2,0.03,0.4,0.09,0.6
				c0.07,0.22,0.22,0.39,0.38,0.56c0.57,0.61,1.19,1.19,1.89,1.65c1.24,0.83,3.4-0.07,4.65-0.48c0.31-0.1,0.63-0.22,0.86-0.45
				c0.38-0.37,0.46-0.94,0.52-1.47C217.1,216.47,217.13,216.15,217.1,215.83z"/>
		</g>
		<g>
			<path class="st42" d="M182.66,199.56c3.33,4.1,7.21,7.7,11.28,10.6c1.59-1.46,3.17-2.93,4.76-4.39c0.22-0.2,0.45-0.42,0.48-0.72
				c0.03-0.24-0.09-0.47-0.2-0.69c-1.44-2.78-3.21-5.48-4.06-8.53c-0.6-2.15-0.99-4.24-1.68-6.38c-1.14-3.5-2.14-7.05-3.35-10.52
				c-1.08-3.12-2.23-6.34-4.52-8.72c-4.88-5.08-13.51-1.68-12.97,5.59C173.05,184.4,177.06,192.67,182.66,199.56z"/>
		</g>
		<g>
			<g>
				<path class="st25" d="M151.38,302.25c0.9,0.59,1.92,0.92,2.87,1.39c5.91-8.71,10.77-18.64,15.88-27.9
					c-2.38-1.28-4.77-2.55-7.15-3.83c-1.32,5.8-3.19,11.48-5.57,16.93C157.03,289.71,151.25,302.17,151.38,302.25z"/>
			</g>
			<g>
				<path class="st31" d="M155.59,302.06c0.63,0.24,0.81,0.7,0.98,1.28c0.1,0.34,0.08,0.71,0.25,1.02c0.18,0.31,0.42,0.49,0.72,0.72
					c1.56,1.18,5.44,3.43,1.71,4.98c-3.39,1.41-7.71-2.59-10.14-5c-0.16-0.16-0.34-0.31-0.39-0.53c-0.05-0.23-0.02-0.49,0.05-0.74
					c0.4-1.39,0.85-3.14,2.62-2.76c0.75,0.17,1.08,0.93,1.88,1.1C153.94,302.26,154.96,301.82,155.59,302.06z"/>
			</g>
		</g>
		<g>
			<path class="st7" d="M148.82,239.55c0.84,3.67,2.99,6.83,5.09,9.89c2.04,2.97,3.53,6.01,4.89,9.36
				c1.39,3.39,1.17,7.21,0.75,10.85c-0.87,7.55-2.48,15.01-4.81,22.24c2.95,1.35,5.91,2.69,8.86,4.04c0.52,0.24,3.61-3.33,4.01-3.78
				c1.37-1.54,2.58-3.21,3.62-4.98c2-3.4,3.58-7.25,5.19-10.84c3.72-8.27,5.26-17.51,4.39-26.54c-0.57-5.86-2.12-11.57-3.66-17.25
				c-0.76-2.81-1.31-5.82-2.4-8.51c-0.71-1.76-1.25-4.49-2.83-5.66c-1.43-1.1-3.04-1.28-4.99-1.19c-5.2,0.26-12.59-0.32-16.25,4.09
				C146.71,226.07,147.58,234.1,148.82,239.55z"/>
		</g>
		<g>
			<g>
				<path class="st25" d="M184.46,305.75c1.07,0.13,2.13-0.02,3.19-0.02c1.47-10.42,1.45-21.48,1.94-32.04
					c-2.7-0.09-5.4-0.19-8.11-0.28c1.38,5.79,2.2,11.71,2.47,17.65C183.99,292,184.3,305.74,184.46,305.75z"/>
			</g>
			<g>
				<path class="st31" d="M188.15,303.73c0.67-0.06,1.04,0.27,1.45,0.71c0.24,0.26,0.38,0.61,0.68,0.8c0.3,0.2,0.6,0.26,0.96,0.32
					c1.92,0.37,6.4,0.68,3.73,3.71c-2.42,2.76-8.06,1.08-11.31-0.02c-0.21-0.07-0.44-0.12-0.59-0.31c-0.15-0.18-0.23-0.43-0.28-0.69
					c-0.26-1.42-0.62-3.2,1.13-3.63c0.75-0.18,1.38,0.36,2.17,0.16C186.75,304.64,187.48,303.79,188.15,303.73z"/>
			</g>
		</g>
		<g>
			<path class="st7" d="M172.82,245.39c1.81,6.37,3.29,12.74,5.22,19.07c2.44,8.03,3.73,16.4,3.81,24.79
				c0.03,3.4-0.13,6.84,0.66,10.15c2.96-0.38,5.92-0.76,8.88-1.15c2.82-12.47,5.25-25.3,4.3-38.13
				c-0.95-12.78-4.52-25.19-8.24-37.39c-0.51-1.68-1.03-3.35-1.54-5.03c-0.31-1.01-0.64-2.06-1.38-2.81
				c-0.77-0.79-1.88-1.14-2.95-1.38c-3.96-0.88-8.16-0.63-11.99,0.72c-0.74,0.26-1.5,0.59-2.01,1.19c-0.77,0.92-0.76,2.24-0.67,3.44
				C167.58,227.98,170.35,236.66,172.82,245.39z"/>
		</g>
		<g>
			<path class="st14" d="M163.36,169.1c-1.16,0.82-2.23,1.74-3.16,2.74c-3.09,3.34-5.56,7.26-7.33,11.45
				c-4.07,9.59-4.85,20.12-5.58,30.44c-0.24,3.43-0.49,6.87-0.73,10.3c-0.24,3.38,0,4.13,3.58,3.97c6.63-0.29,13.56-1.14,19.72-3.68
				c2.93-1.21,5.7-2.81,8.75-3.7c4.43-1.3,8.82-0.19,13.17-0.92c-0.85-3.48-2.27-6.72-2.78-10.34c-0.51-3.63-0.62-7.3-0.61-10.96
				c0.01-5.14-0.2-10.28-0.3-15.42c-0.07-4-0.06-8.69-2.52-12.08c-0.82-1.14-1.98-2.18-3.28-2.74c-0.96-0.41-2.69-0.68-3.25-1.68
				c-0.05-0.09-0.06-0.2-0.06-0.31c-0.03-1.27,0.37-2.43-0.87-2.88c-0.69-0.25-1.68-0.23-2.41-0.27c-1.03-0.06-3.63-0.31-3.93,1.14
				c-0.08,0.38-0.07,0.79-0.21,1.15c-0.04,0.09-0.08,0.18-0.16,0.24c-0.1,0.08-0.22,0.11-0.35,0.13
				C168.4,166.23,165.69,167.46,163.36,169.1z"/>
		</g>
		<g>
			<path class="st25" d="M136.18,219.34c0.11-0.03,0.21-0.07,0.32-0.12c0.95-0.47,0.97-1.54,1.67-2.18
				c0.31-0.28,1.57-0.34,1.32-0.99c-0.1-0.24-0.35-1.07-0.65-1.9c-0.45-1.2,0.06-2.46,0.42-3.6c0.48-1.52,0.95-3.05,1.43-4.57
				c0.41-1.33,0.83-2.66,1.46-3.9c1.51-2.99,4-4.95,6.35-7.17c2.5-2.35,5.17-4.77,7.32-7.46c0.76-0.95,1.46-2,1.67-3.2
				c0.53-3-2.05-4.18-4.53-3.13c-1.04,0.44-1.96,1.13-2.83,1.85c-2.36,1.94-4.52,4.12-6.43,6.49c-0.89,1.11-1.73,2.26-2.57,3.41
				c-2.16,2.96-3.7,5.89-4.91,9.34c-0.43,1.67-0.68,3.37-0.97,5.06c-0.17,1.03-0.11,3.43-1.25,3.89c-0.19,0.07-0.39,0.11-0.57,0.21
				c-0.2,0.11-0.34,0.3-0.47,0.48c-0.48,0.68-0.93,1.41-1.24,2.18c-0.56,1.38,0.74,3.32,1.39,4.46c0.16,0.28,0.34,0.57,0.61,0.76
				c0.44,0.3,1.02,0.27,1.54,0.22C135.57,219.45,135.89,219.42,136.18,219.34z"/>
		</g>
		<g>
			<path class="st42" d="M146.26,182.82c-0.72,0.74-1.42,1.49-2.08,2.28c-2.46,2.94-4.38,6.33-5.62,9.95
				c1.52,1.88,3.21,3.63,5.05,5.22c7.34-5.98,15.28-10.16,23.35-14.94c2.84-1.68,5.77-3.45,7.65-6.16c3.46-5-0.09-12.24-6.35-11.9
				c-7.58,0.41-14.45,8.2-19.55,13.14C147.87,181.21,147.05,182,146.26,182.82z"/>
		</g>
		<path class="st30" d="M116.55,199.62c-0.16-5.13-0.68-10.22-1.67-15.16c-1.29-6.4-2.97-12.94-6.96-18.11
			c-3.99-5.17-10.82-8.65-17.11-6.9c-3.85,1.07-7.01,3.94-9.15,7.32c-2.14,3.37-3.36,7.24-4.38,11.1
			c-2.89,10.97-3.12,21.98-4.28,33.21c-0.51,4.9-1.81,10.12-0.86,15.03c-0.03-0.13,8.64-0.52,9.69-0.55
			c5.22-0.15,10.32,0.37,15.52,0.63c4.2,0.21,7.49-0.88,11.65,0.97c1.4,0.62,2.7,1.5,4.2,1.82c0.34,0.07,0.72,0.1,1-0.09
			c0.31-0.22,0.39-0.64,0.45-1.02C115.94,218.68,116.84,209.07,116.55,199.62z"/>
		<g>
			<path class="st26" d="M101.61,140.34c0.9,1.59,1.33,3.41,1.41,5.24c0.02,0.48,0.05,1.04,0.44,1.33c0.42,0.31,0.05,0.98,0.37,0.57
				c0.32-0.41,1.41-1.83,1.46-2.35c0.12-1.21,0.12-2.43,0-3.65c-0.1-1.05-0.31-2.15-1-2.96c-0.41-0.48-0.95-0.81-1.49-1.14
				c-0.78-0.47-1.58-0.95-2.47-1.12c-1.54-0.29-2.49,0.26-1.13,1.34C100.17,138.38,100.99,139.26,101.61,140.34z"/>
		</g>
		<g>
			<g>
				<path class="st25" d="M91.93,161c0.01,0.75-0.15,1.52,0.51,2.1c0.32,0.28,0.74,0.39,1.16,0.46c1.08,0.17,2.19,0.1,3.23-0.22
					c0.43-0.13,0.86-0.31,1.18-0.62c0.38-0.37,0.4-0.71,0.42-1.19c0.02-0.56,0.14-1.13,0.21-1.7c0.16-1.25,0.24-2.5,0.28-3.76
					c1.85-0.31,4.02-0.91,4.66-2.84c0.2-0.61,0.21-1.27,0.21-1.92c0.03-2.68,0.05-5.36,0.08-8.05c0.01-0.93,0.01-1.88-0.3-2.74
					c-0.55-1.51-1.97-2.41-3.36-2.98c-3.54-1.45-7.67-1.4-10.95,0.65c-0.87,0.55-1.69,1.25-2.2,2.2c-0.78,1.47-0.68,3.29-0.57,4.99
					c0.11,1.57,0.22,3.14,0.32,4.71c0.12,1.8,0.39,3.88,1.79,4.84c0.74,0.51,1.7,0.6,2.34,1.26c1.12,1.15,0.58,2.85,0.91,4.24
					C91.92,160.6,91.93,160.8,91.93,161z"/>
			</g>
		</g>
		<g>
			<path class="st26" d="M104.45,150.23c-0.03-0.5-0.24-1.95-0.99-1.04c-0.2,0.24-0.24,0.58-0.26,0.9c-0.01,0.32,0,0.65-0.1,0.95
				c-0.23,0.69-1,1-1.67,0.99c-0.27-0.01-0.55-0.05-0.78-0.19c-0.23-0.13-0.42-0.34-0.59-0.55c-0.44-0.5-0.87-1-1.31-1.5
				c-0.75-0.86-2.24-0.49-3.25-0.36c-1.16,0.15-2.33,0.5-3.28,1.26c-0.1,0.08-0.19,0.16-0.28,0.24c-0.23,0.2-0.46,0.39-0.73,0.52
				c-0.9,0.44-2.01-0.02-2.64-0.84c-0.29-0.38-0.56-0.86-1-0.92c-0.35-0.05-0.69,0.2-0.87,0.53c-0.18,0.33-0.23,0.72-0.25,1.1
				c-0.09,1.39,0.1,2.81,0.69,4.04c1.3,2.67,3.81,3,6.34,2.94c1-0.02,2-0.04,3-0.06c1.83-0.04,3.76-0.11,5.3-1.17
				c1.36-0.93,2.17-2.53,2.51-4.2C104.45,152,104.5,151.11,104.45,150.23z M97.76,154c-0.96,0.65-2.03,0.68-3.1,0.35
				c-0.46-0.14-0.26-0.9,0.2-0.76c0.89,0.27,1.73,0.26,2.53-0.27C97.79,153.04,98.16,153.73,97.76,154z"/>
		</g>
		<g>
			<path class="st26" d="M104.86,135.7c0.18-0.65,0.31-1.31,0.39-1.98c-0.62,0.22-1.29,0.27-1.94,0.16c0-0.39,0-0.77,0-1.16
				c0-0.32-4.34-0.55-4.69-0.58c-3.3-0.28-6.32-0.54-9.31,1.22c-2.55,1.51-4.19,3.76-4.59,6.7c-0.38,2.81,0.53,6.48,2.15,8.82
				c-0.01-0.75-0.43-2.51-0.26-3.22c0.11-0.71,0.36-1.4,0.7-2.03c0.68-1.26,1.73-2.33,2.95-3.09c1.94-1.21,4.19-1.84,6.43-2.15
				c2.06-0.28,4.57-0.54,6.6,0.01c0.98,0.26,1.14,0.51,1.73-0.48c0.1-0.17,0.94-2.2,0.86-2.2
				C105.55,135.71,105.21,135.71,104.86,135.7z"/>
		</g>
		<path class="st22" d="M234.63,173.52c2.19-2.81,5.25-4.34,8.79-6.57c0.61-0.38,1.23-0.77,1.92-0.97c0.48-0.14,0.98-0.18,1.48-0.2
			c3.02-0.17,8.72-0.63,11.29,1.21c2.7,1.92,3.2,6.51,3.77,9.47c2.88,14.97,3.55,34.26,4.11,49.54c-1.83-0.57-3.63-1.27-5.43-1.95
			c-8.79-0.92-19.17-0.55-27.31,0.29c-2.57,0.8-5.12,1.68-7.66,2.58c0.65-0.23,0.63-12.23,0.72-13.57
			c0.32-4.82,0.75-9.65,1.39-14.44c0.99-7.39,2.28-14.72,4.9-21.73C233.15,175.73,233.83,174.54,234.63,173.52z"/>
		<g>
			<g>
				<rect x="53.93" y="225.24" class="st43" width="47.41" height="30.75"/>
				<g>
					<path class="st44" d="M87.19,224.88H84.6v-5.21H70.67v4.72h-2.59v-5.43c0-1.12,0.86-2.02,1.92-2.02h15.27
						c1.06,0,1.92,0.9,1.92,2.02V224.88z"/>
				</g>
				<path class="st45" d="M101.34,231.71l-21.18,3.65l-0.01,0.34l-3.69,1.37l-1.34,0.5l1.71,0.88v0.94c0,0.26,0.2,0.47,0.45,0.47
					h1.26c0.25,0,0.45-0.21,0.45-0.47v-0.94h2.14l0.04-2.24l20.17-2.51V231.71z"/>
				<polygon class="st46" points="101.34,232.47 78.34,236.21 53.93,232.47 53.93,223.64 101.34,223.64 				"/>
				<path class="st44" d="M80.87,234.84h-6.41l-0.04,3.47h2.14v0.94c0,0.26,0.2,0.47,0.45,0.47h1.26c0.25,0,0.45-0.21,0.45-0.47
					v-0.94h2.14L80.87,234.84z"/>
			</g>
		</g>
		<g>
			<g>
				<g>
					<path class="st25" d="M75.79,219.69c0,0,0.62-0.69,0.63-0.7c0.08-0.08-1.95-3.25-2.06-3.64c-0.57-2.08,0.04-4.99,0.16-7.13
						c0.04-0.67,0.06-1.37,0.09-2.08c-1.86,0.32-3.73,0.63-5.6,0.9c0,0.02,0.01,0.04,0.01,0.06c0.41,2.34,1.57,4.78,1.76,7.11
						c0.18,2.23-0.71,4.64-0.86,6.87c0,0,3.16,1.87,3.16,1.87l2.8-1.47l-1.42-2.4l0.66-0.03L75.79,219.69z"/>
				</g>
			</g>
			<path class="st30" d="M80.11,167.09L66.2,191.34l3.57,23.2l4.99-0.93l1.66-22.27l17.05-19.3c2.01-2.27,1.81-5.74-0.45-7.76
				l-1.57-1.41c-2.24-2.01-5.67-1.86-7.72,0.34L80.11,167.09z"/>
		</g>
		<g>
			<path class="st27" d="M211.32,212.91c-0.97,1.44-1.63,3-1.35,4.89c0.04,0.3,0.11,0.61,0.33,0.84c0.18,0.19,0.44,0.28,0.69,0.37
				c0.96,0.31,1.96,0.5,2.98,0.56c0.29,0.02,0.6,0.02,0.82-0.16c0.13-0.1,0.22-0.26,0.29-0.4c0.23-0.45,0.44-0.92,0.63-1.39
				c-0.22,0.05-0.44,0.1-0.66,0.07c-0.22-0.03-0.44-0.17-0.49-0.38c-0.03-0.11,0-0.22,0.03-0.33c0.5-1.73,2.2,1.21,2.51-0.64
				c0.05-0.32-0.04-0.64-0.12-0.95c-0.22-0.93-0.29-1.9-0.21-2.85c0.07-0.8,0.45-1.3-0.23-1.8c-0.7-0.5-1.92-0.72-2.74-1.03
				C212.98,210.79,212.06,211.82,211.32,212.91z"/>
		</g>
		<path class="st29" d="M213.65,209.34l4.36,2.09l8.92-17.46l18.2-11.39c2.85-1.78,3.85-5.45,2.3-8.44l0,0
			c-1.85-3.56-6.48-4.58-9.65-2.13l-17.8,13.73L213.65,209.34z"/>
		<path class="st47" d="M340.95,166.16l-16.86-6.69c0,0-5.99,14.88-12.8,38.71c-6.81,23.83,3.16,54.18,3.16,54.18
			s38.62-9.18,46.33-10.69l-9.67-43.57L340.95,166.16z"/>
		<polygon class="st27" points="365.47,172.54 369.45,168.18 367.77,166.28 364.43,168.63 364.03,167.34 361.05,171.52 
			362.54,173.74 		"/>
		<polygon class="st48" points="331.1,160.95 341.2,179.96 362.26,168.7 364.63,173.5 340.5,194.22 317.54,170.03 		"/>
		<polygon class="st7" points="326.42,215.17 317.97,233.03 315.75,266.47 298.39,294.34 304.19,298.65 332.67,274.13 
			339.89,248.62 347.14,221.03 		"/>
		<polygon class="st7" points="351.06,225.29 356.19,259.33 352.82,303.99 347.72,304.85 337.42,263.5 323.35,222.79 		"/>
		<polygon class="st49" points="303.66,297.6 306.1,305.08 303.45,307.03 295.65,297.43 299.32,294.47 		"/>
		<polygon class="st49" points="352.55,302.93 359.81,305.95 359.57,309.23 347.2,308.89 347.35,304.18 		"/>
		<path class="st27" d="M341.51,142.78c-4.59,0.34-8.88-3.43-13.4-2.5c-2.94,0.61-5.26,3.21-6.15,6.15
			c-0.42,1.37-0.57,2.86-0.16,4.22c0.27,0.88,0.75,1.68,1.33,2.39c0.77,0.95,1.71,1.73,2.76,2.33c-0.57,0.93-1.23,1.8-1.96,2.61
			c2.12,0.81,4.23,1.62,6.35,2.43c0.47-1.22,0.94-2.43,1.4-3.65c0.64-0.04,1.27-0.13,1.89-0.29c3.76-0.98,6.87-4.27,7.71-8.15
			C341.68,146.51,341.6,144.63,341.51,142.78z"/>
		<path class="st26" d="M340.35,144.16l-14.19-1.69l-2.75,10.84c-3.35-2.66-6.81-6.43-6.64-11.16c0.04-1.04,0.39-2.03,0.74-3.01
			c0.6-1.67,1.2-3.33,1.8-5c1.37-3.8,2.05-2.17,5.18-1.91c2.07,0.17,4.27-0.01,6.34-0.05c2.26-0.05,4.52-0.04,6.77-0.15
			c2.38-0.11,3.39-2.08,5.67-1.96c0.94,0.05,1.93,0.23,2.8-0.11c0.95-0.38,1.62-1.32,2.61-1.57c0.88-0.22,1.8,0.17,2.59,0.62
			c0.8,0.45,1.62,1.01,1.94,1.88c0.17,0.46,0.18,0.96,0.16,1.44c-0.24,8.13-5.42,11.04-11.34,15.03L340.35,144.16z"/>
		<path class="st2" d="M334.84,162.09l-16.86-6.69c0,0-5.99,14.88-12.8,38.71c-6.81,23.83,3.16,54.18,3.16,54.18
			s34.54-17.07,42.25-18.58l-5.6-35.68L334.84,162.09z"/>
		<path class="st19" d="M304.93,194.62c6.81-23.83,12.8-38.71,12.8-38.71l16.86,6.69l0.03,0.09c-0.37,0.97-0.76,1.94-1.1,2.93
			c-1.33,3.9-2.32,7.91-2.93,11.98c-1.07,7.16-1.18,14.53-0.95,21.75c0.22,6.93,0.93,13.86,2.17,20.68
			c1.63,9.03,4.23,17.82,7.57,26.34c-15.68,3.19-34.13,6.95-34.13,6.95S298.12,218.46,304.93,194.62z"/>
		<path class="st7" d="M368.64,192.62L368.64,192.62c1.33-0.09,2.33-1.24,2.23-2.57l-8.18-116.13l-4.8,0.34l8.18,116.13
			C366.16,191.71,367.31,192.71,368.64,192.62z"/>
		<path class="st14" d="M366.52,122.51c-11.33-5.74-20.33-6.54-26.35-6.27c-14.99,0.67-21.96,8.48-40.99,11.6
			c-8.72,1.43-15.96,1.22-20.55,0.86c-1.71-6.69-3.28-14.8-4.05-24.08c-0.9-10.87-2.98-22.39-2.13-30.08
			c4.46,0.62,13.81,3.18,21.95,2.13c19.97-2.57,27.46-12.19,43.87-12.6c5.76-0.14,14.16,0.81,24.58,6.25
			C364.07,87.72,365.3,105.11,366.52,122.51z"/>
		<path class="st27" d="M284.29,217.04c-0.22,0.49-0.41,1-0.4,1.53c0.02,1.18,1.05,2.15,2.18,2.5s2.34,0.21,3.51,0.07
			c0.25-0.57,0.35-1.19,0.31-1.81c0.26-0.24,0.53,0.27,0.81,0.49c0.39,0.3,0.98-0.11,1.09-0.58c0.11-0.48-0.07-0.97-0.13-1.46
			c-0.24-1.78,1.02-3.41,1.28-5.19c-0.07,0.48-2.62-1.15-2.71-1.17c-1.22-0.19-0.79-0.38-1.94,0.28
			C286.69,212.61,285.03,215.4,284.29,217.04z"/>
		<polygon class="st48" points="317.73,155.91 295.65,183.39 287.25,212.56 292.64,215.17 302.81,194.22 324.45,172.1 		"/>
		<path class="st22" d="M330.95,173.91c-0.8,1.34-1.72,2.65-3.01,3.53c-1.28,0.88-2.85,1.26-4.39,1.42
			c-6.91,0.72-14.09-2.95-17.53-8.98c-0.35-0.62-0.7-1.29-1.32-1.64c-0.56-0.32-1.24-0.31-1.89-0.28
			c-3.41,0.14-6.81,0.53-10.17,1.14c0.77,8.1,6.24,15.57,13.72,18.77c3.41,1.46,7.14,2.06,10.84,2.27c3.52,0.2,7.11,0.03,10.45-1.11
			c3.34-1.14,6.41-3.34,8.05-6.46c3.07-5.83,0.54-12.97,1.45-19.49c0.55-3.93-3.67,1.26-3.82,1.6c-0.19,0.42,0.43,2.9,0.28,3.68
			C333.27,170.21,331.9,172.32,330.95,173.91z"/>
		<path class="st2" d="M242.87,171.47c-1.47,2.58-1.63,6.07-0.27,9.39c1.32,3.22,2.86,2.48,5.55,4.69
			c-4.57,3.23-4.83,12.9-4.96,18.49c-0.1,4.38,0.18,8.77,0.83,13.1c0.19,1.3,0.23,5.1,1.35,5.92c1.1,0.81,4.43-0.11,5.86,0.08
			c1.31-8.86,2.62-17.72,3.23-26.65c0.1-1.51,0.18-3.05-0.22-4.5c-0.4-1.46-0.76-5.92-2.18-6.44c4.4-3.41,4.81-6.52,4.78-12.08
			c-0.01-1.45-0.11-3.02-1.04-4.14c-1.1-1.31-2.98-1.57-4.69-1.74C247.17,167.2,244.36,168.87,242.87,171.47z"/>
		<path class="st25" d="M243.96,149.78c3.39-6.25,13.7-7,14.67,1.03c0.29,2.41,0.29,4.92-0.59,7.21c-0.88,2.28-2.75,4.31-5.18,4.93
			c-0.01,0-0.03,0.01-0.04,0.01c-0.42,0.1,0.78,4.37,0.86,4.71c0.12,0.53,0.24,1.06,0.23,1.6c-0.02,1.2-0.66,2.31-1.34,3.32
			c-0.63,0.92-1.3,1.81-2.03,2.66c-0.06,0.07-0.13,0.15-0.22,0.19c-0.22,0.09-0.45-0.09-0.62-0.26c-1.32-1.35-2.39-2.91-3.17-4.6
			c-0.18-0.39-0.34-0.78-0.39-1.2c-0.06-0.48,0.04-0.96,0.15-1.43c0.31-1.31,2.22-4.28,1.77-5.45c-0.17-0.44-1.39-1.01-1.77-1.36
			c-0.63-0.59-1.17-1.28-1.61-2C243.02,156.4,242.4,152.67,243.96,149.78z"/>
		<g>
			<path class="st26" d="M258.05,152.83c0.7,1.92,0.15,3.97-0.58,5.81c-0.71,1.8-0.92,3.66-1.8,5.4c0.14,0.33,0.64,0.24,0.98,0.09
				c1.98-0.88,3.94-1.78,5.9-2.7c0.2-0.09,0.4-0.19,0.54-0.35c0.18-0.21,0.23-0.49,0.27-0.75c0.82-5.25-0.4-9.47-2.47-14.19
				c-1-2.29-4.41-5.32-7.19-3.44c-0.63,0.43-0.99,1.14-1.29,1.83c-0.18,0.41-0.35,0.84-0.35,1.29c0.01,1.78,1.69,2.04,2.85,2.86
				C256.35,149.67,257.46,151.21,258.05,152.83z"/>
			<path class="st26" d="M244.94,153.58c-0.35,1.49-0.38,3.25-0.25,4.76c0.05,0.52,0.76,1.86,0.71,2.2
				c-0.14,0.97-2.72,2.78-3.45,3.5c-2.81-2.4-5.63-4.79-8.44-7.19c-0.22-0.18-0.44-0.38-0.53-0.65c-0.08-0.24-0.03-0.5,0.01-0.75
				c0.96-4.9,3.3-8.99,6.27-12.97c2.97-3.98,8.15-6.62,13.2-5.22c4.08,1.13,6.28,4.67,3.82,8.42c-1.86,2.83-6.02,2.62-8.69,4.26
				C245.92,150.97,245.23,152.2,244.94,153.58z"/>
		</g>
		<path class="st22" d="M95.71,206.32c-0.22,1.15-0.46,2.32-0.28,3.47c0.36,2.25,2.21,3.91,3.95,5.38c2.39-1.28,3.72-3.98,4.12-6.66
			c0.4-2.68,0.01-5.4-0.23-8.1c-0.95-10.82,0.39-22.44-5-31.87c0.65-0.21,1.29-0.42,1.94-0.64c0.33-1.87-2.26-2.97-4.08-2.43
			c-1.09,0.32-2.56,1.47-2.69,2.71c-0.26,2.52,1.37,0.97,2.21,2.12c1.84,2.5,1.49,8.44,1.67,11.54
			C97.8,190.02,97.26,198.27,95.71,206.32z"/>
	</g>
</g>
</svg>
