<svg id="Layer_1" data-name="Layer 1" xmlns="http://www.w3.org/2000/svg" xmlns:xlink="http://www.w3.org/1999/xlink" viewBox="0 0 205.59 216"><defs><style>.cls-1,.cls-14,.cls-9{fill:none;}.cls-2{clip-path:url(#clip-path);}.cls-3{fill:#fef0d0;}.cls-4{fill:#f4d9cb;}.cls-12,.cls-4,.cls-5,.cls-6,.cls-9{stroke:#040b3a;}.cls-12,.cls-14,.cls-4,.cls-5,.cls-6,.cls-9{stroke-miterlimit:10;}.cls-5{fill:#fcb415;}.cls-6{fill:#ea9f07;}.cls-7{fill:#efcebf;}.cls-8{fill:#040b3a;}.cls-9{stroke-linecap:round;}.cls-10{fill:#fdfeff;}.cls-11{clip-path:url(#clip-path-3);}.cls-12{fill:#c4c9e7;}.cls-13{fill:#393f5c;}.cls-14{stroke:#393f5c;stroke-width:2.5px;}.cls-15{fill:#2b3047;}</style><clipPath id="clip-path"><rect class="cls-1" x="-500.41" y="0.5" width="706" height="215" rx="11.74"/></clipPath><clipPath id="clip-path-3"><rect class="cls-1" x="-500.41" y="-270.43" width="706" height="215" rx="11.74"/></clipPath></defs><title>Home</title><g class="cls-2"><path class="cls-3" d="M35.38-.91s-77.86,73.18-2.83,218.29,192-14.88,192-14.88l3-186-30-28Z"/></g><g class="cls-2"><path class="cls-4" d="M93.47,74.45a8.12,8.12,0,1,1-8.11-8.12A8.12,8.12,0,0,1,93.47,74.45Z"/><path class="cls-4" d="M146.92,74.45a8.12,8.12,0,1,1-8.12-8.12A8.12,8.12,0,0,1,146.92,74.45Z"/><path class="cls-5" d="M171.21,249.06l-.87.41a137.12,137.12,0,0,1-114.68,1.89s2.75-40.73,11-89.34A665.72,665.72,0,0,1,81.16,96l0,0,.07,0c1.32-.51,2.65-1,4-1.44a84.44,84.44,0,0,1,52.94-.08c1.45.48,2.89,1,4.33,1.57C162.39,166.81,171.21,249.06,171.21,249.06Z"/><path class="cls-6" d="M81.21,96l0,0a665.72,665.72,0,0,0-14.45,66c-9.12,6.78-20.56,16.45-22.43,23.72-1,4,3.24,7.34,9.49,10L48,215.92H35.1S8,207.64,9.51,185.23s44.07-70.67,50.14-79.18C62.63,101.87,72.23,98.4,81.21,96Z"/><path class="cls-6" d="M88.87,215.92V204.33s-22-2.86-35.1-8.55L48,215.92Z"/><path class="cls-6" d="M142.07,96l.48,0c6,21.68,10.37,44.61,14,66,9.12,6.78,20.55,16.45,22.42,23.72,1,4-3.23,7.34-9.48,10l5.72,20.14h12.94s27.15-8.28,25.6-30.69-44.08-70.67-50.14-79.18C160.64,101.87,151,98.4,142.07,96Z"/><path class="cls-6" d="M134.41,215.92V204.33s22-2.86,35.1-8.55l5.72,20.14Z"/><rect class="cls-4" x="62.96" y="145.41" width="107.55" height="70.51"/><path class="cls-4" d="M138.22,94.42c-1.2,7.35-5.93,21.68-24.78,21.68S87.63,101.87,85.28,94.5c1.63-.54,3.29-1,5-1.47a84.25,84.25,0,0,1,43.68.11C135.35,93.52,136.79,94,138.22,94.42Z"/><path class="cls-7" d="M133.92,94.14c-5.1,5.49-13.84,13-23.45,13.29-11.19.28-17.63-8.68-20.23-13.4A84.25,84.25,0,0,1,133.92,94.14Z"/><path class="cls-4" d="M138.8,68c0,19-12.18,34.37-27.21,34.37S84.38,87,84.38,68s12.19-34.37,27.21-34.37S138.8,49,138.8,68Z"/><path class="cls-8" d="M141.8,66.9c-.34,2.59-4.74,2.78-4.11,5.31-.72-2.11-2-5.12-3.68-6.63a13.75,13.75,0,0,0-10.54-13c-4.28-.92-8.71.29-13.08.07A20.09,20.09,0,0,1,96.8,46.3C90.74,53.78,86.14,63.18,86,72.81a8.74,8.74,0,0,0-5-5.21s-6.68-22.16,2.22-26.67c0,0-3.74-11,11-13s40.37,4.77,44.62-4.9c0,0,5.93,15.73,0,19.47C138.8,42.47,145.06,42.33,141.8,66.9Z"/><path class="cls-9" d="M94.09,67s11-4,14-1"/><path class="cls-9" d="M129.09,67s-11-4-14-1"/><circle class="cls-8" cx="102.09" cy="71" r="1.5"/><circle class="cls-8" cx="121.59" cy="70.5" r="1.5"/><path class="cls-9" d="M103.09,89s7,8,19,0"/></g><rect class="cls-10" x="99.25" y="175.5" width="33" height="23" rx="4.94"/><g class="cls-11"><path class="cls-12" d="M161.74,70.9H51.24A43.48,43.48,0,0,1,8,32.17L-7.91-133.7H102.53l2.25,96.18Z"/><path class="cls-13" d="M161.74,71.45l-42.59.4-42.58.24-21.29,0h-4l-1.37-.06L47.19,72c-.91-.09-1.81-.24-2.71-.36a44.88,44.88,0,0,1-5.37-1.11c-.87-.24-1.73-.56-2.6-.84l-1.3-.44c-.43-.15-.84-.36-1.26-.53l-2.51-1.11c-.81-.41-1.6-.87-2.41-1.31l-1.19-.66-1.14-.76-2.27-1.54L22.3,61.58c-.35-.3-.71-.57-1.05-.88l-1-1c-.65-.64-1.32-1.26-1.95-1.93l-1.77-2.09a19.57,19.57,0,0,1-1.66-2.18c-.52-.75-1.09-1.47-1.56-2.26a46.61,46.61,0,0,1-2.6-4.82A44.58,44.58,0,0,1,7.31,36.07c-.67-3.65-.89-7.15-1.25-10.69l-1-10.59L3-6.41l-4-42.4q-4-42.39-7.74-84.81a.79.79,0,0,1,.71-.85.79.79,0,0,1,.84.7Q-2.81-91.41,1.42-49L5.58-6.67,7.63,14.52l1,10.6c.35,3.52.6,7.12,1.22,10.45a42.44,42.44,0,0,0,3.23,9.77,43.06,43.06,0,0,0,2.46,4.53c.44.74,1,1.42,1.46,2.13a22.14,22.14,0,0,0,1.56,2l1.68,2c.59.63,1.22,1.21,1.83,1.82l.92.9c.32.29.66.55,1,.83l2,1.64,2.13,1.46,1.07.72,1.13.63c.75.41,1.5.85,2.26,1.25l2.36,1c.39.17.78.37,1.18.51l1.23.41c.81.27,1.62.58,2.45.81a43.59,43.59,0,0,0,5,1.07c.85.12,1.7.26,2.56.35l2.58.13,1.29.06h4l21.29,0,42.58.24,42.59.41a.55.55,0,0,1,0,1.09Z"/><line class="cls-14" x1="98.55" y1="74.04" x2="98.55" y2="191.18"/><path class="cls-15" d="M104.78-37.52,222.86,22.4a30.91,30.91,0,0,1,16.86,29.35l-8.9,151.7H212.7L188.26,41.14,96.34-23.41Z"/><path class="cls-13" d="M51.31-31.69h57.4L200.55,23.8a25.18,25.18,0,0,1,10,31.68L140.08,215.69l-20.38-2.4L157.58,58.7c-31.79-1.35-90.84-6.15-106.27-23.35C25.2,6.25,51.31-31.69,51.31-31.69Z"/></g></svg>