<svg id="Layer_1" data-name="Layer 1" xmlns="http://www.w3.org/2000/svg" xmlns:xlink="http://www.w3.org/1999/xlink" viewBox="0 0 214.86 216"><defs><style>.cls-1,.cls-15{fill:none;}.cls-2{clip-path:url(#clip-path);}.cls-3{fill:#d5f7d5;}.cls-4{fill:#c4c9e7;}.cls-10,.cls-15,.cls-4,.cls-6,.cls-7,.cls-9{stroke:#040b3a;stroke-miterlimit:10;}.cls-5{fill:#393f5c;}.cls-10,.cls-11,.cls-6{fill:#f4d9cb;}.cls-6{stroke-width:0.5px;}.cls-7{fill:#56c158;}.cls-8{fill:#040b3a;}.cls-9{fill:#71cc77;}.cls-12{fill:#fff;}.cls-13{fill:#81b7fb;}.cls-14{fill:#9ac9fb;}.cls-15{stroke-linecap:round;}</style><clipPath id="clip-path"><rect class="cls-1" x="-491.14" y="1" width="706" height="215" rx="11.74"/></clipPath></defs><title>Home</title><g class="cls-2"><path class="cls-3" d="M58.86-1s-92,95-7,207,195-7,195-7l22-207-51-35Z"/></g><g class="cls-2"><path class="cls-4" d="M171,342.34H60.51A43.47,43.47,0,0,1,17.3,303.6L1.36,137.74H111.8l2.26,96.17Z"/><path class="cls-5" d="M171,342.88l-42.58.4-42.58.24-21.29.05h-4l-1.37-.05-2.73-.13c-.91-.09-1.81-.24-2.72-.35a49.5,49.5,0,0,1-5.36-1.11c-.88-.25-1.74-.57-2.6-.85l-1.3-.44c-.44-.14-.84-.35-1.26-.53L40.72,339c-.82-.42-1.61-.88-2.41-1.32l-1.2-.66L36,336.28l-2.27-1.54L31.58,333c-.35-.29-.72-.57-1.06-.87l-1-1c-.64-.65-1.32-1.27-1.94-1.94l-1.78-2.09A20.87,20.87,0,0,1,24.16,325c-.51-.75-1.08-1.47-1.55-2.25a46.78,46.78,0,0,1-6-15.22c-.67-3.65-.9-7.14-1.25-10.68l-1-10.6-2-21.2-4-42.39q-4-42.4-7.73-84.82a.77.77,0,0,1,1.54-.15Q6.48,180,10.69,222.39l4.17,42.38L16.91,286l1,10.59c.36,3.52.61,7.12,1.23,10.45a42,42,0,0,0,3.23,9.77,43.12,43.12,0,0,0,2.45,4.54c.44.74,1,1.41,1.47,2.12a19.42,19.42,0,0,0,1.56,2.05l1.68,2c.58.63,1.22,1.21,1.83,1.82l.92.91c.31.29.66.55,1,.82l2,1.64,2.13,1.46,1.07.72,1.13.63c.75.42,1.49.86,2.25,1.25l2.36,1.05c.4.17.78.37,1.19.51l1.22.42c.82.26,1.62.57,2.45.81a45.78,45.78,0,0,0,5.05,1.07c.86.11,1.71.26,2.56.35l2.58.12,1.3.07h4l21.29,0,42.58.24,42.58.4a.55.55,0,0,1,0,1.09Z"/><path class="cls-6" d="M219.53,217.27a5.13,5.13,0,0,1-.71,10.21l-70.08.51a9.29,9.29,0,0,1-8.65-5.79l-.55-1.35L114.93,160.1a17.44,17.44,0,0,1-.6-1.81,14.71,14.71,0,0,1,28.47-7.44l16.57,63.43,10.49.72"/><path class="cls-6" d="M211.21,216.06l23.93-.5c5.92,0,10.72,5.35,10.72,11.94h-35Z"/><path class="cls-7" d="M115.36,176.85l-6.29-34.15a16.55,16.55,0,0,1,14.1-19.27h0a16.86,16.86,0,0,1,18.26,10.73l12.25,33.33"/><path class="cls-8" d="M134.89,26.72s-32.81-11.16-50,19.91a30.51,30.51,0,0,1-3.43,5.12C77.91,55.89,70.61,63.5,62.56,66,30.63,75.77,10.42,136.15,74,141.52c79.54,6.73,102.13-9,90.75-40.67-8.11-22.61-.87-38.67-.87-38.67Z"/><path class="cls-9" d="M108.7,107.75l17,7.56a27.68,27.68,0,0,1,16.46,25.62c-.26,22.29-5.32,77.64-24.15,98.82H60.59c-8.89-39.22-3.77-99.48-3.77-99.48A28.38,28.38,0,0,1,81.8,111Z"/><path class="cls-6" d="M119,118.11a11.92,11.92,0,0,0,.32-1.6L124,80l-21.83-2.54-4.64,36.24a10.55,10.55,0,0,0-.06,2.24"/><path class="cls-10" d="M125.15,107.25l.87.11a26.58,26.58,0,0,0,29.79-22.91L160,52.66l-53.57-7-4.14,31.8A26.57,26.57,0,0,0,125.15,107.25Z"/><path class="cls-8" d="M100.5,65.25l4.57,9.48s6.08,5.27,7.81-8c1.46-11.22,9.61-9.27,9.61-9.27S150.4,78.6,166.8,64.1c12.94-11.43-8-32.37-31.91-37.38L103.5,40.43Z"/><path class="cls-11" d="M108.23,75.11a8.86,8.86,0,1,1-7.73-9.86A8.87,8.87,0,0,1,108.23,75.11Z"/><path class="cls-12" d="M101,78.19a1.6,1.6,0,1,1-1.39-1.77A1.59,1.59,0,0,1,101,78.19Z"/><path class="cls-6" d="M174.78,216.84a5.18,5.18,0,0,1-.73,10.31l-70.1.46a9.38,9.38,0,0,1-8.74-5.89l-.54-1.36L70,158.44a15.47,15.47,0,0,1-.59-1.82,14.85,14.85,0,0,1,28.77-7.36l16.53,64.57L167,215.06"/><path class="cls-6" d="M166.45,215.56l23.93-.5c5.92,0,10.71,5.44,10.71,12.15h-35Z"/><path class="cls-7" d="M70.6,175.62l-6.29-34.79a16.81,16.81,0,0,1,14.1-19.62h0a16.8,16.8,0,0,1,18.25,10.92l12.26,34"/><path class="cls-13" d="M204.36,139.22l-32.76,88H278.05l30.3-82.91a3.8,3.8,0,0,0-3.57-5.11Z"/><path class="cls-14" d="M204.36,139.22h-5.1a6.55,6.55,0,0,0-6.13,4.28l-30.88,83.74h9.35Z"/><path class="cls-11" d="M97.86,115s8,11,21,3"/><path class="cls-15" d="M128.36,94.5s5,5,15,1"/><circle class="cls-15" cx="126.86" cy="78" r="1"/><circle class="cls-15" cx="148.86" cy="80" r="1"/><path class="cls-15" d="M121.86,75s3-5,8-3"/><path class="cls-15" d="M144.86,74s3-1,7,2"/></g></svg>