<svg id="Layer_1" data-name="Layer 1" xmlns="http://www.w3.org/2000/svg" xmlns:xlink="http://www.w3.org/1999/xlink" viewBox="0 0 206.9 216"><defs><style>.cls-1{fill:none;}.cls-2{clip-path:url(#clip-path);}.cls-3{fill:#fef0d0;}.cls-4{clip-path:url(#clip-path-2);}.cls-5{fill:#cafcf7;}.cls-6{fill:#040b3a;}.cls-7{fill:#34e2d9;}.cls-7,.cls-8{stroke:#040b3a;stroke-miterlimit:10;}.cls-8{fill:#f4d9cb;}.cls-9{fill:#4d4cad;}.cls-10{fill:#081551;}.cls-11{fill:#eac6b7;}.cls-12{fill:#0c1e60;}.cls-13{fill:#eac3b2;}.cls-14{fill:#fdfeff;}</style><clipPath id="clip-path"><rect class="cls-1" x="-499.1" y="-263.29" width="706" height="215" rx="11.74"/></clipPath><clipPath id="clip-path-2"><rect class="cls-1" x="-499.1" y="0.5" width="706" height="215.5" rx="11.74"/></clipPath></defs><title>Home</title><g class="cls-2"><path class="cls-3" d="M36.69-264.7s-77.86,73.18-2.83,218.3,192-14.89,192-14.89l3-186-30-28Z"/></g><g class="cls-4"><path class="cls-5" d="M36.69-.92s-77.86,73.35-2.83,218.81S225.9,203,225.9,203l3-186.43-30-28.07Z"/></g><g class="cls-4"><path class="cls-6" d="M202.37,120a21.45,21.45,0,0,0-4.59.5,8.09,8.09,0,0,1-8-2.65,16.36,16.36,0,0,0-12-5.87,7,7,0,0,1-6.19-3.91,20.61,20.61,0,0,0-9.89-9.72,11.85,11.85,0,0,1-6.86-11,24.06,24.06,0,0,0-7.08-17.29,14.64,14.64,0,0,1-4.12-13.9,23.89,23.89,0,0,0-20.48-29.41,23.92,23.92,0,0,0-11.32,46.06,23.86,23.86,0,0,0,21.68,38,20.82,20.82,0,0,0-1,6.2,20.59,20.59,0,0,0,22.79,20.48,13.93,13.93,0,0,1,10.91,3.3,16.52,16.52,0,0,0,18.59,2.23,12.91,12.91,0,0,1,10.42-1c9.81,3.57,23-1.27,23-10.44C218.3,125.25,211.17,120,202.37,120Z"/><path class="cls-7" d="M154.26,123.71c-5.28-10.81-11.92-18.41-18.43-19.62-18.78-10.51-66.6-1.65-66.6-1.65-.35.19-.71.4-1.06.61-5.92,2.58-11.06,10.82-14.56,21.79-4.79,15-20.42,73.06-11.65,75.86C47,202.33,58.5,183.4,68.2,164.26l.31,1.57h0l7.2,37.11a13.72,13.72,0,0,0,4.74,9.58c3.87,3.2,9.68,4.26,16.12,4.28l2.17,0,17.27-.53c11.3-.34,20.36-2.93,21.33-14.22L142,158.57c13.58,18.76,30.94,39.27,36.25,36.66C186.51,191.17,161.2,137.89,154.26,123.71Z"/><line class="cls-8" x1="102.9" y1="125.79" x2="100.9" y2="183.93"/><circle class="cls-6" cx="106.4" cy="132.31" r="1"/><circle class="cls-6" cx="106.4" cy="144.33" r="1"/><circle class="cls-6" cx="106.4" cy="155.36" r="1"/><circle class="cls-6" cx="106.4" cy="166.38" r="1"/><circle class="cls-6" cx="106.4" cy="174.4" r="1"/><path class="cls-9" d="M214,244.48c-16.39-14-89.58-43.28-89.58-43.28-5.57-2.3-36.27-2.5-41.34-.23,0,0-75.7,30.16-90.94,43.58-3.66,3.23-6.56,10.49-4.6,15.23,4.55,11,69.56,8.4,101.16-.85a49.06,49.06,0,0,1,28.45.17c32.77,10.24,101.1,14.91,106.05,3.82C225.33,258.2,224.69,253.63,214,244.48Z"/><path class="cls-10" d="M99.22,84.6a1.12,1.12,0,0,1,.92,1.08,10.2,10.2,0,0,0,10.17,9.84,4.66,4.66,0,0,1,4.07,2.57,8.91,8.91,0,0,0,11.84,3.63A9,9,0,0,0,129,99.44a7.36,7.36,0,0,1,5.89-2.91,9.27,9.27,0,0,0,6.21-2,9.39,9.39,0,0,0,3.19-7.58,8.85,8.85,0,0,0-1.79-5.63,5.8,5.8,0,0,1-1.37-4.41,7.32,7.32,0,0,0-1.6-5.66,7.24,7.24,0,0,0-3.12-2.2,5.08,5.08,0,0,1-3-6,28.93,28.93,0,0,0,.65-3.21c1.39-9.68-8-19.06-8-19.06h0a6.15,6.15,0,0,1-7.4-1.63l-3.61-4.37A1,1,0,0,0,113.44,36l2.24,3a9.34,9.34,0,0,1,.11,10.9A16.45,16.45,0,0,0,113,56.68a28.38,28.38,0,0,0-.15,7c.35,3.23-1.67,6.8-4.78,7.71a18.55,18.55,0,0,1-11.68-.86A17.34,17.34,0,0,1,89,65.25l-4.71-5.7a1,1,0,0,0-1.44-.14,1,1,0,0,0-.14,1.45l2.38,2.89a5.73,5.73,0,0,1,1.26,3.52C86.57,73.49,90.84,83,99.22,84.6Z"/><ellipse class="cls-6" cx="102.34" cy="65.99" rx="31.51" ry="30.46" transform="translate(-18.27 82.78) rotate(-40.74)"/><path class="cls-8" d="M164.26,181.88c-10.25,1-74.44,10.34-73.92,16s65.55,5.47,75.8,4.53,14.62-6.11,14.1-11.78S174.5,180.94,164.26,181.88Z"/><path class="cls-8" d="M116.34,75.66H93.8a18,18,0,0,1,1,10L92.69,97.26c-1.32,10.74,3,16.23,9.17,17.88a10,10,0,0,0,9.06-2.54c3-2.71,3-8,2.16-12.48l-.87-3.2C111.05,92.63,116.34,75.66,116.34,75.66Z"/><path class="cls-11" d="M115.4,75.66h-21a19.34,19.34,0,0,1,1,10l-.74,4.26a42.19,42.19,0,0,0,7.14,7.27,6,6,0,0,0,8-.24c.52-.45,1.08-1,1.66-1.53C111.35,89.61,115.4,75.66,115.4,75.66Z"/><path class="cls-8" d="M90.41,67.5c.22,3.53.42,8-2.68,8.16s-6.59-6-6.81-9.57,1.71-4.52,4.8-4.72S90.19,64,90.41,67.5Z"/><path class="cls-8" d="M120.43,67.12c-.22,3.53-.42,8,2.67,8.17s6.6-6.05,6.82-9.58-1.71-4.52-4.81-4.71S120.65,63.59,120.43,67.12Z"/><path class="cls-8" d="M126.48,60.38c0,15.59-10.23,26.26-16.2,31.15a6.76,6.76,0,0,1-8.56.24c-6.07-4.52-16.36-14.61-16.36-31.16,0-18.28,9.92-25.76,20.73-25.76S126.48,42.09,126.48,60.38Z"/><path class="cls-12" d="M129.29,35.61l.07-.09c1.79-2.42-3.2-10.5-12-8.22l-.1,0a15.12,15.12,0,0,1-9.39-.66,19.35,19.35,0,0,0-9-1.11,12.16,12.16,0,0,0-9.73,6.32,29.5,29.5,0,0,0-2.53,2.05c-7.23,6.57-6,19.8-6,19.8h0a5.82,5.82,0,0,1,4.66,5.71v5.95a1,1,0,0,0,1,1,1,1,0,0,0,1-1l.17-3.72a9.31,9.31,0,0,1,6.84-8.47A16.46,16.46,0,0,0,101,49.75a27.83,27.83,0,0,0,4.56-5.29c1.78-2.71,5.61-4.16,8.58-2.88a18.58,18.58,0,0,1,8.46,8.13,17.45,17.45,0,0,1,2.3,8.73v7.4a1,1,0,1,0,2.05,0V62.1a5.67,5.67,0,0,1,1.25-3.49c3.83-4.89,6.57-14.94,1.16-21.58A1.13,1.13,0,0,1,129.29,35.61Z"/><path class="cls-8" d="M134.67,186s-1.69-5.76-4.31-8.76c-1.83-2.11-9.4-.28-13.8,1a20.77,20.77,0,0,1-6.79.8c-16.8-.85-49.1-.4-56.6,1.07-10.1,2-15,10-13.83,15.52,1.87,8.94,7.29,11,17.39,9,7.21-1.42,37-10.88,53-18.22a24.64,24.64,0,0,1,13.53-2Z"/><path class="cls-8" d="M56.56,176.31h90.82a7.36,7.36,0,0,1,7.36,7.36V247a3.37,3.37,0,0,1-3.37,3.37H52.08A3.37,3.37,0,0,1,48.71,247V184.16A7.85,7.85,0,0,1,56.56,176.31Z"/><path class="cls-13" d="M147,176.31H56.42A7.72,7.72,0,0,0,48.71,184v2.3a7.73,7.73,0,0,1,7.71-7.74H147a7.73,7.73,0,0,1,7.71,7.74V184A7.72,7.72,0,0,0,147,176.31Z"/><ellipse class="cls-14" cx="100.9" cy="215" rx="17.5" ry="17.54"/></g></svg>