<?xml version="1.0" encoding="utf-8"?>
<!-- Generator: Adobe Illustrator 23.0.2, SVG Export Plug-In . SVG Version: 6.00 Build 0)  -->
<svg version="1.1" id="Layer_1" xmlns="http://www.w3.org/2000/svg" xmlns:xlink="http://www.w3.org/1999/xlink" x="0px" y="0px"
	 viewBox="0 0 494.5 521.9" style="enable-background:new 0 0 494.5 521.9;" xml:space="preserve">
<style type="text/css">
	.st0{fill:#FEF0D0;}
	.st1{opacity:0.1;}
	.st2{opacity:0.67;clip-path:url(#SVGID_2_);}
	.st3{fill:#FCB415;}
	.st4{fill:#F4F5F5;}
	.st5{fill:#D1D3D4;}
	.st6{fill:#FFFFFF;}
	.st7{fill:#E0E0E0;}
	.st8{fill:#9FA0A3;}
	.st9{opacity:0.54;}
	.st10{fill:#262626;}
	.st11{fill:#D3D3D3;}
	.st12{fill:#C7C7C7;}
	.st13{fill:#ADADAD;}
	.st14{fill:#191919;}
	.st15{opacity:0.7;}
	.st16{fill:#737373;}
	.st17{fill:#C0C0C0;}
	.st18{fill:#B2B2B2;}
	.st19{fill:#A2A2A2;}
	.st20{fill:#CACACA;}
	.st21{fill:#1E1E1E;}
	.st22{fill:#989898;}
	.st23{fill:#707070;}
	.st24{fill:#616161;}
	.st25{fill:#636363;}
	.st26{fill:#A6A6A6;}
	.st27{fill:#969696;}
	.st28{fill:#888888;}
	.st29{fill:#F3F3F3;}
	.st30{fill:#343434;}
	.st31{fill:#F7F9F9;}
	.st32{fill:#D6FCD7;}
	.st33{fill:#71CC77;}
	.st34{clip-path:url(#SVGID_4_);}
	.st35{fill:#EDB48D;}
	.st36{fill:#580B2F;}
	.st37{fill:#F2BE9B;}
	.st38{fill:url(#SVGID_5_);}
	.st39{fill:url(#SVGID_6_);}
	.st40{fill:url(#SVGID_7_);}
	.st41{fill:url(#SVGID_8_);}
	.st42{fill:url(#SVGID_9_);}
	.st43{fill:#F8F9CD;}
	.st44{fill:#5E1439;}
	.st45{clip-path:url(#SVGID_4_);fill:none;}
	.st46{clip-path:url(#SVGID_11_);}
	.st47{fill:url(#SVGID_12_);}
	.st48{fill:url(#SVGID_13_);}
	.st49{fill:#F9DAC5;}
	.st50{fill:#040B3A;}
	.st51{fill:url(#SVGID_14_);}
	.st52{fill:url(#SVGID_15_);}
	.st53{fill:#F7C9AA;}
	.st54{fill:url(#SVGID_16_);}
	.st55{fill:url(#SVGID_17_);}
	.st56{fill:url(#SVGID_18_);}
	.st57{fill:url(#SVGID_19_);}
	.st58{fill:url(#SVGID_20_);}
	.st59{fill:url(#SVGID_21_);}
	.st60{fill:none;}
	.st61{fill:#939598;}
	.st62{fill:#949494;}
	.st63{fill:#858585;}
	.st64{fill:#5E5E5E;}
	.st65{fill:#767676;}
</style>
<title>2</title>
<path class="st0" d="M105.8,58.6c0,0-5.2-35.7,73.4-49.6S338,1.2,359.9,11.6S482,85.7,427.3,186.1s126.4,134.1,10.4,283.3
	s-308.8-66.8-308.8-66.8L105.8,58.6z"/>
<g class="st1">
	<defs>
		<path id="SVGID_1_" class="st1" d="M392.4,485.4H124.9c-4.4,0-8-3.6-8-8V27.2c0-4.4,3.6-8,8-8h267.5c4.4,0,8,3.6,8,8v450.2
			C400.4,481.8,396.8,485.4,392.4,485.4z"/>
	</defs>
	<clipPath id="SVGID_2_">
		<use xlink:href="#SVGID_1_"  style="overflow:visible;"/>
	</clipPath>
	<path class="st2" d="M104.3,57.7c0,0-5.2-35.7,73.4-49.6s158.8-7.9,180.6,2.5c21.8,10.4,122.1,74.1,67.4,174.5
		s126.4,134.1,10.4,283.3s-308.8-66.8-308.8-66.8L104.3,57.7z"/>
</g>
<path class="st3" d="M19.3,456.3C8.7,456.3,0,447.7,0,437s8.7-19.3,19.3-19.3c10.7,0,19.3,8.7,19.3,19.3S30,456.3,19.3,456.3z
	 M19.3,418.9c-10,0-18.1,8.1-18.1,18.1s8.1,18.1,18.1,18.1c10,0,18.1-8.1,18.1-18.1S29.3,418.9,19.3,418.9z"/>
<ellipse class="st0" cx="84.9" cy="412" rx="31.8" ry="26.8"/>
<path class="st3" d="M286.5,485.1c-19.6,0-58.8-14.3-117.1-42.7l0.5-1.1c94.9,46.2,122.2,46.6,128.3,38.7c6.4-8.2-8.3-27.4-11-30.7
	c-0.5,0.4-1,0.6-1.4,0.2c-0.7-0.6-1.6-1.4,22.1-35c24.7-35,67.9-94,128.5-175.3c51.5-69,67.9-119.5,48.8-149.9
	c-7.3-11.7-20-20.5-37.6-26c-14.2-4.5-31.6-6.9-51.7-7.3c-34.3-0.6-65.1,5.2-65.4,5.3l-0.2-1.2c0.3-0.1,31.2-5.9,65.7-5.3
	c20.3,0.4,37.8,2.8,52.1,7.3c17.9,5.7,30.8,14.6,38.3,26.6c19.4,30.9,2.9,81.9-48.8,151.3c-124.5,167-146.6,201-150,207.6l0.4,0.5
	c0.8,0.9,19,23.1,11.4,32.8C296.9,483.7,292.7,485.1,286.5,485.1z"/>
<g>
	<rect x="316.2" y="110.2" class="st4" width="47.8" height="47.8"/>
	<path class="st5" d="M343.6,143.1h-7c-3.1,0-5.5-2.5-5.5-5.5v-7c0-3.1,2.5-5.5,5.5-5.5h7c3.1,0,5.5,2.5,5.5,5.5v7
		C349.1,140.6,346.6,143.1,343.6,143.1z"/>
	<circle class="st4" cx="340.1" cy="134.1" r="5"/>
	<path class="st4" d="M118.9,107c0,0-114.1-28.8-66.6,126.8c0,0-60.3,166.4,47,69.1s90.6-116.8,102.8-68.4"/>
	<g>
		<path class="st6" d="M381.4,473.9H113.8c-4.4,0-8-3.6-8-8V15.6c0-4.4,3.6-8,8-8h267.5c4.4,0,8,3.6,8,8v450.2
			C389.4,470.3,385.8,473.9,381.4,473.9z"/>
		<path class="st7" d="M384.4,474.2H110.8c-2.9,0-5.3-2.4-5.3-5.3V12.6c0-2.9,2.4-5.3,5.3-5.3h273.5c2.9,0,5.3,2.4,5.3,5.3v456.2
			C389.7,471.8,387.3,474.2,384.4,474.2z M110.8,8c-2.6,0-4.7,2.1-4.7,4.7v456.2c0,2.6,2.1,4.7,4.7,4.7h273.5c2.6,0,4.7-2.1,4.7-4.7
			V12.6c0-2.6-2.1-4.7-4.7-4.7H110.8z"/>
	</g>
	<g>
		<path class="st8" d="M201.2,58.6V41.9h10.1v1.9h-8.1v5.7h7.4v1.9h-7.4v7.2H201.2z"/>
		<path class="st8" d="M212.5,52.6c0-3.8,2.2-6.2,5.6-6.2c3.3,0,5.6,2.4,5.6,6.2c0,3.8-2.2,6.2-5.6,6.2
			C214.8,58.8,212.5,56.4,212.5,52.6z M221.6,52.6c0-2.8-1.4-4.5-3.5-4.5c-2.1,0-3.5,1.6-3.5,4.5c0,2.8,1.4,4.5,3.5,4.5
			C220.3,57.1,221.6,55.4,221.6,52.6z"/>
		<path class="st8" d="M226,41.9h2v16.7h-2V41.9z"/>
		<path class="st8" d="M231.1,41.9h2v16.7h-2V41.9z"/>
		<path class="st8" d="M235.5,52.6c0-3.8,2.2-6.2,5.6-6.2c3.3,0,5.6,2.4,5.6,6.2c0,3.8-2.2,6.2-5.6,6.2
			C237.7,58.8,235.5,56.4,235.5,52.6z M244.6,52.6c0-2.8-1.4-4.5-3.5-4.5c-2.1,0-3.5,1.6-3.5,4.5c0,2.8,1.4,4.5,3.5,4.5
			C243.2,57.1,244.6,55.4,244.6,52.6z"/>
		<path class="st8" d="M260.8,58.6h-2l-2.7-9.3h0l-2.7,9.3h-2l-3.4-12h2l2.4,9.8h0l2.7-9.8h1.9l2.7,9.8h0l2.4-9.8h2L260.8,58.6z"/>
		<path class="st8" d="M273.5,52.6c0,2.5,1.7,4.3,4.5,4.3s4.5-1.8,4.5-4.3V41.9h2.1v10.8c0,3.6-2.5,6.1-6.6,6.1
			c-4.1,0-6.6-2.6-6.6-6.1V41.9h2.1V52.6z"/>
		<path class="st8" d="M298.9,52.6c0,3.8-2.1,6.2-5.1,6.2c-1.7,0-3.1-0.8-3.8-2.2h0v6h-2v-16h1.9v2h0c0.7-1.4,2.1-2.2,3.9-2.2
			C296.8,46.4,298.9,48.8,298.9,52.6z M296.8,52.6c0-2.7-1.3-4.5-3.5-4.5c-2.1,0-3.4,1.8-3.4,4.5c0,2.7,1.4,4.5,3.4,4.5
			C295.5,57.1,296.8,55.3,296.8,52.6z"/>
		<path class="st8" d="M305.3,46.4c2.6,0,4.4,1.6,4.5,3.7h-1.9c-0.2-1.3-1.1-2-2.6-2c-1.5,0-2.4,0.7-2.4,1.8c0,0.8,0.6,1.4,2,1.7
			l1.9,0.5c2.4,0.6,3.3,1.5,3.3,3.3c0,2.1-2,3.6-4.7,3.6c-2.8,0-4.6-1.4-4.8-3.7h2c0.2,1.4,1.2,2,2.8,2c1.6,0,2.6-0.7,2.6-1.8
			c0-0.9-0.5-1.4-1.9-1.7l-1.9-0.5c-2.3-0.5-3.4-1.6-3.4-3.3C300.9,47.8,302.7,46.4,305.3,46.4z"/>
	</g>
	<rect x="132.9" y="100.1" class="st4" width="47.8" height="47.8"/>
	<rect x="194.3" y="100.1" class="st4" width="47.8" height="47.8"/>
	<rect x="256.1" y="100.1" class="st4" width="47.8" height="47.8"/>
	<rect x="166.6" y="184.6" class="st5" width="197.5" height="5.6"/>
	<g>
		<rect x="166.6" y="196.8" class="st6" width="151.4" height="5.6"/>
		<path class="st5" d="M318.3,202.7h-152v-6.2h152V202.7z M166.9,202.1h150.8v-5H166.9V202.1z"/>
	</g>
	<rect x="166.6" y="221.7" class="st5" width="173.9" height="5.6"/>
	<g>
		<rect x="166.6" y="233.8" class="st6" width="123.1" height="5.6"/>
		<path class="st5" d="M290,239.8H166.3v-6.2H290V239.8z M166.9,239.1h122.4v-5H166.9V239.1z"/>
	</g>
	<g class="st9">
		<path class="st10" d="M141.2,189.3c0,0-4,1.1-3,4.1c0.9,3,1.8,3.5,1.8,3.5s-1.1,0.5-1.1,1c0,0.5,1.1,0.8,1.1,0.8s-3.9-0.5-4.6,1.3
			c-0.8,1.7,0.4,3.6,0.4,3.6h21.4c0,0,1.5-1.8,0-5c-1.6-3.3-4.5-3.3-4.5-3.3s0.8-0.6,0.4-1.4s-0.8-0.3-0.8-0.3s1.7-3.6-1.2-3.8
			L141.2,189.3z"/>
		<path class="st11" d="M144.6,201.7l-0.2,1.8h3.8l-0.2-1.9C147,201.9,145.8,201.8,144.6,201.7z"/>
		<path class="st12" d="M145.1,197.1l-0.4,4.5c1.2,0.2,2.4,0.2,3.5-0.1l-0.4-4.4L145.1,197.1z"/>
		<g>
			<path class="st13" d="M143,193.4c0,0.8-0.5,1.8-1,1.8s-1.3-1-1.3-1.8s0.5-1.5,1-1.5S143,192.6,143,193.4z"/>
			<path class="st13" d="M149.7,193.4c0,0.8,0.5,1.8,1,1.8s1.3-1,1.3-1.8s-0.5-1.5-1-1.5C150.5,192,149.7,192.6,149.7,193.4z"/>
		</g>
		<g>
			<path class="st11" d="M148.5,198.6L148.5,198.6c-1.3,0.7-2.8,0.7-4.1,0l-0.1,0c-1.4-0.7-2.2-2.1-2.3-3.6l-0.3-4.3
				c-0.2-2.5,1.8-4.7,4.4-4.7h0.7c2.6,0,4.6,2.2,4.4,4.7l-0.3,4.3C150.7,196.5,149.8,197.9,148.5,198.6z"/>
			<path class="st10" d="M146.4,199.2c-0.7,0-1.4-0.2-2.1-0.5l-0.1,0c-1.4-0.7-2.3-2.1-2.4-3.7l-0.3-4.3c-0.1-1.3,0.3-2.4,1.2-3.4
				c0.9-0.9,2-1.4,3.3-1.4h0.7c1.3,0,2.4,0.5,3.3,1.4c0.9,0.9,1.3,2.1,1.2,3.4l-0.3,4.3c-0.1,1.5-1,2.9-2.3,3.6l0,0
				C147.9,199,147.1,199.2,146.4,199.2z M146,186.1c-1.2,0-2.3,0.5-3.2,1.4c-0.8,0.9-1.2,2-1.2,3.3l0.3,4.3c0.1,1.5,1,2.9,2.3,3.5
				l0.1,0c1.3,0.7,2.8,0.7,4.1,0l0,0c1.3-0.7,2.2-2,2.3-3.5l0.3-4.3c0.1-1.2-0.3-2.4-1.2-3.3c-0.8-0.9-2-1.4-3.2-1.4H146z"/>
		</g>
		<g>
			<g>
				<path class="st14" d="M144.2,192.5c0,0.4-0.2,0.7-0.4,0.7c-0.2,0-0.4-0.3-0.4-0.7c0-0.4,0.2-0.7,0.4-0.7
					C144,191.8,144.2,192.1,144.2,192.5z"/>
				<g>
					<path class="st14" d="M144,191.9c0.1-0.4-0.8-0.2-0.9-0.3c-0.3-0.1-0.4,0.3-0.1,0.5c0.2,0.1,0.4,0,0.7-0.1
						c0.1,0,0.1-0.1,0.2-0.1C143.8,192,143.9,192,144,191.9C144,192,144,192,144,191.9L144,191.9z"/>
				</g>
			</g>
			<g>
				<path class="st14" d="M148.5,192.5c0,0.4,0.2,0.7,0.4,0.7c0.2,0,0.4-0.3,0.4-0.7c0-0.4-0.2-0.7-0.4-0.7
					C148.7,191.8,148.5,192.1,148.5,192.5z"/>
				<g>
					<path class="st14" d="M148.7,191.9c0.1,0,0.1,0,0.2,0c0.1,0,0.2,0.1,0.3,0.1c0.2,0.1,0.4,0.1,0.5,0c0.3-0.1,0.2-0.6-0.1-0.5
						c-0.2,0.1-0.5-0.1-0.8,0C148.8,191.7,148.6,191.9,148.7,191.9L148.7,191.9z"/>
				</g>
			</g>
		</g>
		<g>
			<path class="st13" d="M146.4,192.1c-0.2,0.5-0.2,1-0.2,1.5c0,0.2,0,0.4,0,0.7c0,0.2,0.2,0.4,0.4,0.6"/>
			<path class="st13" d="M146.3,192.1c-0.4,0.6-0.5,1.3-0.4,2c0,0.4,0.2,1,0.7,0.9c0,0,0.1,0,0.1-0.1c0.1-0.3-0.2-0.8-0.2-1.1
				c0-0.5,0-1.1,0-1.6C146.4,192.1,146.3,192,146.3,192.1L146.3,192.1z"/>
		</g>
		<path class="st13" d="M145.2,196c0,0,0.4-0.3,1.2-0.3c0.8,0,1.1,0.3,1.1,0.3s-0.1,1-1.3,0.9C145.1,196.8,145.2,196,145.2,196z"/>
		<g>
			<path class="st14" d="M145,195.9c0.8,0.6,1.9,0.6,2.7,0c0,0,0-0.1,0-0.1C146.8,196.2,145.8,196.4,145,195.9
				C145,195.9,145,195.9,145,195.9L145,195.9z"/>
		</g>
		<path class="st14" d="M149.3,187.7c0,0-0.3,2.3,1.6,5.8l0,0c0,0,0.8-4.6,0.2-5.8c-0.4-0.7-1.3-0.6-1.3-0.6L149.3,187.7z"/>
		<path class="st14" d="M141.8,192.9c0,0,1.4-0.6,0.8-3c0,0,4.8,0.3,6.7-2.1c0,0,0.6,0.1,0.5-0.6c0,0-0.2-4.6-4.3-4.4
			c-4.2,0.2-4,5.1-4,5.1s-1.7,0.1-1.5,0.8c0.2,0.7,0.7,1,0.7,1L141.8,192.9z"/>
		<path class="st10" d="M142.9,191.2c0.2,0,0.5,0,0.7-0.1c0.3,0,0.6,0,0.9,0c0.3,0,0.3-0.4,0-0.4C144,190.6,143.2,190.7,142.9,191.2
			C142.8,191.1,142.9,191.1,142.9,191.2L142.9,191.2z"/>
		<path class="st10" d="M149.7,190.8c-0.1-0.3-0.7-0.4-1-0.4c-0.3,0-0.8-0.1-0.9,0.3c0,0,0,0.1,0,0.1c0.2,0.2,0.6,0,0.9,0
			C148.9,190.8,149.3,191,149.7,190.8C149.7,190.9,149.7,190.9,149.7,190.8L149.7,190.8z"/>
		<path class="st14" d="M139.6,198.4c0.3,0.3,0.7,0.6,1.2,0.6c0.2,0,0.6,0,0.6-0.3c0-0.4-0.4-0.4-0.7-0.4c-0.5,0-1.2,0-1.6,0.3
			c-0.1,0,0,0.1,0,0.1c0.3,0,0.5-0.1,0.8-0.1c0.3,0,0.6,0,0.8,0c0.1,0,0.4,0.1-0.1,0c-0.1,0-0.2,0-0.3,0
			C140,198.6,139.8,198.5,139.6,198.4C139.6,198.4,139.5,198.4,139.6,198.4L139.6,198.4z"/>
		<path class="st14" d="M139.6,197.1c0.1,0,1.2-0.2,1.2-0.3c0,0.1-0.6-0.1-0.6-0.2c-0.2-0.1-0.3-0.2-0.5-0.4
			c-0.1-0.1-0.2,0.1-0.2,0.2c0.2,0.3,0.6,0.5,0.9,0.5c0.2,0,0.6,0,0.7-0.2c0.1-0.3-0.2-0.3-0.4-0.3
			C140.3,196.7,139.9,196.9,139.6,197.1C139.5,197.1,139.5,197.1,139.6,197.1L139.6,197.1z"/>
		<path class="st14" d="M151.3,189.7c0,0.1-0.1,0.3-0.1,0.4c0,0.1,0,0.2-0.1,0.3c-0.1,0.1-0.1,0-0.1-0.1c0-0.1,0.1-0.1,0.2-0.2
			c0.1-0.1,0.2-0.1,0.3-0.2c0.1,0,0-0.1,0-0.1c-0.2,0-0.5,0.1-0.6,0.3c-0.1,0.2-0.1,0.4,0.1,0.5c0.2,0.1,0.4,0,0.4-0.2
			C151.5,190.2,151.4,189.9,151.3,189.7C151.3,189.6,151.3,189.6,151.3,189.7L151.3,189.7z"/>
		<path class="st14" d="M152.3,193.5c-0.1,0.1-0.1,0.2-0.2,0.2c-0.1,0.1-0.1,0.2-0.1,0.3c0.1,0,0.2,0,0.3,0c-0.1-0.2,0-0.4,0.3-0.4
			c0.1,0,0.1-0.1,0-0.1c-0.2,0-0.3,0-0.5,0.1c-0.2,0.1-0.2,0.3-0.1,0.5c0,0.1,0.2,0.2,0.3,0c0.1-0.1,0.1-0.2,0.1-0.3
			C152.4,193.7,152.4,193.6,152.3,193.5C152.4,193.5,152.3,193.4,152.3,193.5L152.3,193.5z"/>
		<path class="st14" d="M152.7,195c-0.1,0.1-0.4,0.5-0.6,0.3c0,0,0.1,0.1,0.1,0.1c0-0.1,0.9-0.1,1-0.1c0.1,0,0.1-0.1,0-0.2
			c-0.3-0.1-0.6-0.2-0.9-0.1c-0.2,0-0.5,0.1-0.5,0.4c0,0.3,0.3,0.3,0.5,0.2c0.3-0.1,0.4-0.3,0.5-0.6
			C152.9,195.1,152.8,195,152.7,195L152.7,195z"/>
		<path class="st10" d="M140,188.5c0.2,0.9,1.1,1.1,1.9,1.3c1.1,0.2,2.3,0.2,3.4-0.1c0,0,0-0.1,0-0.1c-0.8,0.1-1.6,0.1-2.4,0.1
			C141.9,189.7,140.4,189.6,140,188.5C140,188.5,140,188.5,140,188.5L140,188.5z"/>
	</g>
	<g class="st15">
		<path class="st16" d="M150.7,373.3c0,0,1-0.2,2.2,0.7c2.6,1.9,0.6,16.3,0.6,16.3h-13.1c0,0-1.4-14.4,1.3-17.3
			C144.3,370.1,150.7,373.3,150.7,373.3z"/>
		<path class="st16" d="M153.4,372c0.1-0.1,0.3-0.2,0.3-0.4c0.1-0.2,0.1-0.5,0.1-0.7c0-0.9-1.4-0.6-1.1,0.2c0.1,0.2,0.1,0.4,0.2,0.6
			c0.1,0.1,0.2,0.2,0.3,0.3C153.2,372.1,153.3,372.1,153.4,372L153.4,372z"/>
		<path class="st17" d="M145.3,390.3l-0.1,1.6h4.2l-0.1-1.2c-0.1,0-0.2,0-0.3,0C147.8,390.8,146.4,390.8,145.3,390.3z"/>
		<path class="st18" d="M145.8,384.9l-0.5,5.3c1.1,0.6,2.5,0.6,3.7,0.4c0.1,0,0.2,0,0.3,0l-0.6-5.7L145.8,384.9z"/>
		<g>
			<g>
				<path class="st18" d="M142.8,382.2c0,1-0.8,1.9-1.7,1.9s-1.7-0.8-1.7-1.9s0.4-2,1.4-2S142.8,381.2,142.8,382.2z"/>
				<path class="st18" d="M151.7,382.2c0,1,0.8,1.9,1.7,1.9c1,0,1.7-0.8,1.7-1.9s-0.4-2-1.4-2C152.9,380.2,151.7,381.2,151.7,382.2z
					"/>
			</g>
			<g>
				<path class="st19" d="M153.3,381.4c0.3-0.1,0.6-0.1,0.8,0.1c0.2,0.2,0.2,0.4,0.4,0.6c0.1,0.2,0.3,0.1,0.3-0.1
					c0-0.3-0.3-0.7-0.5-0.8c-0.3-0.2-0.7-0.2-1,0C153.1,381.2,153.2,381.4,153.3,381.4L153.3,381.4z"/>
			</g>
			<g>
				<path class="st19" d="M141.3,381.3c-0.2-0.2-0.5-0.4-0.9-0.4c-0.3,0-0.6,0.2-0.7,0.4c0,0.1,0.1,0.2,0.2,0.1
					c0.4-0.3,0.8-0.3,1.3,0C141.3,381.4,141.3,381.3,141.3,381.3L141.3,381.3z"/>
			</g>
			<g>
				<path class="st19" d="M140.5,381.1c-0.2,0.3-0.2,0.6-0.1,0.9c0.1,0.3,0.3,0.6,0.6,0.6c0.1,0,0.1-0.1,0.1-0.1
					c0-0.2-0.3-0.4-0.3-0.6c-0.1-0.2-0.1-0.5-0.1-0.8C140.7,381.1,140.6,381.1,140.5,381.1L140.5,381.1z"/>
			</g>
			<g>
				<path class="st19" d="M153.7,381.3c0,0.3,0,0.5,0,0.8c0,0.2-0.1,0.4-0.2,0.7c0,0.1,0.1,0.2,0.2,0.1c0.5-0.3,0.3-1.2,0.1-1.7
					C153.8,381.1,153.7,381.2,153.7,381.3L153.7,381.3z"/>
			</g>
		</g>
		<path class="st20" d="M147.3,388.6L147.3,388.6c-3,0-5.4-2.4-5.4-5.4v-5.1c0-3,2.4-5.4,5.4-5.4l0,0c3,0,5.4,2.4,5.4,5.4v5.1
			C152.6,386.2,150.2,388.6,147.3,388.6z"/>
		<g>
			<g>
				<path class="st21" d="M145,380.5c0,0.4-0.2,0.8-0.4,0.8s-0.4-0.3-0.4-0.8c0-0.4,0.2-0.8,0.4-0.8S145,380.1,145,380.5z"/>
				<g>
					<path class="st21" d="M144.8,380c0.1-0.4-0.8-0.2-1-0.3c-0.3-0.1-0.4,0.4-0.1,0.5c0.3,0.1,0.5,0,0.7-0.1c0.1,0,0.1-0.1,0.2-0.1
						C144.6,380,144.7,380,144.8,380C144.8,380,144.8,380,144.8,380L144.8,380z"/>
				</g>
			</g>
			<g>
				<path class="st21" d="M149.6,380.5c0,0.4,0.2,0.8,0.4,0.8c0.2,0,0.4-0.3,0.4-0.8c0-0.4-0.2-0.8-0.4-0.8
					C149.7,379.8,149.6,380.1,149.6,380.5z"/>
				<g>
					<path class="st21" d="M149.7,380c0.1,0,0.1,0,0.2,0c0.1,0,0.2,0.1,0.3,0.1c0.2,0.1,0.4,0.1,0.6,0c0.3-0.1,0.2-0.6-0.1-0.5
						c-0.3,0.1-0.6-0.1-0.8,0C149.9,379.8,149.6,379.9,149.7,380L149.7,380z"/>
				</g>
			</g>
		</g>
		<path class="st22" d="M147.3,379.9c-0.7,0.1-1.1,0.8-1.2,1.5c-0.1,0.8-0.1,1.7,0.7,2.2c0.5,0.3,1.1,0,1.3-0.5c0.1-0.4,0-0.7,0-1.1
			c0-0.4,0-0.7-0.1-1.1C147.8,380.7,147.7,379.8,147.3,379.9L147.3,379.9z"/>
		<path class="st16" d="M150.3,372.6c0-0.1,0-0.3,0-0.4C150.3,372.3,150.3,372.4,150.3,372.6z"/>
		<path class="st16" d="M150.7,373.3c0,0-3.9-2.1-6-0.8s-3.5,2.3-2.7,8.4c0,0,0.3-1.9,2.4-3c0.4-0.7,0.6-1.5,0.6-2.3
			c0,0.7,0,1.5-0.3,2.2c0.6-0.2,1.3-0.4,2.2-0.5c0.7-1,1.3-2.1,1.3-3.4c0-0.1,0-0.1,0,0c0.1,1.2,0.5,2.4,1.1,3.6
			c0.7,0.2,1.3,0.4,1.7,0.7c-0.1-0.8,0-1.5-0.3-2.3c0.7,1,1.3,2,1.4,3.3c0.5,0.8,0.6,1.6,0.6,1.6S154.3,375.4,150.7,373.3z"/>
		<path class="st16" d="M143.7,379.4c0.1,0,0.1,0,0.2-0.1c0.1,0,0.1,0,0.1,0c0,0,0.4,0,0.2,0c0.7,0.1,1.3-0.3,1.2-1.1
			c-0.1-0.7-0.8-1-1.5-0.7c-0.3,0.2-0.7,0.4-0.9,0.7C142.5,378.7,142.9,379.6,143.7,379.4L143.7,379.4z"/>
		<path class="st16" d="M151.5,378.2c-0.2-0.4-0.4-0.6-0.8-0.8c-0.4-0.3-0.8-0.3-1.3-0.1c-0.5,0.3-0.6,1-0.2,1.4
			c0.3,0.3,0.7,0.3,1,0.4c0.1,0-0.1,0,0,0c0.1,0,0.1,0,0.2,0c0.3,0,0.5,0,0.7-0.1C151.4,379,151.6,378.5,151.5,378.2L151.5,378.2z"
			/>
		<path class="st23" d="M146.2,384.3c0,0,0.7-0.7,1.2-0.7c0.5,0,1.3,0.4,1.3,0.4S147.6,386,146.2,384.3z"/>
		<path class="st24" d="M146.2,384.5c0.4,0.1,1,0.2,1.4,0.1c0.4,0,1-0.2,1.3-0.4c0.1-0.1,0.1-0.4-0.1-0.4c-0.4-0.1-0.9,0-1.3,0.1
			c-0.4,0-0.8,0.1-1.3,0.1C146,383.9,145.9,384.5,146.2,384.5L146.2,384.5z"/>
		<path class="st25" d="M145,377.8c0.2-0.3,0.5-0.6,0.6-0.9c0.1-0.3,0.1-0.7,0-1c-0.1-0.8-0.2-1.5-0.8-2.1c-0.2-0.1-0.5-0.2-0.6,0.1
			c-0.3,0.7-0.2,1.2,0,1.9c0.1,0.6,0,1.3,0.2,1.9C144.5,378,144.9,378.1,145,377.8L145,377.8z"/>
		<path class="st25" d="M148.1,373.1c-0.7,0.3-0.5,1.5-0.4,2.1c0.2,0.9,0.5,2,1.3,2.5c0.3,0.2,0.6,0,0.6-0.4
			C149.6,376.8,148.6,372.8,148.1,373.1L148.1,373.1z"/>
		<path class="st25" d="M149.9,374.8c0,0.3,0,0.5,0,0.8c0,0.3,0.2,0.5,0.3,0.8c0.2,0.5,0.2,1.1,0.4,1.6c0.1,0.2,0.4,0.2,0.5,0.1
			c0.5-0.5,0.4-1.2,0.2-1.8c-0.2-0.7-0.6-1.1-1.1-1.6C150.1,374.6,149.9,374.6,149.9,374.8L149.9,374.8z"/>
		<path class="st25" d="M142.1,381.4c0.5-0.7,0.4-1.6,0.4-2.4c0-0.8,0-1.6-0.4-2.4c-0.1-0.2-0.4-0.2-0.6,0c-0.5,0.8-0.5,1.7-0.5,2.6
			c0,0.8,0.1,1.7,0.7,2.2C141.8,381.5,142,381.5,142.1,381.4L142.1,381.4z"/>
	</g>
	<g class="st9">
		<path class="st18" d="M145.5,239.6l-0.1,1.4h3.7l-0.1-1.1c-0.1,0-0.2,0-0.2,0C147.7,240.1,146.5,240.1,145.5,239.6z"/>
		<path class="st26" d="M145.9,234.9l-0.5,4.7c1,0.5,2.2,0.5,3.2,0.3c0.1,0,0.2,0,0.2,0l-0.5-5L145.9,234.9z"/>
		<g>
			<g>
				<path class="st26" d="M143.3,233.9c0,0.9-0.7,1.7-1.5,1.7s-1.5-0.7-1.5-1.7c0-0.9,0.4-1.7,1.2-1.7
					C142.3,232.2,143.3,233,143.3,233.9z"/>
				<path class="st26" d="M151.1,233.9c0,0.9,0.7,1.7,1.5,1.7s1.5-0.7,1.5-1.7c0-0.9-0.4-1.7-1.2-1.7
					C152.2,232.2,151.1,233,151.1,233.9z"/>
			</g>
			<g>
				<path class="st27" d="M152.5,233.2c0.2-0.1,0.5-0.1,0.7,0.1c0.2,0.1,0.2,0.3,0.3,0.5c0.1,0.1,0.3,0.1,0.3-0.1
					c0-0.3-0.2-0.6-0.5-0.7c-0.3-0.2-0.6-0.1-0.9,0C152.4,233.1,152.4,233.2,152.5,233.2L152.5,233.2z"/>
			</g>
			<g>
				<path class="st27" d="M141.9,233.1c-0.2-0.2-0.5-0.4-0.8-0.3c-0.3,0-0.5,0.1-0.6,0.4c0,0.1,0.1,0.1,0.2,0.1
					c0.4-0.3,0.7-0.3,1.1,0C141.9,233.3,142,233.2,141.9,233.1L141.9,233.1z"/>
			</g>
			<g>
				<path class="st27" d="M141.3,233c-0.2,0.3-0.2,0.5-0.1,0.8c0.1,0.2,0.2,0.6,0.5,0.5c0.1,0,0.1,0,0.1-0.1c0-0.2-0.2-0.4-0.3-0.5
					c-0.1-0.2-0.1-0.5-0.1-0.7C141.4,233,141.3,232.9,141.3,233L141.3,233z"/>
			</g>
			<g>
				<path class="st27" d="M152.9,233.1c0,0.2,0,0.5,0,0.7c0,0.2-0.1,0.4-0.2,0.6c0,0.1,0.1,0.2,0.2,0.1c0.5-0.3,0.3-1.1,0.1-1.5
					C153,233,152.9,233.1,152.9,233.1L152.9,233.1z"/>
			</g>
		</g>
		<path class="st18" d="M149.7,238.1L149.7,238.1c-1.5,0.9-3.4,0.9-4.9,0l0,0c-1.4-0.8-2.3-2.4-2.3-4.1v-4.8c0-2.6,2.1-4.7,4.7-4.7
			h0c2.6,0,4.7,2.1,4.7,4.7v4.8C152,235.7,151.1,237.3,149.7,238.1z"/>
		<g>
			<g>
				<path class="st21" d="M145.3,232c0,0.4-0.1,0.7-0.3,0.7c-0.2,0-0.3-0.3-0.3-0.7c0-0.4,0.1-0.7,0.3-0.7
					C145.1,231.3,145.3,231.6,145.3,232z"/>
			</g>
			<g>
				<ellipse class="st21" cx="149.5" cy="232" rx="0.3" ry="0.7"/>
			</g>
		</g>
		<g>
			<path class="st28" d="M146.8,231.1c-0.2,0.5-0.3,1-0.3,1.5c0,0.6,0,1,0.4,1.4c0.1,0.1,0.4,0.1,0.5,0c0.5-0.4,0.5-0.8,0.4-1.4
				c0-0.5-0.1-1-0.3-1.5C147.4,230.9,146.9,230.9,146.8,231.1L146.8,231.1z"/>
		</g>
		<path class="st10" d="M151.6,227.5c0,0,2.7,0.2,2.4,2.5c-0.4,2.3-2,2.7-2.1,3.7c0,0-1-2.8-0.5-4c0,0-1.7-1.6-0.8-2.1
			C151.5,227.3,151.6,227.5,151.6,227.5z"/>
		<path class="st10" d="M142.5,227.5c0,0-2.6,0-1.7,2.5c0.8,2.2,1.5,2.9,1.6,3.4c0,0.1,0,0.1,0,0.2
			C142.5,234.1,144.9,228.9,142.5,227.5z"/>
		<path class="st10" d="M143,229.1c0,0-4.3-1.1-2.8-6.8c0.9-3.6,4.2,1.5,4.9,1.7c0,0-1.1-1.7,0.4-1.9c1.5-0.2,3.5,2.1,3.5,2.1
			s0.5-1.5,1.3,0c0.8,1.5,1.2,3.3,1.2,3.3l-1,0.2c0,0-1.9,1.1-2.1-0.3c0,0-1.6-0.6-3.6,0.5C143,229.1,143,229.1,143,229.1z"/>
		<g>
			<g>
				<path class="st10" d="M144.1,231c0.5-0.1,1-0.3,1.6-0.4c0.6,0,0.6-0.9,0-0.9c-0.7,0-1.5,0.3-1.8,1
					C143.8,230.9,143.9,231,144.1,231L144.1,231z"/>
			</g>
			<g>
				<path class="st10" d="M150.5,230.8c-0.3-0.7-1.1-1-1.8-1c-0.6,0-0.6,0.9,0,0.9c0.6,0,1,0.2,1.6,0.4
					C150.3,231,150.5,230.9,150.5,230.8L150.5,230.8z"/>
			</g>
		</g>
		<path class="st29" d="M145.8,234.7c0,0,1.5,0.2,2.7,0c0,0-0.4,1.1-1.4,1.1C146.1,235.9,145.8,234.7,145.8,234.7z"/>
		<g>
			<g>
				<path class="st30" d="M140.8,222.9C140.9,222.9,140.9,222.8,140.8,222.9C140.7,222.8,140.7,222.9,140.8,222.9L140.8,222.9z"/>
			</g>
		</g>
		<path class="st30" d="M140.3,222.8c-0.5,0.9-0.8,1.7-0.6,2.7c0.1,0.7,0.5,1.8,1.4,1.8c0.8,0,1-0.9,0.7-1.5
			c-0.2-0.4-0.4-0.7-0.4-1.2c-0.1-0.5-0.1-1.1-0.1-1.6C141.3,222.5,140.5,222.4,140.3,222.8L140.3,222.8z"/>
		<path class="st30" d="M145.6,223.8c0-0.1,0.1-0.2,0.1-0.4c0-0.1,0.1-0.2,0.1-0.3c0-0.2,0,0,0,0c0.5-0.5-0.1-1.3-0.7-1
			c-0.3,0.2-0.6,0.5-0.6,0.9c0,0.4,0.3,0.6,0.5,0.9C145.2,224.1,145.5,224,145.6,223.8L145.6,223.8z"/>
		<path class="st30" d="M149.1,223.8c-0.2,0.2-0.3,0.4-0.3,0.7c0,0.4,0.4,0.6,0.7,0.5c0.3-0.1,0.5-0.6,0.2-0.9c0,0,0,0,0-0.1
			C149.6,223.7,149.3,223.6,149.1,223.8L149.1,223.8z"/>
	</g>
	<g>
		
			<image style="overflow:visible;opacity:8.000000e-02;" width="263" height="126" xlink:href="75D252C7.png"  transform="matrix(1 0 0 1 119.5924 244.9)">
		</image>
		<g>
			<path class="st31" d="M353.2,355.7H149.1c-7.7,0-14-6.3-14-14v-67.6c0-7.7,6.3-14,14-14h204.1c7.7,0,14,6.3,14,14v67.6
				C367.2,349.4,361,355.7,353.2,355.7z"/>
		</g>
	</g>
	<g>
		<path class="st6" d="M413.8,339.2h-258c-2,0-3.6-1.6-3.6-3.6v-55.1c0-2,1.6-3.6,3.6-3.6h258c2,0,3.6,1.6,3.6,3.6v55.1
			C417.4,337.5,415.8,339.2,413.8,339.2z"/>
		<path class="st7" d="M415.2,339.5H412v-0.6h3.1L415.2,339.5z M408.9,339.5h-3.1v-0.6h3.1V339.5z M402.6,339.5h-3.1v-0.6h3.1V339.5
			z M396.4,339.5h-3.1v-0.6h3.1V339.5z M390.1,339.5H387v-0.6h3.1V339.5z M383.9,339.5h-3.1v-0.6h3.1V339.5z M377.6,339.5h-3.1v-0.6
			h3.1V339.5z M371.3,339.5h-3.1v-0.6h3.1V339.5z M365.1,339.5h-3.1v-0.6h3.1V339.5z M358.8,339.5h-3.1v-0.6h3.1V339.5z
			 M352.6,339.5h-3.1v-0.6h3.1V339.5z M346.3,339.5h-3.1v-0.6h3.1V339.5z M340,339.5h-3.1v-0.6h3.1V339.5z M333.8,339.5h-3.1v-0.6
			h3.1V339.5z M327.5,339.5h-3.1v-0.6h3.1V339.5z M321.3,339.5h-3.1v-0.6h3.1V339.5z M315,339.5h-3.1v-0.6h3.1V339.5z M308.7,339.5
			h-3.1v-0.6h3.1V339.5z M302.5,339.5h-3.1v-0.6h3.1V339.5z M296.2,339.5h-3.1v-0.6h3.1V339.5z M290,339.5h-3.1v-0.6h3.1V339.5z
			 M283.7,339.5h-3.1v-0.6h3.1V339.5z M277.4,339.5h-3.1v-0.6h3.1V339.5z M271.2,339.5H268v-0.6h3.1V339.5z M264.9,339.5h-3.1v-0.6
			h3.1V339.5z M258.7,339.5h-3.1v-0.6h3.1V339.5z M252.4,339.5h-3.1v-0.6h3.1V339.5z M246.1,339.5H243v-0.6h3.1V339.5z M239.9,339.5
			h-3.1v-0.6h3.1V339.5z M233.6,339.5h-3.1v-0.6h3.1V339.5z M227.4,339.5h-3.1v-0.6h3.1V339.5z M221.1,339.5H218v-0.6h3.1V339.5z
			 M214.8,339.5h-3.1v-0.6h3.1V339.5z M208.6,339.5h-3.1v-0.6h3.1V339.5z M202.3,339.5h-3.1v-0.6h3.1V339.5z M196.1,339.5h-3.1v-0.6
			h3.1V339.5z M189.8,339.5h-3.1v-0.6h3.1V339.5z M183.5,339.5h-3.1v-0.6h3.1V339.5z M177.3,339.5h-3.1v-0.6h3.1V339.5z M171,339.5
			h-3.1v-0.6h3.1V339.5z M164.8,339.5h-3.1v-0.6h3.1V339.5z M158.5,339.5h-3.1v-0.6h3.1V339.5z M152.3,338.3
			c-0.3-0.4-0.4-0.9-0.4-1.4V335h0.6v1.9c0,0.4,0.1,0.7,0.3,1L152.3,338.3z M417.7,337.3l-0.6-0.1c0-0.1,0-0.2,0-0.3v-2.8h0.6v2.8
			C417.7,337.1,417.7,337.2,417.7,337.3z M152.6,331.9h-0.6v-3.1h0.6V331.9z M417.7,331h-0.6v-3.1h0.6V331z M152.6,325.7h-0.6v-3.1
			h0.6V325.7z M417.7,324.8h-0.6v-3.1h0.6V324.8z M152.6,319.4h-0.6v-3.1h0.6V319.4z M417.7,318.5h-0.6v-3.1h0.6V318.5z
			 M152.6,313.1h-0.6V310h0.6V313.1z M417.7,312.2h-0.6v-3.1h0.6V312.2z M152.6,306.9h-0.6v-3.1h0.6V306.9z M417.7,306h-0.6v-3.1
			h0.6V306z M152.6,300.6h-0.6v-3.1h0.6V300.6z M417.7,299.7h-0.6v-3.1h0.6V299.7z M152.6,294.4h-0.6v-3.1h0.6V294.4z M417.7,293.5
			h-0.6v-3.1h0.6V293.5z M152.6,288.1h-0.6V285h0.6V288.1z M417.7,287.2h-0.6v-3.1h0.6V287.2z M152.6,281.8h-0.6v-2.7
			c0-0.1,0-0.3,0-0.4l0.6,0.1c0,0.1,0,0.2,0,0.3V281.8z M417.7,280.9h-0.6v-1.9c0-0.4-0.1-0.7-0.3-1l0.5-0.3
			c0.3,0.4,0.4,0.9,0.4,1.4V280.9z M414.3,277.2h-3.1v-0.6h3.1V277.2z M408,277.2h-3.1v-0.6h3.1V277.2z M401.8,277.2h-3.1v-0.6h3.1
			V277.2z M395.5,277.2h-3.1v-0.6h3.1V277.2z M389.2,277.2h-3.1v-0.6h3.1V277.2z M383,277.2h-3.1v-0.6h3.1V277.2z M376.7,277.2h-3.1
			v-0.6h3.1V277.2z M370.5,277.2h-3.1v-0.6h3.1V277.2z M364.2,277.2h-3.1v-0.6h3.1V277.2z M357.9,277.2h-3.1v-0.6h3.1V277.2z
			 M351.7,277.2h-3.1v-0.6h3.1V277.2z M345.4,277.2h-3.1v-0.6h3.1V277.2z M339.2,277.2H336v-0.6h3.1V277.2z M332.9,277.2h-3.1v-0.6
			h3.1V277.2z M326.6,277.2h-3.1v-0.6h3.1V277.2z M320.4,277.2h-3.1v-0.6h3.1V277.2z M314.1,277.2H311v-0.6h3.1V277.2z M307.9,277.2
			h-3.1v-0.6h3.1V277.2z M301.6,277.2h-3.1v-0.6h3.1V277.2z M295.3,277.2h-3.1v-0.6h3.1V277.2z M289.1,277.2h-3.1v-0.6h3.1V277.2z
			 M282.8,277.2h-3.1v-0.6h3.1V277.2z M276.6,277.2h-3.1v-0.6h3.1V277.2z M270.3,277.2h-3.1v-0.6h3.1V277.2z M264,277.2h-3.1v-0.6
			h3.1V277.2z M257.8,277.2h-3.1v-0.6h3.1V277.2z M251.5,277.2h-3.1v-0.6h3.1V277.2z M245.3,277.2h-3.1v-0.6h3.1V277.2z M239,277.2
			h-3.1v-0.6h3.1V277.2z M232.7,277.2h-3.1v-0.6h3.1V277.2z M226.5,277.2h-3.1v-0.6h3.1V277.2z M220.2,277.2h-3.1v-0.6h3.1V277.2z
			 M214,277.2h-3.1v-0.6h3.1V277.2z M207.7,277.2h-3.1v-0.6h3.1V277.2z M201.4,277.2h-3.1v-0.6h3.1V277.2z M195.2,277.2H192v-0.6
			h3.1V277.2z M188.9,277.2h-3.1v-0.6h3.1V277.2z M182.7,277.2h-3.1v-0.6h3.1V277.2z M176.4,277.2h-3.1v-0.6h3.1V277.2z
			 M170.1,277.2H167v-0.6h3.1V277.2z M163.9,277.2h-3.1v-0.6h3.1V277.2z M157.6,277.2h-3.1l0-0.6h3.1V277.2z"/>
	</g>
	<g>
		<rect x="225.8" y="294.6" class="st32" width="169.5" height="8.4"/>
		<path class="st33" d="M356,321.6H225.5v-9H356V321.6z M226.1,321h129.3v-7.8H226.1V321z"/>
	</g>
	<g>
		<circle class="st0" cx="154.6" cy="51.9" r="22.1"/>
		<g>
			<defs>
				<circle id="SVGID_3_" cx="154.6" cy="51.9" r="22.1"/>
			</defs>
			<clipPath id="SVGID_4_">
				<use xlink:href="#SVGID_3_"  style="overflow:visible;"/>
			</clipPath>
			<g class="st34">
				<g>
					<polygon class="st35" points="144.2,58.6 149.5,60.3 152.5,50.2 147.4,48.6 					"/>
					<path class="st36" d="M149.5,60.4l-5.4-1.7l0-0.1l3.2-10.1l5.3,1.7L149.5,60.4z M144.3,58.5l5.1,1.6l3-9.9l-5-1.6L144.3,58.5z"
						/>
				</g>
				<path class="st37" d="M157.6,50.4l1.8-5.6l-11.7-3.7l-2.3,7.2c-1,3.2,0.8,6.7,4,7.7h0c3.2,1,6.6-0.7,7.7-3.9
					c0.5,0.1,0.9-0.1,1.1-0.6C158.3,51.1,158,50.6,157.6,50.4z"/>
				<radialGradient id="SVGID_5_" cx="152.246" cy="48.7031" r="7.5483" gradientUnits="userSpaceOnUse">
					<stop  offset="0" style="stop-color:#040B3A"/>
					<stop  offset="1" style="stop-color:#040B3A"/>
				</radialGradient>
				<path class="st38" d="M151.2,56.5c-0.6,0-1.3-0.1-1.9-0.3c-3.3-1.1-5.1-4.6-4.1-7.9l2.4-7.4l12,3.8l-1.8,5.6
					c0.4,0.2,0.7,0.8,0.5,1.2c-0.2,0.5-0.6,0.8-1.1,0.7C156.2,54.9,153.8,56.5,151.2,56.5z M147.8,41.3l-2.3,7.1
					c-1,3.1,0.7,6.5,3.9,7.5c3.1,1,6.4-0.7,7.5-3.8l0-0.1l0.1,0c0.4,0.1,0.8-0.1,0.9-0.5c0.1-0.4-0.1-0.8-0.4-0.9l-0.1-0.1l1.8-5.6
					L147.8,41.3z"/>
				<path class="st35" d="M158.5,63.6c0,0-1.9-6.7,4.1-7.8l4,1.9c0,0-0.9,6-4.6,7.4C158.2,66.6,158.5,63.6,158.5,63.6z"/>
				<radialGradient id="SVGID_6_" cx="164.5245" cy="57.2056" r="6.3135" gradientUnits="userSpaceOnUse">
					<stop  offset="0" style="stop-color:#040B3A"/>
					<stop  offset="1" style="stop-color:#040B3A"/>
				</radialGradient>
				<path class="st39" d="M164,50.9l-5.2,9.5c-0.2,0.4-0.1,1,0.4,1.2l4.6,2.2c0.4,0.2,0.9,0,1.2-0.4l5.3-9.8c0.3-0.5,0-1.1-0.5-1.2
					l-4.8-1.9C164.6,50.4,164.2,50.5,164,50.9z"/>
				<polygon class="st6" points="164.4,51.5 159.7,60 164.6,62.2 169.3,53.4 				"/>
				<g>
					<path class="st6" d="M162.2,61.7c0,0.3-0.2,0.5-0.5,0.5s-0.5-0.2-0.5-0.5c0-0.3,0.2-0.5,0.5-0.5S162.2,61.5,162.2,61.7z"/>
					<path class="st6" d="M161.7,62.4c-0.4,0-0.7-0.3-0.7-0.7s0.3-0.7,0.7-0.7s0.7,0.3,0.7,0.7S162,62.4,161.7,62.4z M161.7,61.4
						c-0.2,0-0.4,0.2-0.4,0.4c0,0.2,0.2,0.4,0.4,0.4c0.2,0,0.4-0.2,0.4-0.4C162,61.5,161.9,61.4,161.7,61.4z"/>
				</g>
				<g>
					<path class="st6" d="M168,52.4l-1.5-0.6c-0.1,0-0.1-0.1-0.1-0.2l0,0c0-0.1,0.1-0.1,0.2-0.1l1.5,0.6c0.1,0,0.1,0.1,0.1,0.2l0,0
						C168.1,52.4,168,52.4,168,52.4z"/>
					<path class="st6" d="M168,52.6c0,0-0.1,0-0.1,0l-1.5-0.6c-0.2-0.1-0.2-0.2-0.2-0.4c0.1-0.2,0.2-0.2,0.4-0.2l1.5,0.6
						c0.2,0.1,0.2,0.2,0.2,0.4C168.2,52.5,168.1,52.6,168,52.6z M168,52.3L168,52.3C168,52.3,168,52.3,168,52.3z"/>
				</g>
				<path class="st35" d="M158.6,62.8c-0.1,0.1-2.9,4.2-2.9,4.2l3.5,2.7l2.8-4.6L158.6,62.8z"/>
				<radialGradient id="SVGID_7_" cx="152.4617" cy="47.467" r="9.1782" gradientUnits="userSpaceOnUse">
					<stop  offset="0" style="stop-color:#040B3A"/>
					<stop  offset="1" style="stop-color:#040B3A"/>
				</radialGradient>
				<path class="st40" d="M162.1,42.3c-0.1-0.1-0.1-0.2-0.2-0.3c-1.4-1.8-4.4-0.4-5.1,0.1c-1.5-1.5-4.2-3.4-7.9-2.9
					c0,0-1.9-0.2-4.5,2.4l-1.5,4.8c-1.2,3.7,0.7,7.6,4.2,8.8l1.1,0.3c2,0.6,4.2-0.6,4.9-2.7l1.7-5.3l0.2-0.7c0.9,0.3,2.7,0.9,4,1.1
					C161.1,48.2,163.3,44.3,162.1,42.3z"/>
				<path class="st37" d="M152,49.7c-0.3,0.9,0.2,1.9,1.2,2.2c0.9,0.3,1.9-0.2,2.2-1.2c0.3-0.9-0.2-1.9-1.2-2.2
					C153.3,48.3,152.3,48.8,152,49.7z"/>
				<circle class="st3" cx="145.2" cy="40.9" r="2.5"/>
				<path class="st3" d="M142.7,57.4l10.1,3.9c0,0,3.3,1.1,5.7,4.9c2.5,3.8,4.3,10.1,4.3,10.1s-18.6-0.1-25.8-11.9L142.7,57.4z"/>
				<radialGradient id="SVGID_8_" cx="149.9917" cy="66.8934" r="11.5172" gradientUnits="userSpaceOnUse">
					<stop  offset="0" style="stop-color:#040B3A"/>
					<stop  offset="1" style="stop-color:#040B3A"/>
				</radialGradient>
				<path class="st41" d="M163.1,76.5l-0.2,0c-0.2,0-18.8-0.3-26-11.9l-0.1-0.1l5.8-7.3l10.2,4c0,0,3.3,1.1,5.8,5
					c2.4,3.8,4.3,10.1,4.4,10.1L163.1,76.5z M137.3,64.5c6.7,10.8,23.3,11.6,25.4,11.7c-0.3-1.1-2.1-6.5-4.3-9.9
					c-2.4-3.7-5.6-4.8-5.6-4.9l-10-3.9L137.3,64.5z"/>
				<radialGradient id="SVGID_9_" cx="140.1154" cy="52.0611" r="11.179" gradientUnits="userSpaceOnUse">
					<stop  offset="0" style="stop-color:#040B3A"/>
					<stop  offset="1" style="stop-color:#040B3A"/>
				</radialGradient>
				<path class="st42" d="M146.2,40c0,0-5.5-5.8-10,0.3c-4.3,5.7-1,16-2.2,22.2c-0.2,0.7,0.2,1.5,1,1.8l5.9,2.2c0.8,0.3,1.8-0.1,2-1
					c0.9-2.8,1.3-8.3-0.4-16.4c0,0-2.5-7.8,2.7-7.2c0.2,0,0.4,0,0.5-0.1C146.1,41.5,146.7,40.9,146.2,40z"/>
				<path class="st36" d="M154,75.2c-0.3-0.1-2.3-3.8-2.3-3.8l-1,2.8L154,75.2z"/>
				<path class="st43" d="M165.8,57.5c-0.4,0.9-1.4,1.2-2.3,0.8c-0.9-0.4-1.2-1.4-0.8-2.3c0.4-0.9,1.4-1.2,2.3-0.8
					C165.9,55.6,166.2,56.6,165.8,57.5z"/>
				<g>
					<path class="st37" d="M163,60.3l3.5,1.2c1.3,0.4,2,1.7,1.8,3l-0.6,3.6l-4.2-2.3c-1-0.5-1.5-1.7-1.2-2.8L163,60.3z"/>
					<path class="st37" d="M163,60.3l0.8-3c0.1-0.3,0.3-0.4,0.6-0.4l0,0c0.3,0.1,0.4,0.3,0.4,0.6l-0.7,4.5L163,60.3z"/>
					<path class="st37" d="M167.4,65.9c0,0,3.1,5.1,2.9,5.2c-0.2,0.1-3.5,1.3-3.5,1.3l-4.5-7.9L167.4,65.9z"/>
				</g>
				<g>
					<polygon class="st3" points="164.4,69.4 169.5,67.8 173,74.4 167.2,76.8 					"/>
					<path class="st44" d="M167.1,77l-2.9-7.7l5.4-1.8l3.7,7L167.1,77z M164.6,69.5l2.7,7.1l5.5-2.2l-3.4-6.4L164.6,69.5z"/>
				</g>
				<path class="st3" d="M162.9,76.6c-0.2,0-17.9-0.2-25.5-11.1l0.4-0.3c7.4,10.7,24.9,10.9,25.1,10.9L162.9,76.6z"/>
				<path class="st3" d="M167.2,77c-0.1,0-0.2-0.1-0.2-0.1c0-0.1,0-0.3,0.1-0.3l5.8-2.4c0.1,0,0.3,0,0.3,0.1c0,0.1,0,0.3-0.1,0.3
					L167.2,77C167.2,77,167.2,77,167.2,77z"/>
			</g>
			<circle class="st45" cx="154.6" cy="51.9" r="22.1"/>
		</g>
		<path class="st3" d="M154.6,74.6c-12.5,0-22.7-10.2-22.7-22.7s10.2-22.7,22.7-22.7c12.5,0,22.7,10.2,22.7,22.7
			S167.2,74.6,154.6,74.6z M154.6,30.4c-11.9,0-21.5,9.6-21.5,21.5s9.6,21.5,21.5,21.5s21.5-9.6,21.5-21.5S166.5,30.4,154.6,30.4z"
			/>
	</g>
	<g>
		<circle class="st32" cx="189.3" cy="308.5" r="21.5"/>
		<path class="st33" d="M189.3,331.2c-12.5,0-22.7-10.2-22.7-22.7c0-12.5,10.2-22.7,22.7-22.7c12.5,0,22.7,10.2,22.7,22.7
			C212.1,321,201.9,331.2,189.3,331.2z M189.3,287c-11.9,0-21.5,9.6-21.5,21.5c0,11.9,9.6,21.5,21.5,21.5c11.9,0,21.5-9.6,21.5-21.5
			C210.8,296.6,201.2,287,189.3,287z"/>
		<g>
			<defs>
				<circle id="SVGID_10_" cx="189.3" cy="308.5" r="21.5"/>
			</defs>
			<clipPath id="SVGID_11_">
				<use xlink:href="#SVGID_10_"  style="overflow:visible;"/>
			</clipPath>
			<g class="st46">
				<radialGradient id="SVGID_12_" cx="195.2343" cy="301.1015" r="12.835" gradientUnits="userSpaceOnUse">
					<stop  offset="0" style="stop-color:#040B3A"/>
					<stop  offset="1" style="stop-color:#040B3A"/>
				</radialGradient>
				<path class="st47" d="M187,285.6c3.5-1.2,7.4-0.6,10.5,1.7c2.2,1.6,3.9,4,4.9,6.8c2,5.2,1.4,11.6-1.4,16.2
					c-2.8,4.6-7.8,7.4-12.7,7C192.8,306.9,192.5,295.1,187,285.6z"/>
				<radialGradient id="SVGID_13_" cx="183.6952" cy="301.1015" r="12.835" gradientUnits="userSpaceOnUse">
					<stop  offset="0" style="stop-color:#040B3A"/>
					<stop  offset="1" style="stop-color:#040B3A"/>
				</radialGradient>
				<path class="st48" d="M192,285.6c-3.5-1.2-7.4-0.6-10.5,1.7c-2.2,1.6-3.9,4-4.9,6.8c-2,5.2-1.4,11.6,1.4,16.2
					c2.8,4.6,7.8,7.4,12.7,7C186.2,306.9,186.4,295.1,192,285.6z"/>
				<path class="st49" d="M205.3,323.2c-0.7-0.6-1.6-1-2.5-1.3l-8.4-2.6l0,0c-0.6-0.2-0.9-0.7-1-1.3c-0.3-1.7-0.3-6.3-0.3-7.1
					c0-0.1,0-0.1-0.1-0.1h-7.4c-0.1,0-0.1,0-0.1,0.1c0,0.7,0,5.2-0.3,7.1c-0.1,0.6-0.4,1.2-1,1.3l0,0l-8.4,2.6
					c-0.8,0.2-1.5,0.6-2.2,1.1c-3.4,2.5-3.5,6.6-3.6,7.4c0,0.1,0,0.1,0.1,0.1h19.2h19.2c0.1,0,0.1-0.1,0.1-0.1
					C208.5,329.6,208.4,325.7,205.3,323.2z"/>
				<path class="st49" d="M205.3,323.2c-0.7-0.6-1.6-1-2.5-1.3l-8.4-2.6l0,0c-0.6-0.2-0.9-0.7-1-1.3c-0.3-1.7-0.3-6.3-0.3-7.1
					c0-0.1,0-0.1-0.1-0.1h-7.4c-0.1,0-0.1,0-0.1,0.1c0,0.7,0,5.2-0.3,7.1c-0.1,0.6-0.4,1.2-1,1.3l0,0l-8.4,2.6
					c-0.8,0.2-1.5,0.6-2.2,1.1c-3.4,2.5-3.5,6.6-3.6,7.4c0,0.1,0,0.1,0.1,0.1h19.2h19.2c0.1,0,0.1-0.1,0.1-0.1
					C208.5,329.6,208.4,325.7,205.3,323.2z"/>
				<g>
					<path class="st37" d="M205.3,323.2c-0.7-0.6-1.6-1-2.5-1.3l-0.9-0.3l-7.4-2.3c-0.6-0.2-0.9-0.7-1-1.3c-0.3-1.7-0.3-6.3-0.3-7.1
						c0-0.1,0-0.1-0.1-0.1h-7.4c-0.1,0-0.1,0-0.1,0.1c0,0.7,0,5.2-0.3,7.1c-0.1,0.6-0.4,1.2-1,1.3l-7.4,2.3l-0.9,0.3
						c-0.8,0.2-1.5,0.6-2.2,1.1c-3.4,2.5-3.5,6.6-3.6,7.4c0,0.1,0,0.1,0.1,0.1h19.2h19.2c0.1,0,0.1-0.1,0.1-0.1
						C208.5,329.6,208.4,325.7,205.3,323.2z"/>
					<path class="st50" d="M208.5,330.7h-38.3c-0.1,0-0.2-0.1-0.3-0.1c-0.1-0.1-0.1-0.2-0.1-0.3c0-0.1,0-0.2,0-0.4
						c0.2-1.3,0.6-4.9,3.7-7.2c0.6-0.5,1.4-0.8,2.3-1.1l8.4-2.6c0.6-0.2,0.8-0.8,0.8-1.1c0.3-1.8,0.3-6.5,0.3-7c0-0.1,0-0.2,0.1-0.3
						c0.1-0.1,0.2-0.1,0.3-0.1h7.4c0.1,0,0.2,0,0.3,0.1c0.1,0.1,0.1,0.2,0.1,0.3c0,0.5,0,5.3,0.3,7c0,0.3,0.2,0.9,0.8,1.1l8.4,2.6
						c1,0.3,1.8,0.8,2.6,1.3c2.9,2.3,3.3,5.7,3.4,6.9c0,0.2,0,0.3,0,0.4c0,0.1,0,0.2-0.1,0.3C208.7,330.7,208.6,330.7,208.5,330.7z
						 M170.4,330.1h37.8c0-0.1,0-0.1,0-0.2c-0.1-1.2-0.5-4.4-3.2-6.5l0,0c-0.7-0.5-1.5-1-2.4-1.2l-8.4-2.6c-0.7-0.2-1.1-0.8-1.3-1.6
						c-0.3-1.6-0.3-5.7-0.3-6.9h-7c0,1.2,0,5.2-0.3,6.9c-0.1,0.8-0.6,1.4-1.3,1.6l-8.4,2.6c-0.8,0.2-1.5,0.6-2.1,1
						c-2.9,2.1-3.3,5.5-3.5,6.8C170.4,330,170.4,330.1,170.4,330.1z"/>
				</g>
				<g>
					<path class="st33" d="M201.1,321.2c-0.3,1.2-1.4,3.8-5.5,5c0,0-0.1,0-0.1,0c-3.7,1.1-7.7,1.1-11.5,0c0,0-0.1,0-0.1,0
						c-4.2-1.2-5.3-3.8-5.5-5l-1.2,0.4v8.8h12.6h12.6v-8.8L201.1,321.2z"/>
				</g>
				<g>
					<g>
						<path class="st37" d="M193.2,314.7c0-1.6,0-3.1,0-3.5c0-0.1,0-0.1-0.1-0.1h-7.4c-0.1,0-0.1,0-0.1,0.1c0,0.4,0,1.9,0,3.5"/>
						<path class="st50" d="M192.8,314.7c0-1.4,0-2.7,0-3.3h-7c0,0.5,0,1.9,0,3.3l-0.6,0c0-1.6,0-3.2,0-3.4c0-0.1,0-0.2,0.1-0.3
							c0.1-0.1,0.2-0.1,0.3-0.1h7.4c0.1,0,0.2,0,0.3,0.1c0.1,0.1,0.1,0.2,0.1,0.3c0,0.3,0,1.8,0,3.4L192.8,314.7z"/>
					</g>
				</g>
				<g>
					<path class="st37" d="M180.5,301.3c0.7,1.6,0.3,4-0.8,4.5c-1.1,0.5-2.6-1.2-3.2-2.8c-0.7-1.6-0.3-3.2,0.8-3.7
						C178.3,298.8,179.8,299.7,180.5,301.3z"/>
					<path class="st37" d="M198.2,301.3c-0.7,1.6-0.3,4,0.8,4.5c1.1,0.5,2.6-1.2,3.2-2.8c0.7-1.6,0.3-3.2-0.8-3.7
						C200.3,298.8,198.9,299.7,198.2,301.3z"/>
				</g>
				<g>
					<path class="st37" d="M189.3,286c-11.3-0.4-11.5,10.3-11.3,13.9c0.1,2.6,1.1,6.3,1.7,8.2c0.3,1.1,0.9,2.1,1.7,2.8
						c3,2.8,7.9,3.8,7.9,3.8s5-1,7.9-3.8c0.8-0.8,1.4-1.8,1.7-2.8c0.5-1.9,1.6-5.6,1.7-8.2C200.8,296.4,200.6,285.6,189.3,286z"/>
					<path class="st50" d="M189.3,315L189.3,315c-0.3-0.1-5.2-1-8.1-3.9c-0.8-0.8-1.4-1.8-1.8-3c-0.6-2-1.6-5.7-1.7-8.2
						c-0.2-3.5,0.3-8.4,3.3-11.4c2-2,4.8-2.9,8.3-2.8c3.5-0.1,6.3,0.8,8.3,2.8c3,3.1,3.5,7.9,3.3,11.4c-0.1,2.6-1.1,6.3-1.7,8.2
						c-0.3,1.2-1,2.2-1.8,3C194.5,314,189.6,315,189.3,315L189.3,315z M188.7,286.3c-3,0-5.5,0.9-7.2,2.6c-3,3.1-3.3,8.2-3.1,11
						c0.1,2.5,1.1,6.2,1.7,8.1c0.3,1,0.9,2,1.6,2.7c2.7,2.6,7.1,3.6,7.7,3.7c0.6-0.1,5-1.1,7.7-3.7c0.7-0.7,1.3-1.6,1.6-2.7
						c0.6-1.9,1.5-5.6,1.7-8.1c0.1-2.8-0.1-7.9-3.1-11c-1.8-1.9-4.5-2.7-7.8-2.6l0,0l0,0C189.1,286.3,188.9,286.3,188.7,286.3z"/>
				</g>
				<path class="st50" d="M189.3,309.8c-1.1,0-2-0.4-2.5-1.1l0.5-0.4c0.3,0.5,1.1,0.8,2,0.8s1.6-0.3,2-0.8l0.5,0.4
					C191.4,309.4,190.4,309.8,189.3,309.8z"/>
				<g>
					<radialGradient id="SVGID_14_" cx="183.4401" cy="300.54" r="1.6078" gradientUnits="userSpaceOnUse">
						<stop  offset="0" style="stop-color:#040B3A"/>
						<stop  offset="1" style="stop-color:#040B3A"/>
					</radialGradient>
					<path class="st51" d="M183.4,298.8c0.8,0,1.5,0.8,1.5,1.7c0,1-0.7,1.7-1.5,1.7c-0.8,0-1.5-0.8-1.5-1.7
						C182,299.6,182.6,298.8,183.4,298.8z"/>
					<radialGradient id="SVGID_15_" cx="194.8014" cy="300.54" r="1.6078" gradientUnits="userSpaceOnUse">
						<stop  offset="0" style="stop-color:#040B3A"/>
						<stop  offset="1" style="stop-color:#040B3A"/>
					</radialGradient>
					<ellipse class="st52" cx="194.8" cy="300.5" rx="1.5" ry="1.7"/>
				</g>
				<path class="st53" d="M183.4,304.7c0,0.9-0.7,1.6-1.6,1.6c-0.9,0-1.6-0.7-1.6-1.6s0.7-1.6,1.6-1.6
					C182.7,303.1,183.4,303.8,183.4,304.7z"/>
				<path class="st53" d="M197.9,304.7c0,0.9-0.7,1.6-1.6,1.6c-0.9,0-1.6-0.7-1.6-1.6s0.7-1.6,1.6-1.6
					C197.2,303.1,197.9,303.8,197.9,304.7z"/>
				<g>
					<radialGradient id="SVGID_16_" cx="196.0338" cy="300.2509" r="0.7061" gradientUnits="userSpaceOnUse">
						<stop  offset="0" style="stop-color:#040B3A"/>
						<stop  offset="1" style="stop-color:#040B3A"/>
					</radialGradient>
					<polygon class="st54" points="195.1,300.3 196.9,299.8 196.2,300.7 					"/>
					<radialGradient id="SVGID_17_" cx="182.2077" cy="300.2509" r="0.7061" gradientUnits="userSpaceOnUse">
						<stop  offset="0" style="stop-color:#040B3A"/>
						<stop  offset="1" style="stop-color:#040B3A"/>
					</radialGradient>
					<polygon class="st55" points="183.1,300.3 181.3,299.8 182,300.7 					"/>
				</g>
				<radialGradient id="SVGID_18_" cx="189.3444" cy="295.5346" r="11.7724" gradientUnits="userSpaceOnUse">
					<stop  offset="0" style="stop-color:#040B3A"/>
					<stop  offset="1" style="stop-color:#040B3A"/>
				</radialGradient>
				<path class="st56" d="M189.3,285.1c-4-1.4-15.4,4.3-12.3,13.7c0.1,0,1.4,5.5,3.4,7.3c-1.1-1.3-1.3-3.1-1.1-4.7
					c0.2-1.2,0.7-2.4,1.2-3.5c4.3-2.2,7.5-7.6,8.8-8.8c1.3,1.1,4.9,6.1,8.6,8.4c0.6,1.2,1.1,2.5,1.3,3.9c0.3,1.6,0,3.5-1.1,4.7
					c2-1.9,3.3-7.3,3.4-7.3C204.8,289.4,193.4,283.8,189.3,285.1z"/>
				<g>
					<radialGradient id="SVGID_19_" cx="196.9477" cy="315.7615" r="4.143" gradientUnits="userSpaceOnUse">
						<stop  offset="0" style="stop-color:#040B3A"/>
						<stop  offset="1" style="stop-color:#040B3A"/>
					</radialGradient>
					<path class="st57" d="M197.6,317.5c0.8-1,2.1-1.7,2.7-2.8c0.4-0.8,0.5-1.8,0.1-2.6c-0.1-0.2-0.2-0.4-0.3-0.6
						c-0.7-0.2-1.5-0.3-2.3-0.2c-2.6,0.3-4.5,2.5-4.6,5.1c0,1.2,0.3,2.3,0.9,3.2c0.8,1.2,2.5,0.7,2.9-0.6
						C197.1,318.5,197.3,318,197.6,317.5z"/>
				</g>
				<g>
					
						<radialGradient id="SVGID_20_" cx="-167.1267" cy="-103.1087" r="3.2384" gradientTransform="matrix(-1 0 0 -1 30.4942 216.3228)" gradientUnits="userSpaceOnUse">
						<stop  offset="0" style="stop-color:#040B3A"/>
						<stop  offset="1" style="stop-color:#040B3A"/>
					</radialGradient>
					<path class="st58" d="M197.1,318c-0.6,0.8-1.6,1.3-2.1,2.2c-0.3,0.6-0.4,1.4-0.1,2c0.1,0.2,0.2,0.3,0.3,0.5
						c0.6,0.2,1.2,0.2,1.8,0.2c2-0.3,3.5-2,3.6-4c0-0.9-0.2-1.8-0.7-2.5c-0.6-0.9-2-0.6-2.2,0.5C197.5,317.3,197.3,317.7,197.1,318z
						"/>
				</g>
				<radialGradient id="SVGID_21_" cx="196.4758" cy="325.875" r="3.4349" gradientUnits="userSpaceOnUse">
					<stop  offset="0" style="stop-color:#040B3A"/>
					<stop  offset="1" style="stop-color:#040B3A"/>
				</radialGradient>
				<path class="st59" d="M195.4,322.6c-0.6,0.4-1,1.2-1,1.9c0,0.7,0.2,1.3,0.3,2c0.1,1.1-0.4,2.2-1.2,2.8c1.4,0.5,3,0.3,4.2-0.5
					c1.2-0.8,2-2.3,1.9-3.8c0-0.6-0.2-1.3-0.5-1.8C198.3,322,196.5,321.8,195.4,322.6z"/>
			</g>
		</g>
		<circle class="st60" cx="189.3" cy="308.5" r="22.7"/>
	</g>
	<path class="st5" d="M166.1,133.4h-18.7v-18.7h18.7V133.4z M148.1,132.7h17.4v-17.4h-17.4V132.7z"/>
	<path class="st5" d="M221.7,133h-7c-3.1,0-5.5-2.5-5.5-5.5v-7c0-3.1,2.5-5.5,5.5-5.5h7c3.1,0,5.5,2.5,5.5,5.5v7
		C227.2,130.6,224.7,133,221.7,133z"/>
	<path class="st5" d="M289.4,133.4h-18.7v-18.7h18.7V133.4z M271.3,132.7h17.4v-17.4h-17.4V132.7z"/>
	<g>
		<rect x="152.1" y="119.3" class="st5" width="9.3" height="9.3"/>
		<path class="st5" d="M161.8,129h-10v-10h10V129z M152.4,128.4h8.7v-8.7h-8.7V128.4z"/>
	</g>
	<g>
		<rect x="275.3" y="119.3" class="st5" width="9.3" height="9.3"/>
		<path class="st5" d="M285,129h-10v-10h10V129z M275.7,128.4h8.7v-8.7h-8.7V128.4z"/>
	</g>
	<circle class="st4" cx="218.2" cy="124" r="5"/>
	<rect x="168.5" y="373.7" class="st5" width="173.9" height="5.6"/>
	<g>
		<rect x="168.5" y="385.9" class="st6" width="123.1" height="5.6"/>
		<path class="st5" d="M291.8,391.8H168.1v-6.2h123.7V391.8z M168.8,391.2h122.4v-5H168.8V391.2z"/>
	</g>
	<g>
		<path class="st61" d="M71.9,270.1h-2.1v-15.3c0-0.1,0-0.2-0.1-0.3c-0.1-0.1-0.2-0.1-0.3-0.1h-2.1c-0.1,0-0.2,0-0.3,0.1
			c-0.1,0.1-0.1,0.2-0.1,0.3v15.3h-2.1c-0.2,0-0.3,0.1-0.3,0.2c-0.1,0.1,0,0.3,0.1,0.4l3.5,3.5c0.1,0.1,0.2,0.1,0.3,0.1
			c0.1,0,0.2,0,0.3-0.1l3.5-3.5c0.1-0.1,0.1-0.2,0.1-0.3c0-0.1,0-0.2-0.1-0.3C72.1,270.1,72,270.1,71.9,270.1L71.9,270.1z
			 M71.9,270.1"/>
		<path class="st61" d="M80.2,273.1h-2.7c-0.2,0-0.3,0-0.3,0l-0.2,0v0l0.1-0.1c0.1-0.1,0.2-0.2,0.2-0.3l4.1-5.9v-1h-6.3v2.5h1.3
			v-1.3H79c0.1,0,0.2,0,0.3,0c0,0,0.1,0,0.1,0c0,0,0.1,0,0.1,0v0l-0.1,0.1c-0.1,0.1-0.1,0.2-0.2,0.3l-4.1,5.9v1h6.5v-2.6h-1.3V273.1
			z M80.2,273.1"/>
		<path class="st61" d="M81.8,261.8l-2.5-7.3h-1.8l-2.5,7.3h-0.8v1.2h3.2v-1.2h-0.8l0.5-1.6h2.7l0.5,1.6h-0.8v1.2h3.2v-1.2H81.8z
			 M77.3,259l0.8-2.4c0-0.1,0.1-0.2,0.1-0.3c0-0.1,0-0.2,0-0.2l0-0.2h0c0,0,0,0.1,0,0.2l0.1,0.5l0.8,2.4H77.3z M77.3,259"/>
	</g>
	<g>
		<path class="st6" d="M80.5,200.7H66.6c-6.1,0-11-4.9-11-11v-13.9c0-6.1,4.9-11,11-11h13.9c6.1,0,11,4.9,11,11v13.9
			C91.4,195.7,86.5,200.7,80.5,200.7z"/>
		<path class="st7" d="M73.5,201c-10.1,0-18.2-8.2-18.2-18.2c0-10.1,8.2-18.2,18.2-18.2c10.1,0,18.2,8.2,18.2,18.2
			C91.7,192.8,83.6,201,73.5,201z M73.5,165.1c-9.7,0-17.6,7.9-17.6,17.6c0,9.7,7.9,17.6,17.6,17.6s17.6-7.9,17.6-17.6
			C91.1,173,83.2,165.1,73.5,165.1z"/>
	</g>
	<polyline class="st13" points="81.4,180.7 73.5,188.5 65.7,180.7 	"/>
	<g>
		<path class="st61" d="M76.5,236.3h-2.8c-0.1,0-0.2,0-0.3,0.1c-0.1,0.1-0.1,0.2-0.1,0.3v2.1c0,0.1,0,0.2,0.1,0.3
			c0.1,0.1,0.2,0.1,0.3,0.1h2.8c0.1,0,0.2,0,0.3-0.1c0.1-0.1,0.1-0.2,0.1-0.3v-2.1c0-0.1,0-0.2-0.1-0.3
			C76.7,236.4,76.6,236.3,76.5,236.3L76.5,236.3z M76.5,236.3"/>
		<path class="st61" d="M71.2,234.9h-2.1v-15.2c0-0.1,0-0.2-0.1-0.3c-0.1-0.1-0.2-0.1-0.3-0.1h-2.1c-0.1,0-0.2,0-0.3,0.1
			c-0.1,0.1-0.1,0.2-0.1,0.3v15.2h-2.1c-0.2,0-0.3,0.1-0.3,0.2c-0.1,0.1,0,0.3,0.1,0.4l3.5,3.5c0.1,0.1,0.2,0.1,0.3,0.1
			c0.1,0,0.2,0,0.3-0.1l3.5-3.5c0.1-0.1,0.1-0.2,0.1-0.3c0-0.1,0-0.2-0.1-0.3C71.4,235,71.3,234.9,71.2,234.9L71.2,234.9z
			 M71.2,234.9"/>
		<path class="st61" d="M78.7,230.7h-5c-0.1,0-0.2,0-0.3,0.1c-0.1,0.1-0.1,0.2-0.1,0.3v2.1c0,0.1,0,0.2,0.1,0.3
			c0.1,0.1,0.2,0.1,0.3,0.1h5c0.1,0,0.2,0,0.3-0.1c0.1-0.1,0.1-0.2,0.1-0.3V231c0-0.1,0-0.2-0.1-0.3
			C78.8,230.7,78.8,230.7,78.7,230.7L78.7,230.7z M78.7,230.7"/>
		<path class="st61" d="M83.2,219.4c-0.1-0.1-0.2-0.1-0.3-0.1h-9.2c-0.1,0-0.2,0-0.3,0.1c-0.1,0.1-0.1,0.2-0.1,0.3v2.1
			c0,0.1,0,0.2,0.1,0.3c0.1,0.1,0.2,0.1,0.3,0.1h9.2c0.1,0,0.2,0,0.3-0.1c0.1-0.1,0.1-0.2,0.1-0.3v-2.1
			C83.3,219.6,83.2,219.5,83.2,219.4L83.2,219.4z M83.2,219.4"/>
		<path class="st61" d="M80.8,225h-7.1c-0.1,0-0.2,0-0.3,0.1c-0.1,0.1-0.1,0.2-0.1,0.3v2.1c0,0.1,0,0.2,0.1,0.3
			c0.1,0.1,0.2,0.1,0.3,0.1h7.1c0.1,0,0.2,0,0.3-0.1c0.1-0.1,0.1-0.2,0.1-0.3v-2.1c0-0.1,0-0.2-0.1-0.3C81,225,80.9,225,80.8,225
			L80.8,225z M80.8,225"/>
	</g>
	<g>
		<path class="st61" d="M83.2,294.2h-1.7v-2.5c0-0.4-0.3-0.7-0.7-0.7h-17c-0.4,0-0.7,0.3-0.7,0.7v17.8c0,0.4,0.3,0.7,0.7,0.7h19.4
			c0.4,0,0.7-0.3,0.7-0.7V295C84,294.6,83.6,294.2,83.2,294.2L83.2,294.2z M80.1,294.2h-2.7v-1.8h2.7V294.2z M75.9,294.2h-2.7v-1.8
			h2.7V294.2z M71.7,294.2H69v-1.8h2.7V294.2z M82.5,308.8h-18v-16.4h3v2.5c0,0.4,0.3,0.7,0.7,0.7h14.2V308.8z M82.5,308.8"/>
		<rect x="63.1" y="291" class="st60" width="20.9" height="19.3"/>
	</g>
	<g>
		<g>
			<path class="st17" d="M145.5,429.5l-0.2,2h3.7l0-0.4C147.6,431.1,146.3,430.6,145.5,429.5z"/>
			<path class="st18" d="M145.9,425.4l-0.4,4c0.8,1.1,2.1,1.6,3.4,1.6l-0.6-5.7L145.9,425.4z"/>
		</g>
		<g>
			<path class="st18" d="M143.3,423.1c0,0.9-0.7,1.7-1.5,1.7c-0.8,0-1.5-0.7-1.5-1.7c0-0.9,0.4-1.7,1.2-1.7
				C142.3,421.3,143.3,422.1,143.3,423.1z"/>
			<path class="st18" d="M151.1,423.1c0,0.9,0.7,1.7,1.5,1.7c0.8,0,1.5-0.7,1.5-1.7c0-0.9-0.4-1.7-1.2-1.7
				C152.1,421.3,151.1,422.1,151.1,423.1z"/>
		</g>
		<path class="st17" d="M148.4,428.6L148.4,428.6c-0.8,0.2-1.7,0.2-2.5,0l0,0c-2.4-0.6-4.1-2.9-3.8-5.5l0.4-4.1
			c0.2-2.4,2.3-4.2,4.7-4.2h0c2.4,0,4.4,1.8,4.7,4.2l0.4,4.1C152.5,425.6,150.9,428,148.4,428.6z"/>
		<g>
			<path class="st22" d="M147.1,421.3c-0.3,0.7-0.5,1.5-0.4,2.2c0.1,0.5,0.8,0.4,0.8-0.1c0-0.7-0.2-1.4-0.3-2.1
				C147.3,421.2,147.2,421.2,147.1,421.3L147.1,421.3z"/>
		</g>
		<g>
			<g>
				<path class="st21" d="M145.1,421.4c0,0.4-0.2,0.7-0.3,0.7c-0.2,0-0.3-0.3-0.3-0.7s0.2-0.7,0.3-0.7
					C145,420.7,145.1,421,145.1,421.4z"/>
				<g>
					<path class="st21" d="M144.9,420.9c0.1-0.4-0.7-0.2-0.9-0.2c-0.3-0.1-0.4,0.3-0.1,0.4c0.2,0.1,0.4,0,0.6-0.1
						c0.1,0,0.1-0.1,0.2-0.1C144.8,420.9,144.8,420.9,144.9,420.9C144.9,420.9,144.9,420.9,144.9,420.9L144.9,420.9z"/>
				</g>
			</g>
			<g>
				<path class="st21" d="M149.3,421.4c0,0.4,0.2,0.7,0.3,0.7c0.2,0,0.3-0.3,0.3-0.7s-0.2-0.7-0.3-0.7
					C149.4,420.7,149.3,421,149.3,421.4z"/>
				<g>
					<path class="st21" d="M149.4,420.9c0.1,0,0.1,0,0.2,0c0.1,0,0.2,0.1,0.3,0.1c0.2,0.1,0.3,0.1,0.5,0c0.3-0.1,0.2-0.5-0.1-0.4
						c-0.2,0.1-0.5-0.1-0.7,0C149.5,420.7,149.3,420.8,149.4,420.9L149.4,420.9z"/>
				</g>
			</g>
		</g>
		<path class="st62" d="M150.8,416.6c0,0,1.2-3.1-0.9-4.7c-2.1-1.6-10.8,1.2-8.3,9.5l0.7,0.2c0,0,0.1-4.6,2.1-5.7
			S149.5,415.1,150.8,416.6z"/>
		<path class="st63" d="M150.8,416.6c0,0-3-1.4-5.4-0.3c-1.8,0.8-3.3,6.5-3.3,6.5s-0.7-9.3,4.4-9.1
			C150.2,413.9,150.8,416.6,150.8,416.6z"/>
		<path class="st62" d="M150.8,416.6c0,0,1.5-0.2,1.6,0.7c0.2,0.9-0.2,5.5-0.2,5.5S150.2,419.4,150.8,416.6z"/>
		<path class="st62" d="M150.8,416.8c0.5,0.2,0.9-0.1,1.1-0.5c0.3-0.5,0.5-0.9,0.5-1.5c0-0.3-0.2-0.7-0.6-0.7c-0.1,0-0.1,0-0.2,0
			c-0.2,0-0.6,0.2-0.6,0.4c-0.1,0.3-0.2,0.5-0.3,0.8c0,0.2-0.1,0.4-0.1,0.6C150.5,416.2,150.4,416.7,150.8,416.8L150.8,416.8z"/>
		<path class="st62" d="M140.6,417.9c1.2-0.8,2.4-1.5,3.7-2.3c1.4-0.8,3.1-1.2,4.4-2.1c0.9-0.6,1.4-2.2,0.4-3
			c-2.3-1.8-5.5-0.7-7.3,1.4c-1.3,1.5-2.5,3.9-1.5,5.9C140.3,417.9,140.5,418,140.6,417.9L140.6,417.9z"/>
		<path class="st62" d="M141,419c0.6-0.4,1.1-0.9,1.6-1.5c0.4-0.7,1-1.3,0.9-2.1c0-0.6-0.5-1.1-1.1-1.1c-1.1,0-2.1,1.1-2.4,2.2
			c-0.3,1-0.2,2,0.7,2.6C140.8,419.1,140.9,419.1,141,419L141,419z"/>
		<path class="st62" d="M150.6,416.4c-0.7,0.2-1.1,1.2-1.2,1.9c-0.2,1,0,2,0.4,2.9c0.3,0.6,1.1,0.8,1.6,0.5c0.6-0.3,0.9-0.9,0.8-1.6
			c-0.1-0.9-0.3-1.8-0.6-2.6C151.5,417.2,151.3,416.2,150.6,416.4L150.6,416.4z"/>
		<g>
			<g>
				<path class="st63" d="M143.6,419.9c0.1,0,0.1-0.1,0-0.1C143.5,419.8,143.5,419.9,143.6,419.9L143.6,419.9z"/>
			</g>
		</g>
		<path class="st63" d="M143.7,420.1c0.1,0,0.1,0,0.2,0c0.2,0,0.3,0,0.5,0c0.2,0,0.3,0,0.5,0c0.2,0,0.5,0,0.7-0.2
			c0.2-0.2,0.3-0.4,0.2-0.7c-0.1-0.3-0.4-0.5-0.7-0.5c-0.3,0-0.7,0-1,0.1c-0.4,0.1-0.6,0.4-0.7,0.8
			C143.2,419.8,143.5,420,143.7,420.1L143.7,420.1z"/>
		<path class="st63" d="M151.4,419.6c-0.1-0.4-0.3-0.6-0.7-0.8c-0.3-0.1-0.7-0.2-1-0.1c-0.3,0-0.6,0.2-0.7,0.5
			c-0.1,0.3,0,0.5,0.2,0.7c0.2,0.2,0.5,0.2,0.7,0.2c0.1,0,0.3,0,0.5,0c0.3,0,0.4,0,0.7,0C151.2,420,151.5,419.8,151.4,419.6
			L151.4,419.6z"/>
		<g>
			<path class="st16" d="M146.7,425.2c0,0,0.4-0.5,0.7-0.7c0.4-0.2,1.2-0.2,1.2-0.2s0,1-0.7,1.2S146.7,425.2,146.7,425.2z"/>
			<path class="st64" d="M146.4,425.2c0.4,0.2,0.7,0.2,1.2,0c0.4-0.2,0.8-0.4,1.1-0.7c0.1-0.1,0.1-0.3,0-0.4c0,0-0.1-0.1-0.1-0.1
				c-0.1-0.1-0.3,0-0.4,0c-0.5,0.5-1.2,0.7-1.9,1C146.4,425.1,146.4,425.2,146.4,425.2L146.4,425.2z"/>
		</g>
		<path class="st65" d="M150.6,416.3c-1-1.5-2.9-2.3-4.7-1.9c-0.2,0-0.2,0.3,0,0.3c0.8,0.1,1.6,0.2,2.3,0.5c0.8,0.3,1.5,0.7,2.2,1.2
			C150.5,416.5,150.6,416.4,150.6,416.3L150.6,416.3z"/>
		<path class="st65" d="M149.6,416c-1.9-0.9-5-1.2-6.5,0.6c-0.1,0.1,0,0.2,0.1,0.2c2.1-0.6,4-1.2,6.3-0.5
			C149.7,416.4,149.8,416.1,149.6,416L149.6,416z"/>
		<path class="st19" d="M152.3,422.6c0.2,0,0.3,0.1,0.4,0.2c0,0,0.1,0.1,0.1,0c0,0,0,0.1,0,0.1c0.1,0.3,0.4,0.5,0.7,0.6
			c0.1,0,0.3,0,0.4-0.1c0.4-0.2,0.4-0.7,0.3-1c-0.2-0.4-0.5-0.7-1-0.8c-0.5-0.1-0.9,0.1-1.1,0.5C152,422.2,152.1,422.6,152.3,422.6
			L152.3,422.6z"/>
		<path class="st19" d="M142.2,422.2c-0.1-0.3-0.3-0.7-0.7-0.7c-0.4-0.1-0.7,0-1,0.2c-0.2,0.1-0.4,0.4-0.3,0.7
			c0.1,0.2,0.2,0.3,0.4,0.4c0.1,0,0.2,0,0.3,0c0.2,0,0.2-0.1,0.4-0.2c0,0,0.1,0,0.2,0c0.2,0,0.3-0.1,0.5-0.1
			C142.1,422.6,142.2,422.4,142.2,422.2L142.2,422.2z"/>
		<path class="st19" d="M140.8,422.2c-0.4,0.7,0,1.9,0.9,1.8c0.4,0,0.6-0.3,0.6-0.6c0-0.3-0.1-0.5-0.3-0.8c0-0.1-0.1-0.2-0.2-0.4
			C141.6,421.8,141,421.8,140.8,422.2L140.8,422.2z"/>
		<path class="st19" d="M152.7,422.1c-0.1,0.2-0.2,0.3-0.3,0.5c0,0.2,0,0.4-0.1,0.6c-0.1,0.3-0.1,0.7,0.2,0.9
			c0.3,0.2,0.7,0.1,0.9-0.2c0.2-0.3,0.2-0.7,0.2-1.1c0-0.4-0.3-0.6-0.6-0.8C152.9,421.9,152.8,422,152.7,422.1L152.7,422.1z"/>
	</g>
	<rect x="169.1" y="410.8" class="st5" width="197.5" height="5.6"/>
	<g>
		<rect x="169.1" y="423" class="st6" width="151.4" height="5.6"/>
		<path class="st5" d="M320.8,428.9h-152v-6.2h152V428.9z M169.4,428.3h150.8v-5H169.4V428.3z"/>
	</g>
</g>
</svg>
