<svg id="Layer_1" data-name="Layer 1" xmlns="http://www.w3.org/2000/svg" viewBox="0 0 102 102"><defs><style>.cls-1{fill:#34e2d9;}.cls-2{fill:#fff;}</style></defs><title>Home</title><circle class="cls-1" cx="51" cy="51" r="51"/><path class="cls-2" d="M64.36,46v5.26a3.76,3.76,0,0,0,1.06,2.61v1.79a1.38,1.38,0,0,0,2.76,0V53.22a1.36,1.36,0,0,0-.61-1.14,1,1,0,0,1-.45-.83V46a3.37,3.37,0,0,1,3.36-3.36h1.13A3.37,3.37,0,0,1,75,46v5.26a1,1,0,0,1-.45.83,1.34,1.34,0,0,0-.61,1.14v5.07a1.63,1.63,0,0,0,.9,1.45A40.07,40.07,0,0,1,82,64.36a1.17,1.17,0,0,1,.42.91v2.22H72.75a1.39,1.39,0,0,0,0,2.77H83.83a1.38,1.38,0,0,0,1.38-1.38V65.27a3.9,3.9,0,0,0-1.44-3,43.47,43.47,0,0,0-7.11-4.65V53.85a3.76,3.76,0,0,0,1.06-2.61V46a6.12,6.12,0,0,0-6.11-6.11H70.48A6.14,6.14,0,0,0,64.36,46Zm0,0"/><path class="cls-2" d="M18.17,70.26H29.42a1.39,1.39,0,0,0,0-2.77H19.56V65.27a1.21,1.21,0,0,1,.41-.91,39.41,39.41,0,0,1,7.23-4.62,1.61,1.61,0,0,0,.9-1.45V53.22a1.36,1.36,0,0,0-.61-1.14,1,1,0,0,1-.45-.83V46a3.37,3.37,0,0,1,3.35-3.36h1.13A3.37,3.37,0,0,1,34.88,46v5.26a1,1,0,0,1-.45.83,1.35,1.35,0,0,0-.62,1.14v2.54a1.39,1.39,0,0,0,2.77,0v-1.9a3.76,3.76,0,0,0,1.06-2.61V46a6.13,6.13,0,0,0-6.12-6.12H30.39A6.12,6.12,0,0,0,24.28,46v5.26a3.76,3.76,0,0,0,1.06,2.61v3.73a42.38,42.38,0,0,0-7.11,4.65,4,4,0,0,0-1.44,3.05v3.59a1.38,1.38,0,0,0,1.38,1.38Z"/><path class="cls-2" d="M59.3,46.06V39.25a7.51,7.51,0,0,0-7.51-7.51H50.32a7.51,7.51,0,0,0-7.51,7.51v6.81a4.46,4.46,0,0,0,1.37,3.21V54.5a54.87,54.87,0,0,0-9.36,6.09,4.66,4.66,0,0,0-1.7,3.62v4.67a1.38,1.38,0,0,0,1.38,1.38H67.6A1.38,1.38,0,0,0,69,68.88V64.21a4.66,4.66,0,0,0-1.7-3.62,56.59,56.59,0,0,0-9.36-6.09V49.27a4.41,4.41,0,0,0,1.38-3.21Z"/><path class="cls-2" d="M65.53,62.73a1.89,1.89,0,0,1,.7,1.48v3.28H35.9V64.21a1.91,1.91,0,0,1,.69-1.48,52.63,52.63,0,0,1,9.42-6,1.71,1.71,0,0,0,1-1.5V48.61a1.37,1.37,0,0,0-.62-1.14,1.69,1.69,0,0,1-.75-1.4v-6.8a4.75,4.75,0,0,1,4.75-4.75H51.8a4.75,4.75,0,0,1,4.75,4.75v6.8a1.68,1.68,0,0,1-.75,1.4,1.35,1.35,0,0,0-.62,1.14v6.57a1.69,1.69,0,0,0,1,1.5,54,54,0,0,1,9.4,6Z"/></svg>