<svg xmlns="http://www.w3.org/2000/svg" xmlns:xlink="http://www.w3.org/1999/xlink" width="58" height="59" viewBox="0 0 58 59"><defs><path id="8vw1a" d="M714.93 8861.356a1.812 1.812 0 0 0 1.812-1.812v-16.313h16.313a1.812 1.812 0 0 0 0-3.625H714.93a1.813 1.813 0 0 0-1.812 1.813v18.125c0 1 .81 1.812 1.812 1.812z"/><path id="8vw1b" d="M769.305 8839.606H751.18a1.812 1.812 0 0 0 0 3.625h16.313v16.312a1.813 1.813 0 1 0 3.624 0v-18.125c0-1-.811-1.812-1.812-1.812z"/><path id="8vw1c" d="M733.055 8893.981h-16.312v-16.312a1.813 1.813 0 0 0-3.625 0v18.124c0 1.001.81 1.813 1.812 1.813h18.125a1.813 1.813 0 0 0 0-3.625z"/><path id="8vw1d" d="M769.305 8875.856a1.812 1.812 0 0 0-1.812 1.812v16.313H751.18a1.812 1.812 0 0 0 0 3.625h18.125a1.813 1.813 0 0 0 1.812-1.813v-18.125c0-1-.811-1.812-1.812-1.812z"/><path id="8vw1e" d="M749.94 8879.387a1.814 1.814 0 0 0 1.146-2.29l-7.25-21.75a1.886 1.886 0 0 0-3.437 0l-7.25 21.75a1.812 1.812 0 1 0 3.437 1.146l2.004-6.012h7.055l2.004 6.011a1.812 1.812 0 0 0 2.29 1.145zm-10.142-10.78l2.319-6.957 2.32 6.956z"/></defs><g><g transform="translate(-713 -8839)"><use fill="#fcb415" xlink:href="#8vw1a"/></g><g transform="translate(-713 -8839)"><use fill="#fcb415" xlink:href="#8vw1b"/></g><g transform="translate(-713 -8839)"><use fill="#fcb415" xlink:href="#8vw1c"/></g><g transform="translate(-713 -8839)"><use fill="#fcb415" xlink:href="#8vw1d"/></g><g transform="translate(-713 -8839)"><use fill="#fcb415" xlink:href="#8vw1e"/></g></g></svg>