<svg xmlns="http://www.w3.org/2000/svg" xmlns:xlink="http://www.w3.org/1999/xlink" width="58" height="58" viewBox="0 0 58 58"><defs><path id="au4wa" d="M1025.5 1154.5l.015.045c.161.469 1.531 4.523 1.751 7.157.234 2.798-6.766 3.798-6.766 3.798l-4-3v-4l8-4h1z"/><path id="au4wb" d="M1027.377 1195h-19.251a1.126 1.126 0 0 1-1.126-1.126v-19.251a1.126 1.126 0 1 1 2.252 0v18.125h18.125a1.126 1.126 0 1 1 0 2.252z"/><path id="au4wc" d="M1063.515 1195h-19.25a1.126 1.126 0 1 1 0-2.252h18.125v-18.125a1.125 1.125 0 1 1 2.251 0v19.251c0 .622-.504 1.126-1.126 1.126z"/><path id="au4wd" d="M1063.515 1158.861a1.125 1.125 0 0 1-1.125-1.125v-18.126h-18.126a1.126 1.126 0 1 1 0-2.25h19.251c.622 0 1.126.503 1.126 1.124v19.252c0 .621-.504 1.125-1.126 1.125z"/><path id="au4we" d="M1008.126 1158.861a1.126 1.126 0 0 1-1.126-1.125v-19.252c0-.62.504-1.125 1.126-1.125h19.251a1.126 1.126 0 1 1 0 2.251h-18.126v18.126c0 .621-.503 1.125-1.125 1.125z"/><path id="au4wf" d="M1035.823 1167.305a1.126 1.126 0 0 1-.001-2.251 1.126 1.126 0 1 1 0 2.25z"/><path id="au4wg" d="M1057.924 1165.054a1.126 1.126 0 0 1 0 2.25h-4.577c-.559 8.79-7.612 15.844-16.4 16.402v4.577a1.126 1.126 0 1 1-2.252 0v-4.577c-8.789-.558-15.843-7.612-16.4-16.401h-4.579a1.125 1.125 0 0 1 0-2.251h4.578c.558-8.79 7.612-15.843 16.401-16.4v-4.58a1.125 1.125 0 0 1 2.251 0v4.58c8.79.557 15.842 7.61 16.401 16.4zm-20.978-3.415a.922.922 0 0 1-.015.176 4.518 4.518 0 0 1 3.254 3.254c.058-.01.116-.015.177-.015h5.075a9.7 9.7 0 0 0-8.49-8.491zm-5.49 5.652c-.058.01-.116.014-.177.014h-5.076c.518 4.44 4.05 7.975 8.492 8.492v-5.076c0-.061.004-.12.014-.176a4.523 4.523 0 0 1-3.254-3.254zm5.475 3.254a.922.922 0 0 1 .015.176v5.076a9.702 9.702 0 0 0 8.491-8.492h-5.075c-.06 0-.119-.004-.177-.014a4.52 4.52 0 0 1-3.254 3.254zm-1.11-6.617a2.253 2.253 0 0 0-2.252 2.252 2.253 2.253 0 0 0 2.251 2.252 2.254 2.254 0 0 0 2.252-2.252 2.254 2.254 0 0 0-2.252-2.252zm-1.112-2.113a1.012 1.012 0 0 1-.014-.176v-5.076a9.703 9.703 0 0 0-8.492 8.49h5.076c.061 0 .12.006.176.016a4.522 4.522 0 0 1 3.254-3.254zm-.014-10.906c-7.547.552-13.593 6.599-14.145 14.145h3.39c.533-5.685 5.071-10.221 10.755-10.755zm-14.145 16.396c.552 7.547 6.598 13.594 14.145 14.145v-3.39c-5.684-.533-10.222-5.07-10.755-10.755zm16.396 14.145c7.547-.551 13.593-6.598 14.145-14.145h-3.39c-.534 5.685-5.07 10.222-10.755 10.756zm14.145-16.396c-.552-7.546-6.598-13.593-14.145-14.145v3.39c5.684.534 10.221 5.07 10.755 10.755z"/></defs><g><g transform="translate(-1007 -1137)"><use fill="#fff" xlink:href="#au4wa"/></g><g transform="translate(-1007 -1137)"><use fill="#56d4fe" xlink:href="#au4wb"/></g><g transform="translate(-1007 -1137)"><use fill="#56d4fe" xlink:href="#au4wc"/></g><g transform="translate(-1007 -1137)"><use fill="#56d4fe" xlink:href="#au4wd"/></g><g transform="translate(-1007 -1137)"><use fill="#56d4fe" xlink:href="#au4we"/></g><g transform="translate(-1007 -1137)"><use fill="#56d4fe" xlink:href="#au4wf"/></g><g transform="translate(-1007 -1137)"><use fill="#56d4fe" xlink:href="#au4wg"/></g></g></svg>