<svg xmlns="http://www.w3.org/2000/svg" xmlns:xlink="http://www.w3.org/1999/xlink" width="59" height="59" viewBox="0 0 59 59"><defs><path id="2mcva" d="M123.621 2598.357a1.812 1.812 0 0 0 1.812-1.812v-16.313h16.313a1.812 1.812 0 0 0 0-3.625h-18.125a1.813 1.813 0 0 0-1.812 1.813v18.125c0 1 .811 1.812 1.812 1.812z"/><path id="2mcvb" d="M177.996 2576.607h-18.125a1.812 1.812 0 0 0 0 3.625h16.313v16.312a1.813 1.813 0 1 0 3.624 0v-18.125c0-1-.81-1.812-1.812-1.812z"/><path id="2mcvc" d="M141.746 2630.982h-16.312v-16.312a1.813 1.813 0 0 0-3.625 0v18.124c0 1 .811 1.813 1.812 1.813h18.125a1.813 1.813 0 0 0 0-3.625z"/><path id="2mcvd" d="M177.996 2612.857a1.812 1.812 0 0 0-1.812 1.812v16.313h-16.313a1.812 1.812 0 0 0 0 3.625h18.125a1.813 1.813 0 0 0 1.812-1.813v-18.125c0-1-.81-1.812-1.812-1.812z"/><path id="2mcve" d="M144.528 2612.528v3.728c1.665.507 3.547.724 5.212.724 3.764 0 5.827-1.484 5.827-5.212 0-7.057-13.5-3.619-13.5-12.16 0-4.779 3.547-6.624 7.782-6.624 3.655 0 5.863.94 7.637 1.99v4.85h-2.462v-3.583c-1.267-.579-2.86-1.013-4.995-1.013-3.004 0-5.284 1.085-5.284 4.09 0 6.514 13.464 3.221 13.464 12.161 0 5.356-3.474 7.71-8.614 7.71-2.823 0-5.682-.435-7.564-1.304v-5.357z"/><path id="2mcvf" d="M144.528 2612.528v3.728c1.665.507 3.547.724 5.212.724 3.764 0 5.827-1.484 5.827-5.212 0-7.057-13.5-3.619-13.5-12.16 0-4.779 3.547-6.624 7.782-6.624 3.655 0 5.863.94 7.637 1.99v4.85h-2.462v-3.583c-1.267-.579-2.86-1.013-4.995-1.013-3.004 0-5.284 1.085-5.284 4.09 0 6.514 13.464 3.221 13.464 12.161 0 5.356-3.474 7.71-8.614 7.71-2.823 0-5.682-.435-7.564-1.304v-5.357h2.497z"/></defs><g><g transform="translate(-121 -2576)"><use fill="#fcb415" xlink:href="#2mcva"/></g><g transform="translate(-121 -2576)"><use fill="#fcb415" xlink:href="#2mcvb"/></g><g transform="translate(-121 -2576)"><use fill="#fcb415" xlink:href="#2mcvc"/></g><g transform="translate(-121 -2576)"><use fill="#fcb415" xlink:href="#2mcvd"/></g><g transform="translate(-121 -2576)"><use fill="#fcb415" xlink:href="#2mcve"/></g><g transform="translate(-121 -2576)"><use fill="#fff" fill-opacity="0" stroke="#fcb415" stroke-miterlimit="50" xlink:href="#2mcvf"/></g></g></svg>