<svg xmlns="http://www.w3.org/2000/svg" xmlns:xlink="http://www.w3.org/1999/xlink" width="63" height="58" viewBox="0 0 63 58"><defs><path id="8p85a" d="M1351.207 8870.293a3.797 3.797 0 0 0-5.226-1.995l-2.815 1.41-5.748-7.663a1.07 1.07 0 0 0-.256-.242l-6.27-4.179a1.058 1.058 0 0 0-.418-.164l-13.586-2.09a1.044 1.044 0 0 0-.896.293l-7.791 7.761a3.344 3.344 0 0 0-.01 4.73l.01.01a3.357 3.357 0 0 0 4.568.15l6.313-5.525 5.6 1.601-4.687 10.301-7.192 10.273-8.55 7.694a3.717 3.717 0 0 0 4.844 5.637l9.418-7.713 5.63-5.628 7.14 5.355-1.59 11.086a3.61 3.61 0 0 0 .848 2.878 3.645 3.645 0 0 0 2.799 1.247 3.691 3.691 0 0 0 3.63-3.002l2.733-14.572a1.044 1.044 0 0 0-.34-.978l-7.826-6.843 3.33-9.16 6.153 7.03c.3.342.79.451 1.208.266l7.056-3.12a3.72 3.72 0 0 0 1.92-4.848zm-2.767 2.935l-6.353 2.81-6.81-7.784a1.046 1.046 0 0 0-1.767.331l-4.18 11.498c-.148.403-.031.857.293 1.141l7.912 6.924-2.625 13.986a1.616 1.616 0 0 1-1.637 1.295 1.523 1.523 0 0 1-1.51-1.737l1.674-11.698a1.046 1.046 0 0 0-.408-.986l-8.36-6.27a1.045 1.045 0 0 0-1.366.097l-6.193 6.2-9.341 7.642a1.624 1.624 0 0 1-2.115-2.464l8.636-7.773a.987.987 0 0 0 .157-.178l7.315-10.45a.939.939 0 0 0 .095-.166l5.226-11.495a1.046 1.046 0 0 0-.664-1.438l-7.315-2.089a1.037 1.037 0 0 0-.976.218l-6.741 5.898a1.256 1.256 0 0 1-1.715-1.835l7.42-7.39 12.834 1.977 5.925 3.951 6.165 8.218c.303.403.852.533 1.303.307l3.597-1.802a1.687 1.687 0 0 1 1.358-.07c.474.186.844.567 1.015 1.046a1.622 1.622 0 0 1-.85 2.087z"/><path id="8p85b" d="M1295.83 8856.4v-2.09h13.59v2.09z"/><path id="8p85c" d="M1291.65 8856.4v-2.09h2.09v2.09z"/><path id="8p85d" d="M1300.01 8864.76v-2.09h2.09v2.09z"/><path id="8p85e" d="M1289.56 8864.76v-2.09h8.36v2.09z"/><path id="8p85f" d="M1294.78 8873.12v-2.09h10.45v2.09z"/><path id="8p85g" d="M1291.65 8881.48v-2.09h17.77v2.09z"/><path id="8p85h" d="M1293.73 8889.84v-2.09h8.36v2.09z"/><path id="8p85i" d="M1289.56 8889.84v-2.09h2.09v2.09z"/><path id="8p85j" d="M1291.65 8898.2v-2.09h7.32v2.09z"/><path id="8p85k" d="M1342.852 8853.79a5.747 5.747 0 1 1-5.748-5.747h4.703c.577 0 1.045.468 1.045 1.045zm-5.748-3.657a3.657 3.657 0 0 0-3.657 3.657c0 .051.014.097.014.146a11.65 11.65 0 0 1 7.301-2.746v-1.057zm-2.859 5.91a3.642 3.642 0 0 0 6.517-2.253v-.51a9.58 9.58 0 0 0-6.517 2.763z"/></defs><g><g transform="translate(-1289 -8848)"><use fill="#34e2d9" xlink:href="#8p85a"/></g><g transform="translate(-1289 -8848)"><use fill="#34e2d9" xlink:href="#8p85b"/></g><g transform="translate(-1289 -8848)"><use fill="#34e2d9" xlink:href="#8p85c"/></g><g transform="translate(-1289 -8848)"><use fill="#34e2d9" xlink:href="#8p85d"/></g><g transform="translate(-1289 -8848)"><use fill="#34e2d9" xlink:href="#8p85e"/></g><g transform="translate(-1289 -8848)"><use fill="#34e2d9" xlink:href="#8p85f"/></g><g transform="translate(-1289 -8848)"><use fill="#34e2d9" xlink:href="#8p85g"/></g><g transform="translate(-1289 -8848)"><use fill="#34e2d9" xlink:href="#8p85h"/></g><g transform="translate(-1289 -8848)"><use fill="#34e2d9" xlink:href="#8p85i"/></g><g transform="translate(-1289 -8848)"><use fill="#34e2d9" xlink:href="#8p85j"/></g><g transform="translate(-1289 -8848)"><use fill="#34e2d9" xlink:href="#8p85k"/></g></g></svg>