<svg xmlns="http://www.w3.org/2000/svg" xmlns:xlink="http://www.w3.org/1999/xlink" width="56" height="56" viewBox="0 0 56 56"><defs><path id="g2rba" d="M1018 3859.936c-15.439 0-28 12.561-28 28 0 15.44 12.561 28 28 28s28-12.56 28-28c0-15.439-12.561-28-28-28zm0 52.555c-13.537 0-24.555-11.018-24.555-24.555 0-13.537 11.018-24.555 24.555-24.555 13.537 0 24.555 11.018 24.555 24.555 0 13.537-11.018 24.555-24.555 24.555z"/><path id="g2rbb" d="M1021.328 3876.772a2.884 2.884 0 0 1-2.882 2.882 2.885 2.885 0 0 1-2.882-2.882 2.883 2.883 0 0 1 5.764 0z"/><path id="g2rbc" d="M1017.689 3884.352c-.951 0-1.726.775-1.726 1.725v14.647a1.725 1.725 0 0 0 3.447 0v-14.647c0-.95-.77-1.725-1.721-1.725z"/></defs><g><g transform="translate(-990 -3860)"><use fill="#71cc77" xlink:href="#g2rba"/></g><g transform="translate(-990 -3860)"><use fill="#71cc77" xlink:href="#g2rbb"/></g><g transform="translate(-990 -3860)"><use fill="#71cc77" xlink:href="#g2rbc"/></g></g></svg>