<svg id="Layer_1" data-name="Layer 1" xmlns="http://www.w3.org/2000/svg" viewBox="0 0 102 102"><defs><style>.cls-1{fill:#71cc77;}.cls-2{fill:#fff;}</style></defs><title>Home</title><circle class="cls-1" cx="51.02" cy="51" r="51"/><path class="cls-2" d="M53.19,34.23a7.77,7.77,0,0,0,3.12-6.4c0-3.69-.75-7.46-6.29-7.46s-6.28,3.77-6.28,7.46a7.74,7.74,0,0,0,3.12,6.4,9.62,9.62,0,0,0-7.12,9A4.67,4.67,0,0,0,43,47.85a19.34,19.34,0,0,0,7,.94,19.34,19.34,0,0,0,7-.94,4.67,4.67,0,0,0,3.29-4.59,9.62,9.62,0,0,0-7.11-9Zm0,0"/><path class="cls-2" d="M33.5,62.13a7.71,7.71,0,0,0,3.12-6.39c0-3.69-.74-7.47-6.28-7.47s-6.29,3.78-6.29,7.47a7.73,7.73,0,0,0,3.12,6.39,9.63,9.63,0,0,0-7.11,9,4.67,4.67,0,0,0,3.29,4.59,19.38,19.38,0,0,0,7,.93,19.28,19.28,0,0,0,7-.93,4.67,4.67,0,0,0,3.3-4.59,9.63,9.63,0,0,0-7.12-9Zm0,0"/><path class="cls-2" d="M72.87,62.13A7.71,7.71,0,0,0,76,55.74c0-3.69-.74-7.47-6.28-7.47s-6.29,3.78-6.29,7.47a7.73,7.73,0,0,0,3.12,6.39,9.63,9.63,0,0,0-7.11,9,4.67,4.67,0,0,0,3.29,4.59,19.38,19.38,0,0,0,7,.93,19.38,19.38,0,0,0,7-.93A4.67,4.67,0,0,0,80,71.17a9.63,9.63,0,0,0-7.12-9Zm0,0"/><path class="cls-2" d="M57,76.17a.75.75,0,0,0-.4-.4.72.72,0,0,0-.56,0,16.18,16.18,0,0,1-6,.94,16.18,16.18,0,0,1-6-.94.73.73,0,0,0-.56,0,.7.7,0,0,0-.39.4l-.55,1.36a.75.75,0,0,0,.41,1A19,19,0,0,0,50,79.63a19,19,0,0,0,7.08-1.14.74.74,0,0,0,.41-1Zm0,0"/><path class="cls-2" d="M28.37,44.55l1.35.57a.79.79,0,0,0,.29.06.73.73,0,0,0,.68-.44,16.19,16.19,0,0,1,3.57-4.9,16.31,16.31,0,0,1,4.9-3.57.73.73,0,0,0,.39-.4.75.75,0,0,0,0-.57L39,34a.74.74,0,0,0-1-.38,19.11,19.11,0,0,0-5.82,4.19A19.11,19.11,0,0,0,28,43.58a.74.74,0,0,0,.38,1Zm0,0"/><path class="cls-2" d="M60.89,36.27a16.17,16.17,0,0,1,4.89,3.57,16.07,16.07,0,0,1,3.58,4.9.73.73,0,0,0,.67.44.72.72,0,0,0,.29-.06l1.35-.57a.73.73,0,0,0,.38-1,18.94,18.94,0,0,0-4.19-5.82A19,19,0,0,0,62,33.57a.73.73,0,0,0-1,.38L60.5,35.3a.75.75,0,0,0,0,.57.78.78,0,0,0,.4.4Zm0,0"/></svg>