<svg xmlns="http://www.w3.org/2000/svg" xmlns:xlink="http://www.w3.org/1999/xlink" width="48" height="58" viewBox="0 0 48 58"><defs><path id="a58wa" d="M164.469 5052.083a1.096 1.096 0 1 1-2.193 0 1.096 1.096 0 0 1 2.193 0z"/><path id="a58wb" d="M151.313 5036.734a1.096 1.096 0 1 1-2.193 0 1.096 1.096 0 0 1 2.192 0z"/><path id="a58wc" d="M149.12 5077.518a1.097 1.097 0 1 1-2.195 0 1.097 1.097 0 0 1 2.195 0z"/><path id="a58wd" d="M144.734 5060.854a1.097 1.097 0 1 1-2.194-.001 1.097 1.097 0 0 1 2.194 0z"/><path id="a58we" d="M149.175 5044.33c0 .472.302.891.75 1.041l4.413 1.471 1.471 4.413a1.096 1.096 0 0 0 2.08 0l1.471-4.413 4.414-1.47a1.098 1.098 0 0 0 0-2.082l-4.414-1.47-1.471-4.414a1.096 1.096 0 0 0-2.08 0l-1.471 4.413-4.413 1.471c-.448.15-.75.568-.75 1.04zm6.376-.604c.328-.109.584-.366.694-.693l.604-1.814.604 1.814c.109.327.367.584.694.693l1.813.604-1.813.605a1.098 1.098 0 0 0-.694.693l-.604 1.814-.604-1.814a1.098 1.098 0 0 0-.694-.693l-1.813-.605z"/><path id="a58wf" d="M148.023 5026.867c12.695 0 23.023 10.329 23.023 23.023a22.879 22.879 0 0 1-4.972 14.293 3.294 3.294 0 0 1 2.78 3.249 3.292 3.292 0 0 1-2.193 3.103v6.076a3.294 3.294 0 0 1 2.193 3.1 3.292 3.292 0 0 1-3.289 3.289h-35.084a3.293 3.293 0 0 1-3.289-3.29c0-1.428.917-2.647 2.193-3.1v-6.077a3.29 3.29 0 0 1 .587-6.351A22.874 22.874 0 0 1 125 5049.89c0-12.694 10.328-23.023 23.023-23.023zm0 2.193c-11.486 0-20.83 9.344-20.83 20.83 0 5.334 2 10.376 5.64 14.253h30.381a20.71 20.71 0 0 0 5.64-14.253c0-11.486-9.345-20.83-20.83-20.83zm17.542 51.747a1.096 1.096 0 0 0 0-2.192H152.41a1.097 1.097 0 1 1 0-2.193h12.06v-5.701h-32.89v5.7h12.06a1.096 1.096 0 0 1 0 2.194H130.48a1.097 1.097 0 0 0 0 2.192zm1.096-13.375c0-.604-.49-1.096-1.096-1.096h-35.084a1.096 1.096 0 0 0 0 2.193h35.084c.605 0 1.096-.492 1.096-1.097z"/><path id="a58wg" d="M134.843 5056.374l1.298 2.597a1.096 1.096 0 1 0 1.962 0l1.3-2.597 2.595-1.298a1.095 1.095 0 0 0 0-1.96l-2.596-1.299-1.299-2.598a1.098 1.098 0 0 0-1.962.001l-1.298 2.597-2.597 1.298a1.096 1.096 0 0 0 0 1.961zm1.308-2.759c.212-.106.385-.278.49-.49l.482-.963.482.963c.105.212.277.384.49.49l.961.48-.96.481a1.084 1.084 0 0 0-.49.491l-.483.963-.482-.963a1.093 1.093 0 0 0-.49-.49l-.962-.48z"/><path id="a58wh" d="M134.867 5042.216h1.096v1.096a1.096 1.096 0 1 0 2.193 0v-1.096h1.096a1.097 1.097 0 1 0 0-2.193h-1.096v-1.096a1.097 1.097 0 1 0-2.193 0v1.096h-1.096a1.096 1.096 0 0 0 0 2.193z"/><path id="a58wi" d="M156.794 5057.565h-1.096v-1.096a1.096 1.096 0 1 0-2.193 0v1.096h-1.096a1.097 1.097 0 1 0 0 2.193h1.096v1.095a1.097 1.097 0 1 0 2.193 0v-1.096h1.096a1.096 1.096 0 1 0 0-2.192z"/></defs><g><g transform="translate(-124 -5026)"><use fill="#34e2d9" xlink:href="#a58wa"/></g><g transform="translate(-124 -5026)"><use fill="#34e2d9" xlink:href="#a58wb"/></g><g transform="translate(-124 -5026)"><use fill="#34e2d9" xlink:href="#a58wc"/></g><g transform="translate(-124 -5026)"><use fill="#34e2d9" xlink:href="#a58wd"/></g><g transform="translate(-124 -5026)"><use fill="#34e2d9" xlink:href="#a58we"/></g><g transform="translate(-124 -5026)"><use fill="#34e2d9" xlink:href="#a58wf"/></g><g transform="translate(-124 -5026)"><use fill="#fff" fill-opacity="0" stroke="#34e2d9" stroke-miterlimit="50" xlink:href="#a58wf"/></g><g transform="translate(-124 -5026)"><use fill="#34e2d9" xlink:href="#a58wg"/></g><g transform="translate(-124 -5026)"><use fill="#34e2d9" xlink:href="#a58wh"/></g><g transform="translate(-124 -5026)"><use fill="#34e2d9" xlink:href="#a58wi"/></g></g></svg>