<svg id="Layer_1" data-name="Layer 1" xmlns="http://www.w3.org/2000/svg" viewBox="0 0 102 102"><defs><style>.cls-1{fill:#71cc77;}.cls-2{fill:#fff;}</style></defs><title>Home</title><circle class="cls-1" cx="51" cy="51" r="51"/><path class="cls-2" d="M35.19,29.71a3.89,3.89,0,0,1,0,5.49,3.89,3.89,0,0,1-5.5,0,3.88,3.88,0,0,1,2.75-6.62,3.75,3.75,0,0,1,2.75,1.13Z"/><path class="cls-2" d="M55.7,77.59A4.7,4.7,0,1,1,51,72.9a4.7,4.7,0,0,1,4.7,4.69Zm0,0"/><path class="cls-2" d="M55.7,24.41a4.7,4.7,0,1,1-4.7-4.7,4.7,4.7,0,0,1,4.7,4.7Z"/><path class="cls-2" d="M82.29,51a4.7,4.7,0,1,1-4.7-4.7,4.7,4.7,0,0,1,4.7,4.7Zm0,0"/><path class="cls-2" d="M29.1,51a4.7,4.7,0,1,1-4.69-4.7A4.7,4.7,0,0,1,29.1,51Z"/><path class="cls-2" d="M51,64.64a1.21,1.21,0,0,0-1.21,1.21v6a5.91,5.91,0,1,0,2.42,0v-6A1.21,1.21,0,0,0,51,64.64Z"/><path class="cls-2" d="M54.5,77.59a3.5,3.5,0,1,1-3.5-3.5,3.5,3.5,0,0,1,3.5,3.5Z"/><path class="cls-2" d="M64.86,66.56a6,6,0,0,0-1,3.24,5.91,5.91,0,1,0,5.91-5.91,5.77,5.77,0,0,0-3.24,1l-4.21-4.21a1.2,1.2,0,0,0-1.7,1.7Z"/><path class="cls-2" d="M72.27,67.34a3.51,3.51,0,0,1,0,5,3.47,3.47,0,0,1-2.47,1,3.49,3.49,0,1,1,0-7,3.31,3.31,0,0,1,2.47,1Z"/><path class="cls-2" d="M60.65,41.36a1.2,1.2,0,0,0,.85.35,1.24,1.24,0,0,0,.85-.35l4.21-4.22a6,6,0,0,0,3.24,1,5.9,5.9,0,1,0-5.91-5.91,5.77,5.77,0,0,0,1,3.24l-4.21,4.21a1.21,1.21,0,0,0,0,1.71Z"/><path class="cls-2" d="M67.34,29.73a3.44,3.44,0,0,1,2.47-1,3.48,3.48,0,0,1,2.48,1,3.5,3.5,0,0,1-2.48,6,3.5,3.5,0,0,1-2.47-6Z"/><path class="cls-2" d="M41.36,60.65a1.21,1.21,0,0,0-1.71,0l-4.21,4.21a6,6,0,0,0-3.24-1,5.92,5.92,0,1,0,4.94,2.67l4.22-4.21a1.22,1.22,0,0,0,0-1.7Z"/><path class="cls-2" d="M34.66,72.27a3.44,3.44,0,0,1-2.47,1,3.48,3.48,0,0,1-2.48-1,3.5,3.5,0,0,1,2.48-6,3.5,3.5,0,0,1,2.47,6Z"/><path class="cls-2" d="M52.53,49.76H49.47a2.14,2.14,0,0,1,0-4.28h5.39a1.21,1.21,0,1,0,0-2.42H52.2v-2a1.21,1.21,0,1,0-2.42,0v2h-.32a4.56,4.56,0,1,0,0,9.12h3.06a2.15,2.15,0,0,1,0,4.29H47a1.21,1.21,0,0,0,0,2.42h2.76v2a1.21,1.21,0,1,0,2.42,0v-2h.32a4.57,4.57,0,0,0,0-9.13Zm0,0"/><path class="cls-2" d="M45.09,24.41a5.92,5.92,0,0,0,4.7,5.78v6a1.21,1.21,0,0,0,2.42,0v-6a5.91,5.91,0,1,0-7.12-5.78Zm9.41,0a3.5,3.5,0,1,1-3.5-3.5,3.5,3.5,0,0,1,3.5,3.5Zm0,0"/><path class="cls-2" d="M71.81,49.79h-6a1.21,1.21,0,1,0,0,2.42h6a5.91,5.91,0,1,0,0-2.42Z"/><path class="cls-2" d="M81.09,51a3.5,3.5,0,1,1-3.5-3.5,3.5,3.5,0,0,1,3.5,3.5Z"/><path class="cls-2" d="M24.41,56.91a5.92,5.92,0,0,0,5.78-4.7h6a1.21,1.21,0,0,0,0-2.42h-6a5.91,5.91,0,1,0-5.78,7.12Zm0-9.41a3.5,3.5,0,1,1-3.5,3.5,3.5,3.5,0,0,1,3.5-3.5Zm0,0"/><path class="cls-2" d="M36.37,28A5.91,5.91,0,1,0,32.19,38.1a5.72,5.72,0,0,0,3.23-1l4.22,4.22a1.2,1.2,0,0,0,1.7-1.7l-4.2-4.2A5.91,5.91,0,0,0,36.37,28Zm-6.64,6.65a3.51,3.51,0,0,1,0-4.95,3.47,3.47,0,0,1,2.47-1,3.49,3.49,0,0,1,2.48,6,3.47,3.47,0,0,1-2.48,1,3.31,3.31,0,0,1-2.47-1Zm0,0"/></svg>