<svg xmlns="http://www.w3.org/2000/svg" xmlns:xlink="http://www.w3.org/1999/xlink" width="59" height="58" viewBox="0 0 59 58"><defs><path id="g0tla" d="M203.633 8852.33a3.868 3.868 0 0 1 3.867 3.867v25.135a3.867 3.867 0 0 1-3.867 3.867h-25.136a3.866 3.866 0 0 1-3.867-3.867v-12.567c0-.534.433-.967.967-.967h14.501v-4.833c0-.534.433-.967.967-.967h2.9a1.934 1.934 0 1 0 0-3.867h-2.9a.968.968 0 0 1-.967-.967v-3.867c0-.534.433-.967.967-.967zm-13.535 27.069h-1.933a3.867 3.867 0 1 1 0-7.734h1.933v-1.933h-13.534v11.6c0 1.069.865 1.934 1.933 1.934h11.601zm15.468-9.667h-2.9v1.933a3.867 3.867 0 1 1-7.734 0v-1.933h-2.9v2.9a.967.967 0 0 1-.967.967h-2.9a1.934 1.934 0 1 0 0 3.867h2.9c.534 0 .967.433.967.967v4.833h11.601a1.933 1.933 0 0 0 1.933-1.934zm0-13.535a1.932 1.932 0 0 0-1.933-1.933h-11.6v1.933h1.932a3.867 3.867 0 0 1 0 7.735h-1.933v3.866h3.867c.534 0 .966.433.966.967v2.9a1.934 1.934 0 0 0 3.868 0v-2.9c0-.534.432-.967.966-.967h3.867z"/><path id="g0tlb" d="M174.149 8886.106a4.28 4.28 0 0 1 2.382 3.364c.022.187.033.375.033.563a.967.967 0 0 1-.967.967h-10.634a.967.967 0 0 1-.967-.967v-7.788a19.91 19.91 0 0 0-.32-3.556l-1.312-7.224a.937.937 0 0 0-1.843.335l.717 3.946a14.608 14.608 0 0 1-1.298 9.094l-.462.923a4.805 4.805 0 0 1 2.585 4.27.967.967 0 0 1-.967.967h-10.634a.967.967 0 0 1-.865-1.399l1.94-3.882a12.54 12.54 0 0 0 .202-10.842 14.505 14.505 0 0 1-.622-10.406l3.852-12.128a7.753 7.753 0 0 1 4.095-4.98 7.735 7.735 0 1 1 7.433.276 7.9 7.9 0 0 1 2.2 1.984l4-1.934v-10.827a3.867 3.867 0 0 1 3.867-3.867h12.568c.534 0 .967.432.967.967v2.9h1.933a3.867 3.867 0 1 1 0 7.733h-1.933v4.834a.967.967 0 0 1-.967.967h-9.683a3.613 3.613 0 0 1-2.14 3.106l-6.708 3.201 1.13 12.945v8.653a21.963 21.963 0 0 1-.424 4.28l-.644 3.215a4.683 4.683 0 0 1 3.486.31zm.482-39.323a3.61 3.61 0 0 1 4.397 1.68h9.137v-4.835c0-.533.433-.966.967-.966h2.9a1.934 1.934 0 1 0 0-3.867h-2.9a.966.966 0 0 1-.967-.966v-2.9h-11.601a1.934 1.934 0 0 0-1.933 1.933zm-12.6 8.2c-.57.277-.932.855-.935 1.49a1.656 1.656 0 0 0 2.367 1.494l13.027-6.216.029-.013a1.691 1.691 0 0 0 1.012-1.549 1.667 1.667 0 0 0-.765-1.415 1.673 1.673 0 0 0-1.604-.134zm-4.802-14.254a5.8 5.8 0 1 0 11.601 0 5.8 5.8 0 0 0-11.601 0zm17.219 48.337a2.424 2.424 0 0 0-1.175-1.234 2.75 2.75 0 0 0-2.611.056l-.854.49a.966.966 0 0 1-1.428-1.03l1.03-5.149c.256-1.283.386-2.589.387-3.898v-8.57l-1.054-12.14-4.447 2.12a3.58 3.58 0 0 1-5.133-3.239 3.606 3.606 0 0 1 2.03-3.23l5.713-2.76a5.705 5.705 0 0 0-3.235-1.91 5.941 5.941 0 0 0-6.846 4.303l-3.867 12.181a12.566 12.566 0 0 0 .54 9.02 14.473 14.473 0 0 1-.232 12.508l-1.24 2.482h7.937a2.891 2.891 0 0 0-2.057-1.837.968.968 0 0 1-.634-1.378l.939-1.876a12.675 12.675 0 0 0 1.127-7.884l-.72-3.944-.008-.049a2.87 2.87 0 0 1 5.655-.977l1.313 7.222c.234 1.287.352 2.593.352 3.902v6.821z"/><path id="g0tlc" d="M179.464 8861.598l-3.184-3.184-1.367 1.368 6.768 6.766a.966.966 0 0 0 1.367 0l6.767-6.766-1.367-1.368-3.183 3.184v-5.4h-1.934v7.334l-.967.966-.966-.966v-3.467h-1.934z"/><path id="g0tld" d="M179.46 8858.13v-1.93h1.93v1.93z"/><path id="g0tle" d="M179.46 8854.26v-1.93h1.93v1.93z"/><path id="g0tlf" d="M183.33 8854.26v-1.93h1.93v1.93z"/></defs><g><g transform="translate(-149 -8833)"><use fill="#71cc77" xlink:href="#g0tla"/></g><g transform="translate(-149 -8833)"><use fill="#71cc77" xlink:href="#g0tlb"/></g><g transform="translate(-149 -8833)"><use fill="#71cc77" xlink:href="#g0tlc"/></g><g transform="translate(-149 -8833)"><use fill="#71cc77" xlink:href="#g0tld"/></g><g transform="translate(-149 -8833)"><use fill="#71cc77" xlink:href="#g0tle"/></g><g transform="translate(-149 -8833)"><use fill="#71cc77" xlink:href="#g0tlf"/></g></g></svg>