<svg xmlns="http://www.w3.org/2000/svg" xmlns:xlink="http://www.w3.org/1999/xlink" width="203" height="216" viewBox="0 0 203 216"><defs><path id="3txaa" d="M711.83 6677.585s-77.862 73.181-2.83 218.298C784.032 7041 901.032 6881 901.032 6881l3-186-30-28z"/><path id="3txab" d="M817.098 6801.667c-7.981 5.297-13.989 16.517-14.585 22.257-3.37 32.39-5.077 56.891-7.139 64.962-3.018 11.788 13.298 16.69 16.944 9.903 3.077-5.727 8.403-19.132 14.028-52.032 3.43-20.073 3.635-28.522 3.935-34.582.401-8.057-4.381-11.773-8.891-11.773-1.534 0-3.036.43-4.292 1.265z"/><path id="3txad" d="M735.946 6876.9c2.24 4.463 7.763 2.148 21.878 9.54 20.333 10.65 26.421 12.428 43.112 16.358 10.896 2.57 18.96-12.008 6.538-17.567-10.497-4.697-60.02-14.478-66.388-17.35-4.219-1.9-6.957 5.396-5.14 9.018z"/><path id="3txae" d="M855.892 6767.593c.099.929 1.573 20.688 1.833 35.855.127 7.435-5.234 14.49-10.587 14.668-.08.004-.158.004-.237.004-5.246 0-11.425-6.597-10.96-13.894.839-13.202.21-26.713.187-26.922z"/><path id="3txaf" d="M826.895 6845.632c-3.927-3.271-9.157-6.566-12.839-7.044-3.678-.478 2.449 4.622 5.238 7.304 2.786 2.682 10.904 2.493 7.601-.26z"/><path id="3txag" d="M815.62 6891.063h-62.667a7.42 7.42 0 0 1-6.648-4.129l-19.449-39.323c-2.437-4.93 1.15-10.705 6.65-10.705h62.666a7.409 7.409 0 0 1 6.645 4.128l19.452 39.327c2.437 4.926-1.149 10.702-6.649 10.702z"/><path id="3txah" d="M755.273 6863.263h25.903l-1-1.857h-25.904z"/><path id="3txai" d="M765.516 6866.565h17.441l-.999-1.86h-17.442z"/><path id="3txaj" d="M813.669 6891.063h-60.89a7.205 7.205 0 0 1-6.458-4.01l-18.896-38.21c-2.37-4.789 1.115-10.402 6.455-10.402h60.89a7.21 7.21 0 0 1 6.459 4.015l18.895 38.208c2.37 4.789-1.114 10.399-6.455 10.399z"/><path id="3txak" d="M800.115 6742.037c3.555 19.741 7.636 52.005 6.182 58.124 0 0 26.828-7.486 29.19-22.297 2.359-14.81-14.253-56.948-29.77-55.06z"/><path id="3txal" d="M887.409 6899.192c1.533-6.32 3.303-20.634.447-53.889-1.742-20.29-3.678-28.519-4.915-34.456-2.204-10.584-11.445-11.275-15.407-6.843-6.388 7.14-9.371 19.512-8.501 25.216 4.91 32.194 9.44 56.331 9.48 64.662.056 12.168 17.079 12.796 18.896 5.31z"/><path id="3txam" d="M884.746 6889.6c-7.695-8.544-49.294-38.248-55.034-42.234a3.995 3.995 0 0 0-2.697-.716c-1.096-.98-2.62-1.761-4.647-2.141-10.37-1.935-15.569-4.67-20.409-2.985-4.839 1.682 1.89 8.548 5.397 9.773 2.67.932 10.423 4.124 15.64 4.578 2.663 2.539 8.603 5.595 15.861 14.728 14.282 17.97 19.13 22.06 32.797 32.414 8.925 6.759 22.198-3.307 13.092-13.416z"/><path id="3txan" d="M859.436 6749.923c1.995 16.84 2.315 20.594-3.39 28.934-5.708 8.335-15.32 13.7-23.13 15.422-8.434 1.865-16.651-5.665-20.1-12.215-3.568-6.783-9.608-23.21-11.227-41.775-.822-9.41 8.019-23 19.66-25.57 11.64-2.571 33.32-5.943 38.187 35.204z"/><path id="3txao" d="M749.477 6874.273c-1.446-2.564-7.178-9.399-9.134-10.9-4.567-3.507-9.283-2.663-9.758-1.062-.698 2.381-.718 9.058 2.08 11.546 2.373 2.105 6.06 3.251 8.9 2.987 2.836-.26 10.274 1.62 7.912-2.572z"/><path id="3txap" d="M802.45 6731.06c-4.018 12.44 47.338 22.293 57.377 18.256 10.038-4.04 3.275-23.41-7.008-31.735-10.284-8.33-40.892-15.887-50.37 13.48z"/><path id="3txaq" d="M819.227 6724.445c.364 9.698-15.5 15.446-16.58 23.778-.67 5.167-4.812-9.777-2.497-17.472 2.311-7.695 18.347-25.804 19.077-6.306z"/><path id="3txar" d="M857.725 6747.29c4.8 19.474-6.605 37.176-8.06 43.291 0 0 26.829-7.482 29.187-22.293 2.363-14.81-5.858-69.517-58.277-56.946z"/><path id="3txas" d="M856.44 6753.493c-2.381 5.84-1.836 11.583 1.222 12.832 3.058 1.248 7.47-2.47 9.853-8.309 2.385-5.835 1.84-11.578-1.218-12.829-3.057-1.248-7.47 2.471-9.856 8.306z"/><linearGradient id="3txac" x1="805.46" x2="823.92" y1="6794.65" y2="6649.45" gradientUnits="userSpaceOnUse"><stop offset="0" stop-color="#ff664f"/><stop offset="1" stop-color="#9e005d"/></linearGradient></defs><g><g clip-path="url(#clip-0:573:c)" transform="translate(-676 -6686)"><use fill="#d5f7d5" xlink:href="#3txaa"/></g><g transform="translate(-676 -6686)"><use fill="url(#3txac)" xlink:href="#3txab"/></g><g clip-path="url(#clip-0:568:c)" transform="translate(-676 -6686)"><use fill="#f4d9cb" xlink:href="#3txad"/></g><g clip-path="url(#clip-0:567:c)" transform="translate(-676 -6686)"><use fill="#fff" fill-opacity="0" stroke="#040b3a" stroke-miterlimit="50" xlink:href="#3txad"/></g><g clip-path="url(#clip-0:566:c)" transform="translate(-676 -6686)"><use fill="#edc9b9" xlink:href="#3txae"/></g><g clip-path="url(#clip-0:563:c)" transform="translate(-676 -6686)"><use fill="#f4d9cb" xlink:href="#3txaf"/></g><g clip-path="url(#clip-0:562:c)" transform="translate(-676 -6686)"><use fill="#fff" fill-opacity="0" stroke="#040b3a" stroke-miterlimit="50" xlink:href="#3txaf"/></g><g clip-path="url(#clip-0:561:c)" transform="translate(-676 -6686)"><use fill="#d3d3d3" xlink:href="#3txag"/></g><g clip-path="url(#clip-0:560:c)" transform="translate(-676 -6686)"><g><use fill="#4badf7" xlink:href="#3txah"/></g><g><use fill="#4badf7" xlink:href="#3txai"/></g></g><g clip-path="url(#clip-0:559:c)" transform="translate(-676 -6686)"><g><use fill="#fff" xlink:href="#3txaj"/></g></g><g clip-path="url(#clip-0:558:c)" transform="translate(-676 -6686)"><use fill="#040b3a" xlink:href="#3txak"/></g><g clip-path="url(#clip-0:557:c)" transform="translate(-676 -6686)"><use fill="#56c158" xlink:href="#3txal"/></g><g clip-path="url(#clip-0:556:c)" transform="translate(-676 -6686)"><use fill="#fff" fill-opacity="0" stroke="#040b3a" stroke-miterlimit="50" xlink:href="#3txal"/></g><g clip-path="url(#clip-0:555:c)" transform="translate(-676 -6686)"><use fill="#f4d9cb" xlink:href="#3txam"/></g><g clip-path="url(#clip-0:554:c)" transform="translate(-676 -6686)"><use fill="#fff" fill-opacity="0" stroke="#040b3a" stroke-miterlimit="50" xlink:href="#3txam"/></g><g clip-path="url(#clip-0:553:c)" transform="translate(-676 -6686)"><use fill="#f4d9cb" xlink:href="#3txan"/></g><g clip-path="url(#clip-0:552:c)" transform="translate(-676 -6686)"><use fill="#fff" fill-opacity="0" stroke="#040b3a" stroke-miterlimit="50" xlink:href="#3txan"/></g><g clip-path="url(#clip-0:551:c)" transform="translate(-676 -6686)"><use fill="#f4d9cb" xlink:href="#3txao"/></g><g clip-path="url(#clip-0:550:c)" transform="translate(-676 -6686)"><use fill="#fff" fill-opacity="0" stroke="#040b3a" stroke-miterlimit="50" xlink:href="#3txao"/></g><g clip-path="url(#clip-0:549:c)" transform="translate(-676 -6686)"><use fill="#040b3a" xlink:href="#3txap"/></g><g clip-path="url(#clip-0:548:c)" transform="translate(-676 -6686)"><use fill="#040b3a" xlink:href="#3txaq"/></g><g clip-path="url(#clip-0:547:c)" transform="translate(-676 -6686)"><use fill="#040b3a" xlink:href="#3txar"/></g><g clip-path="url(#clip-0:546:c)" transform="translate(-676 -6686)"><use fill="#edc9b9" xlink:href="#3txas"/></g></g></svg>