<svg xmlns="http://www.w3.org/2000/svg" xmlns:xlink="http://www.w3.org/1999/xlink" width="200" height="216" viewBox="0 0 200 216"><defs><path id="x9rka" d="M722.31 6941s-92.13 95-7.01 207c85.122 112 195.278-7 195.278-7l22.03-207-51.071-35z"/><path id="x9rkb" d="M773.527 7016.215l2.868-28.031a6.107 6.107 0 0 1 6.698-5.455l6.302.644a2.925 2.925 0 0 1 2.414 1.815l.635 1.576a3.015 3.015 0 0 0 2.489 1.872l12.115 1.239a3.015 3.015 0 0 0 2.816-1.33l.942-1.414a2.923 2.923 0 0 1 2.73-1.29l6.303.645a6.11 6.11 0 0 1 5.455 6.7l-2.6 25.417 2.886-2.44.33-3.232 2.323-22.697a5.532 5.532 0 0 0-4.94-6.066l-43.113-4.41a5.53 5.53 0 0 0-6.065 4.939l-2.977 29.106a4.636 4.636 0 0 1 2.389 2.412z"/><path id="x9rkc" d="M825.891 6990.798a6.109 6.109 0 0 0-5.456-6.698l-6.302-.645a2.924 2.924 0 0 0-2.73 1.288l-.942 1.415a3.01 3.01 0 0 1-2.817 1.329l-12.114-1.24a3.014 3.014 0 0 1-2.49-1.871l-.635-1.576a2.922 2.922 0 0 0-2.413-1.815l-6.302-.644a6.108 6.108 0 0 0-6.699 5.455l-2.867 28.032c.232.544.365 1.14.371 1.77l.312 32.106a63.752 63.752 0 0 1 8.76 28.506l.022.374 27.102 2.773a6.11 6.11 0 0 0 6.7-5.456l.221-2.167-1.19.01a6.644 6.644 0 0 1-6.71-6.58l-.02-1.963a6.646 6.646 0 0 1 5.392-6.59 6.648 6.648 0 0 1-4.163-6.101l-.019-1.963a6.617 6.617 0 0 1 1.414-4.16c-.962-.193-1.8-.733-2.25-1.49a3.142 3.142 0 0 1-2.396-2.48l-1.627-8.575-18.185 9.303c-2.173 1.11-5.016.74-6.726-.857a4.974 4.974 0 0 1-.507-7.541l26.358-25.824c1.794-1.758 4.822-.81 5.293 1.656l.698 3.649c1.362.179 2.586 1.039 2.828 2.333l1.29 6.892 6.2-5.238z"/><path id="x9rkd" d="M813.434 7073.523l-.222 2.168a6.108 6.108 0 0 1-6.699 5.455l-27.102-2.772.167 2.69 29.85 3.053a5.5 5.5 0 0 0 2.524-.336 5.527 5.527 0 0 0 3.54-4.604l.581-5.679z"/><path id="x9rke" d="M822.907 6991.395a6.11 6.11 0 0 0-5.456-6.699l-6.302-.644a2.924 2.924 0 0 0-2.73 1.287l-.942 1.415a3.01 3.01 0 0 1-2.817 1.33l-12.114-1.24a3.011 3.011 0 0 1-2.49-1.872l-.635-1.576a2.92 2.92 0 0 0-2.413-1.814l-6.302-.645a6.11 6.11 0 0 0-6.7 5.456l-2.866 28.031c.232.544.365 1.142.37 1.77l.313 32.107a63.744 63.744 0 0 1 8.759 28.505l.023.374 27.102 2.773a6.11 6.11 0 0 0 6.699-5.456l.222-2.167-1.191.011a6.645 6.645 0 0 1-6.71-6.58l-.02-1.964a6.644 6.644 0 0 1 5.393-6.589 6.65 6.65 0 0 1-4.163-6.102l-.02-1.962a6.618 6.618 0 0 1 1.415-4.16c-.962-.193-1.8-.734-2.25-1.49a3.14 3.14 0 0 1-2.396-2.48l-1.627-8.576-18.185 9.303c-2.173 1.111-5.016.74-6.726-.857a4.975 4.975 0 0 1-.507-7.541l26.358-25.824c1.794-1.758 4.822-.81 5.293 1.657l.698 3.65c1.362.177 2.586 1.037 2.828 2.331l1.289 6.893 6.2-5.239z"/><path id="x9rkf" d="M826.893 7011.432a6.646 6.646 0 0 0-3.417.335l.45 2.172z"/><path id="x9rkg" d="M823.926 7013.939l-.45-2.173c-.395.15-.778.34-1.147.569l-.33 3.233z"/><path id="x9rkh" d="M726.532 7157h27.93l40.743-31.959 1.69-5.079-52.26-17.385z"/><path id="x9rki" d="M726.532 7157h27.93l40.743-31.959 1.69-5.079-52.26-17.385L726.533 7157z"/><path id="x9rkj" d="M808.573 7087.129a34.979 34.979 0 0 1-20.687 3.12l-5.59-.867a3.69 3.69 0 0 1-2.282-1.298l-.436-7.02-.167-2.69-.023-.373a63.74 63.74 0 0 0-8.759-28.505l-.312-32.107a4.612 4.612 0 0 0-2.761-4.183 4.604 4.604 0 0 0-1.905-.393l-9.161.089a4.62 4.62 0 0 0-4.576 4.666l.316 32.51.252 25.942a18.691 18.691 0 0 0 3.551 10.786l42.379 14.098c5.795-1.855 10.596-6.491 12.352-12.833l.698-2.523-.055.2zm-47.199-13.487l.188-1.835-.173 3.064a5.598 5.598 0 0 1-.015-1.23z"/><path id="x9rkk" d="M808.573 7087.129a34.979 34.979 0 0 1-20.687 3.12l-5.59-.867a3.69 3.69 0 0 1-2.282-1.298l-.436-7.02-.167-2.69-.023-.373a63.74 63.74 0 0 0-8.759-28.505l-.312-32.107a4.612 4.612 0 0 0-2.761-4.183 4.604 4.604 0 0 0-1.905-.393l-9.161.089a4.62 4.62 0 0 0-4.576 4.666l.316 32.51.252 25.942a18.691 18.691 0 0 0 3.551 10.786l42.379 14.098c5.795-1.855 10.596-6.491 12.352-12.833l.698-2.523-.055.2-2.834 1.38zm-47.199-13.487l.188-1.835-.173 3.064a5.598 5.598 0 0 1-.015-1.23z"/><path id="x9rkl" d="M809.427 7084.117l-29.85-3.054.437 7.021a3.699 3.699 0 0 0 2.282 1.298l5.59.867a34.978 34.978 0 0 0 20.687-3.12l2.834-1.38.056-.2.489-1.768a5.498 5.498 0 0 1-2.525.336z"/><path id="x9rkm" d="M761.374 7073.642c-.042.418-.033.829.015 1.229l.173-3.064z"/><path id="x9rkn" d="M821.713 6992.589a6.11 6.11 0 0 0-5.456-6.7l-6.301-.644a2.923 2.923 0 0 0-2.731 1.289l-.942 1.415a3.015 3.015 0 0 1-2.817 1.329l-12.114-1.24a3.015 3.015 0 0 1-2.49-1.871l-.634-1.576a2.923 2.923 0 0 0-2.414-1.815l-6.302-.645a6.11 6.11 0 0 0-6.7 5.456l-2.866 28.03c.232.545.365 1.143.37 1.772l.314 32.106a63.756 63.756 0 0 1 8.758 28.506l.023.373 27.102 2.773a6.11 6.11 0 0 0 6.7-5.455l.22-2.168-1.19.01a6.645 6.645 0 0 1-6.71-6.58l-.02-1.962a6.645 6.645 0 0 1 5.393-6.59 6.65 6.65 0 0 1-4.163-6.101l-.02-1.963a6.62 6.62 0 0 1 1.415-4.161c-.962-.192-1.8-.732-2.25-1.49a3.14 3.14 0 0 1-2.396-2.478l-1.627-8.577-18.185 9.304c-2.172 1.11-5.015.74-6.726-.857a4.975 4.975 0 0 1-.507-7.542l26.358-25.824c1.794-1.757 4.822-.81 5.293 1.657l.698 3.649c1.362.179 2.586 1.038 2.828 2.333l1.289 6.892 6.2-5.24z"/><path id="x9rko" d="M750.495 7084.964l-5.859 17.613 55.983 6.188-3.725 11.197 5.86-17.614-4.342-1.445-42.379-14.097z"/><path id="x9rkp" d="M744.636 7102.577l52.259 17.385 3.724-11.198z"/><path id="x9rkq" d="M784.423 7157l10.781-32.409L753.887 7157z"/><path id="x9rkr" d="M819.96 7043.564l2.79-.028a6.589 6.589 0 0 1 2.633.517 6.651 6.651 0 0 0 5.464-5.239l-9.582 3.353z"/><path id="x9rks" d="M819.96 7043.564l1.305-1.397-11.147 3.904a3.935 3.935 0 0 1-1.98.106 6.616 6.616 0 0 0-1.414 4.16l.02 1.964a6.646 6.646 0 0 0 4.162 6.1 6.646 6.646 0 0 0-5.393 6.592l.02 1.961a6.646 6.646 0 0 0 6.71 6.582l1.191-.012 2.638-.025 1.69-.017 10.12-10.816a6.67 6.67 0 0 0-3.797-3.996 6.627 6.627 0 0 0-2.544-.48l-3.697.036 10.688-11.424a6.684 6.684 0 0 0-3.15-2.75 6.589 6.589 0 0 0-2.631-.515z"/><path id="x9rkt" d="M817.843 7058.226l3.697-.036a6.62 6.62 0 0 1 2.544.48 6.647 6.647 0 0 0 5.396-6.59l-.019-1.962a6.616 6.616 0 0 0-.93-3.316z"/><path id="x9rku" d="M821.688 7073.443a6.647 6.647 0 0 0 6.581-6.71l-.019-1.963a6.66 6.66 0 0 0-.368-2.105l-10.12 10.816z"/><path id="x9rkv" d="M830.637 7033.499a6.56 6.56 0 0 1 .323 1.964l.019 1.963c.005.475-.042.94-.133 1.388l28.66-10.031-3.624-7.477z"/><path id="x9rkw" d="M888.979 7004.13l-9.46-2.657-13.555 32.954a2.008 2.008 0 0 1-.518.74l2.488 4.682c.74 1.396 3.118 1.437 3.875.068l18.45-33.378c.523-.946-.075-2.07-1.28-2.41z"/><path id="x9rkx" d="M783.68 7042.935l18.185-9.304-.766-4.037-18.354 12.6a4.98 4.98 0 0 1-5.792-.115c1.711 1.597 4.555 1.968 6.727.857z"/><path id="x9rky" d="M808.138 7046.177a6.642 6.642 0 0 1 4.178-2.466 6.572 6.572 0 0 1-1.306-.732l-3.137 1.514a3.12 3.12 0 0 1-1.985.195c.45.758 1.288 1.297 2.25 1.489z"/><path id="x9rkz" d="M811.624 7016.352c-.242-1.295-1.466-2.153-2.829-2.333l2.091 10.937 2.027-1.711z"/><path id="x9rkA" d="M830.96 7035.463a6.528 6.528 0 0 0-.323-1.964l-2.301 1.11-7.071 7.559 9.582-3.353c.09-.45.137-.914.133-1.39z"/><path id="x9rkB" d="M808.138 7046.177a3.946 3.946 0 0 0 1.98-.106l11.146-3.903 7.072-7.557-17.326 8.368c.403.29.841.537 1.306.732a6.642 6.642 0 0 0-4.178 2.466z"/><path id="x9rkC" d="M879.519 7001.473l2.546-6.188a2.011 2.011 0 0 0-1.308-2.7l-40.702-11.606c-1.671-.476-3.118 1.247-2.36 2.809l6.367 13.137-17.169 14.507-2.967 2.507-1.928 1.629-2.885 2.437-6.2 5.239-2.027 1.712-2.091-10.937-.697-3.65c-.471-2.465-3.499-3.413-5.293-1.656l-26.358 25.824a4.977 4.977 0 0 0 6.299 7.657l18.353-12.6.766 4.038 1.627 8.577a3.14 3.14 0 0 0 2.396 2.479 3.127 3.127 0 0 0 1.985-.194l3.137-1.515 17.326-8.368 2.301-1.112 25.244-12.193 3.625 7.478 2.79 5.755c.616 1.27 2.217 1.463 3.149.628.216-.192.395-.44.519-.74z"/></defs><g><g clip-path="url(#clip-0:539:c)" transform="translate(-679 -6942)"><use fill="#fef0d0" xlink:href="#x9rka"/></g><g clip-path="url(#clip-0:538:c)" transform="translate(-679 -6942)"><use fill="#fff" xlink:href="#x9rkb"/></g><g clip-path="url(#clip-0:537:c)" transform="translate(-679 -6942)"><use fill="#56d4fe" xlink:href="#x9rkc"/></g><g clip-path="url(#clip-0:536:c)" transform="translate(-679 -6942)"><use fill="#fff" xlink:href="#x9rkd"/></g><g clip-path="url(#clip-0:535:c)" transform="translate(-679 -6942)"><use fill="#fc5c65" xlink:href="#x9rke"/></g><g clip-path="url(#clip-0:534:c)" transform="translate(-679 -6942)"><use fill="#ffbfb3" xlink:href="#x9rkf"/></g><g clip-path="url(#clip-0:533:c)" transform="translate(-679 -6942)"><use fill="#f5998d" xlink:href="#x9rkg"/></g><g clip-path="url(#clip-0:532:c)" transform="translate(-679 -6942)"><use fill="#fcb415" xlink:href="#x9rkh"/></g><g clip-path="url(#clip-0:531:c)" transform="translate(-679 -6942)"><use fill="#fff" fill-opacity="0" stroke="#040b3a" stroke-miterlimit="50" xlink:href="#x9rki"/></g><g clip-path="url(#clip-0:530:c)" transform="translate(-679 -6942)"><use fill="#f4d9cb" xlink:href="#x9rkj"/></g><g clip-path="url(#clip-0:529:c)" transform="translate(-679 -6942)"><use fill="#fff" fill-opacity="0" stroke="#040b3a" stroke-miterlimit="50" xlink:href="#x9rkk"/></g><g clip-path="url(#clip-0:528:c)" transform="translate(-679 -6942)"><use fill="#f5998d" xlink:href="#x9rkl"/></g><g clip-path="url(#clip-0:527:c)" transform="translate(-679 -6942)"><use fill="#4e6b88" xlink:href="#x9rkm"/></g><g clip-path="url(#clip-0:526:c)" transform="translate(-679 -6942)"><use fill="#71cc77" xlink:href="#x9rkn"/></g><g clip-path="url(#clip-0:525:c)" transform="translate(-679 -6942)"><use fill="#fff" xlink:href="#x9rko"/></g><g clip-path="url(#clip-0:524:c)" transform="translate(-679 -6942)"><use fill="#cfdeef" xlink:href="#x9rkp"/></g><g clip-path="url(#clip-0:523:c)" transform="translate(-679 -6942)"><use fill="#ea9f07" xlink:href="#x9rkq"/></g><g clip-path="url(#clip-0:522:c)" transform="translate(-679 -6942)"><use fill="#f4d9cb" xlink:href="#x9rkr"/></g><g clip-path="url(#clip-0:521:c)" transform="translate(-679 -6942)"><use fill="#f4d9cb" xlink:href="#x9rks"/></g><g clip-path="url(#clip-0:520:c)" transform="translate(-679 -6942)"><use fill="#f4d9cb" xlink:href="#x9rkt"/></g><g clip-path="url(#clip-0:519:c)" transform="translate(-679 -6942)"><use fill="#f4d9cb" xlink:href="#x9rku"/></g><g clip-path="url(#clip-0:518:c)" opacity=".07" transform="translate(-679 -6942)"><g opacity=".07"><use fill="#0d3d61" xlink:href="#x9rkv"/></g></g><g clip-path="url(#clip-0:517:c)" opacity=".07" transform="translate(-679 -6942)"><g opacity=".07"><use fill="#0d3d61" xlink:href="#x9rkw"/></g></g><g clip-path="url(#clip-0:516:c)" transform="translate(-679 -6942)"><use fill="#fff" xlink:href="#x9rkx"/></g><g clip-path="url(#clip-0:515:c)" opacity=".07" transform="translate(-679 -6942)"><g opacity=".07"><use fill="#0d3d61" xlink:href="#x9rkx"/></g></g><g clip-path="url(#clip-0:514:c)" transform="translate(-679 -6942)"><use fill="#fff" xlink:href="#x9rky"/></g><g clip-path="url(#clip-0:513:c)" opacity=".07" transform="translate(-679 -6942)"><g opacity=".07"><use fill="#0d3d61" xlink:href="#x9rky"/></g></g><g clip-path="url(#clip-0:512:c)" transform="translate(-679 -6942)"><use fill="#fff" xlink:href="#x9rkz"/></g><g clip-path="url(#clip-0:511:c)" opacity=".07" transform="translate(-679 -6942)"><g opacity=".07"><use fill="#0d3d61" xlink:href="#x9rkz"/></g></g><g clip-path="url(#clip-0:510:c)" transform="translate(-679 -6942)"><use fill="#f4d9cb" xlink:href="#x9rkA"/></g><g clip-path="url(#clip-0:509:c)" transform="translate(-679 -6942)"><use fill="#ffbfb3" xlink:href="#x9rkB"/></g><g clip-path="url(#clip-0:508:c)" transform="translate(-679 -6942)"><use fill="#f4d9cb" xlink:href="#x9rkB"/></g><g clip-path="url(#clip-0:507:c)" transform="translate(-679 -6942)"><use fill="#fcb415" xlink:href="#x9rkC"/></g></g></svg>