<svg id="Layer_1" data-name="Layer 1" xmlns="http://www.w3.org/2000/svg" viewBox="0 0 119.13 100.02"><defs><style>.cls-1{fill:#455360;}</style></defs><title>insight icon</title><path class="cls-1" d="M539.44,212.49a16.35,16.35,0,1,0,16.41,16.3A16.26,16.26,0,0,0,539.44,212.49Zm0,29.11a12.76,12.76,0,1,1,12.81-12.7A12.8,12.8,0,0,1,539.44,241.6Z" transform="translate(-440.43 -212.49)"/><path class="cls-1" d="M544.61,231.37a6,6,0,0,0-.79-1.69c-.22-.22-.33-.44-.56-.67a2,2,0,0,0-.79-.56,2.61,2.61,0,0,0-.78-.45c-.34-.11-.56-.34-.9-.45a7.23,7.23,0,0,1-.9-.34.86.86,0,0,1-.45-.22c-.11-.11-.34-.11-.45-.23s-.34-.11-.45-.22l-.34-.34a.58.58,0,0,1-.22-.45.69.69,0,0,1-.11-.45v-.56c0-.11.11-.34.11-.45s.11-.34.22-.45l.34-.34a.87.87,0,0,1,.56-.22,1.06,1.06,0,0,1,.57-.11h.67a1,1,0,0,1,.56.11,4.59,4.59,0,0,1,.56.11c.12,0,.34.11.45.11s.34.12.45.12l.56.22.12-.67.22-1.8v-.45l-.45-.11c-.11,0-.34-.12-.45-.12s-.22-.11-.45-.11a4.59,4.59,0,0,0-.56-.11c-.22,0-.34-.11-.56-.11h-.11v-2.14H538v2.25h-.11a3.6,3.6,0,0,0-1,.45,2,2,0,0,0-.79.56,5,5,0,0,0-.68.79,2.23,2.23,0,0,0-.44.9l-.34,1a3.88,3.88,0,0,0-.11,1.12,2.53,2.53,0,0,0,.11.9,2.77,2.77,0,0,0,.34.9c.11.22.33.56.44.79s.34.45.57.67a1.93,1.93,0,0,0,.78.56,2.78,2.78,0,0,0,.79.45,6.83,6.83,0,0,1,.9.45,7.89,7.89,0,0,1,.9.34.86.86,0,0,1,.45.22c.11.12.33.12.45.23s.22.22.33.22l.34.34c.11.11.11.23.23.45a5,5,0,0,1,.11.56v.56a.78.78,0,0,1-.23.45l-.33.34a1.75,1.75,0,0,1-.45.34c-.12.11-.34.11-.45.22a5,5,0,0,1-.56.11h-1.47a5.54,5.54,0,0,1-.56-.11,1.6,1.6,0,0,1-.67-.22c-.23-.11-.45-.11-.68-.23s-.22-.11-.33-.11-.23-.11-.34-.11l-.67-.34-.12.79-.22,2v.34l.34.11a1.53,1.53,0,0,1,1,.11,2.11,2.11,0,0,0,.78.23c.23.11.57.11.9.22a2.53,2.53,0,0,0,.9.11h.23v2.25H541V237.1h.12a7.88,7.88,0,0,0,1.91-1,4.6,4.6,0,0,0,.67-.79,5.2,5.2,0,0,0,.56-.9l.34-1a3.49,3.49,0,0,0,.11-1.12A2.53,2.53,0,0,0,544.61,231.37Z" transform="translate(-440.43 -212.49)"/><path class="cls-1" d="M531.57,247.33A1.91,1.91,0,0,0,529,247l-18.21,14.5-23.48-9.78a1.8,1.8,0,0,0-1.69.23l-25.17,18a1.79,1.79,0,0,0-.45,2.47,1.64,1.64,0,0,0,1.46.79,1.85,1.85,0,0,0,1-.34l24.39-17.42,23.6,9.78a2,2,0,0,0,1.79-.23l19-15.06A1.9,1.9,0,0,0,531.57,247.33Z" transform="translate(-440.43 -212.49)"/><path class="cls-1" d="M557.87,308.91h-8.32v-52a1.77,1.77,0,0,0-1.79-1.8H531.24a1.78,1.78,0,0,0-1.8,1.8v52h-6.07V274.86a1.78,1.78,0,0,0-1.8-1.8H504.94a1.78,1.78,0,0,0-1.8,1.8v34.05h-6.07V272.16a1.77,1.77,0,0,0-1.8-1.79H478.75a1.76,1.76,0,0,0-1.79,1.79v36.75h-6.07V282.73a1.78,1.78,0,0,0-1.8-1.8H452.46a1.78,1.78,0,0,0-1.8,1.8v26.18h-8.43a1.8,1.8,0,0,0,0,3.6H557.76a1.78,1.78,0,0,0,1.8-1.8A1.63,1.63,0,0,0,557.87,308.91Zm-90.69,0H454.26V284.53h12.92Zm26.3,0H480.55V274h12.93Zm26.18,0H506.74V276.66h12.92Zm26.3,0H533V258.68H546Z" transform="translate(-440.43 -212.49)"/></svg>