<svg id="Layer_1" data-name="Layer 1" xmlns="http://www.w3.org/2000/svg" viewBox="0 0 536.29 405.06"><defs><style>.cls-1{fill:#e9f1ff;}.cls-2{fill:#356ae6;}.cls-3{fill:#fff;}.cls-4{fill:#e0e0e0;}.cls-5{fill:#71cc77;}.cls-6{fill:#34e2d9;}.cls-7{fill:#0288d1;}.cls-8{fill:#fcb415;}</style></defs><title>Untitled-1</title><path class="cls-1" d="M65.71,316.3S-89,105.5,76.31,127.32,274.12-76.78,421.88,27.77,545.32,547.06,65.71,316.3Z"/><path class="cls-2" d="M198.83,405.06q-32.65,0-57.52-11.17c-39.26-17.68-64.08-56.63-73.78-115.76-.27-1.3-11-53.26-12.67-110.74-1-34,1.25-63.35,6.76-87.09,6.92-29.83,19-50.95,35.91-62.8,30.05-21,75.44-13,134.92,23.84,69.72,43.22,130.9,74.94,180.06,100.43,76.45,39.64,122.6,63.57,123.76,91.12.71,16.91-15.63,34.94-53,58.47-65.91,41.54-122.43,70.9-172.76,89.78C268.05,397.08,230.69,405.06,198.83,405.06Zm-62.59-397q-21.71,0-37.56,11.09C61.23,45.37,55.27,114.19,56.86,167.31c1.72,57.74,12.52,109.91,12.63,110.43v0c9.58,58.45,34,96.9,72.63,114.28,40.29,18.14,96.71,13.84,167.7-12.79,50.2-18.83,106.59-48.14,172.4-89.6,36.66-23.1,52.71-40.59,52-56.69-1.11-26.4-46.87-50.12-122.68-89.43C362.4,118,301.18,86.3,231.39,43,193.8,19.74,162,8.05,136.24,8.05Z"/><rect class="cls-3" x="44.19" y="24.42" width="460.9" height="334.92" rx="24.59"/><path class="cls-4" d="M480.51,359.83H68.77a25.11,25.11,0,0,1-25.08-25.08V49A25.11,25.11,0,0,1,68.77,23.92H480.51A25.11,25.11,0,0,1,505.59,49V334.75A25.11,25.11,0,0,1,480.51,359.83ZM68.77,24.92A24.1,24.1,0,0,0,44.69,49V334.75a24.1,24.1,0,0,0,24.08,24.08H480.51a24.1,24.1,0,0,0,24.08-24.08V49a24.1,24.1,0,0,0-24.08-24.08Z"/><rect class="cls-4" x="103.18" y="100.83" width="27.9" height="185.98" rx="6.54"/><rect class="cls-4" x="212.42" y="102.27" width="27.9" height="184.54" rx="6.54"/><rect class="cls-4" x="311.05" y="106.63" width="27.9" height="184.54" rx="6.54"/><rect class="cls-5" x="301.75" y="125.87" width="46.5" height="165.31" rx="6.54"/><rect class="cls-4" x="407.93" y="106.01" width="27.9" height="184.54" rx="6.54"/><path class="cls-6" d="M209.66,241.77c-3.6,0-6.54,1.78-6.54,4v37.12c0,2.18,2.94,4,6.54,4h33.42c3.59,0,6.53-1.78,6.53-4V245.73c0-2.18-2.94-4-6.53-4Z"/><rect class="cls-7" x="93.88" y="255.34" width="46.49" height="31.47" rx="6.54"/><path class="cls-8" d="M405.17,244.89c-3.59,0-6.54,1.75-6.54,3.88v37.9c0,2.14,2.95,3.88,6.54,3.88h33.42c3.6,0,6.54-1.74,6.54-3.88v-37.9c0-2.13-2.94-3.88-6.54-3.88Z"/><path class="cls-5" d="M314,318.78l-.17,2.69h-7.91v-1h1.22v-9.37h-1.22v-1h7.78v2.46h-1.15v-1.47h-4.18v4.13h3.71v1.07h-3.71v4.17h4.36l.12-1.7Z"/><path class="cls-5" d="M321,320.48h1.07v-4a2,2,0,0,0-1.89-2.22,2.16,2.16,0,0,0-2.14,2.22v4h1.08v1h-3.34v-1h1.07v-6.13h-1.07v-1h2.13l.09,1.14a2.74,2.74,0,0,1,2.39-1.33,2.63,2.63,0,0,1,2.53,1.52,2.94,2.94,0,0,1,2.69-1.52c1.82,0,2.87,1.13,2.87,3.24v4.07h1.07v1h-3.34v-1h1.09v-4c0-1.54-.83-2.22-1.85-2.22a2.16,2.16,0,0,0-2.19,2.12v4.12h1.08v1H321Z"/><path class="cls-5" d="M338.48,321.47h-2.06l-.11-1.12a3,3,0,0,1-2.63,1.32,2.33,2.33,0,0,1-2.59-2.49c0-1.42.92-2.43,3.31-2.43h1.88V316a1.77,1.77,0,0,0-2-1.88,6.66,6.66,0,0,0-1.66.17v1.33h-1v-2a6.55,6.55,0,0,1,2.72-.47c2.11,0,3.18,1,3.18,2.87v4.44h1Zm-2.2-3v-.84H334.4c-1.43,0-2.1.55-2.1,1.51a1.41,1.41,0,0,0,1.59,1.47A2.28,2.28,0,0,0,336.28,318.5Z"/><path class="cls-5" d="M340,313.36h2.26v7.12h1.08v1H340v-1h1.07v-6.13H340Zm1.66-3.57a.76.76,0,0,1,.81.78.74.74,0,0,1-.81.76.74.74,0,0,1-.8-.76A.75.75,0,0,1,341.68,309.79Z"/><path class="cls-5" d="M347.08,320.48h1.12v1h-3.35v-1h1v-9.7h-1.08v-1h2.27Z"/><path class="cls-4" d="M99.2,321.47H95.53v-1h1.22V311.1H95.53v-1h4c3,0,4.36,1.52,4.36,3.52s-1.33,3.61-4.36,3.61H98v3.23H99.2ZM98,311.1v5.16h1.58c2.22,0,3-1.13,3-2.62s-.91-2.54-3-2.54Z"/><path class="cls-4" d="M114.15,321.47h-2.27v-4.64c0-1.69-.7-2.58-2-2.58s-2.34.7-2.34,2.66v3.57h1.09v1h-3.34v-1h1.07v-9.7h-1.07v-1h2.27v4.84a2.86,2.86,0,0,1,2.56-1.46c1.92,0,2.92,1.36,2.92,3.61v3.7h1.07Z"/><path class="cls-4" d="M119.6,313.17c2.35,0,3.86,1.67,3.86,4.2s-1.51,4.3-3.86,4.3-3.89-1.77-3.89-4.3S117.23,313.17,119.6,313.17Zm0,1.07c-1.72,0-2.64,1.31-2.64,3.13s.9,3.22,2.64,3.22,2.61-1.39,2.61-3.22S121.3,314.24,119.6,314.24Z"/><path class="cls-4" d="M134.11,321.47h-2.27v-4.64c0-1.69-.69-2.58-2-2.58-1.12,0-2.32.7-2.32,2.66v3.57h1.07v1h-3.34v-1h1.07v-6.13h-1.07v-1h2.14l.08,1.35a2.87,2.87,0,0,1,2.63-1.54c1.9,0,2.9,1.36,2.9,3.61v3.7h1.07Z"/><path class="cls-4" d="M139.3,313.17c2.19,0,3.57,1.62,3.57,3.89v.44h-6c0,1.81.93,3.16,2.77,3.16a3.42,3.42,0,0,0,2.47-.91l.6.75a4.28,4.28,0,0,1-3.15,1.17c-2.35,0-3.91-1.47-3.91-4.29C135.68,314.92,137.06,313.17,139.3,313.17ZM137,316.54h4.69a2.33,2.33,0,0,0-2.34-2.39C138,314.15,137.16,315.09,137,316.54Z"/><path class="cls-4" d="M207.18,318.68v1.67a8.13,8.13,0,0,0,2.33.32c1.69,0,2.61-.66,2.61-2.33,0-3.16-6.05-1.62-6.05-5.45,0-2.14,1.59-3,3.49-3a6.22,6.22,0,0,1,3.42.89V313h-1.1v-1.61a5.25,5.25,0,0,0-2.24-.45c-1.35,0-2.37.48-2.37,1.83,0,2.92,6,1.44,6,5.45,0,2.4-1.56,3.46-3.86,3.46a8.65,8.65,0,0,1-3.39-.59v-2.4Z"/><path class="cls-4" d="M219.18,313.17c2.35,0,3.86,1.67,3.86,4.2s-1.51,4.3-3.86,4.3-3.9-1.77-3.9-4.3S216.81,313.17,219.18,313.17Zm0,1.07c-1.72,0-2.65,1.31-2.65,3.13s.91,3.22,2.65,3.22,2.61-1.39,2.61-3.22S220.88,314.24,219.18,314.24Z"/><path class="cls-4" d="M229,320.61a3.47,3.47,0,0,0,2.24-.76l.63.79a4.28,4.28,0,0,1-3,1c-2.35,0-4-1.47-4-4.29s1.73-4.21,3.86-4.21a4,4,0,0,1,2.64.79v2.34h-1.1v-1.71a3,3,0,0,0-1.49-.35c-1.49,0-2.66,1-2.66,3.14S227.37,320.61,229,320.61Z"/><path class="cls-4" d="M233.48,313.36h2.25v7.12h1.09v1h-3.34v-1h1.07v-6.13h-1.07Zm1.65-3.57a.76.76,0,0,1,.81.78.74.74,0,0,1-.81.76.73.73,0,0,1-.79-.76A.74.74,0,0,1,235.13,309.79Z"/><path class="cls-4" d="M245.84,321.47h-2.06l-.12-1.12a3,3,0,0,1-2.63,1.32,2.33,2.33,0,0,1-2.59-2.49c0-1.43.92-2.43,3.31-2.43h1.88V316a1.77,1.77,0,0,0-2-1.89,6.65,6.65,0,0,0-1.66.18v1.33h-1v-2a6.58,6.58,0,0,1,2.72-.47c2.11,0,3.18,1,3.18,2.87v4.44h1Zm-2.21-3v-.84h-1.88c-1.43,0-2.09.55-2.09,1.51a1.4,1.4,0,0,0,1.58,1.47A2.29,2.29,0,0,0,243.63,318.5Z"/><path class="cls-4" d="M249.45,320.48h1.12v1h-3.34v-1h1v-9.7h-1.09v-1h2.27Z"/><path class="cls-4" d="M408.33,309.92c3.24,0,5.19,2.34,5.19,5.76s-1.93,6-5.19,6-5.23-2.58-5.23-6S405.07,309.92,408.33,309.92Zm0,1.09c-2.5,0-3.91,1.9-3.91,4.67s1.41,4.9,3.89,4.9,3.89-2.08,3.89-4.9S410.84,311,408.33,311Z"/><path class="cls-4" d="M415.05,313.36h1.33v-2h1.19v2h2v1h-2v4.74c0,1.18.48,1.52,1.18,1.52a3.1,3.1,0,0,0,1-.16l.14.94a3.31,3.31,0,0,1-1.25.24c-1.52,0-2.27-.76-2.27-2.66v-4.62h-1.33Z"/><path class="cls-4" d="M429.93,321.47h-2.27v-4.64c0-1.69-.7-2.58-2-2.58s-2.33.7-2.33,2.66v3.57h1.08v1H421.1v-1h1.07v-9.7H421.1v-1h2.27v4.84a2.86,2.86,0,0,1,2.57-1.46c1.91,0,2.92,1.36,2.92,3.61v3.7h1.07Z"/><path class="cls-4" d="M435.11,313.17c2.19,0,3.57,1.62,3.57,3.89v.44h-6c0,1.81.93,3.16,2.78,3.16a3.41,3.41,0,0,0,2.46-.91l.6.75a4.27,4.27,0,0,1-3.14,1.17c-2.36,0-3.91-1.46-3.91-4.29C431.5,314.92,432.88,313.17,435.11,313.17Zm-2.35,3.37h4.69a2.33,2.33,0,0,0-2.34-2.38C433.78,314.16,433,315.1,432.76,316.54Z"/><path class="cls-4" d="M444.13,321.47h-3.67v-1h1.07v-6.11h-1.07v-1h2.14l.13,1.37a2.25,2.25,0,0,1,2.19-1.58,2.22,2.22,0,0,1,1,.19l-.16,1a3.17,3.17,0,0,0-.91-.12c-1.3,0-2.08,1.19-2.08,3.22v3h1.4Z"/><rect class="cls-5" x="305.39" y="331.58" width="43.03" height="9.98"/><path d="M221.1,68.17c2,0,3.42.92,3.42,3.07,0,1.91-1.2,3.37-2.89,5.19l-2,2.22h4V77.3h1.11v2.42h-6.65v-.94l2.69-3c1.56-1.72,2.52-3,2.52-4.49a1.9,1.9,0,0,0-2.17-2.12,4.75,4.75,0,0,0-1.84.34v1.62h-1.08V68.92A5.59,5.59,0,0,1,221.1,68.17Z"/><path d="M229.4,68.17a2.95,2.95,0,0,1,0,5.89,2.71,2.71,0,0,1-2.87-2.9A2.8,2.8,0,0,1,229.4,68.17Zm0,.86a1.94,1.94,0,0,0-1.9,2.13,1.84,1.84,0,0,0,1.9,2,2.1,2.1,0,0,0,0-4.17Zm6.79-1h1L231.6,80h-1Zm2.29,5.89a2.95,2.95,0,0,1,0,5.89,2.72,2.72,0,0,1-2.87-2.91A2.8,2.8,0,0,1,238.48,73.93Zm0,.86a1.94,1.94,0,0,0-1.9,2.12,1.84,1.84,0,0,0,1.9,2,2.1,2.1,0,0,0,0-4.17Z"/><path d="M414.68,68.17c2,0,3.42.92,3.42,3.07,0,1.91-1.2,3.37-2.89,5.19l-2,2.22h4V77.3h1.1v2.42h-6.65l0-.94,2.69-3c1.56-1.71,2.51-3,2.51-4.49a1.9,1.9,0,0,0-2.17-2.12,4.7,4.7,0,0,0-1.83.34v1.62h-1.09V68.92A5.59,5.59,0,0,1,414.68,68.17Z"/><path d="M423,68.17a2.95,2.95,0,0,1,0,5.89,2.71,2.71,0,0,1-2.87-2.9A2.8,2.8,0,0,1,423,68.17Zm0,.86a1.94,1.94,0,0,0-1.9,2.13,1.84,1.84,0,0,0,1.9,2A2.1,2.1,0,0,0,423,69Zm6.8-1h1l-5.61,12h-1Zm2.28,5.89a2.95,2.95,0,0,1,0,5.89,2.72,2.72,0,0,1-2.87-2.91A2.8,2.8,0,0,1,432.06,73.93Zm0,.86a1.93,1.93,0,0,0-1.89,2.12,1.83,1.83,0,0,0,1.89,2,1.91,1.91,0,0,0,1.87-2A1.93,1.93,0,0,0,432.06,74.79Z"/><path d="M114.14,79.72h-5v-1h2V69.58l-1.81.78-.28-1,2.29-1h1V78.73h1.81Z"/><path d="M118.42,68.17a2.95,2.95,0,0,1,0,5.89,2.71,2.71,0,0,1-2.87-2.9A2.8,2.8,0,0,1,118.42,68.17Zm0,.86a1.94,1.94,0,0,0-1.9,2.13,1.84,1.84,0,0,0,1.9,2,2.1,2.1,0,0,0,0-4.17Zm6.8-1h1l-5.61,12h-1Zm2.28,5.89a2.95,2.95,0,0,1,0,5.89,2.72,2.72,0,0,1-2.87-2.91A2.81,2.81,0,0,1,127.5,73.93Zm0,.86a1.93,1.93,0,0,0-1.89,2.12,1.83,1.83,0,0,0,1.89,2,1.91,1.91,0,0,0,1.87-2A1.93,1.93,0,0,0,127.5,74.79Z"/><path class="cls-5" d="M318.16,73.75c0,5.51-2.86,6.16-4.68,6.16a3.89,3.89,0,0,1-1.78-.35V77.35h1v1.51a3.48,3.48,0,0,0,.76.08c1.3,0,3.33-.5,3.47-4.91a2.88,2.88,0,0,1-2.71,1.72c-1.88,0-3.19-1.48-3.19-3.74s1.17-3.84,3.39-3.84C317.08,68.17,318.16,69.94,318.16,73.75Zm-1.32-1.61c-.18-2.06-.92-3-2.38-3s-2.18,1.26-2.18,2.82c0,1.74.91,2.82,2.21,2.82S316.65,73.72,316.84,72.14Z"/><path class="cls-5" d="M321.35,77.14V78.7a6.3,6.3,0,0,0,1.7.22c1.85,0,2.58-1,2.58-2.66,0-1.81-1-2.61-2.95-2.61H320.6l.47-5.28h5.29v2.72h-1.05V69.4H322l-.26,3.26h1.31c2.43,0,3.78,1.16,3.78,3.59s-1.38,3.66-3.73,3.66a5.51,5.51,0,0,1-2.79-.6V77.14Z"/><path class="cls-5" d="M331.48,68.17a2.95,2.95,0,0,1,0,5.89,2.71,2.71,0,0,1-2.87-2.9A2.8,2.8,0,0,1,331.48,68.17Zm0,.86a1.93,1.93,0,0,0-1.89,2.13,1.83,1.83,0,0,0,1.89,2,2.1,2.1,0,0,0,0-4.17Zm6.8-1h1l-5.61,12h-1Zm2.29,5.89a2.95,2.95,0,0,1,0,5.89,2.72,2.72,0,0,1-2.87-2.91A2.8,2.8,0,0,1,340.57,73.93Zm0,.86a1.94,1.94,0,0,0-1.9,2.12,1.84,1.84,0,0,0,1.9,2,1.91,1.91,0,0,0,1.86-2A1.93,1.93,0,0,0,340.57,74.79Z"/></svg>