<svg id="Layer_1" data-name="Layer 1" xmlns="http://www.w3.org/2000/svg" viewBox="0 0 886.2 576"><defs><style>.cls-1{opacity:0.3;}.cls-2{fill:#1b5bc1;}.cls-3{fill:#4d4d4d;}.cls-4{fill:#fff;}.cls-5{fill:#e3edfc;}.cls-6{fill:#333;}.cls-7{fill:#f3cfc1;}.cls-8{fill:#33435a;}.cls-9{fill:#0f53b7;}.cls-10{fill:#de937a;}.cls-11{fill:#427ccc;}</style></defs><title>Main first image</title><g class="cls-1"><path class="cls-2" d="M533,550.45q49.23.15,98.45-.25c70.29-.65,140.59-2.48,210.77-6.68,30.39-1.82,138.46-.2,87.29-65.37-17.29-22-54.19-30.64-78.43-31-26.55-.45-52.35,2-79,3.38-24.71,1.32-49.36,3.19-74.12,3.12-50.55-.13-101.12,0-151.58,4.13-47.42,3.88-95,2.55-142.47,2.55-48.73,0-97.12-.47-145.5-8.39-21.08-3.45-42.55-4.65-63.74-7.07-19-2.17-37.2,0-56.1,2a115.24,115.24,0,0,0-46,15.09c-11.41,6.67-31.75,27.38-35.25,43.3-9.81,44.62,138.25,43.55,161,43.45C323.25,548.24,428.15,550.1,533,550.45Z" transform="translate(-56.9 25.5)"/></g><path class="cls-3" d="M767.5,373.3c6.26,5.51,7.71,16.07,8.13,24.11.62,11.89-3.42,22.2-6.65,33.37a3.22,3.22,0,0,1-1.3,2.13,2.11,2.11,0,0,1-2.59-.9,4.75,4.75,0,0,1-.55-2.91c.18-3.28,1.46-6.39,2.38-9.54,3.07-10.46,1.88-22-4.1-31.12-2.34-3.58-6.39-7.3-3.84-15.41C760.64,367.75,763.53,369.8,767.5,373.3Z" transform="translate(-56.9 25.5)"/><path class="cls-3" d="M746.2,404.44c-8.72-1.84-18-1.07-27-.21-9.81.95-20,2.14-28.14,6.78-4.15,2.38-8.11,6.26-9.63,11.26a11.52,11.52,0,0,0-.13,6.68c.3,1,.67,2.13,1,3.05.56,1.39,1.51,1.53,2.77,1.92a17.35,17.35,0,0,1,4.33,2.55c6.51,4.44,13.88,4.46,21.24,5.4A210.25,210.25,0,0,0,733,443.68c12.13.26,33.54-.82,37.31-13.21C773.81,418.88,757.74,406.87,746.2,404.44Z" transform="translate(-56.9 25.5)"/><path class="cls-3" d="M697,427.1a10.85,10.85,0,0,1-4.37,2.08c-5,1.44-8.69,4.33-13.88,4.29-17.56-.11-18-24.13-2.49-30.22C688.14,398.61,710.16,415.23,697,427.1Z" transform="translate(-56.9 25.5)"/><path class="cls-3" d="M751.53,425a44,44,0,0,1,8.93-5.83,5.85,5.85,0,0,1,2.13-.76,4.71,4.71,0,0,1,2.26.46,9.44,9.44,0,0,1,4.79,11.77,15.07,15.07,0,0,1-2.43,3.8c-2.69,3.3-5.82,6.27-8.07,9.9-4.13,6.64-1.92,12-.09,18.87a8.09,8.09,0,0,1,.36,2c0,3.26-.87,6.34-4.74,6.68a2.24,2.24,0,0,1-2.47-1.57c-.33-1.83,1.82-2.17,2.25-3.55s-1-2.86-1.64-4a91.28,91.28,0,0,1-4.82-9.19c-2.63-5.87-4.8-12.94-2.82-19.35A20.24,20.24,0,0,1,751.53,425Z" transform="translate(-56.9 25.5)"/><path class="cls-3" d="M727.23,458.32a4.6,4.6,0,0,0-.62,2.78,4.67,4.67,0,0,0,1.3,2.06l3.62,4c1.13,1.23,2.36,2.53,4,2.89s3.66-.77,3.56-2.44c-.14-2.12-3.05-2.64-4.49-4.19-1.76-1.89-1-5,.26-7.2a20.23,20.23,0,0,1,10.26-8.8,17.43,17.43,0,0,0,4.14-1.82,3.77,3.77,0,0,0,1.69-3.89c-1.86-6.19-10.69-6.58-14-2.32C733,444.64,730,452.3,727.23,458.32Z" transform="translate(-56.9 25.5)"/><path class="cls-3" d="M704.26,463a4.67,4.67,0,0,0,1.71,2.17,3.86,3.86,0,0,0,2.21.2l4.88-.51a6.93,6.93,0,0,0,4.28-1.44c1.15-1.09,1.43-3.4.15-4.31-1.62-1.17-3.58.85-5.51,1.07-6.06.69-7.43-9.68-4.8-13.68.54-.83,1.21-1.55,1.82-2.33a18.78,18.78,0,0,0,3.08-5.65c.85-2.57.6-1.78-1-2.72-3.22-1.93-6.84-3.22-10.43-1.76a8.78,8.78,0,0,0-5,9.79C697.37,450.22,701.37,457.19,704.26,463Z" transform="translate(-56.9 25.5)"/><path class="cls-3" d="M700.37,447.56a55.27,55.27,0,0,1,.35,6.93c-.1,2.58-.58,5.18-.21,7.74s1.61,5,2.1,7.61a4.4,4.4,0,0,1-.17,2.74,1.56,1.56,0,0,1-2.15.82c-2.53-4.1-5.14-8.38-5.77-13.27-.53-4.05.34-8.35-1.06-12.15-.9-2.46-2.63-4.4-3.66-6.79-.93-2.16-2.1-4.81-1.41-7.23.39-1.35,1.5-1.91,1.75-3.25,0-.22.11-.48.3-.53a.49.49,0,0,1,.35.07c2.26,1.09,7.26,2.31,8.37,4.77.66,1.47.41,4.14.56,5.78C699.94,443.05,700.15,445.31,700.37,447.56Z" transform="translate(-56.9 25.5)"/><path class="cls-4" d="M699.07,409.31s-1.94,17.93-12.32,23.92l-3.21,0s11.3-10.9,13.25-25.59Z" transform="translate(-56.9 25.5)"/><path class="cls-4" d="M684.16,433.23c1.87.62,1.31.75,2.13,2.42a3.29,3.29,0,0,1,0,3.23A3.07,3.07,0,0,1,684,440a4.2,4.2,0,0,1-4.34-3.41c-.24-2,1.75-4.06,3.72-3.62Z" transform="translate(-56.9 25.5)"/><path class="cls-3" d="M668.47,397.25a.22.22,0,0,0-.3.29,12.68,12.68,0,0,1,.4,4.31l-.24,10.46c.06-2.35,15.18,5.19,13.62-3.09C681,404.41,672.77,399.37,668.47,397.25Z" transform="translate(-56.9 25.5)"/><path class="cls-3" d="M675.7,395.62a.22.22,0,0,0-.3.28,12.76,12.76,0,0,1,.41,4.32l-.24,10.46c0-2.35,15.18,5.18,13.61-3.09C688.27,402.78,680,397.74,675.7,395.62Z" transform="translate(-56.9 25.5)"/><polygon class="cls-5" points="261.88 271.55 264.89 264.75 262.44 258.68 263.46 257.5 264.96 258.7 264.37 253.08 266.91 249.25 273.02 249.05 278.13 252.76 277.69 258.84 273.61 264.85 269.89 274.33 261.88 271.55"/><polygon class="cls-5" points="263.04 265.61 240.29 305.13 198.09 312.5 203.12 337.11 250.51 341.9 277.4 267.52 263.04 265.61"/><polygon class="cls-6" points="242.24 519.05 254.75 527.4 254.75 533.14 243.8 535.22 226.59 526.88 228.15 519.05 242.24 519.05"/><path class="cls-7" d="M254.11,285.33l-12.53,1.52c-.77-3.27-1.28-11.22-1.52-14.57-3.67-.44-8-1.35-9.4-4.78a10.47,10.47,0,0,1-.56-3.44l-.69-14.44a12.61,12.61,0,0,1,.41-4.94c1-2.76,3.72-4.47,6.43-5.59,6.89-2.84,15.06-3,21.67.43a11.39,11.39,0,0,1,4.5,3.8c1.63,2.59,1.57,5.86,1.46,8.92-.11,2.83-.22,5.65-.32,8.48-.12,3.25-.51,7-3.21,8.8-1.43,1-3.32,1.2-4.54,2.42C253.65,274.09,254.82,282.37,254.11,285.33Z" transform="translate(-56.9 25.5)"/><path class="cls-8" d="M285.22,225.26a30.05,30.05,0,0,1,1.58-3.84c1.33-2.68,3.16-5.13,4.08-8s.68-6.38-1.61-8.3a9.29,9.29,0,0,0-5.44-1.7,35.84,35.84,0,0,0-18.48,3.76c-5.41,2.74-10,6.3-16.25,5.43-5.88-.81-9.61.89-14.83,4.17-5.64,3.56-13.76,5.91-18.63,10.24a16.78,16.78,0,0,0-4.37,6.78A25.29,25.29,0,0,0,217,259.94a35.53,35.53,0,0,0,4.92,4c3.59,2.49,7.92,5.6,12.16,5.87-.7-3.58-6.45-14.08-4.36-17.61,3.3-5.6,13.48-6.17,19.11-6.23,6.15-.07,12.31,2.92,18.34,2.51,4.33-.29,9.22-3.54,12.3-6.5C283.29,238.3,283.59,230.05,285.22,225.26Z" transform="translate(-56.9 25.5)"/><polygon class="cls-6" points="125.4 515.32 130.38 524.03 129.75 529.63 122.29 530.87 111.1 524.03 114.83 500.4 125.4 497.29 125.4 515.32"/><path class="cls-3" d="M187.28,410.84s-11.82,21.77,4.35,35.45,44.15,35.45,44.15,35.45l-52.86-11.82-3.73,18.66s80.22,26.74,82.09,24.87,21.77-19.27,21.77-19.27l-42.91-93.91-47.27,5.6Z" transform="translate(-56.9 25.5)"/><path class="cls-4" d="M312.88,397.16h0a104.66,104.66,0,0,1-10.61-13.22,73.61,73.61,0,0,1-12.11-33.61,120.66,120.66,0,0,1-.34-18.13c.15-3.27.39-6.53.67-9.79.16-1.84,1.94-8.52.95-10-10.08-14.74-11.29-25.61-27.79-27.39-37.64-4.06-35.5-1.78-48.3,13.78-5.14,6.25-14.65,24.2-17.93,31.52-4,8.87-7.85,17.79-11.43,26.83-4,10.08-7.6,20.31-10.58,30.74-.33,1.15-1.38,4.36-2.51,8.24-2.13,7.34-4.52,17.06-2.78,19.88.9,2.34,3.29,4.84,9.07,6,12.44,2.48,22.39,2.48,36.07-4.36s36.35-2,36.35-2h0c3.6,1,7.37,2,11.38,2.85,29.16,6.51,44.23-11.35,49-14.59C316.08,401.12,312.88,397.16,312.88,397.16Z" transform="translate(-56.9 25.5)"/><path class="cls-3" d="M248.22,414l67.16-31.09,17.42,22.39L303,496.66l-19.9-2.48,5.59-54.73s-16.79,14.3-46.64,13.06c-13.68-13.68-13.68-13.06-13.68-13.06Z" transform="translate(-56.9 25.5)"/><polygon class="cls-2" points="569.96 65.81 218.47 182.11 430.47 233.53 569.96 65.81"/><path class="cls-2" d="M670.58,285,341.08,394,266.19,167.64l226,54.81L640.81,43.7l58.94,178.12C708.56,248.46,695.5,276.74,670.58,285Z" transform="translate(-56.9 25.5)"/><path class="cls-9" d="M563.79,61.18a64.63,64.63,0,0,0,2.34,9.38,63.4,63.4,0,0,0,15.06,24.66l45.67-54.91Z" transform="translate(-56.9 25.5)"/><path class="cls-9" d="M646.52,111a64,64,0,0,0,14.3-6.8l-20-60.48-49.69,59.74A63.54,63.54,0,0,0,646.52,111Z" transform="translate(-56.9 25.5)"/><circle class="cls-4" cx="638.97" cy="38.14" r="63.62" transform="translate(10.85 352.5) rotate(-30.24)"/><path class="cls-2" d="M643.1,66.63,629.89,26.69l-8.77,2.9-3.81-11.52,21.6-7.15,17,51.46Z" transform="translate(-56.9 25.5)"/><path class="cls-10" d="M681.51,132.44l-3.32-4.31-5-9.06-6.89-2.38L659,121s1.72,3.06,4.3,2.72l3.88-.51,2.73,8.46a3.71,3.71,0,0,0,.18.47l1.06,3.17s3.73,2.58,4.36,2a10.59,10.59,0,0,1,1-.76l1.08.46Z" transform="translate(-56.9 25.5)"/><polygon class="cls-8" points="791.07 502.23 792.7 509.34 780.09 519.71 771.35 514.23 776.84 505.48 789.44 495.11 791.07 502.23"/><polygon class="cls-11" points="764.28 282.35 769.22 303.96 761.84 404.18 791.29 499.76 777.82 505.82 718.1 395.24 711.21 360.02 708.19 285.67 764.28 282.35"/><polygon class="cls-11" points="663.38 281.01 668.51 374.04 694.02 492.71 707.49 491.81 708.62 380.67 719.67 268.85 663.38 281.01"/><polygon class="cls-8" points="707.79 497.5 693.71 505.75 685.94 498.96 692.74 491.19 707.3 490.22 707.79 497.5"/><path class="cls-4" d="M788.75,122c8.74,2.24,16.48,7,21.71,16.82,4.55,8.53,6.24,18.35,7.85,28,4.6,27.52,6.57,57.75,16.9,83.9,4.49,11.37,8.68,18.08,7.95,31.17-.2,3.57-8.54,36.81-8.48,36.85a63.06,63.06,0,0,0-39.12-9.71c-12.22,1-92.81,26-101.94,13.4-2-2.74,11.33-41.63,12.53-47.33q5.91-28.08,11.88-56.16c4.41-20.77,8.88-41.63,16.39-61.49a212.06,212.06,0,0,1,8.63-19.74c2-4.05,6.06-15.69,10.28-17.67,3.48-1.63,11.63.16,15.59.15C775.57,120.07,782.28,120.29,788.75,122Z" transform="translate(-56.9 25.5)"/><path class="cls-10" d="M792.47,83c-8.26-17.57-35.73-20.74-39.38,1.28-1.1,6.61-1.41,13.53.64,19.91s6.8,12.18,13.22,14.13l.11,0c0,1.72-.07,3.45-.1,5.17a1.16,1.16,0,0,0,1.41,1.43l6.18.17a6.69,6.69,0,0,0,3-.37c2-.93,2.61-3.57,2.43-5.8,0-.54-.11-1.07-.18-1.61C791.31,111.83,797.87,94.52,792.47,83Z" transform="translate(-56.9 25.5)"/><path class="cls-8" d="M762,53.5c-4.91-.82-9.19,3.88-13.78,6.3-3.82,2-8.11,2.5-12.06,4.16s-7.86,5.2-8,9.72c-3.93-2.14-8.19-4.34-12.66-3.56s-8.68,6-7,10.43c1.52,4,6.62,5,8.25,8.85,2.58,6.15-4.86,15.51,0,19.64,1.18,1,2.8,1.26,4,2.28,1.43,1.27,1.86,3.42,2.48,5.33,2.78,8.67,11.37,14.45,20,13.45a22.77,22.77,0,0,0,11.73-13.37c2.42-7.08-1.35-9.63-1.87-16.33a29.13,29.13,0,0,1,6.59-20.61c3.06-3.64,7.4-6.75,11.93-7.1,1.84-.14,1.24,1.38,3.33,0a9.17,9.17,0,0,0,2.43-4C772.38,64.62,768.42,54.57,762,53.5Z" transform="translate(-56.9 25.5)"/><path class="cls-5" d="M763,120.42l-45.87,43.77-.33.15-37.05-36-8.38,8.19,38.48,58.55c.38.78.62,1.23.62,1.23l47.85-21.81,20.6-44.22Z" transform="translate(-56.9 25.5)"/><polygon class="cls-10" points="633.28 97.58 628.39 85.01 633.68 82.68 638.93 90.55 640.92 88.29 643.79 99.56 638.63 102.72 633.28 97.58"/><path class="cls-5" d="M788.43,122.27c-6.14-2.72-14.35-2.09-22.67-2.34l-29.33-.9L701,69.92l-9.93,6.79,29,67.25,38.41,9.88c7.06,1.81,15.25,5.33,22.54,5.76,10.73.63,18.69-12.22,17.15-22.38C796.87,128.71,793.3,124.43,788.43,122.27Z" transform="translate(-56.9 25.5)"/><path class="cls-8" d="M815.05,63.91c2.53.75,5.29.7,7.69,1.8,3.61,1.66,3.32,5.43,4.29,8.73,1.08,3.65,2.65,8.55,5,11.41,1.69,2.07,4.08,3.27,6.16,4.87s4,4,3.87,6.79c-.09,2.68-1.94,5-2.25,7.73-.39,4,.26,6-1,10.09-.67,2.1-1.42,4.31-3,5.72-2.11,1.86-5.08,1.77-7.67,1.28s-5.28-1.25-7.86-.43c-5.6,1.78-4.66,7.43-6.23,12.12-2.38,7.14-10.79,11.19-17.11,8.52-5.37-2.26-8.38-8.59-8-14.78.18-3.09,1.46-6,1.61-9.06s-1.48-7.17,1.28-9.5a20.94,20.94,0,0,0,2.13-1.5,4.33,4.33,0,0,0,.94-2,8.55,8.55,0,0,0-1.3-7.09c-1-1.38-2.5-2.4-3.12-4-.7-1.9-.08-4.09.08-6.17.39-5-2.27-10-6.42-12-2.74-1.33-5.21-2.13-7.59-4.11-.36-.31-5.76-5.25-5.92-4.21A11.12,11.12,0,0,1,773,63.27a22,22,0,0,1,6.35-6.08c8.16-4.51,8.36,6.32,14.87,5,1.57-.31,2.77-1.73,4.2-2.56,2.68-1.57,5.94-.93,8.64.33S812.2,63.07,815.05,63.91Z" transform="translate(-56.9 25.5)"/><polygon class="cls-7" points="266.98 386.34 274.12 388.42 279.81 385.18 281.11 386.04 280.12 387.68 285.62 386.34 289.75 388.35 290.77 394.37 287.77 399.93 281.68 400.31 275.19 397.08 265.3 394.65 266.98 386.34"/><polygon class="cls-5" points="274.13 385.27 231.07 364.84 226.04 331.13 193.47 318.97 199.99 377.26 274.15 399.77 274.13 385.27"/></svg>