<svg id="Layer_1" data-name="Layer 1" xmlns="http://www.w3.org/2000/svg" xmlns:xlink="http://www.w3.org/1999/xlink" viewBox="0 0 623.39 535.3"><defs><style>.cls-1,.cls-61{fill:none;}.cls-2{fill:#f7f9f9;}.cls-3,.cls-5,.cls-60{fill:#fff;}.cls-3,.cls-60,.cls-61{stroke:#e0e0e0;stroke-miterlimit:10;}.cls-3,.cls-61{stroke-dasharray:5;}.cls-4{fill:#57d4fe;}.cls-6{fill:#e1f9ff;}.cls-7{clip-path:url(#clip-path);}.cls-8{fill:#191919;}.cls-9{fill:#262626;}.cls-10{fill:#f2be9b;}.cls-11{fill:#e8a577;}.cls-12{fill:#f1f1f1;}.cls-13{clip-path:url(#clip-path-2);}.cls-14{fill:#c1c1c1;}.cls-15{fill:#cacaca;}.cls-16{fill:url(#radial-gradient);}.cls-17{fill:url(#radial-gradient-2);}.cls-18{fill:url(#radial-gradient-3);}.cls-19{fill:#b8b8b8;}.cls-20{fill:url(#radial-gradient-4);}.cls-21{fill:url(#radial-gradient-5);}.cls-22{fill:#f4f4f4;}.cls-23{fill:#2e2e2e;}.cls-24{fill:#ededed;}.cls-25{fill:#a7a7a7;}.cls-26{clip-path:url(#clip-path-3);}.cls-27{fill:url(#radial-gradient-6);}.cls-28{fill:url(#radial-gradient-7);}.cls-29{fill:#e1e1e1;}.cls-30{fill:#0e0e0e;}.cls-31{fill:url(#radial-gradient-8);}.cls-32{fill:url(#radial-gradient-9);}.cls-33{fill:#d3d3d3;}.cls-34{fill:url(#radial-gradient-10);}.cls-35{fill:url(#radial-gradient-11);}.cls-36{fill:url(#radial-gradient-12);}.cls-37{fill:url(#radial-gradient-13);}.cls-38{fill:url(#radial-gradient-14);}.cls-39{fill:url(#radial-gradient-15);}.cls-40{clip-path:url(#clip-path-4);}.cls-41{fill:#b2b2b2;}.cls-42{fill:#a6a6a6;}.cls-43{fill:#969696;}.cls-44{fill:#1e1e1e;}.cls-45{fill:#888;}.cls-46{fill:#f3f3f3;}.cls-47{fill:#343434;}.cls-48{clip-path:url(#clip-path-5);}.cls-49{fill:#c7c7c7;}.cls-50{fill:#adadad;}.cls-51{clip-path:url(#clip-path-6);}.cls-52{fill:#737373;}.cls-53{fill:silver;}.cls-54{fill:#a2a2a2;}.cls-55{fill:#989898;}.cls-56{fill:#707070;}.cls-57{fill:#616161;}.cls-58{fill:#858585;}.cls-59{fill:#5e5e5e;}.cls-60{stroke-width:2px;}</style><clipPath id="clip-path" transform="translate(-188.3 11.36)"><circle class="cls-1" cx="320.09" cy="197.91" r="40.29"/></clipPath><clipPath id="clip-path-2" transform="translate(-188.3 11.36)"><circle class="cls-1" cx="503.41" cy="198.04" r="39.97"/></clipPath><radialGradient id="radial-gradient" cx="499.08" cy="192.28" r="13.64" gradientUnits="userSpaceOnUse"><stop offset="0" stop-color="#0e0e0e"/><stop offset="1" stop-color="#0e0e0e"/></radialGradient><radialGradient id="radial-gradient-2" cx="521.27" cy="207.64" r="11.41" xlink:href="#radial-gradient"/><radialGradient id="radial-gradient-3" cx="499.47" cy="190.05" r="16.58" xlink:href="#radial-gradient"/><radialGradient id="radial-gradient-4" cx="495.01" cy="225.15" r="20.81" xlink:href="#radial-gradient"/><radialGradient id="radial-gradient-5" cx="477.17" cy="198.35" r="20.2" xlink:href="#radial-gradient"/><clipPath id="clip-path-3" transform="translate(-188.3 11.36)"><circle class="cls-1" cx="693.49" cy="198.29" r="38.84"/></clipPath><radialGradient id="radial-gradient-6" cx="704.13" cy="185" r="23.19" xlink:href="#radial-gradient"/><radialGradient id="radial-gradient-7" cx="683.28" cy="185" r="23.19" xlink:href="#radial-gradient"/><radialGradient id="radial-gradient-8" cx="682.82" cy="183.98" r="2.9" xlink:href="#radial-gradient"/><radialGradient id="radial-gradient-9" cx="515.05" cy="195.35" r="2.9" xlink:href="#radial-gradient"/><radialGradient id="radial-gradient-10" cx="517.27" cy="194.83" r="1.28" xlink:href="#radial-gradient"/><radialGradient id="radial-gradient-11" cx="492.29" cy="194.83" r="1.28" xlink:href="#radial-gradient"/><radialGradient id="radial-gradient-12" cx="693.49" cy="174.94" r="21.27" xlink:href="#radial-gradient"/><radialGradient id="radial-gradient-13" cx="707.23" cy="211.49" r="7.49" xlink:href="#radial-gradient"/><radialGradient id="radial-gradient-14" cx="-206.75" cy="2.21" r="5.85" gradientTransform="translate(501.7 220.32) rotate(180)" xlink:href="#radial-gradient"/><radialGradient id="radial-gradient-15" cx="706.38" cy="229.76" r="6.21" xlink:href="#radial-gradient"/><clipPath id="clip-path-4" transform="translate(-188.3 11.36)"><circle class="cls-1" cx="228.3" cy="41.06" r="40"/></clipPath><clipPath id="clip-path-5" transform="translate(-188.3 11.36)"><circle class="cls-1" cx="407.75" cy="41.06" r="40"/></clipPath><clipPath id="clip-path-6" transform="translate(-188.3 11.36)"><circle class="cls-1" cx="593.25" cy="41.06" r="40"/></clipPath></defs><title>People image</title><circle class="cls-2" cx="131.61" cy="208.8" r="95.5"/><circle class="cls-3" cx="131.61" cy="208.8" r="62.5"/><circle class="cls-4" cx="317.11" cy="459.3" r="76"/><path class="cls-5" d="M461.43,465.25c1.44-11.54,7.93-17.31,7.93-17.31a36.52,36.52,0,0,1,1-8.55,36.07,36.07,0,0,1,71.11,8.55c0,19.92-15.43,37.51-35.34,37.51-10.82,0-17.31-2.89-23.08-7.22-8.66-7.21-4.33-15.86-4.33-15.86,1.44-4.33,8.05-11.19,15.87-4.33,10.09,10.1-4.33,17.31-4.33,17.31,4.33,5.77,13,4.33,13,4.33,7.21-7.22,7.65-16.37,5.77-21.64-4.33-15.87-25-17.92-33.18-11.54-15.32,11.9-10.09,27.41-6.59,32.4a40.66,40.66,0,0,0,13.81,12.32c6.62,3.49,14.34,4.32,22.35,4.32a47.6,47.6,0,1,0,0-95.2c-26.29,0-48.42,21.32-47.6,47.6.14,4.42.72,11.54,3.61,17.31" transform="translate(-188.3 11.36)"/><circle class="cls-6" cx="131.79" cy="209.27" r="40.29"/><circle class="cls-1" cx="131.79" cy="209.27" r="40.29"/><circle class="cls-1" cx="131.79" cy="209.27" r="40.29"/><g class="cls-7"><path class="cls-8" d="M335.35,173.61s-1.32,9.7,6.75,24.62h0s3.43-19.63.84-24.62c-1.52-2.92-5.34-2.38-5.34-2.38Z" transform="translate(-188.3 11.36)"/><path class="cls-8" d="M343.69,182.05c-.11.55-.26,1.09-.41,1.63A6.41,6.41,0,0,1,343,185c-.27.45-.52.1-.42-.29a1.4,1.4,0,0,1,.68-.74,6.47,6.47,0,0,1,1.46-.68.28.28,0,0,0-.15-.54,4.31,4.31,0,0,0-2.7,1.29,1.46,1.46,0,0,0,.33,2.19,1.33,1.33,0,0,0,1.88-.77,5,5,0,0,0-.07-3.42c0-.15-.29-.17-.32,0Z" transform="translate(-188.3 11.36)"/><path class="cls-8" d="M359.93,191.26c-.3.41-.61.81-.94,1.19a3.47,3.47,0,0,0-.71,1.34l1.54-.2a1.25,1.25,0,0,1,1.34-1.89c.33.08.47-.43.14-.51a2.66,2.66,0,0,0-2.36.47,2.44,2.44,0,0,0-.66,2.58.85.85,0,0,0,1.54.2,2.83,2.83,0,0,0,.48-1.54c0-.52,0-1,0-1.54a.2.2,0,0,0-.37-.1Z" transform="translate(-188.3 11.36)"/><path class="cls-8" d="M361.89,199c-.52.55-1.93,2.21-2.81,1.57l.42.54c-.21-.52,4.36-.5,4.77-.48s.5-.63.1-.77a8.8,8.8,0,0,0-4.24-.64c-1,.14-2.47.65-2.47,1.9s1.31,1.51,2.24,1.16a5.47,5.47,0,0,0,2.61-2.81c.21-.38-.31-.81-.62-.47Z" transform="translate(-188.3 11.36)"/><path class="cls-9" d="M301.09,180.45s-16.77,4.65-12.83,17.31,7.8,14.76,7.8,14.76-4.5,2.09-4.62,4.13,4.62,3.17,4.62,3.17-16.44-1.95-19.61,5.31,1.78,15.1,1.78,15.1H368.7s6.38-7.62,0-20.91c-6.7-14-19-14-19-14s3.18-2.37,1.78-5.77-3.43-1.06-3.43-1.06,7.36-15.39-5.15-15.85Z" transform="translate(-188.3 11.36)"/><path class="cls-10" d="M315.57,232.74l-.72,7.49h16.2l-.8-7.94C325.74,233.64,320.52,233.46,315.57,232.74Z" transform="translate(-188.3 11.36)"/><path class="cls-11" d="M317.46,213.61l-1.85,19.13c4.95.72,10.17.9,14.68-.45l-1.88-18.71Z" transform="translate(-188.3 11.36)"/><path class="cls-11" d="M308.62,197.82c0,3.38-2,7.54-4.37,7.54s-5.63-4.16-5.63-7.54,2-6.12,4.37-6.12S308.62,194.44,308.62,197.82Z" transform="translate(-188.3 11.36)"/><path class="cls-11" d="M337.28,197.82c0,3.38,2,7.54,4.37,7.54s5.63-4.16,5.63-7.54-2-6.12-4.37-6.12S337.28,194.44,337.28,197.82Z" transform="translate(-188.3 11.36)"/><path class="cls-10" d="M332,219.78h0a18.62,18.62,0,0,1-17.52.11l-.3-.15a18.64,18.64,0,0,1-9.92-15.24L303,186.38a18.62,18.62,0,0,1,18.58-19.86h2.74a18.62,18.62,0,0,1,18.58,19.86l-1.23,18.28A18.61,18.61,0,0,1,332,219.78Z" transform="translate(-188.3 11.36)"/><path class="cls-9" d="M323.1,222.33a18.9,18.9,0,0,1-8.8-2.17L314,220a19,19,0,0,1-10.08-15.48L302.7,186.4a18.93,18.93,0,0,1,18.88-20.18h2.74A18.93,18.93,0,0,1,343.2,186.4L342,204.68A18.81,18.81,0,0,1,332.1,220h0A18.82,18.82,0,0,1,323.1,222.33Zm-1.52-55.51a18.33,18.33,0,0,0-18.28,19.54l1.22,18.12a18.46,18.46,0,0,0,9.76,15l.3.16a18.31,18.31,0,0,0,17.24-.11h0a18.26,18.26,0,0,0,9.55-14.88l1.23-18.28a18.33,18.33,0,0,0-18.28-19.54Z" transform="translate(-188.3 11.36)"/><path class="cls-8" d="M313.79,194c0,1.73-.67,3.12-1.5,3.12s-1.49-1.39-1.49-3.12.67-3.12,1.49-3.12S313.79,192.25,313.79,194Z" transform="translate(-188.3 11.36)"/><path class="cls-8" d="M313.1,191.63c.3-1.62-3.26-.82-4-1.07-1.22-.42-1.68,1.45-.53,1.91a3.29,3.29,0,0,0,2.78-.32,4.37,4.37,0,0,1,.78-.31c.21-.05.46,0,.66-.08s.26,0,.28-.13Z" transform="translate(-188.3 11.36)"/><path class="cls-8" d="M332.11,194c0,1.73.67,3.12,1.5,3.12s1.49-1.39,1.49-3.12-.67-3.12-1.49-3.12S332.11,192.25,332.11,194Z" transform="translate(-188.3 11.36)"/><path class="cls-8" d="M332.86,191.69a6.47,6.47,0,0,0,.88.15,8.51,8.51,0,0,1,1.28.55,2.87,2.87,0,0,0,2.28.08c1.15-.46.7-2.33-.53-1.91-1,.36-2.25-.31-3.28.18-.14.06-1.11.75-.63.95Z" transform="translate(-188.3 11.36)"/><path class="cls-11" d="M323,192.48a21,21,0,0,0-.81,6.22,10.94,10.94,0,0,0,.16,2.8,4.21,4.21,0,0,0,1.48,2.47" transform="translate(-188.3 11.36)"/><path class="cls-11" d="M322.71,192.34a14.89,14.89,0,0,0-1.81,8.47c.1,1.55,1,4.31,3,3.71a.55.55,0,0,0,.39-.4c.3-1.45-.89-3.19-1-4.72-.14-2.29-.2-4.62-.11-6.92a.28.28,0,0,0-.52-.14Z" transform="translate(-188.3 11.36)"/><path class="cls-11" d="M318,208.65a9.84,9.84,0,0,1,5.21-1.32c3.58-.13,4.79,1.32,4.79,1.32s-.63,4.37-5.62,3.82C317.84,212,318,208.65,318,208.65Z" transform="translate(-188.3 11.36)"/><path class="cls-8" d="M317.1,208.49a9.54,9.54,0,0,0,11.33.07c.11-.08,0-.31-.1-.26-3.6,1.45-7.6,2-11.18.09,0,0-.1.06,0,.1Z" transform="translate(-188.3 11.36)"/><path class="cls-8" d="M303.62,195.55s5.81-2.57,3.52-12.87c0,0,20.24,1.3,28.21-9.07,0,0,2.68.23,2.25-2.38,0,0-.73-19.37-18.3-18.48s-16.94,21.39-16.94,21.39-7.11.46-6.22,3.25a8.38,8.38,0,0,0,3,4.21Z" transform="translate(-188.3 11.36)"/><path class="cls-9" d="M308.27,188.32a10.12,10.12,0,0,0,3.05-.23,22.66,22.66,0,0,1,3.95,0c1.23.06,1.15-1.71,0-1.87-2.11-.28-5.71,0-7.09,1.87a.14.14,0,0,0,.09.2Z" transform="translate(-188.3 11.36)"/><path class="cls-9" d="M337.08,187c-.61-1.38-3-1.71-4.3-1.82s-3.46-.32-4,1.06a.28.28,0,0,0,.08.27c1,.8,2.5.13,3.67.2,1.39.08,3,1,4.38.7a.28.28,0,0,0,.17-.41Z" transform="translate(-188.3 11.36)"/><path class="cls-8" d="M294.23,219.11a8,8,0,0,0,4.94,2.55c1,.09,2.45,0,2.51-1.36.09-1.56-1.73-1.68-2.85-1.67-2,0-4.92.06-6.6,1.23a.34.34,0,0,0,.17.63,14.43,14.43,0,0,0,3.19-.35,21.32,21.32,0,0,1,3.57-.13c.4,0,1.59.26-.36,0-.49-.06-1-.1-1.46-.19a24.56,24.56,0,0,1-3-.84c-.06,0-.09.06-.06.1Z" transform="translate(-188.3 11.36)"/><path class="cls-8" d="M294.28,213.58c.61-.14,5.05-.83,5-1.13,0,.41-2.49-.54-2.66-.64-.71-.42-1.26-1-1.93-1.49s-1.05.43-.68.89a6.72,6.72,0,0,0,3.73,2.28c.94.18,2.57.16,3-.92s-.91-1.27-1.69-1.08a23.1,23.1,0,0,0-4.86,2c-.06,0,0,.11,0,.1Z" transform="translate(-188.3 11.36)"/><path class="cls-9" d="M296.05,177.32c.71,3.92,4.47,4.81,7.95,5.41a34,34,0,0,0,14.23-.52c.12,0,.1-.24,0-.22a53.09,53.09,0,0,1-10.16.41c-4-.26-10.25-.63-11.93-5.09,0,0-.06,0-.06,0Z" transform="translate(-188.3 11.36)"/></g><path class="cls-4" d="M320.09,239.34a41.43,41.43,0,1,1,41.43-41.43A41.48,41.48,0,0,1,320.09,239.34Zm0-80.59a39.16,39.16,0,1,0,39.16,39.16A39.21,39.21,0,0,0,320.09,158.75Z" transform="translate(-188.3 11.36)"/><circle class="cls-12" cx="315.1" cy="209.4" r="39.97"/><g class="cls-13"><polygon class="cls-14" points="296.31 221.49 305.75 224.52 311.31 206.37 301.95 203.39 296.31 221.49"/><path class="cls-9" d="M494.14,213.34l-9.71-3.13,0-.13,5.7-18.23,9.62,3.07ZM484.78,210,494,213l5.48-17.88-9.09-2.9Z" transform="translate(-188.3 11.36)"/><path class="cls-15" d="M508.69,195.43l3.24-10.15-21.07-6.71-4.17,13.09a11.07,11.07,0,0,0,7.17,13.89h0a11.05,11.05,0,0,0,13.85-7.07,1.6,1.6,0,0,0,1-3Z" transform="translate(-188.3 11.36)"/><path class="cls-16" d="M497.19,206.35a11.35,11.35,0,0,1-10.77-14.78l4.26-13.35,21.6,6.88L509,195.28a1.87,1.87,0,0,1,.9,2.25,1.89,1.89,0,0,1-2,1.28A11.41,11.41,0,0,1,497.19,206.35Zm-6.14-27.43L487,191.74a10.77,10.77,0,0,0,20.48,6.65l.09-.25.26.07a1.32,1.32,0,0,0,.8-2.51l-.25-.1,3.23-10.13Z" transform="translate(-188.3 11.36)"/><path class="cls-14" d="M510.31,219.25s-3.47-12.17,7.38-14.06l7.28,3.5s-1.62,10.77-8.38,13.39S510.31,219.25,510.31,219.25Z" transform="translate(-188.3 11.36)"/><path class="cls-17" d="M520.24,196.31l-9.37,17.23a1.61,1.61,0,0,0,.73,2.22l8.4,3.9a1.59,1.59,0,0,0,2.08-.69l9.58-17.75a1.6,1.6,0,0,0-.82-2.25l-8.61-3.39A1.61,1.61,0,0,0,520.24,196.31Z" transform="translate(-188.3 11.36)"/><polygon class="cls-5" points="332.68 208.62 324.34 223.96 333.02 228 341.59 212.13 332.68 208.62"/><path class="cls-5" d="M517,215.84a1,1,0,1,1-.95-1A1,1,0,0,1,517,215.84Z" transform="translate(-188.3 11.36)"/><path class="cls-5" d="M516.09,217.07a1.23,1.23,0,1,1,1.23-1.23A1.24,1.24,0,0,1,516.09,217.07Zm0-1.9a.67.67,0,1,0,.67.67A.67.67,0,0,0,516.09,215.17Z" transform="translate(-188.3 11.36)"/><path class="cls-5" d="M527.47,199l-2.73-1.13a.28.28,0,0,1-.15-.35h0a.27.27,0,0,1,.35-.15l2.73,1.13a.28.28,0,0,1,.15.35h0A.28.28,0,0,1,527.47,199Z" transform="translate(-188.3 11.36)"/><path class="cls-5" d="M527.57,199.26a.52.52,0,0,1-.21,0l-2.73-1.13a.56.56,0,0,1-.3-.72.55.55,0,0,1,.72-.3l2.73,1.13a.55.55,0,0,1-.21,1.06Zm0-.56Z" transform="translate(-188.3 11.36)"/><path class="cls-14" d="M510.49,217.83l-5.29,7.63,6.26,5,5.13-8.34Z" transform="translate(-188.3 11.36)"/><path class="cls-18" d="M516.84,180.75c-.1-.16-.21-.31-.32-.47-2.48-3.31-7.87-.75-9.14.16a16.55,16.55,0,0,0-14.31-5.23s-3.36-.28-8.21,4.4l-2.77,8.7c-2.14,6.71,1.26,13.8,7.61,15.82l1.9.61a7.11,7.11,0,0,0,8.79-4.86l3.07-9.62.33-1.21A39.69,39.69,0,0,0,511,191C515.14,191.45,519.1,184.26,516.84,180.75Z" transform="translate(-188.3 11.36)"/><path class="cls-15" d="M498.61,194.15a3.23,3.23,0,1,0,4.06-2.1A3.22,3.22,0,0,0,498.61,194.15Z" transform="translate(-188.3 11.36)"/><circle class="cls-19" cx="298.09" cy="189.52" r="4.55"/><path class="cls-19" d="M481.91,208l18.23,7.14s5.9,1.94,10.34,8.88,7.85,18.25,7.85,18.25-33.62-.21-46.68-21.46Z" transform="translate(-188.3 11.36)"/><path class="cls-20" d="M518.71,242.59h-.38c-.34,0-33.93-.46-46.92-21.59l-.1-.17,10.51-13.13,18.43,7.21a22.55,22.55,0,0,1,10.47,9c4.41,6.89,7.85,18.21,7.88,18.32ZM472,220.87c12.14,19.49,42.18,21,46,21.15-.63-2-3.78-11.69-7.71-17.81a21.91,21.91,0,0,0-10.18-8.77L482,208.38Z" transform="translate(-188.3 11.36)"/><path class="cls-21" d="M488.11,176.63s-9.88-10.5-18.14.52c-7.72,10.3-1.74,28.89-4,40.18a2.79,2.79,0,0,0,1.73,3.17l10.74,3.89a2.81,2.81,0,0,0,3.7-1.81c1.56-5.11,2.4-15.08-.65-29.63,0,0-4.61-14.16,4.82-13a1.31,1.31,0,0,0,.92-.21C487.9,179.26,489.05,178.12,488.11,176.63Z" transform="translate(-188.3 11.36)"/><path class="cls-9" d="M502.22,240.14c-.63-.16-4.1-6.79-4.1-6.79l-1.82,5.07Z" transform="translate(-188.3 11.36)"/><path class="cls-22" d="M523.65,208.12a3.09,3.09,0,1,1-1.48-4.12A3.09,3.09,0,0,1,523.65,208.12Z" transform="translate(-188.3 11.36)"/><path class="cls-15" d="M518.58,213.19l6.27,2.12a5,5,0,0,1,3.32,5.49l-1,6.55-7.64-4.12a4.49,4.49,0,0,1-2.21-5.1Z" transform="translate(-188.3 11.36)"/><path class="cls-15" d="M518.58,213.19l1.52-5.47a.91.91,0,0,1,1.08-.65h0a.91.91,0,0,1,.69,1l-1.28,8.06Z" transform="translate(-188.3 11.36)"/><path class="cls-15" d="M526.54,223.42s5.57,9.19,5.2,9.33l-6.28,2.41-8.06-14.35Z" transform="translate(-188.3 11.36)"/><polygon class="cls-19" points="332.66 241.09 341.93 238.08 348.32 250.16 337.76 254.42 332.66 241.09"/><path class="cls-23" d="M525.9,243.42l-5.3-13.87,9.77-3.18L537,238.94Zm-4.57-13.52,4.89,12.79,10-4-6.13-11.59Z" transform="translate(-188.3 11.36)"/><path class="cls-19" d="M518.33,242.73c-.32,0-32.33-.43-46-20.07l.69-.48c13.43,19.29,45,19.7,45.31,19.7Z" transform="translate(-188.3 11.36)"/><path class="cls-19" d="M526.06,243.48a.42.42,0,0,1-.39-.27.43.43,0,0,1,.23-.55l10.56-4.26a.43.43,0,0,1,.55.24.41.41,0,0,1-.23.54l-10.56,4.27A.45.45,0,0,1,526.06,243.48Z" transform="translate(-188.3 11.36)"/><circle class="cls-1" cx="315.1" cy="209.4" r="39.97"/></g><path class="cls-19" d="M503.41,239.13A41.1,41.1,0,1,1,544.5,198,41.15,41.15,0,0,1,503.41,239.13Zm0-79.94A38.85,38.85,0,1,0,542.25,198,38.9,38.9,0,0,0,503.41,159.19Z" transform="translate(-188.3 11.36)"/><circle class="cls-24" cx="505.19" cy="209.65" r="38.84"/><path class="cls-25" d="M693.49,239.38a41.1,41.1,0,1,1,41.09-41.09A41.14,41.14,0,0,1,693.49,239.38Zm0-79.94a38.85,38.85,0,1,0,38.84,38.85A38.89,38.89,0,0,0,693.49,159.44Z" transform="translate(-188.3 11.36)"/><g class="cls-26"><path class="cls-27" d="M689.17,157a20.26,20.26,0,0,1,19,3.06A27.55,27.55,0,0,1,717,172.28a34.63,34.63,0,0,1-2.59,29.26c-5.11,8.37-14.14,13.31-23,12.57C699.66,195.56,699.24,174.24,689.17,157Z" transform="translate(-188.3 11.36)"/><path class="cls-28" d="M698.24,157a20.24,20.24,0,0,0-19,3.06,27.47,27.47,0,0,0-8.86,12.27A34.63,34.63,0,0,0,673,201.54c5.12,8.37,14.15,13.31,23,12.57C687.76,195.56,688.17,174.24,698.24,157Z" transform="translate(-188.3 11.36)"/><path class="cls-29" d="M722.25,224.87a13.57,13.57,0,0,0-4.47-2.34l-15.1-4.71h0a2.86,2.86,0,0,1-1.87-2.43c-.55-3.15-.48-11.45-.47-12.8a.18.18,0,0,0-.19-.19H686.83a.18.18,0,0,0-.19.19c0,1.34.07,9.48-.47,12.8a2.85,2.85,0,0,1-1.87,2.43h0l-15.14,4.72a13.38,13.38,0,0,0-3.9,1.92c-6.14,4.52-6.32,11.91-6.57,13.29a.18.18,0,0,0,.18.22h69.24a.18.18,0,0,0,.18-.22C728.05,236.41,728,229.41,722.25,224.87Z" transform="translate(-188.3 11.36)"/><path class="cls-29" d="M722.25,224.87a13.57,13.57,0,0,0-4.47-2.34l-15.1-4.71h0a2.86,2.86,0,0,1-1.87-2.43c-.55-3.15-.48-11.45-.47-12.8a.18.18,0,0,0-.19-.19H686.83a.18.18,0,0,0-.19.19c0,1.34.07,9.48-.47,12.8a2.85,2.85,0,0,1-1.87,2.43h0l-15.14,4.72a13.38,13.38,0,0,0-3.9,1.92c-6.14,4.52-6.32,11.91-6.57,13.29a.18.18,0,0,0,.18.22h69.24a.18.18,0,0,0,.18-.22C728.05,236.41,728,229.41,722.25,224.87Z" transform="translate(-188.3 11.36)"/><path class="cls-15" d="M722.25,224.87a13.57,13.57,0,0,0-4.47-2.34l-1.67-.52-13.43-4.19a2.86,2.86,0,0,1-1.87-2.43c-.55-3.15-.48-11.45-.47-12.8a.18.18,0,0,0-.19-.19H686.83a.18.18,0,0,0-.19.19c0,1.34.07,9.48-.47,12.8a2.85,2.85,0,0,1-1.87,2.43L670.87,222l-1.71.53a13.38,13.38,0,0,0-3.9,1.92c-6.14,4.52-6.32,11.91-6.57,13.29a.18.18,0,0,0,.18.22h69.24a.18.18,0,0,0,.18-.22C728.05,236.41,728,229.41,722.25,224.87Z" transform="translate(-188.3 11.36)"/><path class="cls-30" d="M728.11,238.54H658.87a.75.75,0,0,1-.58-.28.74.74,0,0,1-.16-.61c0-.15.06-.37.09-.65.29-2.42,1.06-8.84,6.7-13a13.56,13.56,0,0,1,4.07-2l15.14-4.72a2.39,2.39,0,0,0,1.49-2c.53-3.33.47-11.76.46-12.71a.7.7,0,0,1,.21-.53.77.77,0,0,1,.54-.22h13.32a.77.77,0,0,1,.54.22.7.7,0,0,1,.21.53c0,1-.08,9.57.46,12.7a2.41,2.41,0,0,0,1.49,2L718,222a14.51,14.51,0,0,1,4.65,2.43c5.21,4.15,5.9,10.26,6.16,12.56,0,.29.06.51.09.67a.74.74,0,0,1-.16.61A.75.75,0,0,1,728.11,238.54Zm-68.81-1.13h68.38c0-.09,0-.2,0-.31-.24-2.17-.9-7.94-5.74-11.79h0a12.9,12.9,0,0,0-4.29-2.24l-15.1-4.71a3.42,3.42,0,0,1-2.26-2.88c-.51-3-.49-10.28-.48-12.52H687.21a110.13,110.13,0,0,1-.48,12.52,3.41,3.41,0,0,1-2.27,2.88l-15.13,4.72a12.68,12.68,0,0,0-3.74,1.84c-5.25,3.86-6,9.93-6.25,12.22C659.32,237.23,659.31,237.33,659.3,237.41Z" transform="translate(-188.3 11.36)"/><path class="cls-25" d="M714.73,221.37c-.51,2.19-2.47,6.87-10,9l-.25.08a36.42,36.42,0,0,1-20.74,0l-.17-.05c-7.54-2.18-9.49-6.88-10-9.07l-2.12.66V238h45.37V222Z" transform="translate(-188.3 11.36)"/><path class="cls-15" d="M700.38,209.56c-.07-2.84,0-5.53,0-6.25a.18.18,0,0,0-.19-.19H686.83a.18.18,0,0,0-.19.19c0,.72,0,3.4,0,6.25" transform="translate(-188.3 11.36)"/><path class="cls-30" d="M699.81,209.57c0-2.5,0-4.9,0-5.88H687.21c0,1,0,3.36-.05,5.88l-1.12,0c.06-2.94,0-5.7,0-6.22a.72.72,0,0,1,.21-.54.77.77,0,0,1,.54-.22h13.32a.77.77,0,0,1,.54.22.72.72,0,0,1,.21.54c0,.52,0,3.31,0,6.23Z" transform="translate(-188.3 11.36)"/><path class="cls-15" d="M677.43,185.36c1.2,2.85.52,7.3-1.52,8.16s-4.67-2.2-5.86-5.05-.52-5.85,1.52-6.71S676.24,182.52,677.43,185.36Z" transform="translate(-188.3 11.36)"/><path class="cls-15" d="M709.55,185.36c-1.2,2.85-.52,7.3,1.52,8.16s4.67-2.2,5.86-5.05.52-5.85-1.52-6.71S710.74,182.52,709.55,185.36Z" transform="translate(-188.3 11.36)"/><path class="cls-15" d="M693.49,157.78c-20.43-.8-20.72,18.69-20.42,25.09.22,4.65,2,11.42,3,14.77a11.43,11.43,0,0,0,3.06,5.11c5.33,5.09,14.32,6.82,14.32,6.82s9-1.73,14.32-6.82a11.43,11.43,0,0,0,3.06-5.11c1-3.35,2.82-10.12,3-14.77C714.21,176.47,713.92,157,693.49,157.78Z" transform="translate(-188.3 11.36)"/><path class="cls-30" d="M693.49,210.14l-.11,0c-.37-.07-9.21-1.82-14.6-7a12.1,12.1,0,0,1-3.21-5.36c-1.05-3.56-2.84-10.24-3.06-14.9-.3-6.36.49-15.1,6-20.65,3.56-3.58,8.6-5.28,15-5,6.38-.25,11.43,1.45,15,5,5.51,5.55,6.3,14.29,6,20.65-.22,4.66-2,11.34-3.05,14.9a12.21,12.21,0,0,1-3.22,5.36c-5.39,5.14-14.23,6.89-14.6,7Zm-1.2-51.82c-5.51,0-9.87,1.59-13,4.73-5.49,5.53-5.91,14.78-5.67,19.8.21,4.54,2,11.12,3,14.63a10.9,10.9,0,0,0,2.9,4.86c4.85,4.63,12.92,6.44,13.94,6.65,1-.21,9.1-2,13.94-6.65a10.9,10.9,0,0,0,2.9-4.86c1-3.51,2.8-10.09,3-14.63.23-5-.19-14.27-5.68-19.8-3.33-3.36-8.1-4.94-14.16-4.71h0Z" transform="translate(-188.3 11.36)"/><path class="cls-30" d="M693.49,200.75a5.5,5.5,0,0,1-4.51-1.92l.92-.65a5.17,5.17,0,0,0,7.18,0l.93.65A5.54,5.54,0,0,1,693.49,200.75Z" transform="translate(-188.3 11.36)"/><path class="cls-31" d="M682.82,180.85a3.18,3.18,0,1,1-2.66,3.13A2.93,2.93,0,0,1,682.82,180.85Z" transform="translate(-188.3 11.36)"/><ellipse class="cls-32" cx="515.05" cy="195.35" rx="2.66" ry="3.13"/><path class="cls-33" d="M682.82,191.51a3,3,0,1,1-3-3A3,3,0,0,1,682.82,191.51Z" transform="translate(-188.3 11.36)"/><path class="cls-33" d="M709,191.51a3,3,0,1,1-3-3A3,3,0,0,1,709,191.51Z" transform="translate(-188.3 11.36)"/><polygon class="cls-34" points="515.68 194.9 518.87 193.99 517.63 195.66 515.68 194.9"/><polygon class="cls-35" points="493.89 194.9 490.7 193.99 491.93 195.66 493.89 194.9"/><path class="cls-36" d="M693.49,156.15c-7.25-2.46-27.88,7.8-22.22,24.67.2,0,2.46,9.93,6.11,13.28a10.55,10.55,0,0,1-1.91-8.55,25.76,25.76,0,0,1,2.11-6.35c7.72-3.9,13.48-13.66,15.91-15.83,2.3,2.06,8.8,11,15.62,15.19a28,28,0,0,1,2.41,7,10.55,10.55,0,0,1-1.92,8.55c3.66-3.35,5.91-13.28,6.11-13.28C721.37,164,700.74,153.69,693.49,156.15Z" transform="translate(-188.3 11.36)"/><path class="cls-37" d="M708.49,214.7c1.44-1.86,3.74-3,4.87-5.08a5.6,5.6,0,0,0,.25-4.73,4.85,4.85,0,0,0-.59-1.07,9.56,9.56,0,0,0-4.22-.37,9.65,9.65,0,0,0-6.73,14.94,2.89,2.89,0,0,0,5.17-1.09A7,7,0,0,1,708.49,214.7Z" transform="translate(-188.3 11.36)"/><path class="cls-38" d="M707.46,215.6c-1.13,1.46-2.93,2.36-3.81,4a4.4,4.4,0,0,0-.2,3.7,4.27,4.27,0,0,0,.46.84,7.55,7.55,0,0,0,8.57-11.39,2.26,2.26,0,0,0-4.05.85A5.52,5.52,0,0,1,707.46,215.6Z" transform="translate(-188.3 11.36)"/><path class="cls-39" d="M704.39,223.79a4.51,4.51,0,0,0-1.89,3.51,33.67,33.67,0,0,0,.5,3.57,6.12,6.12,0,0,1-2.2,5.13A8.2,8.2,0,0,0,712,228.2a6,6,0,0,0-1-3.29A4.92,4.92,0,0,0,704.39,223.79Z" transform="translate(-188.3 11.36)"/></g><circle class="cls-1" cx="505.19" cy="209.65" r="41.09"/><circle class="cls-12" cx="40" cy="52.42" r="40"/><g class="cls-40"><path class="cls-41" d="M220.12,85.26l-.65,6.8h18.36l-.54-5.41-1.13.18C231,87.76,225,87.74,220.12,85.26Z" transform="translate(-188.3 11.36)"/><path class="cls-42" d="M222.32,61.88l-2.25,23.38c4.85,2.48,10.92,2.5,16,1.57l1.13-.18-2.49-24.8Z" transform="translate(-188.3 11.36)"/><path class="cls-42" d="M209.17,56.94c0,4.57-3.42,8.27-7.64,8.27s-7.63-3.7-7.63-8.27,1.75-8.58,6-8.58S209.17,52.37,209.17,56.94Z" transform="translate(-188.3 11.36)"/><path class="cls-42" d="M248.13,56.94c0,4.57,3.42,8.27,7.63,8.27s7.64-3.7,7.64-8.27-1.76-8.58-6-8.58S248.13,52.37,248.13,56.94Z" transform="translate(-188.3 11.36)"/><path class="cls-43" d="M254.94,53.28a4,4,0,0,1,3.44.44c.95.66,1.07,1.63,1.54,2.58.36.74,1.29.27,1.37-.37.19-1.42-1.13-2.94-2.29-3.58a4.25,4.25,0,0,0-4.38.17c-.39.24-.14.91.32.76Z" transform="translate(-188.3 11.36)"/><path class="cls-43" d="M202.47,52.9a4.86,4.86,0,0,0-3.88-1.7,3.18,3.18,0,0,0-2.92,1.9c-.21.5.48.73.8.47,1.78-1.41,3.68-1.27,5.61-.17a.32.32,0,0,0,.39-.5Z" transform="translate(-188.3 11.36)"/><path class="cls-43" d="M199.27,52.19a4.7,4.7,0,0,0-.55,4.09c.34,1.12,1.16,2.82,2.56,2.7a.42.42,0,0,0,.4-.52c-.14-1-1.11-1.77-1.47-2.7a7.23,7.23,0,0,1-.4-3.42c0-.3-.4-.36-.54-.15Z" transform="translate(-188.3 11.36)"/><path class="cls-43" d="M257,52.87a15.75,15.75,0,0,1,.05,3.5,13.24,13.24,0,0,1-.81,2.93.55.55,0,0,0,.8.62c2.25-1.42,1.46-5.33.49-7.27-.16-.32-.57-.08-.53.22Z" transform="translate(-188.3 11.36)"/><path class="cls-41" d="M240.93,77.75h0a23.43,23.43,0,0,1-24.14.11l-.24-.14A23.42,23.42,0,0,1,205.1,57.59V33.87a23.42,23.42,0,0,1,23.43-23.42h.24a23.42,23.42,0,0,1,23.42,23.42V57.73A23.43,23.43,0,0,1,240.93,77.75Z" transform="translate(-188.3 11.36)"/><path class="cls-44" d="M218.89,47.3c0,1.83-.71,3.32-1.59,3.32s-1.59-1.49-1.59-3.32S216.42,44,217.3,44,218.89,45.46,218.89,47.3Z" transform="translate(-188.3 11.36)"/><ellipse class="cls-44" cx="51.69" cy="58.66" rx="1.59" ry="3.32"/><path class="cls-45" d="M226.39,43a19.59,19.59,0,0,0-1.6,7.56c-.14,2.77-.23,5,2.13,6.74a2.53,2.53,0,0,0,2.65,0c2.36-1.77,2.27-4,2.13-6.74A19.59,19.59,0,0,0,230.1,43a2.16,2.16,0,0,0-3.71,0Z" transform="translate(-188.3 11.36)"/><path class="cls-9" d="M250.5,25.11s13.6.93,11.74,12.52S252.2,50.81,252,56.24c0,0-5-13.87-2.33-19.93,0,0-8.41-8.09-4.06-10.23S250.5,25.11,250.5,25.11Z" transform="translate(-188.3 11.36)"/><path class="cls-9" d="M205.27,24.79s-12.86-.13-8.45,12.18c3.85,10.77,7.3,14.65,8.11,17.13a3.27,3.27,0,0,1,.17,1C205.1,57.59,217.3,32,205.27,24.79Z" transform="translate(-188.3 11.36)"/><path class="cls-9" d="M207.79,33S186.4,27.43,193.9-1c4.66-17.72,20.65,7.51,24.44,8.41,0,0-5.36-8.41,2.07-9.31S237.83,8.71,237.83,8.71s2.41-7.65,6.56,0a72.69,72.69,0,0,1,6.11,16.4l-4.86,1s-9.48,5.34-10.64-1.29c0,0-8.19-2.88-17.7,2.64Z" transform="translate(-188.3 11.36)"/><path class="cls-9" d="M213,42.36c2.65-.66,5-1.69,7.77-1.82s2.9-4.42,0-4.48c-3.67-.06-7.57,1.5-9,5-.32.76.58,1.43,1.26,1.26Z" transform="translate(-188.3 11.36)"/><path class="cls-9" d="M244.74,41.1c-1.47-3.54-5.37-5.1-9-5-2.89.06-2.87,4.36,0,4.48s5.12,1.16,7.77,1.82c.68.17,1.58-.5,1.27-1.26Z" transform="translate(-188.3 11.36)"/><path class="cls-46" d="M221.56,60.94a56,56,0,0,0,13.38,0s-2,5.58-7.21,5.58C223.09,66.52,221.56,60.94,221.56,60.94Z" transform="translate(-188.3 11.36)"/><path class="cls-47" d="M196.76,2.11a.05.05,0,0,0,0-.1.05.05,0,1,0,0,.1Z" transform="translate(-188.3 11.36)"/><path class="cls-47" d="M195.6,2.72c-2.12,5.49-3.85,15.47,2.81,18.84a1,1,0,0,0,1.41-1.41c-1.2-2.39-2.71-4.3-3.18-7a26.09,26.09,0,0,1,.58-9.95.84.84,0,0,0-1.62-.44Z" transform="translate(-188.3 11.36)"/><path class="cls-47" d="M219.43,6.06a22.72,22.72,0,0,1,0-2.86,2.68,2.68,0,0,1,.25-1.09,6.21,6.21,0,0,1,.74-.71.8.8,0,0,0-.35-1.33C219-.28,218,.77,217.6,1.8c-.52,1.47.32,3,.82,4.39a.52.52,0,0,0,1-.13Z" transform="translate(-188.3 11.36)"/><path class="cls-47" d="M238.54,7.47c-.61,1-.8,3.35.85,3.28a.53.53,0,0,0,.49-.38,1.92,1.92,0,0,0,.07-.58c0-.29-.23-.45-.34-.7a1.56,1.56,0,0,1,0-1.18c.21-.63-.69-1-1-.44Z" transform="translate(-188.3 11.36)"/></g><path class="cls-19" d="M228.3,3.06a38,38,0,1,1-38,38,38,38,0,0,1,38-38m0-2a40,40,0,1,0,40,40,40,40,0,0,0-40-40Z" transform="translate(-188.3 11.36)"/><circle class="cls-12" cx="219.44" cy="52.42" r="40"/><g class="cls-48"><path class="cls-9" d="M383.68,19.5S365,24.68,369.39,38.78s8.69,16.43,8.69,16.43-5,2.33-5.15,4.59,5.15,3.54,5.15,3.54-18.3-2.18-21.84,5.91,2,16.81,2,16.81H459s7.1-8.49,0-23.27c-7.47-15.55-21.12-15.55-21.12-15.55s3.54-2.65,2-6.42S436,39.63,436,39.63,444.2,22.5,430.27,22Z" transform="translate(-188.3 11.36)"/><path class="cls-33" d="M399.8,77.73l-.8,8.33h18l-.88-8.84C411.13,78.72,405.31,78.52,399.8,77.73Z" transform="translate(-188.3 11.36)"/><path class="cls-49" d="M401.9,56.42l-2.06,21.31c5.51.79,11.33,1,16.35-.51L414.1,56.39Z" transform="translate(-188.3 11.36)"/><path class="cls-50" d="M392.06,38.84c0,3.77-2.18,8.4-4.87,8.4s-6.26-4.63-6.26-8.4S383.11,32,385.8,32,392.06,35.08,392.06,38.84Z" transform="translate(-188.3 11.36)"/><path class="cls-50" d="M424,38.84c0,3.77,2.18,8.4,4.87,8.4s6.27-4.63,6.27-8.4S432.93,32,430.24,32,424,35.08,424,38.84Z" transform="translate(-188.3 11.36)"/><path class="cls-33" d="M418.05,63.29h0a20.72,20.72,0,0,1-19.5.13l-.34-.18a20.74,20.74,0,0,1-11-17l-1.35-20.17A20.71,20.71,0,0,1,406.49,4h3.06a20.71,20.71,0,0,1,20.67,22.11l-1.36,20.35A20.73,20.73,0,0,1,418.05,63.29Z" transform="translate(-188.3 11.36)"/><path class="cls-9" d="M408.18,66.13a21.06,21.06,0,0,1-9.79-2.41l-.34-.18a21.21,21.21,0,0,1-11.22-17.23l-1.36-20.18a21.07,21.07,0,0,1,21-22.47h3.06a21.07,21.07,0,0,1,21,22.47l-1.37,20.35a21,21,0,0,1-11,17.11h0A21.13,21.13,0,0,1,408.18,66.13Zm-1.69-61.8a20.38,20.38,0,0,0-20.35,21.76l1.36,20.17A20.53,20.53,0,0,0,398.37,63l.33.17A20.35,20.35,0,0,0,417.89,63h0a20.29,20.29,0,0,0,10.63-16.56l1.37-20.35A20.38,20.38,0,0,0,409.55,4.33Z" transform="translate(-188.3 11.36)"/><path class="cls-8" d="M397.81,34.56c0,1.92-.74,3.47-1.66,3.47s-1.66-1.55-1.66-3.47.74-3.47,1.66-3.47S397.81,32.64,397.81,34.56Z" transform="translate(-188.3 11.36)"/><path class="cls-8" d="M397.05,32c.34-1.81-3.63-.92-4.42-1.19-1.36-.47-1.87,1.61-.59,2.12a3.65,3.65,0,0,0,3.1-.35,5.3,5.3,0,0,1,.86-.34c.24-.06.51,0,.74-.1.07,0,.28,0,.31-.14Z" transform="translate(-188.3 11.36)"/><path class="cls-8" d="M418.22,34.56c0,1.92.74,3.47,1.66,3.47s1.66-1.55,1.66-3.47-.74-3.47-1.66-3.47S418.22,32.64,418.22,34.56Z" transform="translate(-188.3 11.36)"/><path class="cls-8" d="M419.05,32a6.48,6.48,0,0,0,1,.17,11.1,11.1,0,0,1,1.43.6,3.1,3.1,0,0,0,2.53.09c1.28-.51.78-2.59-.59-2.12-1.17.41-2.5-.34-3.65.2-.15.07-1.24.84-.7,1.06Z" transform="translate(-188.3 11.36)"/><path class="cls-50" d="M408,32.9a22.77,22.77,0,0,0-.9,6.92,12.64,12.64,0,0,0,.17,3.13,4.75,4.75,0,0,0,1.65,2.75" transform="translate(-188.3 11.36)"/><path class="cls-50" d="M407.75,32.74a16.66,16.66,0,0,0-2,9.43c.12,1.73,1.09,4.8,3.37,4.13a.61.61,0,0,0,.44-.44c.33-1.62-1-3.56-1.09-5.25a76.29,76.29,0,0,1-.12-7.71.31.31,0,0,0-.58-.16Z" transform="translate(-188.3 11.36)"/><path class="cls-50" d="M402.45,50.9s1.82-1.33,5.8-1.47,5.33,1.47,5.33,1.47-.69,4.87-6.25,4.25C402.32,54.6,402.45,50.9,402.45,50.9Z" transform="translate(-188.3 11.36)"/><path class="cls-8" d="M401.51,50.72a10.59,10.59,0,0,0,12.6.08c.12-.09.05-.35-.1-.29-4,1.62-8.47,2.24-12.45.1-.06,0-.11.06-.05.11Z" transform="translate(-188.3 11.36)"/><path class="cls-8" d="M421.82,11.89s-1.47,10.8,7.52,27.41h0s3.81-21.86.93-27.41c-1.69-3.25-5.95-2.65-5.95-2.65Z" transform="translate(-188.3 11.36)"/><path class="cls-8" d="M386.49,36.31S393,33.45,390.42,22c0,0,22.52,1.45,31.4-10.1,0,0,3,.25,2.5-2.65,0,0-.8-21.56-20.37-20.57s-18.86,23.8-18.86,23.8-7.92.52-6.93,3.63a9.31,9.31,0,0,0,3.4,4.68Z" transform="translate(-188.3 11.36)"/><path class="cls-9" d="M391.67,28.27a11.47,11.47,0,0,0,3.4-.26,24.75,24.75,0,0,1,4.39,0c1.37.07,1.28-1.9,0-2.07-2.35-.32-6.35,0-7.88,2.07a.16.16,0,0,0,.09.23Z" transform="translate(-188.3 11.36)"/><path class="cls-9" d="M423.75,26.78c-.68-1.53-3.31-1.89-4.79-2s-3.86-.35-4.45,1.18a.28.28,0,0,0,.08.3c1.08.89,2.78.15,4.09.22,1.55.09,3.39,1.12,4.88.78a.31.31,0,0,0,.19-.46Z" transform="translate(-188.3 11.36)"/><path class="cls-8" d="M376.05,62.54a8.76,8.76,0,0,0,5.49,2.84c1.16.1,2.72,0,2.8-1.51.09-1.73-1.93-1.87-3.17-1.86-2.23,0-5.49.07-7.36,1.37a.38.38,0,0,0,.19.7,15.83,15.83,0,0,0,3.55-.39,25.23,25.23,0,0,1,4-.14c.45,0,1.77.29-.4,0-.55-.06-1.09-.1-1.63-.21a25.05,25.05,0,0,1-3.39-.94.07.07,0,0,0-.06.11Z" transform="translate(-188.3 11.36)"/><path class="cls-8" d="M376.1,56.39c.67-.16,5.62-.93,5.61-1.26,0,.46-2.77-.6-3-.71-.79-.47-1.4-1.14-2.15-1.66s-1.17.48-.76,1A7.53,7.53,0,0,0,380,56.29c1.05.2,2.87.17,3.35-1,.56-1.38-1-1.41-1.88-1.2a25.42,25.42,0,0,0-5.41,2.21c-.07,0,0,.13.05.11Z" transform="translate(-188.3 11.36)"/><path class="cls-8" d="M431.1,21.29c-.11.61-.28,1.21-.45,1.81a7.07,7.07,0,0,1-.31,1.48c-.31.5-.58.11-.47-.32a1.65,1.65,0,0,1,.76-.83,7.45,7.45,0,0,1,1.62-.75.31.31,0,0,0-.17-.6,4.91,4.91,0,0,0-3,1.43,1.64,1.64,0,0,0,.38,2.44,1.47,1.47,0,0,0,2.09-.86,5.64,5.64,0,0,0-.07-3.8.19.19,0,0,0-.37,0Z" transform="translate(-188.3 11.36)"/><path class="cls-8" d="M436,39.18a13.93,13.93,0,0,1-.9,1.13,3.56,3.56,0,0,0-.68,1.29l1.48-.19a1.2,1.2,0,0,1,1.28-1.81c.31.07.45-.41.13-.49a2.52,2.52,0,0,0-2.25.45,2.33,2.33,0,0,0-.64,2.47.82.82,0,0,0,1.48.19,2.78,2.78,0,0,0,.46-1.48c0-.49,0-1,0-1.47a.19.19,0,0,0-.36-.09Z" transform="translate(-188.3 11.36)"/><path class="cls-8" d="M437.88,46.57c-.5.54-1.85,2.13-2.69,1.51l.4.52c-.2-.5,4.18-.48,4.56-.46s.49-.61.11-.74a8.34,8.34,0,0,0-4.06-.61c-.95.13-2.37.62-2.37,1.81s1.25,1.46,2.15,1.12A5.23,5.23,0,0,0,438.47,47c.2-.37-.29-.78-.59-.46Z" transform="translate(-188.3 11.36)"/><path class="cls-9" d="M378.07,16c.79,4.36,5,5.36,8.84,6a38.16,38.16,0,0,0,15.85-.58c.14,0,.11-.27,0-.25a58.59,58.59,0,0,1-11.31.45c-4.5-.28-11.41-.7-13.29-5.67,0,0-.06,0-.06,0Z" transform="translate(-188.3 11.36)"/></g><path class="cls-19" d="M407.75,3.06a38,38,0,1,1-38,38,38,38,0,0,1,38-38m0-2a40,40,0,1,0,40,40,40,40,0,0,0-40-40Z" transform="translate(-188.3 11.36)"/><circle class="cls-12" cx="404.94" cy="52.42" r="40"/><circle class="cls-1" cx="404.94" cy="52.42" r="40"/><g class="cls-51"><path class="cls-8" d="M609.21,7s4.15-1,9.59,3c11.08,8.08,2.37,69.74,2.37,69.74h-56.1s-6-61.64,5.37-74.15S609.21,7,609.21,7Z" transform="translate(-188.3 11.36)"/><path class="cls-52" d="M620.64,1.18a8,8,0,0,0,.53-2.89c0-.85,0-1.84-.79-2.3a.66.66,0,0,0-.8.1c-.58.75-.26,1.37-.1,2.26s.48,1.87.71,2.83a.24.24,0,0,0,.45,0Z" transform="translate(-188.3 11.36)"/><path class="cls-53" d="M586.27,79.74l-.64,6.65h18l-.53-5.3-1.11.19C597,82.19,591,82.16,586.27,79.74Z" transform="translate(-188.3 11.36)"/><path class="cls-41" d="M588.48,56.84l-2.21,22.9C591,82.16,597,82.19,602,81.28l1.11-.19-2.44-24.28Z" transform="translate(-188.3 11.36)"/><path class="cls-41" d="M575.54,45.15c0,4.47-3.35,8.1-7.48,8.1s-7.48-3.63-7.48-8.1,1.73-8.4,5.85-8.4S575.54,40.67,575.54,45.15Z" transform="translate(-188.3 11.36)"/><path class="cls-41" d="M613.7,45.15c0,4.47,3.34,8.1,7.47,8.1s7.48-3.63,7.48-8.1-1.72-8.4-5.85-8.4S613.7,40.67,613.7,45.15Z" transform="translate(-188.3 11.36)"/><path class="cls-54" d="M620.37,41.56a3.94,3.94,0,0,1,3.37.43c.93.65,1,1.6,1.5,2.53.35.72,1.26.26,1.34-.36.19-1.39-1.1-2.88-2.24-3.51a4.16,4.16,0,0,0-4.29.17.41.41,0,0,0,.32.74Z" transform="translate(-188.3 11.36)"/><path class="cls-54" d="M569,41.19a4.8,4.8,0,0,0-3.8-1.67,3.12,3.12,0,0,0-2.86,1.87c-.21.49.47.71.78.46,1.74-1.38,3.61-1.25,5.5-.17a.31.31,0,0,0,.38-.49Z" transform="translate(-188.3 11.36)"/><path class="cls-54" d="M565.85,40.5a4.54,4.54,0,0,0-.54,4c.33,1.09,1.14,2.77,2.5,2.65a.43.43,0,0,0,.4-.52c-.14-1-1.09-1.73-1.44-2.63a7.12,7.12,0,0,1-.39-3.36c0-.3-.39-.35-.53-.14Z" transform="translate(-188.3 11.36)"/><path class="cls-54" d="M622.41,41.16a15.73,15.73,0,0,1,0,3.43,12.85,12.85,0,0,1-.79,2.87.53.53,0,0,0,.78.6c2.21-1.38,1.43-5.22.48-7.12-.15-.31-.55-.07-.51.22Z" transform="translate(-188.3 11.36)"/><path class="cls-15" d="M594.62,72.69h0a23.06,23.06,0,0,1-23.06-23.06V27.85A23.06,23.06,0,0,1,594.62,4.79h0a23.06,23.06,0,0,1,23,23.06V49.63A23.06,23.06,0,0,1,594.62,72.69Z" transform="translate(-188.3 11.36)"/><path class="cls-44" d="M584.87,38.06c0,1.84-.72,3.33-1.6,3.33s-1.59-1.49-1.59-3.33.71-3.34,1.59-3.34S584.87,36.21,584.87,38.06Z" transform="translate(-188.3 11.36)"/><path class="cls-44" d="M584.13,35.55c.33-1.74-3.48-.88-4.24-1.14-1.31-.45-1.8,1.54-.56,2a3.51,3.51,0,0,0,3-.34,4.22,4.22,0,0,1,.83-.33c.23-.06.49,0,.71-.1.07,0,.27,0,.29-.13Z" transform="translate(-188.3 11.36)"/><path class="cls-44" d="M604.47,38.06c0,1.84.72,3.33,1.6,3.33s1.6-1.49,1.6-3.33-.72-3.34-1.6-3.34S604.47,36.21,604.47,38.06Z" transform="translate(-188.3 11.36)"/><path class="cls-44" d="M605.28,35.61a5.65,5.65,0,0,0,.93.17,8.76,8.76,0,0,1,1.38.58,3,3,0,0,0,2.43.09c1.23-.5.75-2.49-.57-2-1.12.38-2.4-.33-3.51.19-.14.06-1.18.8-.66,1Z" transform="translate(-188.3 11.36)"/><path class="cls-55" d="M594.7,35.75c-2.47,3.45-4.27,8.92-1.81,12.88.7,1.13,2.84.77,2.7-.73a44.64,44.64,0,0,1-.56-5.66c.05-2.14.16-4.25,0-6.4a.18.18,0,0,0-.34-.09Z" transform="translate(-188.3 11.36)"/><path class="cls-52" d="M607.67,3.81c0-.59,0-1.19-.06-1.79C607.61,2.62,607.63,3.22,607.67,3.81Z" transform="translate(-188.3 11.36)"/><path class="cls-8" d="M609.21,7s-16.6-8.9-25.94-3.52-15.1,9.8-11.71,36c0,0,1.14-8.34,10.48-12.73a19.18,19.18,0,0,0,2.5-9.89c0,3,0,6.39-1.13,9.3a30.82,30.82,0,0,1,9.46-2c3.18-4.33,5.72-9.19,5.75-14.59,0-.48,0-.47,0,0,.32,5.35,2.32,10.45,4.73,15.28a21.64,21.64,0,0,1,7.41,3c-.42-3.22.12-6.44-1.49-9.66,3.12,4.36,5.66,8.73,6,14.18a17,17,0,0,1,2.42,6.69S624.78,15.89,609.21,7Z" transform="translate(-188.3 11.36)"/><path class="cls-8" d="M577.76,31.21a4.41,4.41,0,0,0,2.22-.58,7.09,7.09,0,0,1,2.42-.43c2.29-.05,1.86-3.66-.43-3.13-1.74.42-4.68,1.46-4.82,3.53,0,.36.3.57.61.61Z" transform="translate(-188.3 11.36)"/><path class="cls-8" d="M610.91,29c-.28-1-1.27-1.35-2.16-1.75a6.71,6.71,0,0,0-2.93-.89c-1.3.06-2.17,2.1-.74,2.71a21.1,21.1,0,0,0,2.72.77c.92.26,1.8.69,2.7.16a.91.91,0,0,0,.41-1Z" transform="translate(-188.3 11.36)"/><path class="cls-56" d="M590.3,54.1s2.8-3,5.16-3.05,5.44,1.79,5.44,1.79S596.16,61.53,590.3,54.1Z" transform="translate(-188.3 11.36)"/><path class="cls-57" d="M589.5,53.63c.85,1.44,3.58,1,4.94,1,2.15,0,5.62-.16,7.28-1.68a.24.24,0,0,0-.17-.4c-2.09-.09-4.4.6-6.51.81a23.43,23.43,0,0,1-5.48.21.05.05,0,0,0-.06.07Z" transform="translate(-188.3 11.36)"/><path class="cls-8" d="M583.9,25.75c0-1.38.81-2.63,1.08-4a10.06,10.06,0,0,0-.14-3.58q-.63-3.79-1.5-7.55" transform="translate(-188.3 11.36)"/><path class="cls-8" d="M598.17,6.38a37.84,37.84,0,0,0,4.77,17.86" transform="translate(-188.3 11.36)"/><path class="cls-8" d="M606.56,13.33l1.62,3.38a25.27,25.27,0,0,1,1.64,4,12.85,12.85,0,0,1,.3,5.65" transform="translate(-188.3 11.36)"/><path class="cls-8" d="M571.48,41.11a93.76,93.76,0,0,1-.42-19.24" transform="translate(-188.3 11.36)"/></g><path class="cls-19" d="M593.25,3.06a38,38,0,1,1-38,38,38,38,0,0,1,38-38m0-2a40,40,0,1,0,40,40,40,40,0,0,0-40-40Z" transform="translate(-188.3 11.36)"/><circle class="cls-12" cx="583.39" cy="52.42" r="40"/><path class="cls-53" d="M765.49,72.4l-.72,7.51h13.86l-.14-1.36C773.39,78.45,768.49,76.63,765.49,72.4Z" transform="translate(-188.3 11.36)"/><path class="cls-41" d="M767,57.13,765.49,72.4c3,4.23,7.9,6,13,6.15l-2.15-21.44Z" transform="translate(-188.3 11.36)"/><path class="cls-41" d="M757,48.13a5.78,5.78,0,1,1-11.53,0c0-3.45,1.33-6.48,4.51-6.48S757,44.68,757,48.13Z" transform="translate(-188.3 11.36)"/><path class="cls-41" d="M786.4,48.13a5.78,5.78,0,1,0,11.52,0c0-3.45-1.32-6.48-4.51-6.48S786.4,44.68,786.4,48.13Z" transform="translate(-188.3 11.36)"/><path class="cls-53" d="M776.46,69h0a19.46,19.46,0,0,1-9.53,0h0A19.29,19.29,0,0,1,752.52,48.4l1.58-15.47A17.69,17.69,0,0,1,771.7,17h0a17.68,17.68,0,0,1,17.59,15.9l1.58,15.47A19.28,19.28,0,0,1,776.46,69Z" transform="translate(-188.3 11.36)"/><path class="cls-55" d="M771.56,41.57c-1.08,2.72-1.91,5.53-1.47,8.48.28,1.84,3.18,1.35,3.18-.43,0-2.66-.76-5.33-1.09-8a.32.32,0,0,0-.62-.08Z" transform="translate(-188.3 11.36)"/><path class="cls-44" d="M763.86,41.88c0,1.48-.57,2.67-1.28,2.67s-1.28-1.19-1.28-2.67.58-2.67,1.28-2.67S763.86,40.41,763.86,41.88Z" transform="translate(-188.3 11.36)"/><path class="cls-44" d="M763.27,39.88c.26-1.39-2.79-.71-3.4-.91-1-.36-1.43,1.23-.44,1.63a2.8,2.8,0,0,0,2.37-.28,4.22,4.22,0,0,1,.67-.26c.18,0,.39,0,.56-.07s.22,0,.24-.11Z" transform="translate(-188.3 11.36)"/><path class="cls-44" d="M779.54,41.88c0,1.48.57,2.67,1.27,2.67s1.28-1.19,1.28-2.67-.57-2.67-1.28-2.67S779.54,40.41,779.54,41.88Z" transform="translate(-188.3 11.36)"/><path class="cls-44" d="M780.18,39.93a4.7,4.7,0,0,0,.75.13,8.08,8.08,0,0,1,1.1.47,2.47,2.47,0,0,0,1.94.07c1-.4.6-2-.45-1.63-.9.31-1.92-.27-2.81.15-.11.05-1,.64-.53.81Z" transform="translate(-188.3 11.36)"/><path class="cls-8" d="M785.48,23.75s4.71-11.62-3.36-17.64-40.92,4.58-31.48,35.77l2.48.64s.49-17.37,8-21.36S780.36,18.18,785.48,23.75Z" transform="translate(-188.3 11.36)"/><path class="cls-8" d="M785.48,23.75s-11.38-5.16-20.26-1.27c-6.78,3-12.57,24.68-12.57,24.68S749.85,12,769.15,13C783.21,13.62,785.48,23.75,785.48,23.75Z" transform="translate(-188.3 11.36)"/><path class="cls-8" d="M785.48,23.63s5.52-.74,6.19,2.61-.93,20.92-.93,20.92S783.26,34.31,785.48,23.63Z" transform="translate(-188.3 11.36)"/><path class="cls-8" d="M785.58,23.67a8.5,8.5,0,0,0,2.19-3.57,25.05,25.05,0,0,0,.92-4.12" transform="translate(-188.3 11.36)"/><path class="cls-8" d="M746.65,28c3.39-5.88,9.35-10.81,15-14.38,5-3.17,10.4-3.55,15.7-5.84a.67.67,0,0,0,.34-.61c-.22-8.7-14.69-3.79-18.59-1.32-6.91,4.36-13.68,13.42-13.36,21.91a.47.47,0,0,0,.87.24Z" transform="translate(-188.3 11.36)"/><path class="cls-8" d="M747.74,31.72a15.76,15.76,0,0,1,2-7.2,28.08,28.08,0,0,1,4.53-6" transform="translate(-188.3 11.36)"/><path class="cls-8" d="M785.31,24.1a29,29,0,0,0,.94,16" transform="translate(-188.3 11.36)"/><path class="cls-58" d="M758,36.1a.05.05,0,1,0,0-.1.05.05,0,0,0,0,.1Z" transform="translate(-188.3 11.36)"/><path class="cls-58" d="M758.89,36a19.9,19.9,0,0,1,2.76-.58,26.94,26.94,0,0,0,2.7,0,1,1,0,0,0,.24-1.89c-.94-.63-2.35-.43-3.41-.23a5.05,5.05,0,0,0-2.92,1.64.66.66,0,0,0,.63,1.1Z" transform="translate(-188.3 11.36)"/><path class="cls-58" d="M786.63,34.85a5.08,5.08,0,0,0-2.92-1.64,4.84,4.84,0,0,0-3.42.23,1,1,0,0,0,.25,1.89,26.94,26.94,0,0,0,2.7,0A19.76,19.76,0,0,1,786,36a.66.66,0,0,0,.64-1.1Z" transform="translate(-188.3 11.36)"/><path class="cls-52" d="M769.81,56.08a13.3,13.3,0,0,1,2.83-2.52,11.73,11.73,0,0,1,4.43-.82s0,3.82-2.77,4.54A4.6,4.6,0,0,1,769.81,56.08Z" transform="translate(-188.3 11.36)"/><path class="cls-59" d="M769,56.18a8.74,8.74,0,0,0,4.84-.61c1.32-.57,3.18-1.56,3.67-3,0-.15-.13-.35-.29-.28-1.39.55-2.36,1.85-3.77,2.47A21.62,21.62,0,0,1,769,56c-.11,0-.07.17,0,.18Z" transform="translate(-188.3 11.36)"/><path class="cls-8" d="M784.19,23A22.2,22.2,0,0,0,767,16.22" transform="translate(-188.3 11.36)"/><path class="cls-8" d="M780.63,22.11c-7.25-3.09-17.5-2.45-23.94,2.09" transform="translate(-188.3 11.36)"/><path class="cls-54" d="M791.62,45.65a2.92,2.92,0,0,1,2.3.56c.61.52.56,1.35,1.09,1.92a1.1,1.1,0,0,0,1.7-.22c.62-1.36-.49-2.86-1.64-3.59a3.34,3.34,0,0,0-3.92.21.62.62,0,0,0,.47,1.12Z" transform="translate(-188.3 11.36)"/><path class="cls-54" d="M752.1,44.91A3.51,3.51,0,0,0,749,43.33c-1.13.07-2.37.58-2.54,1.81a.71.71,0,0,0,1,.79,4.87,4.87,0,0,1,1.9-.71,6,6,0,0,1,2.24.48c.48.2.7-.47.45-.79Z" transform="translate(-188.3 11.36)"/><path class="cls-54" d="M749.42,44.35a3.11,3.11,0,0,0-.93,3,3,3,0,0,0,2.09,2.73,1,1,0,0,0,1.19-1.19,18.38,18.38,0,0,0-1.07-2,8.88,8.88,0,0,1-.56-2.27.43.43,0,0,0-.72-.3Z" transform="translate(-188.3 11.36)"/><path class="cls-54" d="M792.9,45c0,.91-.15,1.85-.25,2.75a10.86,10.86,0,0,0-.51,2.28.81.81,0,0,0,1,.77c1.18-.22,1.4-1.55,1.51-2.55a4.63,4.63,0,0,0-1-3.46.43.43,0,0,0-.79.21Z" transform="translate(-188.3 11.36)"/><path class="cls-19" d="M771.7,3.06a38,38,0,1,1-38,38,38,38,0,0,1,38-38m0-2a40,40,0,1,0,40,40,40,40,0,0,0-40-40Z" transform="translate(-188.3 11.36)"/><polyline class="cls-60" points="128.61 321.8 128.61 446.8 228.11 446.8"/><line class="cls-3" x1="317.61" y1="262.8" x2="317.61" y2="371.8"/><polyline class="cls-3" points="505.61 273.8 505.61 446.8 404.61 446.8"/><polyline class="cls-61" points="587.61 108.8 587.61 471.8 404.61 471.8"/><polyline class="cls-61" points="404.61 108.8 404.61 393.8 364.61 393.8"/><polyline class="cls-61" points="219.61 108.8 219.61 398.8 251.61 398.8"/><polyline class="cls-61" points="35.61 108.8 35.61 471.8 226.61 471.8"/></svg>