<svg id="Layer_1" data-name="Layer 1" xmlns="http://www.w3.org/2000/svg" viewBox="0 0 97.94 94.68"><defs><style>.cls-1{fill:#455360;}</style></defs><title>Money icon</title><path class="cls-1" d="M534.25,246.26H452.43a1.4,1.4,0,0,0-1.4,1.4h0v39.27a1.4,1.4,0,0,0,1.4,1.4h55.63a1.4,1.4,0,1,0,0-2.8H453.83V249.06h79v3.51a1.4,1.4,0,0,0,1.4,1.4h0a1.4,1.4,0,0,0,1.4-1.4h0v-4.91A1.4,1.4,0,0,0,534.25,246.26Z" transform="translate(-451.03 -215.16)"/><path class="cls-1" d="M524.74,239.75,459.28,225a1.38,1.38,0,0,0-1.67,1.06l-3.28,14.73a1.4,1.4,0,0,0,2.74.61l3-13.36,64.08,14.42a1.1,1.1,0,0,0,.31,0,1.4,1.4,0,0,0,.31-2.77Z" transform="translate(-451.03 -215.16)"/><path class="cls-1" d="M516.79,231.63l-39.27-16.36a1.4,1.4,0,0,0-1.8.67l-3.28,6.54a1.41,1.41,0,1,0,2.48,1.34.59.59,0,0,0,0-.08h0l2.69-5.37,38.05,15.86a1.41,1.41,0,0,0,1.09-2.6Z" transform="translate(-451.03 -215.16)"/><path class="cls-1" d="M517.78,252.8h-13a1.41,1.41,0,0,0,0,2.81h13a1.41,1.41,0,0,0,0-2.81Z" transform="translate(-451.03 -215.16)"/><path class="cls-1" d="M491.7,252.9a14.4,14.4,0,1,0,14.4,14.4A14.4,14.4,0,0,0,491.7,252.9Zm0,26.18a11.79,11.79,0,1,1,11.78-11.78A11.78,11.78,0,0,1,491.7,279.08Z" transform="translate(-451.03 -215.16)"/><path class="cls-1" d="M531,257.48c-8.67,0-18,2-18,6.54v39.27c0,4.5,9.33,6.55,18,6.55s18-2,18-6.55V264C549,259.53,539.65,257.48,531,257.48Zm14.73,45.79c-.25.91-5.15,3.3-14.73,3.3s-14.48-2.39-14.72-3.28v-2.57c3.48,1.76,9.23,2.57,14.72,2.57s11.25-.82,14.73-2.57Zm0-6.55c-.25.91-5.15,3.3-14.73,3.3s-14.48-2.39-14.72-3.27v-2.57c3.48,1.75,9.23,2.57,14.72,2.57s11.25-.83,14.73-2.57Zm0-6.54c-.25.91-5.15,3.3-14.73,3.3s-14.48-2.39-14.72-3.28v-2.57c3.48,1.76,9.23,2.57,14.72,2.57s11.25-.82,14.73-2.57Zm0-6.55c-.25.91-5.15,3.3-14.73,3.3s-14.48-2.39-14.72-3.27v-2.57c3.48,1.75,9.23,2.57,14.72,2.57s11.25-.83,14.73-2.58Zm0-6.54c-.25.91-5.15,3.3-14.73,3.3s-14.48-2.39-14.72-3.28v-2.57c3.48,1.75,9.23,2.57,14.72,2.57s11.25-.82,14.73-2.57Zm0-6.55c-.25.91-5.15,3.3-14.73,3.3s-14.48-2.39-14.72-3.27V268c3.48,1.74,9.23,2.57,14.72,2.57s11.25-.83,14.73-2.58ZM531,267.3c-9.55,0-14.46-2.39-14.72-3.25h0c.26-.91,5.17-3.29,14.72-3.29s14.4,2.35,14.73,3.27C545.37,265,540.46,267.3,531,267.3Z" transform="translate(-451.03 -215.16)"/><path class="cls-1" d="M478.61,279H466.24l-5.86-6.41V261.93l6.47-6.32h11.76a1.41,1.41,0,0,0,0-2.81H466.28a1.41,1.41,0,0,0-1,.4L458,260.33a1.79,1.79,0,0,0-.42,1.15v11.63a1.4,1.4,0,0,0,.37.95l6.65,7.27a1.39,1.39,0,0,0,1,.46h13a1.41,1.41,0,0,0,0-2.81Z" transform="translate(-451.03 -215.16)"/><path class="cls-1" d="M492.52,265.66h-1.64c-.51,0-.81-.29-.81-.41s.3-.41.81-.41H495a1.64,1.64,0,1,0,0-3.27h-1.63a1.64,1.64,0,1,0-3.27,0v.07a3.82,3.82,0,0,0-3.28,3.6,3.91,3.91,0,0,0,4.09,3.69h1.64c.51,0,.82.29.82.41s-.31.41-.82.41h-4.09a1.64,1.64,0,1,0,0,3.27h1.64a1.64,1.64,0,1,0,3.27,0V273a3.81,3.81,0,0,0,3.27-3.6A3.91,3.91,0,0,0,492.52,265.66Z" transform="translate(-451.03 -215.16)"/></svg>