<svg id="Layer_1" data-name="Layer 1" xmlns="http://www.w3.org/2000/svg" viewBox="0 0 438.65 424.53"><defs><style>.cls-1{fill:#d5f7d5;}.cls-2{fill:#71cc77;}.cls-3,.cls-6{fill:#fff;}.cls-4{fill:#e0e0e0;}.cls-5{fill:#d1d3d4;}.cls-6{opacity:0.56;}.cls-7{opacity:0.07;}</style></defs><title>2</title><path class="cls-1" d="M118.12,65.22S343.77-1,422.52,69.6,121.25,292.12,121.25,292.12l281.9,62.5S301.26,523.39,94.37,336.5"/><path class="cls-2" d="M54,259.44c-25.91-21.85-38.3-42.82-36.81-62.32s17-31.33,20.56-33.81C-1.58,77.62-10.17,25.05,12.25,7.06,31.11-8.09,70.76,1.17,130.08,34.56,174,59.31,213,88.82,213.42,89.12l-1.21,1.59C210.67,89.54,57-26.33,13.5,8.62-8.18,26,.73,78.05,40,163.25l.37.81-.75.46c-.19.12-18.77,11.73-20.36,32.77-1.42,18.82,10.72,39.22,36.1,60.62Z"/><rect class="cls-3" x="46.24" y="61.16" width="391.91" height="322.53" rx="8.69"/><path class="cls-4" d="M429.46,384.19H54.93A9.2,9.2,0,0,1,45.74,375V69.85a9.21,9.21,0,0,1,9.19-9.19H429.46a9.2,9.2,0,0,1,9.19,9.19V375A9.2,9.2,0,0,1,429.46,384.19ZM54.93,61.66a8.21,8.21,0,0,0-8.19,8.19V375a8.21,8.21,0,0,0,8.19,8.19H429.46a8.2,8.2,0,0,0,8.19-8.19V69.85a8.2,8.2,0,0,0-8.19-8.19Z"/><rect class="cls-5" x="127.5" y="321.18" width="266.9" height="20" rx="4.07"/><rect class="cls-3" x="127.5" y="274.3" width="266.9" height="20" rx="4.07"/><path class="cls-5" d="M390.33,294.81H131.57a4.58,4.58,0,0,1-4.57-4.57V278.37a4.58,4.58,0,0,1,4.57-4.57H390.33a4.58,4.58,0,0,1,4.57,4.57v11.87A4.58,4.58,0,0,1,390.33,294.81Zm-258.76-20a3.58,3.58,0,0,0-3.57,3.57v11.87a3.57,3.57,0,0,0,3.57,3.57H390.33a3.57,3.57,0,0,0,3.57-3.57V278.37a3.58,3.58,0,0,0-3.57-3.57Z"/><rect class="cls-5" x="127.5" y="241.18" width="266.9" height="20" rx="4.07"/><rect class="cls-3" x="127.5" y="192.42" width="266.9" height="20" rx="4.07"/><path class="cls-5" d="M390.33,212.92H131.57a4.57,4.57,0,0,1-4.57-4.56V196.49a4.58,4.58,0,0,1,4.57-4.57H390.33a4.58,4.58,0,0,1,4.57,4.57v11.87A4.57,4.57,0,0,1,390.33,212.92Zm-258.76-20a3.57,3.57,0,0,0-3.57,3.57v11.87a3.57,3.57,0,0,0,3.57,3.56H390.33a3.57,3.57,0,0,0,3.57-3.56V196.49a3.57,3.57,0,0,0-3.57-3.57Z"/><rect class="cls-5" x="127.5" y="159.3" width="266.9" height="20" rx="4.07"/><rect class="cls-3" x="87.51" y="158.98" width="20" height="20" rx="4.36"/><path class="cls-5" d="M103.15,179.48H91.87A4.87,4.87,0,0,1,87,174.62V163.34a4.87,4.87,0,0,1,4.86-4.86h11.28a4.87,4.87,0,0,1,4.86,4.86v11.28A4.87,4.87,0,0,1,103.15,179.48Zm-11.28-20A3.87,3.87,0,0,0,88,163.34v11.28a3.87,3.87,0,0,0,3.86,3.86h11.28a3.86,3.86,0,0,0,3.86-3.86V163.34a3.86,3.86,0,0,0-3.86-3.86Z"/><rect class="cls-5" x="87.51" y="192.42" width="20" height="20" rx="4.36"/><path class="cls-5" d="M103.15,212.92H91.87A4.87,4.87,0,0,1,87,208.06V196.78a4.87,4.87,0,0,1,4.86-4.86h11.28a4.87,4.87,0,0,1,4.86,4.86v11.28A4.87,4.87,0,0,1,103.15,212.92Zm-11.28-20A3.88,3.88,0,0,0,88,196.78v11.28a3.87,3.87,0,0,0,3.86,3.86h11.28a3.86,3.86,0,0,0,3.86-3.86V196.78a3.87,3.87,0,0,0-3.86-3.86Z"/><rect class="cls-3" x="87.51" y="241.18" width="20" height="20" rx="4.36"/><path class="cls-5" d="M103.15,261.68H91.87A4.87,4.87,0,0,1,87,256.82V245.54a4.87,4.87,0,0,1,4.86-4.86h11.28a4.87,4.87,0,0,1,4.86,4.86v11.28A4.87,4.87,0,0,1,103.15,261.68Zm-11.28-20A3.87,3.87,0,0,0,88,245.54v11.28a3.87,3.87,0,0,0,3.86,3.86h11.28a3.86,3.86,0,0,0,3.86-3.86V245.54a3.86,3.86,0,0,0-3.86-3.86Z"/><rect class="cls-5" x="87.51" y="275.55" width="20" height="20" rx="4.36"/><path class="cls-5" d="M103.15,296.06H91.87A4.87,4.87,0,0,1,87,291.2V279.92a4.87,4.87,0,0,1,4.86-4.87h11.28a4.87,4.87,0,0,1,4.86,4.87V291.2A4.87,4.87,0,0,1,103.15,296.06Zm-11.28-20A3.88,3.88,0,0,0,88,279.92V291.2a3.88,3.88,0,0,0,3.86,3.86h11.28A3.87,3.87,0,0,0,107,291.2V279.92a3.87,3.87,0,0,0-3.86-3.87Z"/><rect class="cls-3" x="87.5" y="322.43" width="20" height="20" rx="4.36"/><path class="cls-5" d="M103.14,342.94H91.86A4.87,4.87,0,0,1,87,338.07V326.8a4.87,4.87,0,0,1,4.86-4.87h11.28A4.87,4.87,0,0,1,108,326.8v11.27A4.87,4.87,0,0,1,103.14,342.94Zm-11.28-20A3.87,3.87,0,0,0,88,326.8v11.27a3.87,3.87,0,0,0,3.86,3.87h11.28a3.87,3.87,0,0,0,3.86-3.87V326.8a3.87,3.87,0,0,0-3.86-3.87Z"/><path class="cls-2" d="M94,175.62l-4.3-4.29a.81.81,0,1,1,1.15-1.15l3.72,3.73,9.69-9.69a.81.81,0,0,1,1.14,1.14L95.1,175.62A.8.8,0,0,1,94,175.62Z"/><path class="cls-3" d="M94,291.88l-4.3-4.29a.81.81,0,0,1,1.15-1.15l3.72,3.73,9.69-9.69a.81.81,0,0,1,1.14,1.14L95.1,291.88A.8.8,0,0,1,94,291.88Z"/><path class="cls-3" d="M94,208.13l-4.3-4.3a.81.81,0,1,1,1.15-1.14l3.72,3.72,9.69-9.69a.81.81,0,0,1,1.14,1.15L95.1,208.13A.81.81,0,0,1,94,208.13Z"/><path class="cls-2" d="M94,338.14l-4.3-4.3a.81.81,0,0,1,1.15-1.14l3.72,3.72,9.69-9.69a.81.81,0,0,1,1.14,1.15L95.1,338.14A.81.81,0,0,1,94,338.14Z"/><circle class="cls-2" cx="97.5" cy="110.85" r="21.88"/><rect class="cls-3" x="84.37" y="98.98" width="10" height="10" rx="1.47"/><rect class="cls-3" x="84.67" y="99.28" width="9.39" height="9.39" rx="1.17"/><path class="cls-2" d="M87.65,107.05,85.56,105a.39.39,0,0,1,0-.55.4.4,0,0,1,.56,0l1.8,1.8,4.7-4.69a.39.39,0,0,1,.56,0,.39.39,0,0,1,0,.55l-5,5A.39.39,0,0,1,87.65,107.05Z"/><path class="cls-3" d="M92.9,112.1H85.84a1.47,1.47,0,0,0-1.47,1.48v7a1.47,1.47,0,0,0,1.47,1.47H92.9a1.47,1.47,0,0,0,1.47-1.47v-7A1.47,1.47,0,0,0,92.9,112.1Zm1.17,8.53a1.17,1.17,0,0,1-1.17,1.17H85.84a1.17,1.17,0,0,1-1.17-1.17v-7a1.17,1.17,0,0,1,1.17-1.17H92.9a1.17,1.17,0,0,1,1.17,1.17Z"/><path class="cls-3" d="M87.65,120.17l-2.09-2.08a.4.4,0,0,1,.56-.56l1.8,1.81,4.7-4.7a.4.4,0,0,1,.56.56l-5,5A.38.38,0,0,1,87.65,120.17Z"/><rect class="cls-6" x="97.81" y="101.79" width="15" height="1.88"/><rect class="cls-6" x="97.81" y="105.23" width="11.56" height="1.88"/><rect class="cls-6" x="97.81" y="113.67" width="15" height="1.88"/><rect class="cls-6" x="97.81" y="117.1" width="11.56" height="1.88"/><path class="cls-7" d="M361.17,397.26a167.92,167.92,0,0,0,17.3-13.88H155.58q9.82,6.3,19.26,11.5C213.81,394.06,313.57,392.56,361.17,397.26Z"/></svg>