<svg id="Layer_1" data-name="Layer 1" xmlns="http://www.w3.org/2000/svg" viewBox="0 0 36.26 36.26"><defs><style>.cls-1{fill:#71cc77;}</style></defs><title>2</title><path class="cls-1" d="M33.84,12.09H26a.6.6,0,0,0-.6.6v2.42a.6.6,0,0,0,.6.6H27.8a1.21,1.21,0,0,1,0,2.42H26a.6.6,0,0,0-.6.61v3H16.32a.6.6,0,0,0-.61.6v7.86a2.41,2.41,0,0,0,2.42,2.41H33.84a2.42,2.42,0,0,0,2.42-2.41V14.51A2.42,2.42,0,0,0,33.84,12.09ZM25.38,31.43H18.13a1.21,1.21,0,0,1-1.21-1.21V23h8.46v1.2H24.17a2.42,2.42,0,1,0,0,4.84h1.21Zm9.67-1.21a1.21,1.21,0,0,1-1.21,1.21H26.59v-3a.6.6,0,0,0-.61-.6H24.17a1.21,1.21,0,0,1,0-2.42H26a.6.6,0,0,0,.61-.6V23H28.4v1.2a2.42,2.42,0,1,0,4.84,0V23h1.81Zm0-8.46H32.63a.6.6,0,0,0-.6.6v1.81a1.21,1.21,0,1,1-2.42,0V22.36a.6.6,0,0,0-.6-.6H26.59V19.34H27.8a2.42,2.42,0,0,0,0-4.83H26.59V13.3h7.25a1.21,1.21,0,0,1,1.21,1.21Z"/><path class="cls-1" d="M15.41,33.2A2.94,2.94,0,0,0,13.23,33l.4-2a13.39,13.39,0,0,0,.27-2.68V22.91l-.71-8.09,4.2-2a2.24,2.24,0,0,0,1.33-1.94h6.06a.6.6,0,0,0,.6-.6v-3h1.21a2.42,2.42,0,1,0,0-4.83H25.38V.61a.6.6,0,0,0-.6-.61H16.92A2.43,2.43,0,0,0,14.5,2.42V9.19L12,10.4a4.77,4.77,0,0,0-1.37-1.24A4.85,4.85,0,1,0,6,9,4.88,4.88,0,0,0,3.42,12.1L1,19.68a9.06,9.06,0,0,0,.39,6.5A7.86,7.86,0,0,1,1.28,33L.06,35.39a.61.61,0,0,0,.27.81.66.66,0,0,0,.27.06H7.25a.6.6,0,0,0,.61-.6A3,3,0,0,0,6.24,33l.29-.58a9.16,9.16,0,0,0,.81-5.69l-.45-2.46a.59.59,0,0,1,.47-.68h.11a.58.58,0,0,1,.57.48l.82,4.52a11.75,11.75,0,0,1,.2,2.22v4.87a.6.6,0,0,0,.61.6h6.65a.6.6,0,0,0,.6-.6c0-.12,0-.24,0-.36A2.67,2.67,0,0,0,15.41,33.2Zm.3-30.78a1.21,1.21,0,0,1,1.21-1.21h7.25V3a.6.6,0,0,0,.61.6h1.81a1.21,1.21,0,1,1,0,2.42H24.78a.6.6,0,0,0-.61.6v3H18.46a2.26,2.26,0,0,0-2.75-1.05ZM16,9.78a1.07,1.07,0,0,1,1,.09,1,1,0,0,1,.47.88,1,1,0,0,1-.63,1h0L8.73,15.61a1,1,0,0,1-1.38-.49,1.13,1.13,0,0,1-.1-.44,1,1,0,0,1,.59-.93ZM4.83,4.84A3.63,3.63,0,1,1,8.46,8.46,3.64,3.64,0,0,1,4.83,4.84Zm5.44,30.21V30.79a13.26,13.26,0,0,0-.22-2.44l-.82-4.52a1.79,1.79,0,1,0-3.53.62v0l.45,2.46a7.92,7.92,0,0,1-.7,4.93L4.86,33a.6.6,0,0,0,.27.81.29.29,0,0,0,.13,0,1.81,1.81,0,0,1,1.28,1.15h-5l.78-1.55a9,9,0,0,0,.14-7.82A7.85,7.85,0,0,1,2.16,20l2.42-7.61A3.71,3.71,0,0,1,8.86,9.74a3.59,3.59,0,0,1,2,1.19L7.31,12.66a2.28,2.28,0,0,0-1.27,2,2.24,2.24,0,0,0,2.24,2.24,2.19,2.19,0,0,0,1-.22L12,15.38,12.69,23v5.35a12.46,12.46,0,0,1-.24,2.44L11.8,34a.61.61,0,0,0,.9.64l.53-.3a1.71,1.71,0,0,1,1.63,0,1.54,1.54,0,0,1,.74.77Z"/><path class="cls-1" d="M18.73,17.88l-2-2-.85.86L20.12,21A.61.61,0,0,0,21,21l4.23-4.23-.85-.86-2,2V14.51H21.15v4.58l-.6.6-.61-.6V16.92H18.73Z"/><rect class="cls-1" x="18.73" y="14.51" width="1.21" height="1.21"/><rect class="cls-1" x="18.73" y="12.09" width="1.21" height="1.21"/><rect class="cls-1" x="21.15" y="12.09" width="1.21" height="1.21"/></svg>