<svg xmlns="http://www.w3.org/2000/svg" viewBox="0 0 802.94 326.99"><defs><style>.cls-1{isolation:isolate;}.cls-2{fill:#dcf7ff;}.cls-3,.cls-6{fill:#fff;}.cls-3{stroke:#dcf7ff;}.cls-23,.cls-3,.cls-9{stroke-miterlimit:10;}.cls-3,.cls-9{stroke-width:2px;}.cls-4{fill:#55daf9;}.cls-5{fill:#4d8bd7;}.cls-7{fill:#b8b8b8;opacity:0.12;}.cls-19,.cls-43,.cls-7{mix-blend-mode:multiply;}.cls-24,.cls-8{fill:#03c5f9;}.cls-22,.cls-23,.cls-9{fill:none;}.cls-9{stroke:#03c5f9;}.cls-10{fill:#caf5fc;}.cls-11{fill:#1acbe8;}.cls-12{fill:#f2be9b;}.cls-13{fill:#1f2e3b;}.cls-14{fill:#21283a;}.cls-15{fill:#393f5c;}.cls-16{fill:#edb48d;}.cls-17{fill:#f0667e;}.cls-18{fill:#fb7484;}.cls-19{fill:#cacaca;opacity:0.44;}.cls-20{fill:#c8cdeb;}.cls-21{fill:#4f5977;}.cls-22{stroke:#f2be9b;stroke-linecap:round;stroke-linejoin:round;stroke-width:1.47px;}.cls-23{stroke:#f0667e;stroke-width:0.56px;}.cls-24{font-size:9.27px;font-family:SFProDisplay-Medium, SFProDisplay Medium;font-weight:500;}.cls-25{letter-spacing:-0.08em;}.cls-26{fill:#ffc976;}.cls-27{fill:#ffb400;}.cls-28{fill:#f9627b;}.cls-29{opacity:0.2;}.cls-30{fill:#6b2900;}.cls-31{fill:#cfc8c1;}.cls-32{fill:#ebe4db;}.cls-33{opacity:0.1;}.cls-34{fill:#9d692b;}.cls-35{fill:#0073ff;}.cls-36{fill:#5f381e;}.cls-37{fill:#89857f;}.cls-38{fill:#c55e00;}.cls-39{fill:#03c8fc;}.cls-40{fill:#06bfea;}.cls-41{fill:#3ad7fc;}.cls-42{fill:#b87d34;}.cls-43{fill:aqua;opacity:0.5;}.cls-44{opacity:0.05;}</style></defs><title>Untitled-1</title><g class="cls-1"><g id="Layer_1" data-name="Layer 1"><path class="cls-2" d="M364.11,280.24C273,279-100.2,253.41,25.67,157S110.86-34.78,255,123.68,418.92-2.45,528.39,0,857.16,36.52,755.77,115.65s20,57.11,35.65,88.11S823,286.6,364.11,280.24Z"/><path class="cls-2" d="M245.31,63.78A100.91,100.91,0,0,1,252,55.86c4.56-4.48,9.8-12.41,26.54-6.57A36.66,36.66,0,0,1,282.33,51c1.48.71,6.05.73,10.73-3.52,7.44-6.74,10.35-11.83,20.54-12,11.86-.19,13.73,16.7,22.94,21,5.87,2.75,21.34,5.49,24.55,6.7Z"/><path class="cls-3" d="M454.12,21.67A47.77,47.77,0,0,0,450.54,18c-2.44-2.11-5.25-5.82-14.22-3.08a19.44,19.44,0,0,0-2,.78c-.79.33-3.24.34-5.75-1.65-4-3.17-5.55-5.56-11-5.63-6.35-.09-7.35,7.83-12.29,9.86-3.14,1.29-11.44,2.58-13.15,3.15Z"/><path class="cls-4" d="M770.28,249.81c-.63,0-16.45-1.87-17.17-16.58s9.36-18.37,6.71-34.75-9.62-21.1,6-33.06c0,0,7-4.81,7.28-11.57.39-8.08,14.35-17.47,23.71-12.07S804,155.5,795.94,169s-.29,15.84,1.25,20.2,5.12,8.93-3.07,19.35,1.57,23.14-5.39,33.12C788.73,241.66,782.61,249.05,770.28,249.81Z"/><path class="cls-5" d="M772.75,272.37a.67.67,0,0,0,.49-.78c-8.5-44.92,8.83-106.19,9-106.8a.67.67,0,1,0-1.28-.37c-.18.62-17.6,62.19-9,107.42a.66.66,0,0,0,.78.53Z"/><path class="cls-5" d="M776.3,188.84l.11,0a.67.67,0,0,0,.34-.88,89.25,89.25,0,0,1-5-14.8.67.67,0,1,0-1.31.28,90.43,90.43,0,0,0,5.11,15.06A.66.66,0,0,0,776.3,188.84Z"/><path class="cls-5" d="M774,202.43a.91.91,0,0,0,.26-.13c3.36-2.78,11.81-8,11.89-8.07a.66.66,0,1,0-.7-1.13c-.35.21-8.61,5.33-12,8.17a.66.66,0,0,0-.09.94A.68.68,0,0,0,774,202.43Z"/><path class="cls-5" d="M772.12,215.66l.14,0a.67.67,0,0,0,.29-.9l-4.71-9.3a.67.67,0,1,0-1.19.6l4.71,9.31A.66.66,0,0,0,772.12,215.66Z"/><path class="cls-6" d="M568.42,246.35l-.62-1.76-.61,1.76a6.13,6.13,0,0,1-3.4,3.46h0a6.07,6.07,0,0,1,3.4,3.46l.61,1.75.62-1.75a6.08,6.08,0,0,1,3.39-3.46h0A6.14,6.14,0,0,1,568.42,246.35Z"/><path class="cls-6" d="M741.75,97.85l-1-2.94-1,2.94a10.22,10.22,0,0,1-5.7,5.8h0a10.28,10.28,0,0,1,5.7,5.8l1,2.94,1-2.94a10.31,10.31,0,0,1,5.7-5.8h0A10.25,10.25,0,0,1,741.75,97.85Z"/><path class="cls-4" d="M456.67,68.47H677.53a6.92,6.92,0,0,1,6.92,6.92v15a0,0,0,0,1,0,0h-235a0,0,0,0,1,0,0V75.65A7.18,7.18,0,0,1,456.67,68.47Z"/><circle class="cls-6" cx="471.85" cy="79.95" r="2.93"/><circle class="cls-6" cx="482.23" cy="79.95" r="2.93"/><circle class="cls-6" cx="492.61" cy="79.95" r="2.93"/><rect class="cls-6" x="449.49" y="90.36" width="234.95" height="145.48"/><rect class="cls-6" x="458.16" y="97.22" width="216.93" height="130.76"/><rect class="cls-2" x="471.59" y="112.73" width="84.65" height="99.19" rx="1.76"/><rect class="cls-2" x="572.26" y="111.22" width="76.49" height="54.35" rx="1.24"/><rect class="cls-2" x="570.06" y="181.4" width="87.53" height="27.41" rx="0.94"/><rect class="cls-7" x="580.6" y="126.83" width="68.15" height="22.31" rx="0.75"/><rect class="cls-8" x="588.61" y="120.6" width="65.39" height="22.31" rx="0.73"/><path class="cls-8" d="M500,135.78H487.06a5.77,5.77,0,0,1-5.77-5.77h0a5.77,5.77,0,0,1,5.77-5.78H500a5.78,5.78,0,0,1,5.78,5.78h0A5.77,5.77,0,0,1,500,135.78Z"/><path class="cls-8" d="M545.66,127.29H512.51a.52.52,0,0,1-.52-.52.52.52,0,0,1,.52-.52h33.15a.52.52,0,0,1,.52.52A.52.52,0,0,1,545.66,127.29Z"/><path class="cls-8" d="M527.83,133.77H512.51a.53.53,0,0,1,0-1.05h15.32a.53.53,0,0,1,0,1.05Z"/><rect class="cls-6" x="541.76" y="148.79" width="0.72" height="36"/><rect class="cls-6" x="530.9" y="148.79" width="0.72" height="36"/><rect class="cls-6" x="520.03" y="148.79" width="0.72" height="36"/><rect class="cls-6" x="509.17" y="148.79" width="0.72" height="36"/><rect class="cls-6" x="498.31" y="148.79" width="0.72" height="36"/><rect class="cls-6" x="487.44" y="148.79" width="0.72" height="36"/><rect class="cls-6" x="478.84" y="188.93" width="71.36" height="0.72"/><path class="cls-9" d="M480.81,181.4c2.24-3.86,5.17-11.31,10.9-11.31,4.37,0,5.21,10.43,11.88,12.07s5.08-26,10.55-25.76,3.87,18.5,10.27,19.43,6.14-4.45,11.21-4,4.67,8,13.88,7"/><path class="cls-6" d="M643.35,128.88H597.2a.72.72,0,0,1,0-1.44h46.15a.72.72,0,1,1,0,1.44Z"/><path class="cls-6" d="M618.53,136.07H597.2a.72.72,0,0,1-.72-.72.73.73,0,0,1,.72-.73h21.33a.73.73,0,0,1,.72.73A.72.72,0,0,1,618.53,136.07Z"/><path class="cls-4" d="M589.69,321.67l-70.45-11.1a1.1,1.1,0,0,1-.91-1.25h0a1.11,1.11,0,0,1,1.26-.92L590,319.5a1.11,1.11,0,0,1,.91,1.26h0A1.1,1.1,0,0,1,589.69,321.67Z"/><path class="cls-10" d="M565.85,327l-63.17-5.41a1,1,0,0,1-.88-1.05h0a1,1,0,0,1,1.05-.89L566,325.05a1,1,0,0,1,.89,1.05h0A1,1,0,0,1,565.85,327Z"/><path class="cls-11" d="M618.51,286c-10.15,0-18.37,4.69-18.37,10.49S608.36,307,618.51,307c6.35,0,12-1.85,15.25-4.65a7.79,7.79,0,0,0,3.11-5.84C636.87,290.68,628.65,286,618.51,286Z"/><polygon class="cls-11" points="600.13 296.93 600.13 293.77 636.87 293.77 636.77 297.53 600.13 296.93"/><path class="cls-4" d="M636.87,293.77a7.81,7.81,0,0,1-3.11,5.85c-3.3,2.8-8.9,4.64-15.25,4.64-10.15,0-18.37-4.7-18.37-10.49s8.22-10.49,18.37-10.49S636.87,288,636.87,293.77Z"/><path class="cls-10" d="M636.87,293.77a7.81,7.81,0,0,1-3.11,5.85l-15.25-5.85V283.28C628.65,283.28,636.87,288,636.87,293.77Z"/><path class="cls-12" d="M693.85,244.76l-5.93,10.75,1.14,50.72-7.19,3-6-51.77a5.39,5.39,0,0,1-.07-2.9l2.5-9.77Z"/><polygon class="cls-12" points="719.3 244.69 718.42 307.2 711.14 307.36 706.61 244.69 719.3 244.69"/><path class="cls-13" d="M678.79,306.35l-3.36,3.31-7.54,1.84a2.35,2.35,0,0,0-1.67,1.51l-.39,1.09a.83.83,0,0,0,.8,1.1l22-.47a1.37,1.37,0,0,0,1.34-1.48l-.57-7-2.71.9a4.5,4.5,0,0,1-3.69-.38l-1.3-.76A2.4,2.4,0,0,0,678.79,306.35Z"/><path class="cls-13" d="M708.31,305.72,705,309l-7.55,1.83a2.38,2.38,0,0,0-1.67,1.52l-.38,1.09a.83.83,0,0,0,.79,1.1l22-.47a1.37,1.37,0,0,0,1.34-1.48l-.57-7-2.71.9a4.5,4.5,0,0,1-3.69-.38l-1.31-.76A2.38,2.38,0,0,0,708.31,305.72Z"/><path class="cls-14" d="M698.53,119.72s15.77-1.66,20.49,12.33a7.33,7.33,0,0,1,.36,1.91,15.73,15.73,0,0,1-1.22,7.48c-1.83,3.66,5.25,9.21,10.83,14.95,7.13,7.36.93,26.54-17.28,28.45s-29.2-3.89-28.27-12.56,8-7.11,9.75-13.09-9.8-6.87-8.07-15.11,2.79-11.59,4.32-17Z"/><path class="cls-8" d="M688.61,157.08l6.68,30.35,18.32-.39,3.47-29.66a3.3,3.3,0,0,0-3.25-3.51l-22.13-.34A3.08,3.08,0,0,0,688.61,157.08Z"/><polygon class="cls-8" points="693.66 153.56 679.64 153.52 679.23 163.54 694.85 166.71 693.66 153.56"/><polygon class="cls-12" points="679.64 153.52 665.96 152.43 664.96 161.63 679.23 163.54 679.64 153.52"/><polygon class="cls-12" points="665.96 152.43 649.9 137.13 646.75 141.47 664.96 161.63 665.96 152.43"/><path class="cls-8" d="M688.61,157.08l-.71,9.65a4.35,4.35,0,0,0,.89,3l6.3,8.17Z"/><path class="cls-15" d="M695.29,187.43l-.16,3.63-17.19,54.77H723.3l-.95-42.74S721.51,192,713.61,187Z"/><path class="cls-12" d="M727.35,208.08a5.6,5.6,0,1,1-2.21-7.6A5.59,5.59,0,0,1,727.35,208.08Z"/><path class="cls-12" d="M650,139.83a5.6,5.6,0,1,1-2.21-7.61A5.59,5.59,0,0,1,650,139.83Z"/><path class="cls-8" d="M713.83,153.87a17.27,17.27,0,0,1,10.83,5l7.63,7-5.54,7.38L714,162.81Z"/><path class="cls-12" d="M726.75,173.3l6.82,5.39-11.22,22.84,3.24,3.16,16.5-26.6a3.33,3.33,0,0,0-.76-4l-9-8.22Z"/><path class="cls-16" d="M703,157.58l-.74-.07a3.66,3.66,0,0,1-3.28-4l1.22-13.81,8,.8L707,154.26A3.66,3.66,0,0,1,703,157.58Z"/><path class="cls-12" d="M688.49,127.92H708.3a0,0,0,0,1,0,0v16.16a5.35,5.35,0,0,1-5.35,5.35h-9.12a5.35,5.35,0,0,1-5.35-5.35V127.92a0,0,0,0,1,0,0Z" transform="translate(14.39 -59.13) rotate(4.9)"/><path class="cls-14" d="M709.76,136.29l-2.38,3s-2.59,1.42-2.17-3.47c.35-4.13-2.72-4.07-2.72-4.07s-11.66,5.38-16.4-1.1c-3.74-5.11,6.65-11.76,14.36-10.9l10.18,7.38Z"/><path class="cls-12" d="M706.22,139.21a3.25,3.25,0,1,0,3.54-2.92A3.25,3.25,0,0,0,706.22,139.21Z"/><path class="cls-6" d="M708.7,141.26a.58.58,0,0,0,.53.63.58.58,0,0,0,.11-1.16A.58.58,0,0,0,708.7,141.26Z"/><path class="cls-6" d="M690.36,141.58h6.34s-.26,2.64-3.68,2.42A2.5,2.5,0,0,1,690.36,141.58Z"/><path class="cls-12" d="M439.06,161.93,451.11,172l19.55-15,5,4.26L452.47,182.3a2.63,2.63,0,0,1-3.77.2l-14.37-12.05Z"/><path class="cls-17" d="M429.85,149.69s.91-.68,13,11.95l-8.63,12.45-5.47-5.65Z"/><path class="cls-12" d="M404.15,166.65l-11,12.07,13.5,24L401.67,207l-18.95-28.5a2.64,2.64,0,0,1,.37-3.76l13.34-14.06Z"/><path class="cls-18" d="M420.32,147.68l8.12,1.53a5.24,5.24,0,0,1,4.2,4.3l6.93,45.23L406,197.69,402.28,155a5.25,5.25,0,0,1,4.6-5.69Z"/><polygon class="cls-18" points="395.01 306.42 397.03 292.53 405.02 293.36 402.55 307.43 395.01 306.42"/><polygon class="cls-18" points="449.09 305.11 447.23 290.76 455.22 289.75 456.38 304.11 449.09 305.11"/><polygon class="cls-15" points="439.57 198.74 442.77 212.07 404.75 211.53 406.04 197.69 439.57 198.74"/><polygon class="cls-15" points="423.99 207.47 435.6 243.9 445.36 294.74 457.28 292.44 451.5 243 441.91 208.52 423.99 207.47"/><polygon class="cls-19" points="425.46 211.83 435.27 211.83 427.7 219.13 425.46 211.83"/><polygon class="cls-15" points="404.92 209.69 402.28 245.53 393.99 293.53 407.62 294.81 417.86 247.19 422.32 207.55 404.92 209.69"/><path class="cls-13" d="M456.38,304.11l-7.29,1,1.26,10.95,22.81-.91h0a3.82,3.82,0,0,0-3.31-3.07L457.16,309Z"/><polygon class="cls-20" points="450.35 316.06 473.16 315.15 473.37 316.84 450.56 317.75 450.35 316.06"/><path class="cls-13" d="M402.55,307.43l-7.54-1-1.5,10.91,21.75.94h0a3.91,3.91,0,0,0-2.44-3.85l-11-2.06Z"/><polygon class="cls-20" points="393.51 317.33 415.26 318.27 415.04 319.96 393.3 319.01 393.51 317.33"/><path class="cls-21" d="M456.84,290.37l-12,1.76a3.23,3.23,0,0,0-2.82,3.53h0a3.12,3.12,0,0,0,3.62,2.59l12-1.77a3.23,3.23,0,0,0,2.82-3.53h0A3.1,3.1,0,0,0,456.84,290.37Z"/><path class="cls-21" d="M406.38,294l-12.05-1.44a3.14,3.14,0,0,0-3.56,2.68h0a3.22,3.22,0,0,0,2.89,3.46l12,1.44a3.14,3.14,0,0,0,3.56-2.68h0A3.22,3.22,0,0,0,406.38,294Z"/><path class="cls-16" d="M418.29,151.73h.81a4,4,0,0,0,4-4l.11-15.08-8.78,0-.1,15A4,4,0,0,0,418.29,151.73Z"/><path class="cls-12" d="M420.26,122.07h9.93a5.82,5.82,0,0,1,5.82,5.82v17.59a0,0,0,0,1,0,0H414.44a0,0,0,0,1,0,0V127.89a5.82,5.82,0,0,1,5.82-5.82Z" transform="matrix(-1, -0.01, 0.01, -1, 849.19, 271.51)"/><path class="cls-14" d="M414.58,131.81l3.07.09a1.32,1.32,0,0,0,1.35-1.54c-.36-2.23-.76-6.05.69-6.49,2.07-.61,13,2.47,16.8-.32,5.35-3.91,1.67-10.41-3.08-10.77s-4.16,5.16-9.7,5-13.92-2.5-10.57,12.26Z"/><path class="cls-12" d="M410.77,132.36a3.39,3.39,0,1,0,3.42-3.36A3.39,3.39,0,0,0,410.77,132.36Z"/><path class="cls-14" d="M430.06,130.51a4.24,4.24,0,1,1,4.24,4.24A4.24,4.24,0,0,1,430.06,130.51Zm1.12,0a3.12,3.12,0,1,0,3.12-3.11A3.12,3.12,0,0,0,431.18,130.51Z"/><path class="cls-14" d="M421,130.51a4.24,4.24,0,1,1,4.24,4.24A4.24,4.24,0,0,1,421,130.51Zm1.12,0a3.12,3.12,0,1,0,3.12-3.11A3.12,3.12,0,0,0,422.09,130.51Z"/><rect class="cls-14" x="428.75" y="128.42" width="2.21" height="1.12"/><rect class="cls-14" x="418.55" y="129.4" width="3.54" height="1.12"/><path class="cls-18" d="M405.24,149.76s-3.55,1.67-15.64,14.31l10,11.21,7.29-6.84Z"/><path class="cls-12" d="M411.74,206.65a5.76,5.76,0,1,1-5.76-5.76A5.76,5.76,0,0,1,411.74,206.65Z"/><path class="cls-12" d="M480.48,160a5.45,5.45,0,1,1-5.45-5.45A5.45,5.45,0,0,1,480.48,160Z"/><line class="cls-22" x1="471.43" y1="158.07" x2="479.22" y2="151.6"/><polygon class="cls-17" points="409.25 162.9 419.53 162.66 420.02 171.71 415.91 174.09 410.21 172.39 409.25 162.9"/><path class="cls-23" d="M411.74,148.7s0,6.3,7.85,6c0,0,5.62,0,5.38-6.12"/><text class="cls-24" transform="translate(575.74 198.57)">PUBLIC REL<tspan class="cls-25" x="43.83" y="0">A</tspan><tspan x="48.79" y="0">TION</tspan></text><path class="cls-26" d="M162.92,174.79c-.54-.86-.83-1.86-1.42-2.69a2.49,2.49,0,0,0-2.58-1.2,8.31,8.31,0,0,0-3.06-.9,2.68,2.68,0,0,0-2.58,1.38,2.77,2.77,0,0,0-.19,1.14,4.61,4.61,0,0,0,2.81,4.11,9.11,9.11,0,0,0,1.78.45l4.11.75C162.71,177.19,163.52,175.73,162.92,174.79Z"/><path class="cls-13" d="M246.3,321.61v0a1.46,1.46,0,0,0-.24-1,27.24,27.24,0,0,0-3.72-3.91,10.09,10.09,0,0,1-2.93-6.13c-1.45-1.53-3.11-1.22-4.58.24a17,17,0,0,1-.92,8.48,19.5,19.5,0,0,0-.91,2.29,5.71,5.71,0,0,0-.17,1.25h12.08A1.4,1.4,0,0,0,246.3,321.61Z"/><path class="cls-13" d="M218,309.92a19.91,19.91,0,0,0,2.39,4.6c-1.43,1.65-3.17,3.2-4.69,4.78a32.83,32.83,0,0,0-6,1.35c-.36.1-.61.29-.49.64a1.69,1.69,0,0,0,.73.81,7.63,7.63,0,0,0,4.37.67l5.44-.25c2.39-2.65,5.68-5.44,8.25-7.91a18.68,18.68,0,0,0-6.7-7.34A6.92,6.92,0,0,0,218,309.92Z"/><path class="cls-27" d="M206.91,166a74.73,74.73,0,0,0-23,19.07C177,181.5,170.1,177.3,163.06,174c-2,1.4-2.19,2.24-2.25,4.68,6.49,7.75,14.59,14.64,24.57,16.22,8.83,1.38,14.8-5.43,24.33-11.35a98.76,98.76,0,0,0,.13-15.87A2,2,0,0,0,206.91,166Z"/><path class="cls-28" d="M206.91,166a74.73,74.73,0,0,0-23,19.07C177,181.5,170.1,177.3,163.06,174c-2,1.4-2.19,2.24-2.25,4.68,6.49,7.75,14.59,14.64,24.57,16.22,8.83,1.38,14.8-5.43,24.33-11.35a98.76,98.76,0,0,0,.13-15.87A2,2,0,0,0,206.91,166Z"/><path class="cls-29" d="M209.74,183.1c-.76-2.41-1.88-4.69-2.73-7.07s-1.94-5-1.48-7.59a50.79,50.79,0,0,1-4.32,6.9,34.76,34.76,0,0,0-2.83,4.07,7.67,7.67,0,0,0-1.17,4.63,32.71,32.71,0,0,0-8.09,8.5,30.66,30.66,0,0,1-13.77-4.2c-4.22-2.38-9.57-4.3-11.6-8.71a13.54,13.54,0,0,1-1.22-5.27c-1.5,1.18-1.67,2.08-1.72,4.28,6.49,7.75,14.59,14.64,24.57,16.22,8.83,1.38,14.8-5.43,24.33-11.35Z"/><path class="cls-15" d="M214.07,204.05c-9.65,18.11-14.17,38.74-18.57,59.05-1.82,8.38,5.29,16.12,9.24,23.6,4.41,8.37,10,16.17,12.85,25.26,2.55-.67,5.29-1.4,7.42-3-4.86-6.54-6.31-15.08-7.11-23.4s-5.26-17.24-10.69-23.24c2.45-4.81,9.17-8.33,13.09-11.85a14.49,14.49,0,0,0,3.73-4.15C230.64,232.73,221.8,216.9,214.07,204.05Z"/><path class="cls-29" d="M217.9,285.52c-.81-8.31-5.26-17.24-10.69-23.24,2.45-4.81,9.17-8.33,13.09-11.85a14.49,14.49,0,0,0,3.73-4.15c4.42-9.07,1.92-19.16-2.53-28.7a21,21,0,0,0-7.05-5.78,12.81,12.81,0,0,0-3.59-1.22A148.3,148.3,0,0,0,204.59,227a81.91,81.91,0,0,0,5.24,25c-1.39,2-2.81,4.46-4.29,6.37-1.7,0-3.25-.06-4.95-.06,1.39.22,2.52,1.33,3.74,2-1.53.84-3.29,2-4.83,2.87,1.42,0,3.05.39,4.42,0,.72,4.19,3.33,8.17,5.53,11.82a66.6,66.6,0,0,1,8,20.15c.76,3.49,1.23,7.05,2.33,10.45a21.85,21.85,0,0,0,2.28,5,12.77,12.77,0,0,0,3-1.66C220.15,302.38,218.7,293.84,217.9,285.52Z"/><path class="cls-30" d="M219.31,198.92A44.29,44.29,0,0,0,227.2,207a7.78,7.78,0,0,0,4.11,2,6.84,6.84,0,0,0,4-1.25,17.15,17.15,0,0,0,3.74-3.11c1.73-1.91,3-4.21,4.89-6,2.7-2.6,6.79-4.51,7.25-8.23.58-4.67-5.2-8.32-4.7-13,.26-2.46,2.26-4.63,1.92-7.08-.24-1.76-1.62-3.1-2.93-4.31l-4.9-4.52c-1.66-1.52-3.39-3.17-4-5.34-1-3.89,1.91-8.12.56-11.91-1.13-3.18-4.86-4.65-8.23-4.84a5.09,5.09,0,0,1-2-.33c-1.31-.61-1.73-2.23-2.51-3.46a7.24,7.24,0,0,0-7.34-2.83c-2.73.49-5.11,2.63-6.9,4.76-1.66,2-4.74,1.67-7,2.78a6.73,6.73,0,0,0-3.54,6.59,8.18,8.18,0,0,0,4.36,6.26,10.48,10.48,0,0,0,7.74.64c2.31-.67,4.76,1.74,5.65,4,1.38,3.48.39,7.39-.53,11q-1.74,6.9-3,13.88a25.51,25.51,0,0,0-.6,6.68C213.5,193.63,216.78,195.53,219.31,198.92Z"/><path class="cls-29" d="M204,153.23a10.48,10.48,0,0,0,7.74.64c1.49-.43,3,.42,4.2,1.68a4.34,4.34,0,0,0,.29-1.43c.06-1.83-1-3.61-2.76-3.36a22.37,22.37,0,0,1-2.71.25,11.29,11.29,0,0,1-5.57-1.42,6.28,6.28,0,0,0,2.26,3,7.11,7.11,0,0,1-3.59-1.38,12.67,12.67,0,0,1-2.27-1.72,7,7,0,0,1-1.9-4.11,6.68,6.68,0,0,0,0,1.61A8.18,8.18,0,0,0,204,153.23Z"/><path class="cls-15" d="M209.78,203.25a187.21,187.21,0,0,0,11.65,66.17c5.18,14,12.12,27.68,13,42.54H241c-2.35-8-.8-16.35-.73-24.68a54.4,54.4,0,0,0-7.63-28.14c-2.26-3.79-1.59-10-1.47-14.36.19-7.42,2.29-14.66,2.82-22.06s-.86-15.53-6.31-20.56C222.8,197.67,215.91,200.73,209.78,203.25Z"/><path class="cls-29" d="M240.26,287.28a54.4,54.4,0,0,0-7.63-28.14c-2.26-3.79-1.59-10-1.47-14.36.19-7.42,2.29-14.66,2.82-22.06.41-5.87-.38-12.2-3.44-17.07a34.27,34.27,0,0,0-9.31,2.17c-3.37,1.13-6.88,2.53-10.25,3.66,0,1.73,1.47,3.05,2.85,4.11,2.53,1.93,5.13,3.89,8.15,4.89a28.92,28.92,0,0,0,7.36,1.09c-.65,12.37-1.88,24.48-2.13,36.86-2,.27-4.53.48-6.25,1.46,2.73.3,5.47.35,8.21.64-1.31,1.3-4,3.21-5.3,4.51,2-.58,4.76-1,6.72-1.56,3,3.63,4.07,8.57,4.87,13.23a77.32,77.32,0,0,1,.6,11,90.44,90.44,0,0,0,4,24.27H241C238.64,304,240.19,295.61,240.26,287.28Z"/><path class="cls-18" d="M233.58,213a20.51,20.51,0,0,0-.88-7.36c-.76-2.11-2.1-4-3-6a16,16,0,0,1-.9-10.29c.59-2.4,1.74-4.63,2.41-7a36.49,36.49,0,0,0,1-8.35,11.75,11.75,0,0,0-.57-5.28c-1.31-3-4.84-4.4-8.1-4.94a31.76,31.76,0,0,0-14,.86,9.1,9.1,0,0,0-6.43,7.17A23.35,23.35,0,0,1,201.4,177c-1.36,3.2-2.62,6.88-1.22,10.07.74,1.69,2.14,3,3.16,4.52,2.23,3.33,2.59,7.52,3.09,11.5s1.35,8.21,4.22,11C216.21,219.49,226.78,216.78,233.58,213Z"/><path class="cls-31" d="M228,211.51a96.72,96.72,0,0,0-4.26-27.86,70.64,70.64,0,0,0-16.58,3.09,130.12,130.12,0,0,1,5.63,26.91A59.28,59.28,0,0,0,228,211.51Z"/><path class="cls-32" d="M227.24,213.4A96.38,96.38,0,0,0,223,185.54a70.73,70.73,0,0,0-16.58,3.09A130.8,130.8,0,0,1,212,215.54,59.14,59.14,0,0,0,227.24,213.4Z"/><path class="cls-33" d="M232.7,205.65a41.41,41.41,0,0,0-2.46-4.89,27.15,27.15,0,0,1-2.86,2c-3.54,2.14-7.66,4.47-11.79,4.63,0,.2,0,.4,0,.6a2.42,2.42,0,0,1-.7-.31,12.68,12.68,0,0,0-2.32-1.38,2.29,2.29,0,0,0-2.51.44,2.79,2.79,0,0,0-.42,2.07,4.26,4.26,0,0,0,.79,2.23,3.81,3.81,0,0,0,1.69,1.12,6,6,0,0,0,3.78.06l.12.43a61.71,61.71,0,0,0,17.49-3.19A15.3,15.3,0,0,0,232.7,205.65Z"/><path class="cls-26" d="M214.6,205.11a1.46,1.46,0,0,1-1.28-.28,12.73,12.73,0,0,0-2.32-1.39,2.31,2.31,0,0,0-2.51.45,2.75,2.75,0,0,0-.42,2.07,4.32,4.32,0,0,0,.79,2.23,3.79,3.79,0,0,0,1.69,1.11,6,6,0,0,0,4.16-.06c.21-.09.44-.21.5-.43.53-.48.45-1.2.37-1.9A2.23,2.23,0,0,0,214.6,205.11Z"/><path class="cls-18" d="M225.1,177.78c2.05.58,3.58,2.28,4.86,4,1.94,2.6,3.65,5.68,3.31,8.91-.43,4.08-3.94,7.1-7.44,9.22s-7.66,4.48-11.79,4.64a16,16,0,0,0,.41,5.26,62,62,0,0,0,19.91-4.07c5.37-2.06,11-5.54,12.24-11.15,1-4.27-.85-8.66-3-12.47A65,65,0,0,0,236,171.43c-2.69-3.08-6-6.07-10.08-6.45A31.58,31.58,0,0,0,225.1,177.78Z"/><path class="cls-33" d="M243.58,182.11A65,65,0,0,0,236,171.43a21.7,21.7,0,0,0-6.55-5.44,13.8,13.8,0,0,0-5.89-2.24,31.76,31.76,0,0,0-14,.86,9.35,9.35,0,0,0-2.25,1,2.54,2.54,0,0,0,1,.61,12.75,12.75,0,0,1,2.33.54c1.74,1,.9,3.84,2.15,5.4,1.07,1.33,3.17,1.12,4.75.48s3.17-1.61,4.86-1.39c3.43.44,4.92,5.3,8.35,5.74,1.74.23,3.68-.78,5.18.13,1,.64,1.41,2,2.14,2.93a6.07,6.07,0,0,0,4.95,2.15l.65,0A.3.3,0,0,0,243.58,182.11Z"/><path class="cls-26" d="M213.66,155.64q.63,4,1.24,8a10.43,10.43,0,0,1,.18,1.84c0,.48.57.29,1,.42a10,10,0,0,0,2.23.44,6,6,0,0,0,3.62-1c-.41-3.28-.48-6.68-.76-10,0-.56-.89-.68-1.44-.77A8,8,0,0,0,213.66,155.64Z"/><path class="cls-29" d="M221.2,155.39c0-.56-.89-.68-1.44-.77a8,8,0,0,0-6.1,1q.63,4,1.24,8l.09.58a8.7,8.7,0,0,0,5.24-1.46,6.71,6.71,0,0,0,1.36-1.55C221.46,159.28,221.36,157.32,221.2,155.39Z"/><path class="cls-26" d="M212.18,148.35a13.51,13.51,0,0,0-.72,6.82,37.15,37.15,0,0,0,1.69,6.72c2.39.06,5.22,0,7.08-1.46a8.38,8.38,0,0,0,2.21-3.12,10.34,10.34,0,0,0,1.17-6.62,6.62,6.62,0,0,0-4.84-4.88C216.41,145.26,213.1,146.12,212.18,148.35Z"/><path class="cls-33" d="M223.61,150.69a6.62,6.62,0,0,0-4.84-4.88c-2.36-.55-5.67.31-6.59,2.54a12.85,12.85,0,0,0-.82,5.77l.58-.24,2.53-1.1a3.54,3.54,0,0,0,2.06-1.63,5.18,5.18,0,0,0,1.31,3.75c.38.39.82.71,1.18,1.12a4.62,4.62,0,0,1,1,3.06,9.29,9.29,0,0,1-.2,1.66,4.37,4.37,0,0,0,.44-.31,8.38,8.38,0,0,0,2.21-3.12A10.34,10.34,0,0,0,223.61,150.69Z"/><path class="cls-30" d="M209.6,151a11.1,11.1,0,0,0,8.6-2.54c-.14,1.49-.1,3.37,1,4.37a9.52,9.52,0,0,1,1.5,1.33c1.33,1.78-.21,4.39.4,6.53a4.39,4.39,0,0,0,3.35,2.85,10,10,0,0,0,4.57-.3c3-.74,2.59-5.19,2.69-8.3a13.15,13.15,0,0,0-.83-5.91,11,11,0,0,0-5.13-4.87c-3.16-1.64-6.93-2.41-10.31-1.32A8.63,8.63,0,0,0,209.6,151Z"/><path class="cls-33" d="M234.05,182.85a10.14,10.14,0,0,0-2.27-3.3h0c-.18-.18-.37-.34-.56-.51l-.08-.06-.53-.42-.09-.06-.62-.41h0l-.69-.38,0,0-.63-.29-.19-.08c-.17-.06-.33-.13-.5-.18l-.23-.08-.51-.14-.21-.06-.72-.14c.14.19.26.38.39.57a1.4,1.4,0,0,0,.1.16l.25.42.09.17.24.45.06.12c.09.18.18.36.26.55h0c.3.63.58,1.28.91,1.94l-4.73,0a12.24,12.24,0,0,1,3.64,2c-.57,3.22-2,6.46-1.89,9.73a17.83,17.83,0,0,0,1.36,6.5,23.08,23.08,0,0,0,2.11-1.57,16.05,16.05,0,0,1-.18-8.34c.52-2.11,1.48-4.1,2.15-6.17,1.49,2.28,2.61,4.84,2.33,7.51a8.25,8.25,0,0,1-.72,2.57,4.71,4.71,0,0,0,1.71-2,8.37,8.37,0,0,0,.69-3.4A12.38,12.38,0,0,0,234.05,182.85Z"/><path class="cls-13" d="M106.59,315.23a21.93,21.93,0,0,1-5,6.93,1.23,1.23,0,0,0,.1,1.82,1.08,1.08,0,0,0,.3.16,5.34,5.34,0,0,0,1.74.23l3.07.09c1.71,0,3.42.09,5.14.07a2.61,2.61,0,0,0,2.36-3.62c-.93-2.18-1.9-4.41-2.91-6.4A5.27,5.27,0,0,0,106.59,315.23Z"/><path class="cls-13" d="M128.72,314.79a28.66,28.66,0,0,0,0,6.48c4.67,2.09,10.31,2.38,15.44,2.28-2.53-2.52-5-5.31-7.55-7.83a4.16,4.16,0,0,0-1.62-1.15A11.48,11.48,0,0,0,128.72,314.79Z"/><path class="cls-34" d="M159.72,193.1a5.32,5.32,0,0,0,1.61-1.75,3.26,3.26,0,0,1,1.52-1.18,1.83,1.83,0,0,1,1.83.33,2,2,0,0,1,1.68,2.4c-.31,1.23-1.7,1.79-2.93,2.08a24.91,24.91,0,0,1-3.44.56A2.39,2.39,0,0,1,159.72,193.1Z"/><path class="cls-35" d="M160.3,192.21a14.66,14.66,0,0,1-10.26,1c-4.4-1.27-7.29-5.61-8.48-10a28.21,28.21,0,0,1-.79-9.24l-.4.24a4.17,4.17,0,0,1-6.05-2.46c-.07-.3-.15-.59-.25-.89a3.82,3.82,0,0,1-.08-2.28,2,2,0,0,1,0-.25,4.19,4.19,0,0,1-1.58-2.52,4.07,4.07,0,0,1-1.88-.79,4.23,4.23,0,0,1-1.4-2,3.93,3.93,0,0,1-3-3,45.34,45.34,0,0,0-1.18,7.36,37,37,0,0,0,.35,11.41,36.69,36.69,0,0,0,4.09,9.74,21.69,21.69,0,0,0,4.21,5.76,16.39,16.39,0,0,0,5.16,3,27.07,27.07,0,0,0,22.18-1.45A30.84,30.84,0,0,0,160.3,192.21Z"/><path class="cls-29" d="M160.3,192.21a14.66,14.66,0,0,1-10.26,1c-4.4-1.27-7.29-5.61-8.48-10a28.21,28.21,0,0,1-.79-9.24l-.4.24a4.17,4.17,0,0,1-6.05-2.46c-.07-.3-.15-.59-.25-.89a3.82,3.82,0,0,1-.08-2.28,2,2,0,0,1,0-.25,4.19,4.19,0,0,1-1.58-2.52,4.07,4.07,0,0,1-1.88-.79,4.23,4.23,0,0,1-1.4-2,3.93,3.93,0,0,1-3-3,45.34,45.34,0,0,0-1.18,7.36,37,37,0,0,0,.35,11.41,36.69,36.69,0,0,0,4.09,9.74,21.69,21.69,0,0,0,4.21,5.76,16.39,16.39,0,0,0,5.16,3,27.07,27.07,0,0,0,22.18-1.45A30.84,30.84,0,0,0,160.3,192.21Z"/><path class="cls-29" d="M139.84,192.38a26.88,26.88,0,0,0,1.61-9.63,28.13,28.13,0,0,1-.68-8.77l-.4.24a3.92,3.92,0,0,1-.83.34,25.87,25.87,0,0,0-6.51,8.37,17.9,17.9,0,0,0-2.23,8,14.58,14.58,0,0,0,8,6.35,27.07,27.07,0,0,0,22.18-1.45c-.1-.55-.16-1.08-.24-1.61A21.46,21.46,0,0,1,139.84,192.38Z"/><path class="cls-36" d="M134,149.12a3.35,3.35,0,0,0,4.52-4.12,7.49,7.49,0,0,0,6.31-1.49,11.45,11.45,0,0,0,3.37-5.44,3.48,3.48,0,0,0,.23-1.49,4.12,4.12,0,0,0-2.11-2.58,4.46,4.46,0,0,0-.73-3.8A5.06,5.06,0,0,0,143.2,128a3.09,3.09,0,0,0-3.1.45,7.44,7.44,0,0,0-4.19-3.19,4.92,4.92,0,0,0-4.87,1.38,6.89,6.89,0,0,0-7.89,0,3.89,3.89,0,0,0-1.23,1.53,2.19,2.19,0,0,0,.08,1.92,2.69,2.69,0,0,0-2.27.38,6.14,6.14,0,0,0-1.73,1.64,6.32,6.32,0,0,0-1.53,3.59,7.82,7.82,0,0,0,.33,2,6.33,6.33,0,0,0,.68,1.85,2.17,2.17,0,0,0,1.57,1.1c-.8.82-1.75,1.39-2,2.5a4.26,4.26,0,0,0,.42,3.35,3.14,3.14,0,0,0,2.92,1.5,4.89,4.89,0,0,0,1.32,6.09,5.52,5.52,0,0,0,5.45.47,9.13,9.13,0,0,0,4.1-3.87,6.48,6.48,0,0,1,1-1.49C132.83,148.75,133.23,149.24,134,149.12Z"/><path class="cls-37" d="M167.82,208.16l-14.4.43a3.43,3.43,0,0,1-3.62-4.08l3.48-23.78a5.24,5.24,0,0,1,4.84-4.34l14.4-.44a3.44,3.44,0,0,1,3.61,4.09l-3.47,23.78A5.24,5.24,0,0,1,167.82,208.16Z"/><path class="cls-33" d="M167,192.27a5,5,0,0,1-4.73,4,3.29,3.29,0,0,1-3.31-4,5,5,0,0,1,4.73-4A3.28,3.28,0,0,1,167,192.27Z"/><path class="cls-34" d="M148.12,206.51a6,6,0,0,0,1.89-2,3.9,3.9,0,0,1,1.78-1.39,2.12,2.12,0,0,1,2.14.4,2.33,2.33,0,0,1,2,2.81c-.37,1.43-2,2.09-3.44,2.43a30.64,30.64,0,0,1-4,.66C147.71,208.75,147.82,207.42,148.12,206.51Z"/><path class="cls-38" d="M135.23,220.68a462.91,462.91,0,0,1,.86,94.81c-2.42,1-5.26.63-7.85.49-2.67-22.46-4.9-44.87-7.57-67.32-1-8.36,4.7-13.95,8-21.59C129.51,225.16,133.67,222,135.23,220.68Z"/><path class="cls-15" d="M135.23,220.68a462.91,462.91,0,0,1,.86,94.81c-2.42,1-5.26.63-7.85.49-2.67-22.46-4.9-44.87-7.57-67.32-1-8.36,4.7-13.95,8-21.59C129.51,225.16,133.67,222,135.23,220.68Z"/><path class="cls-29" d="M135.23,220.68c-1.56,1.28-5.72,4.48-6.55,6.39-3.31,7.64-9,13.23-8,21.59q1.18,10,2.28,20a149.93,149.93,0,0,0,14.29-24.78Q136.54,232.26,135.23,220.68Z"/><path class="cls-15" d="M108.73,215.59q-.17,51-4.55,101.78c1.26,0,2.94.38,4.21.38h5.08c5.73-31.84,12.39-64.34,20.12-95.76.48-2-2.45-3.81-4.43-4.21C122.89,216.53,115.11,215.18,108.73,215.59Z"/><path class="cls-33" d="M108.73,215.59q-.17,51-4.55,101.78c1.26,0,2.93.38,4.2.38,2.48-34,7.58-67.71,12.69-101.4A60.41,60.41,0,0,0,108.73,215.59Z"/><path class="cls-29" d="M133.59,222a2.07,2.07,0,0,0-.29-1.56,26.86,26.86,0,0,1-4.55-2.73c-6.19-1.22-13.78-2.51-20-2.11q0,8.68-.18,17.37a48.25,48.25,0,0,0,24.42-8.4C133.18,223.71,133.38,222.85,133.59,222Z"/><path class="cls-39" d="M117.74,154.89c-6.83,3.55-11.31,10.65-13.23,18.1s-1.59,15.31-.82,23c.79,7.84,2,15.73,5,23,.63,1.53,1.87,1.52,3.47,2a62.51,62.51,0,0,0,24.63,1.14c-1.49-7.62-3.87-15.78-2.12-23.34,1.5-6.49,4.16-12.67,5.5-19.19s1.22-13.75-2.48-19.29S123.65,151.82,117.74,154.89Z"/><path class="cls-40" d="M135.87,217.45c-.48-2.28-1-4.59-1.29-6.89-4.65-1.79-7.72-6.57-9-11.45-2.32-8.61-.36-17.79,2.33-26.3,1.41-4.5-2.64-10.1-6.75-12.42-1.73-1-3-2.1-4.77-1.16a18.06,18.06,0,0,0-7.77,9.27,42.41,42.41,0,0,0-2.5,12,43.1,43.1,0,0,0,.41,13.37,42.93,42.93,0,0,0,4.79,11.41,25.55,25.55,0,0,0,4.93,6.75,19.41,19.41,0,0,0,6,3.48A31.5,31.5,0,0,0,135.87,217.45Z"/><path class="cls-41" d="M117.65,155.05a18,18,0,0,0-7.76,9.27,42.07,42.07,0,0,0-2.5,12,43.1,43.1,0,0,0,.4,13.37,43.15,43.15,0,0,0,4.8,11.41,25.33,25.33,0,0,0,4.93,6.75,19.36,19.36,0,0,0,6,3.48,31.75,31.75,0,0,0,26-1.7,39.07,39.07,0,0,0-.75-4.19,17.22,17.22,0,0,1-12,1.21c-5.16-1.48-8.54-6.57-9.94-11.75-2.33-8.62-.36-17.79,2.32-26.31,1.42-4.5-2.64-10.1-6.74-12.42C120.7,155.23,119.41,154.11,117.65,155.05Z"/><path class="cls-40" d="M137.73,160.25c-3.67-5.5-13.95-8.4-19.88-5.42a6.79,6.79,0,0,0,0,.78,3.25,3.25,0,0,0,1.23,2.25c1,.72,2.55.52,3.57,1.29A4.55,4.55,0,0,1,124,161.3c.56,1.51,1.27,3.18,2.77,3.75s3.13-.2,4.33-1.22c.6-.52,1.25-1.15,2-1.09a3.12,3.12,0,0,1,1.06.37,5.87,5.87,0,0,0,5,.3.71.71,0,0,0,.15-.08A17.16,17.16,0,0,0,137.73,160.25Z"/><path class="cls-34" d="M124.68,155.7a28.33,28.33,0,0,1,1.93-8.31c1.92-.25,4.32,0,5.78,1.25a21.64,21.64,0,0,1-2.18,9.75A6,6,0,0,1,124.68,155.7Z"/><path class="cls-29" d="M126.61,147.39a29.44,29.44,0,0,0-1.41,4.69,12.41,12.41,0,0,0,2,2.47,7.86,7.86,0,0,0,3.79,2,20.65,20.65,0,0,0,1.42-7.92C130.93,147.38,128.53,147.14,126.61,147.39Z"/><path class="cls-42" d="M137.22,140.49a18.43,18.43,0,0,1-1.41,7.85,9.91,9.91,0,0,1-5.63,5.41c-2.67-1.94-5.37-4.31-6.6-7.37a10.55,10.55,0,0,1,.59-9.51,6.06,6.06,0,0,1,4.42-2.91,7.58,7.58,0,0,1,5,2C135,137.05,136.12,139.05,137.22,140.49Z"/><path class="cls-29" d="M133.57,135.93a8.92,8.92,0,0,0-3.83-1.9,9.51,9.51,0,0,0-6.35,4.53,2.15,2.15,0,0,0-.14.26,11.12,11.12,0,0,0,.33,7.56c1.14,2.84,3.55,5.08,6,6.94a5.15,5.15,0,0,1-.64-1.06,11.6,11.6,0,0,1-.89-3.17,14.05,14.05,0,0,1-.26-3.48,5.75,5.75,0,0,1,1.34-3.14,4.34,4.34,0,0,0,5.27-.64,1.6,1.6,0,0,0,1.37.15,3.91,3.91,0,0,0,1.23-.71l.2-.16v-.62C136.12,139.05,135,137.05,133.57,135.93Z"/><path class="cls-36" d="M140.48,137.12a9.49,9.49,0,0,1-2.41,3.15,3.24,3.24,0,0,1-3.72.27,3.53,3.53,0,0,1-2.63,1.18,3.81,3.81,0,0,1-2.74-1.23c-.15.29-.64.37-.79.66a4.92,4.92,0,0,1-1.8,2.26,3.9,3.9,0,0,0-.27-1.34,1.24,1.24,0,0,0-.87-.82,1.13,1.13,0,0,0-1.08.46,2.13,2.13,0,0,0-.4,1.15,3.81,3.81,0,0,0,1.55,3.33,21.58,21.58,0,0,1,.55,3.18,2,2,0,0,1-.48,1.85c-1.09.79-2.25-1-2.81-2.26a19.75,19.75,0,0,1-2-7.7,11.1,11.1,0,0,1,2.44-7.43,7.76,7.76,0,0,1,7.14-2.7c2.36.46,4.26,2.15,6.17,3.61a40.66,40.66,0,0,0,3.88,2.63C140.65,137.61,140.31,137.56,140.48,137.12Z"/><path class="cls-4" d="M168.7,77.84c-20,0-36.23,11.9-36.23,26.58,0,6,2.74,11.6,7.35,16.06a48.29,48.29,0,0,0-.27,11.46,63.41,63.41,0,0,0,9.85-5A46.09,46.09,0,0,0,168.7,131c20,0,36.24-11.9,36.24-26.59S188.72,77.84,168.7,77.84Z"/><path class="cls-43" d="M195.21,93.84c17.13,0,31,10.19,31,22.76,0,5.16-2.35,9.92-6.29,13.74a41.81,41.81,0,0,1,.23,9.81,54.39,54.39,0,0,1-8.43-4.3,39.41,39.41,0,0,1-16.52,3.5c-17.13,0-31-10.18-31-22.75S178.08,93.84,195.21,93.84Z"/><path class="cls-6" d="M197.9,97.15l0,0,4.43,4.43c0-.13,0-.26-.07-.39L198.1,97h0l0,0-.75-.74-.33,0,.9.9Z"/><path class="cls-6" d="M197.12,98l0,0,4.76,4.76h0l0,0,.63.64c0-.12,0-.24,0-.35l-.42-.43h0l0,0-4.78-4.78,0,0,0,0-1.58-1.58h-.33L197.1,98Z"/><path class="cls-6" d="M170.88,124.21l0,0-3.81-3.81c0,.15.08.3.13.45l3.52,3.52,0,0,0,0,3.88,3.88.29,0-4-4Z"/><path class="cls-6" d="M170.08,125l0,0-2.12-2.12c.1.21.2.42.31.63l1.65,1.65,0,0,0,0,3.24,3.24.3,0L170.1,125Z"/><path class="cls-6" d="M171.68,123.41l0,0-4.78-4.78,0,0h0l-.19-.19c0,.11,0,.23.05.34v0h0l0,0h0l4.76,4.76,0,0,0,0,4.48,4.48.28,0-4.6-4.6Z"/><path class="cls-6" d="M178.86,125.79h0L174.1,121l0,0,0,0-4.76-4.76h0l0,0-2.44-2.44a2.56,2.56,0,0,0-.05.27l2.31,2.31h0l0,0,4.78,4.78,0,0,0,0,4.78,4.78,0,0h0l1.27,1.27.25-.07-1.38-1.38Z"/><path class="cls-6" d="M182.06,122.59h0l-4.78-4.78,0,0h0L172.5,113h0l0,0-3.91-3.91-.11.2,3.84,3.85h0l0,0,4.8,4.8,0,0h0l4.78,4.78,0,0h0l2.91,2.91.23-.09-3-3Z"/><path class="cls-6" d="M182.86,121.79h0L178.1,117l0,0,0,0-4.76-4.76h0l0,0-4.11-4.11-.12.2,4,4h0l0,0,4.78,4.78,0,0,0,0,4.78,4.78,0,0h0l3.25,3.25.22-.1-3.33-3.33Z"/><path class="cls-6" d="M186.06,118.59h0l-4.76-4.76,0,0,0,0L176.5,109h0l0,0-4.42-4.42a1.21,1.21,0,0,1-.16.16l4.4,4.4h0l0,0L181.1,114l0,0,0,0,4.78,4.78,0,0h0l4.3,4.3.21-.11-4.37-4.37Z"/><path class="cls-6" d="M194.06,110.59h0l-4.76-4.76,0,0,0,0L184.5,101h0l0,0-2.5-2.5-.23.09,2.55,2.55h0l0,0L189.1,106l0,0,0,0,4.78,4.78,0,0h0l4.76,4.76h0l0,0,0,0,.12-.17h0l-4.8-4.8Z"/><path class="cls-6" d="M197.26,107.39h0l-4.76-4.76,0,0,0,0-4.76-4.76h0l0,0-.74-.74-.27.06.83.82h0l0,0,4.78,4.78,0,0,0,0,4.78,4.78,0,0h0l3.94,3.94.1-.22-3.9-3.9Z"/><path class="cls-6" d="M200.75,96.59l-.24,0,.41.42Z"/><path class="cls-6" d="M198.74,96.39l3.14,3.14c0-.15-.1-.31-.15-.47l-2.67-2.66-.34,0h0Z"/><path class="cls-6" d="M200.46,104.19h0l-4.76-4.76,0,0h0l0,0-3.1-3.1-.3,0,3.26,3.26h0l4.8,4.8,0,0h0l2.11,2.11,0-.29-2-2Z"/><path class="cls-6" d="M180.5,124.23l0,0-4.78-4.78h0l0,0-4.8-4.8,0,0h0l-3.31-3.31-.09.23,3.26,3.26,0,0h0l4.76,4.76h0l0,0,4.78,4.78h0l0,0,2.17,2.17.25-.07-2.24-2.24Z"/><path class="cls-6" d="M179.7,125l0,0-4.78-4.78,0,0,0,0-4.76-4.76,0,0,0,0-2.92-2.92-.06.26,2.82,2.82,0,0,0,0,4.76,4.76,0,0,0,0,4.76,4.76h0l0,0,1.75,1.75.24-.08L179.7,125Z"/><path class="cls-6" d="M177.28,127.41l0,0-4.76-4.76,0,0,0,0h0l-4.78-4.78,0,0h0l-1.1-1.1c0,.11,0,.22,0,.32l1,1,0,0h0l4.76,4.76,0,0,4.78,4.78,0,0,0,0,.25.25.27-.06-.36-.35Z"/><path class="cls-6" d="M178.08,126.61l0,0-4.78-4.78,0,0L168.5,117h0l0,0-1.85-1.85,0,.29,1.7,1.7h0l0,0,4.8,4.8,0,0,4.76,4.76,0,0,0,0,.77.77.26-.06-.87-.87Z"/><path class="cls-6" d="M183.7,121l0,0-4.78-4.78,0,0,0,0-4.78-4.78,0,0h0l-4.24-4.24-.13.19,4.23,4.23,0,0h0l4.76,4.76,0,0,0,0,4.76,4.76h0l0,0,3.58,3.58.21-.11L183.7,121Z"/><path class="cls-6" d="M184.5,120.23l0,0-4.78-4.78h0l0,0-4.8-4.8,0,0h0l-4.33-4.33-.15.17,4.34,4.34,0,0h0l4.76,4.76h0l0,0,4.78,4.78h0l0,0,3.86,3.86.21-.11-3.89-3.89Z"/><path class="cls-6" d="M185.28,119.41l0,0-4.78-4.78,0,0-4.76-4.76h0l0,0-4.41-4.41-.15.17L175.5,110h0l0,0,4.8,4.8,0,0,4.76,4.76,0,0,0,0,4.09,4.09.2-.12-4.13-4.13Z"/><path class="cls-6" d="M181.28,123.41l0,0-4.76-4.76,0,0,0,0-4.76-4.76,0,0,0,0L168,110.16l-.11.21L171.5,114l0,0,0,0,4.76,4.76,0,0,0,0,4.76,4.76,0,0,0,0,2.55,2.55.24-.08-2.63-2.63Z"/><path class="cls-6" d="M187.7,117l0,0-4.78-4.78,0,0,0,0-4.78-4.78,0,0h0l-4.3-4.3-.17.15,4.33,4.33,0,0h0l4.76,4.76,0,0,0,0,4.76,4.76h0l0,0,4.67,4.67.19-.13L187.7,117Z"/><path class="cls-6" d="M186.88,117.81l0,0L182.1,113l0,0,0,0-4.76-4.76,0,0,0,0-4.37-4.37-.16.16,4.37,4.37,0,0,0,0,4.76,4.76,0,0,0,0L186.7,118l0,0,0,0,4.49,4.49.2-.12-4.53-4.53Z"/><path class="cls-6" d="M194.9,109.83l0,0L190.1,105l0,0,0,0-4.78-4.78,0,0h0l-2.09-2.09-.25.08,2.2,2.19,0,0h0l4.76,4.76,0,0,0,0L194.7,110h0l0,0,4.67,4.68.13-.2-4.62-4.62Z"/><path class="cls-6" d="M196.46,117.79h0L191.7,113h0l0,0-4.78-4.78h0l0,0-4.8-4.8,0,0h0L178.64,100l-.21.11,3.49,3.49,0,0h0l4.76,4.76h0l0,0,4.78,4.78h0l0,0,4.8,4.8,0,0h0l.2.2c.06,0,.11-.11.16-.16l-.22-.22Z"/><path class="cls-6" d="M195.66,118.59l-4.76-4.76h0l0,0L186.1,109l0,0,0,0-4.78-4.78,0,0h0l-3.66-3.66-.21.11,3.73,3.73,0,0h0l4.76,4.76,0,0,0,0L190.7,114h0l0,0,4.8,4.8,0,0,.2.2s.1-.11.16-.16l-.22-.22Z"/><path class="cls-6" d="M198.9,105.83l0,0L194.1,101l0,0,0,0-4.4-4.4-.28,0,4.52,4.52,0,0,0,0L198.7,106h0l0,0,3.2,3.2c0-.08.05-.16.07-.25l-3.09-3.09Z"/><path class="cls-6" d="M195.7,109l0,0-4.8-4.8h0l0,0h0l-4.78-4.78,0,0h0l-1.67-1.67-.25.07,1.78,1.78,0,0h0l4.76,4.76,0,0h0l0,0,4.76,4.76h0l0,0,4.48,4.49c0-.07.09-.14.12-.2L195.7,109Z"/><path class="cls-6" d="M199.68,105l0,0-4.76-4.76,0,0,0,0h0l-3.78-3.77-.29,0,3.91,3.91,0,0,4.78,4.78,0,0,0,0,2.7,2.7c0-.09,0-.18,0-.28L199.7,105Z"/><path class="cls-6" d="M198.08,106.61l0,0-4.76-4.76,0,0,0,0L188.5,97l0,0,0,0-.18-.18-.28,0,.3.29,0,0,0,0L193.1,102l0,0,0,0,4.76,4.76,0,0,0,0,3.59,3.59.09-.23-3.52-3.52Z"/><path class="cls-6" d="M196.48,108.21l0,0-4.78-4.78,0,0-4.76-4.76h0l0,0-1.24-1.24-.25.07,1.31,1.31h0l0,0,4.8,4.8,0,0,4.76,4.76,0,0,0,0,4.23,4.23a2.12,2.12,0,0,1,.11-.21l-4.18-4.18Z"/><path class="cls-6" d="M201.28,103.41l0,0h0l-4.76-4.76,0,0,0,0-2.37-2.37h-.31l2.52,2.52,0,0,0,0,4.78,4.78,0,0h0l1.42,1.43c0-.11,0-.21,0-.31Z"/><path class="cls-6" d="M194.9,119.43l0,0-4.8-4.8,0,0h0l-4.76-4.76,0,0,0,0L180.5,105h0l0,0-3.89-3.89-.2.12,3.91,3.91h0l0,0L185.1,110l0,0,0,0,4.78,4.78,0,0h0l4.76,4.76h0l0,0,.18.18.17-.15-.17-.17Z"/><path class="cls-6" d="M193.28,121l0,0-4.76-4.76,0,0,0,0-4.76-4.76,0,0,0,0h0l-4.78-4.78,0,0h0l-4.19-4.19-.19.13,4.24,4.24,0,0h0l4.76,4.76,0,0,4.78,4.78,0,0,0,0,4.76,4.76,0,0h0l.19-.14h0Z"/><path class="cls-6" d="M194.08,120.21l0,0-4.76-4.76,0,0,0,0-4.78-4.78,0,0-4.76-4.76h0l0,0-4.07-4.07-.19.13L179.5,106h0l0,0,4.8,4.8,0,0,4.76,4.76,0,0,0,0,4.76,4.76,0,0,0,0,.09.09.17-.15-.1-.1Z"/><path class="cls-6" d="M198.1,116.23l0,0-4.8-4.8,0,0h0l-4.78-4.78,0,0h0l-4.76-4.76h0l0,0L180.84,99l-.23.09L183.5,102h0l0,0,4.8,4.8,0,0h0l4.78,4.78,0,0h0l4.76,4.76h0l0,0,.12.13.15-.18-.09-.09Z"/><path class="cls-6" d="M197.28,117l0,0-4.76-4.76,0,0,0,0-4.76-4.76,0,0,0,0-4.76-4.76,0,0,0,0-3.14-3.14-.22.1,3.2,3.2,0,0,0,0,4.76,4.76,0,0,0,0,4.76,4.76,0,0,0,0,4.76,4.76,0,0,0,0,.17.17.15-.17-.16-.16Z"/><path class="cls-4" d="M324.85,271.1a33.15,33.15,0,0,1,3.23-5.68,19.28,19.28,0,0,1,13.89-7.6,42.27,42.27,0,0,1-12.65,12.44C327.93,271.12,326.47,270.9,324.85,271.1Z"/><path class="cls-33" d="M327.45,270.89a21.57,21.57,0,0,1,4.79-7.86c2.62-2.56,6.06-4,9.55-5.19a19.24,19.24,0,0,0-13.71,7.58,33.15,33.15,0,0,0-3.23,5.68C325.76,271,326.62,271,327.45,270.89Z"/><path class="cls-4" d="M324.85,271.84a50.78,50.78,0,0,1,4.72-16.37,31.35,31.35,0,0,1,3.32-5.72,20.9,20.9,0,0,1,14.34-8,44.75,44.75,0,0,1-10.46,14.35c-1.39,1.29-2.86,2.49-4.2,3.82A29.08,29.08,0,0,0,324.85,271.84Z"/><path class="cls-33" d="M338,250.19a28,28,0,0,0,.49-5.49,20.73,20.73,0,0,0-5.63,5.05,31.35,31.35,0,0,0-3.32,5.72,51.17,51.17,0,0,0-4.68,16l0,.15a29.16,29.16,0,0,1,7.65-11.74l.53-.51C335.29,256.55,337.26,253.63,338,250.19Z"/><path class="cls-4" d="M333.39,223.72a33.63,33.63,0,0,0-11.78,15.7c.31.48.63,1,.95,1.43a11.16,11.16,0,0,0-1.42-.09,36.32,36.32,0,0,0-1.58,6.9,39.37,39.37,0,0,0-.32,5,11.72,11.72,0,0,1,1.68,1.22,11.46,11.46,0,0,0-1.63,1,47.83,47.83,0,0,0,5.86,20.27c-.45-3.63,1.12-7.12,2.68-10.43s3.6-6.38,5.2-9.67C337.77,245.22,338.47,233.29,333.39,223.72Z"/><path class="cls-33" d="M322.36,257.09a14.76,14.76,0,0,0-3.08-6c0,.52,0,1,0,1.56a11.72,11.72,0,0,1,1.68,1.22,11.46,11.46,0,0,0-1.63,1,45.51,45.51,0,0,0,2.49,12.62l1,1.23C323.1,264.79,323.33,260.84,322.36,257.09Z"/><path class="cls-4" d="M322.77,268.65c-.26-3.86-.63-7.8-2.16-11.37s-4.41-6.75-8.17-7.69a45.24,45.24,0,0,0,4,10.89,25.51,25.51,0,0,0,1.88,3.44A26.62,26.62,0,0,0,322.77,268.65Z"/><path class="cls-29" d="M322.18,266.47a11.64,11.64,0,0,0-1.3-2.59,6.34,6.34,0,0,1-.63-1.14c-.4-1.13,0-2.5-.74-3.46s-1.82-1.07-2.34-1.95-.21-1.77-.37-2.66a5.92,5.92,0,0,0-2.37-3.15,9,9,0,0,1-1.85-1.89l-.14,0a45.24,45.24,0,0,0,4,10.89,20.11,20.11,0,0,0,6.11,8A7.36,7.36,0,0,0,322.18,266.47Z"/><path class="cls-29" d="M333.39,223.72l-.21.15q-2,6-3.9,12c-2.13,6.74-4.18,13.53-5.1,20.53a46.31,46.31,0,0,0,1,18.47c-.39-3.57,1.15-7,2.69-10.26s3.6-6.38,5.2-9.67C337.77,245.22,338.47,233.29,333.39,223.72Z"/><path class="cls-6" d="M316.43,267.26h19.14a0,0,0,0,1,0,0v9.57A9.57,9.57,0,0,1,326,286.4h0a9.57,9.57,0,0,1-9.57-9.57v-9.57A0,0,0,0,1,316.43,267.26Z"/><path class="cls-44" d="M328.81,267.26v13.48a5.67,5.67,0,0,1-5.67,5.66h6.77a5.66,5.66,0,0,0,5.66-5.66V267.26Z"/></g></g></svg>