<svg id="Layer_1" data-name="Layer 1" xmlns="http://www.w3.org/2000/svg" viewBox="0 0 678.73 391.7"><defs><style>.cls-1{fill:#fff2de;}.cls-2{fill:#fcb415;}.cls-3{fill:#fff;}.cls-4{fill:#e0e0e0;}.cls-5{fill:#f9f7f7;}.cls-6{fill:#f8f8f8;}.cls-7{fill:#b8b8b8;}.cls-8{fill:#d3d3d3;}.cls-9{opacity:0.54;}.cls-10{fill:#b2b2b2;}.cls-11{fill:#a6a6a6;}.cls-12{fill:#969696;}.cls-13{fill:#1e1e1e;}.cls-14{fill:#888;}.cls-15{fill:#262626;}.cls-16{fill:#f3f3f3;}.cls-17{fill:#343434;}.cls-18{fill:#f0bc99;}.cls-19{fill:#f9a56b;}.cls-20{fill:#f4ad7d;}.cls-21{fill:#191919;}.cls-22{fill:#ffeed2;}.cls-23{fill:#c7c7c7;}</style></defs><title>Untitled-1</title><path class="cls-1" d="M177.69,338.38S-136,146.11,71.66,90.07s262-157.71,459-24.24S750.86,517.38,177.69,338.38Z"/><path class="cls-2" d="M302.87,383.34a416.76,416.76,0,0,1-49.72-2.79c-38.2-4.61-66.2-14.86-81-29.61C104.84,283.72,63.81,108.44,77.74,65.31c2-6.07,5-9.48,9-10.13,6.76-1.08,15.83,6.07,27,21.28l-1.61,1.19C98.8,59.52,91.13,56.5,87,57.16c-3.19.51-5.67,3.46-7.38,8.77-6.85,21.19.1,75.8,16.89,132.79,19.6,66.52,47.68,121.48,77,150.8,60.84,60.74,336.77,32.41,452.09-65.4,59.58-50.53,66.52-111.58,20.07-176.55C594.31,35.62,544.41,1.92,497.43,7.44c-37,4.34-65.24,32.78-82.44,55.87A255.53,255.53,0,0,0,386.18,113l-1.85-.75a257.76,257.76,0,0,1,29.06-50.12c17.44-23.4,46.13-52.23,83.81-56.65,47.75-5.61,98.27,28.36,150.17,101,47.15,66,40.09,127.93-20.41,179.24-52.86,44.83-145.43,79.43-247.64,92.55A604.8,604.8,0,0,1,302.87,383.34Z"/><rect class="cls-3" x="71.66" y="27.16" width="563.81" height="323.07" rx="26.09"/><path class="cls-4" d="M609.39,350.73H97.75a26.62,26.62,0,0,1-26.59-26.59V53.25A26.62,26.62,0,0,1,97.75,26.66H609.39A26.62,26.62,0,0,1,636,53.25V324.14A26.62,26.62,0,0,1,609.39,350.73ZM97.75,27.66A25.62,25.62,0,0,0,72.16,53.25V324.14a25.62,25.62,0,0,0,25.59,25.59H609.39A25.62,25.62,0,0,0,635,324.14V53.25a25.62,25.62,0,0,0-25.59-25.59Z"/><rect class="cls-5" x="241.62" y="103.56" width="419.74" height="104.78" rx="26.5"/><path class="cls-2" d="M634.86,208.84h-5v-1h5a26,26,0,0,0,3.53-.24l.13,1A26.27,26.27,0,0,1,634.86,208.84Zm-10,0h-5v-1h5Zm-10,0h-5v-1h5Zm-10,0h-5v-1h5Zm-10,0h-5v-1h5Zm-10,0h-5v-1h5Zm-10,0h-5v-1h5Zm-10,0h-5v-1h5Zm-10,0h-5v-1h5Zm-10,0h-5v-1h5Zm-10,0h-5v-1h5Zm-10,0h-5v-1h5Zm-10,0h-5v-1h5Zm-10,0h-5v-1h5Zm-10,0h-5v-1h5Zm-10,0h-5v-1h5Zm-10,0h-5v-1h5Zm-10,0h-5v-1h5Zm-10,0h-5v-1h5Zm-10,0h-5v-1h5Zm-10,0h-5v-1h5Zm-10,0h-5v-1h5Zm-10,0h-5v-1h5Zm-10,0h-5v-1h5Zm-10,0h-5v-1h5Zm-10,0h-5v-1h5Zm-10,0h-5v-1h5Zm-10,0h-5v-1h5Zm-10,0h-5v-1h5Zm-10,0h-5v-1h5Zm-10,0h-5v-1h5Zm-10,0h-5v-1h5Zm-10,0h-5v-1h5Zm-10,0h-5v-1h5Zm-10,0h-5v-1h5Zm-10,0h-5v-1h5Zm-10,0h-5v-1h5Zm-10.05-.2a27,27,0,0,1-5-1.09l.31-1a26,26,0,0,0,4.78,1.06Zm378.67-1.2-.32-.95a25.21,25.21,0,0,0,4.47-2l.49.87A26.84,26.84,0,0,1,643.48,207.44Zm-388.31-1.9a28,28,0,0,1-4.21-2.85l.63-.78a25.86,25.86,0,0,0,4.06,2.75Zm397.12-3.08-.64-.77a26.32,26.32,0,0,0,3.42-3.5l.78.63A27.21,27.21,0,0,1,652.29,202.46ZM247.35,199.1a27.83,27.83,0,0,1-2.87-4.2l.88-.48a26.23,26.23,0,0,0,2.76,4Zm411.32-4.51-.89-.47a24.87,24.87,0,0,0,1.9-4.52l1,.3A27.89,27.89,0,0,1,658.67,194.59Zm-416.22-4.35a26.35,26.35,0,0,1-1.11-5l1-.13a25.4,25.4,0,0,0,1.07,4.78Zm419.23-5.32-1-.11a26.74,26.74,0,0,0,.17-3v-2h1v2A26.25,26.25,0,0,1,661.68,184.92Zm-419.56-4.7h-1v-5h1Zm419.74-5.35h-1v-5h1Zm-419.74-4.65h-1v-5h1Zm419.74-5.35h-1v-5h1Zm-419.74-4.65h-1v-5h1Zm419.74-5.35h-1v-5h1Zm-419.74-4.65h-1v-5h1Zm419.74-5.35h-1v-5h1Zm-419.74-4.65h-1v-5h1Zm419.74-5.35h-1v-5h1Zm-419.74-4.65h-1v-.16a27.65,27.65,0,0,1,.44-4.9l1,.18a25.66,25.66,0,0,0-.43,4.72ZM660.37,125a26.36,26.36,0,0,0-1.4-4.69l.93-.37a27.54,27.54,0,0,1,1.45,4.87Zm-416.49-4.37-.93-.36a26.87,26.87,0,0,1,2.28-4.55l.85.54A25.55,25.55,0,0,0,243.88,120.63ZM656.71,116a25.54,25.54,0,0,0-3-3.85l.72-.69a27.5,27.5,0,0,1,3.15,4Zm-407.65-3.6-.73-.68a27.1,27.1,0,0,1,3.8-3.38l.59.8A26.33,26.33,0,0,0,249.06,112.37ZM650,108.91a26.7,26.7,0,0,0-4.23-2.47l.42-.9a27.88,27.88,0,0,1,4.39,2.55Zm-393.06-2.32-.43-.9a27,27,0,0,1,4.77-1.75l.26,1A25.83,25.83,0,0,0,256.92,106.59Zm384.21-1.77a26.28,26.28,0,0,0-4.85-.72l.06-1a27.39,27.39,0,0,1,5,.75Zm-374.78-.7-.07-1c.61,0,1.2-.07,1.84-.06h3.19v1h-3.19C267.51,104.08,266.93,104.08,266.35,104.12Zm365-.06h-5v-1h5Zm-10,0h-5v-1h5Zm-10,0h-5v-1h5Zm-10,0h-5v-1h5Zm-10,0h-5v-1h5Zm-10,0h-5v-1h5Zm-10,0h-5v-1h5Zm-10,0h-5v-1h5Zm-10,0h-5v-1h5Zm-10,0h-5v-1h5Zm-10,0h-5v-1h5Zm-10,0h-5v-1h5Zm-10,0h-5v-1h5Zm-10,0h-5v-1h5Zm-10,0h-5v-1h5Zm-10,0h-5v-1h5Zm-10,0h-5v-1h5Zm-10,0h-5v-1h5Zm-10,0h-5v-1h5Zm-10,0h-5v-1h5Zm-10,0h-5v-1h5Zm-10,0h-5v-1h5Zm-10,0h-5v-1h5Zm-10,0h-5v-1h5Zm-10,0h-5v-1h5Zm-10,0h-5v-1h5Zm-10,0h-5v-1h5Zm-10,0h-5v-1h5Zm-10,0h-5v-1h5Zm-10,0h-5v-1h5Zm-10,0h-5v-1h5Zm-10,0h-5v-1h5Zm-10,0h-5v-1h5Zm-10,0h-5v-1h5Zm-10,0h-5v-1h5Zm-10,0h-5v-1h5Z"/><path class="cls-2" d="M118.92,78.65h-3.67v-1h1.22V68.28h-1.22v-1h4c3,0,4.37,1.53,4.37,3.52s-1.33,3.62-4.37,3.62H117.7v3.23h1.22ZM117.7,68.28v5.16h1.57c2.22,0,3-1.13,3-2.63s-.91-2.53-3-2.53Z"/><path class="cls-2" d="M128.71,70.34c2.19,0,3.57,1.62,3.57,3.9v.43h-6c0,1.82.92,3.17,2.77,3.17a3.46,3.46,0,0,0,2.47-.91l.6.74A4.24,4.24,0,0,1,129,78.84c-2.35,0-3.91-1.46-3.91-4.28C125.09,72.09,126.47,70.34,128.71,70.34Zm-2.35,3.38h4.69a2.33,2.33,0,0,0-2.34-2.39C127.38,71.33,126.57,72.27,126.36,73.72Z"/><path class="cls-2" d="M137.73,78.65h-3.67v-1h1.07V71.54h-1.07v-1h2.14l.13,1.38a2.33,2.33,0,0,1,3.15-1.39l-.16,1a3.17,3.17,0,0,0-.91-.12c-1.3,0-2.08,1.19-2.08,3.21v3h1.4Z"/><path class="cls-2" d="M141.81,76.25v1.42a8,8,0,0,0,2.06.23c1.23,0,2-.44,2-1.36,0-.73-.43-1.1-1.62-1.41L143,74.82c-1.59-.42-2.3-1.06-2.3-2.21,0-1.76,1.64-2.27,3.13-2.27a6,6,0,0,1,2.79.62V73h-1V71.58a5.55,5.55,0,0,0-1.79-.3c-1.07,0-2,.28-2,1.22,0,.52.28.94,1.53,1.26l1.2.28c1.5.37,2.35.94,2.35,2.34,0,1.72-1.32,2.46-3.07,2.46a8.27,8.27,0,0,1-3.08-.48V76.25Z"/><path class="cls-2" d="M152.74,70.34c2.35,0,3.86,1.67,3.86,4.2s-1.51,4.3-3.86,4.3-3.89-1.77-3.89-4.3S150.37,70.34,152.74,70.34Zm0,1.07c-1.72,0-2.64,1.32-2.64,3.13s.91,3.23,2.64,3.23,2.61-1.39,2.61-3.23S154.44,71.41,152.74,71.41Z"/><path class="cls-2" d="M167.26,78.65H165V74c0-1.69-.7-2.58-2-2.58s-2.32.7-2.32,2.66v3.57h1.07v1h-3.34v-1h1.07V71.53h-1.07v-1h2.14l.08,1.34a2.91,2.91,0,0,1,2.63-1.54c1.9,0,2.91,1.37,2.91,3.62v3.7h1.07Z"/><path class="cls-2" d="M176.16,78.65H174.1L174,77.53a3,3,0,0,1-2.62,1.31,2.33,2.33,0,0,1-2.6-2.48c0-1.43.93-2.43,3.31-2.43H174v-.72a1.77,1.77,0,0,0-2-1.88,6.5,6.5,0,0,0-1.65.18v1.33h-1v-2a6.75,6.75,0,0,1,2.72-.47c2.11,0,3.18,1,3.18,2.87v4.45h1Zm-2.21-3v-.84h-1.88c-1.43,0-2.09.55-2.09,1.5a1.41,1.41,0,0,0,1.59,1.48A2.28,2.28,0,0,0,174,75.68Z"/><path class="cls-2" d="M179.77,77.66h1.12v1h-3.34v-1h1V68H177.5V67h2.27Z"/><path class="cls-2" d="M195.47,77.66a5.34,5.34,0,0,1-3.5,1.18c-3.31,0-5.24-2.07-5.24-5.9s1.91-5.84,5.25-5.84a5.35,5.35,0,0,1,3.31,1v2.33h-1.13V68.72a4.19,4.19,0,0,0-2.14-.53c-2.62,0-4,1.58-4,4.73,0,3,1.23,4.83,4,4.83a4.37,4.37,0,0,0,2.76-.89Z"/><path class="cls-2" d="M204.6,78.65h-2.06l-.11-1.12a3,3,0,0,1-2.63,1.31,2.33,2.33,0,0,1-2.6-2.48c0-1.43.93-2.43,3.31-2.43h1.88v-.72a1.77,1.77,0,0,0-2-1.88,6.5,6.5,0,0,0-1.65.18v1.33h-1v-2a6.78,6.78,0,0,1,2.72-.47c2.11,0,3.18,1,3.18,2.87v4.45h1Zm-2.21-3v-.84h-1.88c-1.42,0-2.09.55-2.09,1.5A1.41,1.41,0,0,0,200,77.82,2.27,2.27,0,0,0,202.39,75.68Z"/><path class="cls-2" d="M215,78.65h-2.27V74c0-1.69-.7-2.58-2-2.58s-2.32.7-2.32,2.66v3.57h1.07v1h-3.34v-1h1.07V71.53h-1.07v-1h2.14l.08,1.34A2.89,2.89,0,0,1,211,70.34c1.9,0,2.9,1.37,2.9,3.62v3.7H215Z"/><path class="cls-2" d="M220,82.05h-3.66v-1h1.07V71.53h-1.07v-1h2.14l.09,1.38a3,3,0,0,1,2.76-1.58c2.13,0,3.62,1.61,3.62,4.25s-1.49,4.25-3.59,4.25a3.16,3.16,0,0,1-2.75-1.51v3.73H220Zm1.15-10.64c-1.59,0-2.59,1.3-2.59,3.17s1,3.21,2.59,3.21,2.55-1.3,2.55-3.2S222.71,71.41,221.12,71.41Z"/><path class="cls-2" d="M234.13,78.65h-2.06L232,77.53a3,3,0,0,1-2.63,1.31,2.33,2.33,0,0,1-2.6-2.48c0-1.43.93-2.43,3.31-2.43h1.88v-.72a1.77,1.77,0,0,0-2-1.88,6.5,6.5,0,0,0-1.65.18v1.33h-1v-2a6.75,6.75,0,0,1,2.72-.47c2.11,0,3.18,1,3.18,2.87v4.45h1Zm-2.21-3v-.84H230c-1.43,0-2.09.55-2.09,1.5a1.41,1.41,0,0,0,1.59,1.48A2.28,2.28,0,0,0,231.92,75.68Z"/><path class="cls-2" d="M235.67,70.54h2.25v7.12H239v1h-3.34v-1h1.07V71.53h-1.07ZM237.32,67a.76.76,0,0,1,.81.78.74.74,0,0,1-.81.76.73.73,0,0,1-.79-.76A.74.74,0,0,1,237.32,67Z"/><path class="cls-2" d="M249.34,71.53h-1.09v6.68c0,2.79-1.72,4.1-4.28,4.1a7.15,7.15,0,0,1-2.68-.48l.3-1a5.53,5.53,0,0,0,2.3.42,2.85,2.85,0,0,0,3.18-3.08V77.4l0-.13a3.18,3.18,0,0,1-2.79,1.57c-2.09,0-3.58-1.64-3.58-4.25s1.49-4.25,3.61-4.25a3.05,3.05,0,0,1,2.76,1.58l.08-1.38h2.21Zm-4.87,6.26c1.59,0,2.6-1.28,2.6-3.21s-1-3.17-2.6-3.17-2.54,1.3-2.54,3.18S242.88,77.79,244.47,77.79Z"/><path class="cls-2" d="M259.78,78.65h-2.27V74c0-1.69-.7-2.58-2-2.58s-2.32.7-2.32,2.66v3.57h1.07v1H251v-1H252V71.53H251v-1h2.14l.08,1.34a2.89,2.89,0,0,1,2.63-1.54c1.9,0,2.9,1.37,2.9,3.62v3.7h1.07Z"/><path class="cls-2" d="M269.19,78.65h-3.67v-1h1.22V68.28h-1.22v-1h4.75c2.26,0,3.73,1.2,3.73,3.31a3.11,3.11,0,0,1-2.67,3.21l2.32,3.85H275v1h-2.22L270,73.91h-2v3.75h1.22ZM268,68.28v4.64h2.25c1.54,0,2.52-.76,2.52-2.33s-1-2.31-2.52-2.31Z"/><path class="cls-2" d="M279.92,70.34c2.19,0,3.57,1.62,3.57,3.9v.43h-6c0,1.82.92,3.17,2.77,3.17a3.46,3.46,0,0,0,2.47-.91l.6.74a4.24,4.24,0,0,1-3.15,1.17c-2.35,0-3.91-1.46-3.91-4.28C276.3,72.09,277.68,70.34,279.92,70.34Zm-2.35,3.38h4.69a2.33,2.33,0,0,0-2.34-2.39C278.59,71.33,277.78,72.27,277.57,73.72Z"/><path class="cls-2" d="M288.24,78.65l-2.77-7.12h-.93v-1h3.08v1h-.91l2.11,5.88,2.08-5.88H290v-1h3.08v1h-.94l-2.74,7.12Z"/><path class="cls-2" d="M294.43,70.54h2.26v7.12h1.08v1h-3.34v-1h1.07V71.53h-1.07ZM296.09,67a.76.76,0,0,1,.81.78.74.74,0,0,1-.81.76.74.74,0,0,1-.8-.76A.75.75,0,0,1,296.09,67Z"/><path class="cls-2" d="M303.08,70.34c2.19,0,3.56,1.62,3.56,3.9v.43h-6c0,1.82.92,3.17,2.77,3.17a3.43,3.43,0,0,0,2.46-.91l.61.74a4.25,4.25,0,0,1-3.15,1.17c-2.35,0-3.91-1.46-3.91-4.28C299.46,72.09,300.84,70.34,303.08,70.34Zm-2.36,3.38h4.69a2.32,2.32,0,0,0-2.33-2.39C301.75,71.33,300.93,72.27,300.72,73.72Z"/><path class="cls-2" d="M310.83,78.65l-2.19-7.12h-.88v-1h2.95v1h-.86l1.63,5.72,2.12-6.71h1.19l2.14,6.68,1.6-5.69h-.84v-1h2.93v1h-.89l-2.17,7.12h-1.22l-2.14-6.6L312,78.65Z"/><rect class="cls-6" x="117.19" y="249.95" width="400.72" height="63" rx="7.13"/><path class="cls-7" d="M510.78,313.45h-5v-1h5Zm-10,0h-5v-1h5Zm-10,0h-5v-1h5Zm-10,0h-5v-1h5Zm-10,0h-5v-1h5Zm-10,0h-5v-1h5Zm-10,0h-5v-1h5Zm-10,0h-5v-1h5Zm-10,0h-5v-1h5Zm-10,0h-5v-1h5Zm-10,0h-5v-1h5Zm-10,0h-5v-1h5Zm-10,0h-5v-1h5Zm-10,0h-5v-1h5Zm-10,0h-5v-1h5Zm-10,0h-5v-1h5Zm-10,0h-5v-1h5Zm-10,0h-5v-1h5Zm-10,0h-5v-1h5Zm-10,0h-5v-1h5Zm-10,0h-5v-1h5Zm-10,0h-5v-1h5Zm-10,0h-5v-1h5Zm-10,0h-5v-1h5Zm-10,0h-5v-1h5Zm-10,0h-5v-1h5Zm-10,0h-5v-1h5Zm-10,0h-5v-1h5Zm-10,0h-5v-1h5Zm-10,0h-5v-1h5Zm-10,0h-5v-1h5Zm-10,0h-5v-1h5Zm-10,0h-5v-1h5Zm-10,0h-5v-1h5Zm-10,0h-5v-1h5Zm-10,0h-5v-1h5Zm-10,0h-5v-1h5Zm-10,0h-5v-1h5Zm-10,0h-5v-1h5Zm380.24,0,0-1a6.61,6.61,0,0,0,4.23-1.7l.67.74A7.65,7.65,0,0,1,511,313.45Zm-390.33-.92a7.64,7.64,0,0,1-3.47-3.92l.93-.37a6.58,6.58,0,0,0,3,3.41Zm397.65-5.66-1-.14a6.84,6.84,0,0,0,.06-.91v-4h1v4A7.41,7.41,0,0,1,518.34,306.87Zm-400.65-3.38h-1v-5h1Zm400.72-6.69h-1v-5h1Zm-400.72-3.31h-1v-5h1Zm400.72-6.69h-1v-5h1Zm-400.72-3.31h-1v-5h1Zm400.72-6.69h-1v-5h1Zm-400.72-3.31h-1v-5h1Zm400.72-6.69h-1v-5h1Zm-400.72-3.31h-1v-5h1Zm399.72-6.67a6.65,6.65,0,0,0-1.73-4.21l.74-.68a7.66,7.66,0,0,1,2,4.85Zm-398.9-2.94-.87-.48a7.67,7.67,0,0,1,4-3.45l.36.93A6.73,6.73,0,0,0,118.51,253.88Zm393.13-3.38a8.11,8.11,0,0,0-.86-.05h-4.07v-1h4.07a8,8,0,0,1,1,.06Zm-9.93-.05h-5v-1h5Zm-10,0h-5v-1h5Zm-10,0h-5v-1h5Zm-10,0h-5v-1h5Zm-10,0h-5v-1h5Zm-10,0h-5v-1h5Zm-10,0h-5v-1h5Zm-10,0h-5v-1h5Zm-10,0h-5v-1h5Zm-10,0h-5v-1h5Zm-10,0h-5v-1h5Zm-10,0h-5v-1h5Zm-10,0h-5v-1h5Zm-10,0h-5v-1h5Zm-10,0h-5v-1h5Zm-10,0h-5v-1h5Zm-10,0h-5v-1h5Zm-10,0h-5v-1h5Zm-10,0h-5v-1h5Zm-10,0h-5v-1h5Zm-10,0h-5v-1h5Zm-10,0h-5v-1h5Zm-10,0h-5v-1h5Zm-10,0h-5v-1h5Zm-10,0h-5v-1h5Zm-10,0h-5v-1h5Zm-10,0h-5v-1h5Zm-10,0h-5v-1h5Zm-10,0h-5v-1h5Zm-10,0h-5v-1h5Zm-10,0h-5v-1h5Zm-10,0h-5v-1h5Zm-10,0h-5v-1h5Zm-10,0h-5v-1h5Zm-10,0h-5v-1h5Zm-10,0h-5v-1h5Zm-10,0h-5v-1h5Zm-10,0h-5v-1h5Z"/><rect class="cls-8" x="131.54" y="258.04" width="376.08" height="5.52"/><rect class="cls-3" x="131.54" y="270.01" width="369.22" height="5.52"/><path class="cls-8" d="M501.26,276H131v-6.52H501.26ZM132,275H500.26v-4.52H132Z"/><rect class="cls-8" x="131.54" y="282.62" width="369.22" height="22.41"/><g class="cls-9"><path class="cls-10" d="M557,315.51l-.64,6.65h18l-.53-5.3-1.11.19C567.7,318,561.76,317.94,557,315.51Z"/><path class="cls-11" d="M559.16,292.62,557,315.51c4.76,2.43,10.69,2.45,15.7,1.54l1.1-.19-2.43-24.26Z"/><path class="cls-11" d="M546.28,287.79c0,4.47-3.34,8.09-7.47,8.09s-7.47-3.62-7.47-8.09,1.72-8.39,5.85-8.39S546.28,283.32,546.28,287.79Z"/><path class="cls-11" d="M584.42,287.79c0,4.47,3.35,8.09,7.47,8.09s7.48-3.62,7.48-8.09-1.72-8.39-5.85-8.39S584.42,283.32,584.42,287.79Z"/><path class="cls-12" d="M591.09,284.21a3.94,3.94,0,0,1,3.37.42c.93.65,1,1.6,1.5,2.53.35.72,1.26.26,1.34-.36.18-1.39-1.1-2.88-2.24-3.51a4.18,4.18,0,0,0-4.29.17.41.41,0,0,0,.32.75Z"/><path class="cls-12" d="M539.73,283.83a4.78,4.78,0,0,0-3.79-1.66,3.14,3.14,0,0,0-2.87,1.86c-.2.49.47.71.79.46,1.74-1.38,3.6-1.25,5.49-.17a.31.31,0,0,0,.38-.49Z"/><path class="cls-12" d="M536.6,283.14a4.56,4.56,0,0,0-.54,4c.33,1.09,1.14,2.76,2.5,2.64a.42.42,0,0,0,.4-.52c-.14-1-1.08-1.73-1.44-2.63a7.09,7.09,0,0,1-.39-3.35c0-.3-.39-.36-.53-.15Z"/><path class="cls-12" d="M593.13,283.8a15.74,15.74,0,0,1,0,3.43,12.85,12.85,0,0,1-.79,2.87.53.53,0,0,0,.78.6c2.21-1.38,1.43-5.21.48-7.11-.15-.32-.55-.08-.51.21Z"/><path class="cls-10" d="M577.37,308.16h0a22.94,22.94,0,0,1-23.62.11l-.24-.14a23,23,0,0,1-11.2-19.71V265.21a22.93,22.93,0,0,1,22.93-22.93h.23a22.93,22.93,0,0,1,22.93,22.93v23.35A22.93,22.93,0,0,1,577.37,308.16Z"/><path class="cls-13" d="M555.8,278.35c0,1.8-.69,3.25-1.55,3.25s-1.56-1.45-1.56-3.25.7-3.25,1.56-3.25S555.8,276.55,555.8,278.35Z"/><ellipse class="cls-13" cx="576.46" cy="278.35" rx="1.56" ry="3.25"/><path class="cls-14" d="M563.15,274.12a19.09,19.09,0,0,0-1.57,7.39c-.14,2.72-.23,4.87,2.08,6.6a2.47,2.47,0,0,0,2.59,0c2.32-1.73,2.22-3.86,2.09-6.6a19.09,19.09,0,0,0-1.57-7.39,2.1,2.1,0,0,0-3.62,0Z"/><path class="cls-15" d="M586.74,256.64s13.31.9,11.49,12.25-9.82,12.9-10,18.22c0,0-4.88-13.58-2.28-19.51,0,0-8.23-7.93-4-10S586.74,256.64,586.74,256.64Z"/><path class="cls-15" d="M542.47,256.32s-12.58-.13-8.27,11.92c3.77,10.55,7.15,14.34,7.94,16.77a3.15,3.15,0,0,1,.17,1C542.31,288.42,554.25,263.34,542.47,256.32Z"/><path class="cls-15" d="M544.93,264.3S524,258.9,531.34,231c4.56-17.35,20.22,7.35,23.92,8.23,0,0-5.24-8.23,2-9.11s17.05,10.44,17.05,10.44,2.36-7.49,6.42,0a70.55,70.55,0,0,1,6,16l-4.76.94s-9.27,5.23-10.41-1.26c0,0-8-2.82-17.32,2.58Z"/><path class="cls-15" d="M550.06,273.52c2.59-.64,4.9-1.66,7.6-1.78s2.84-4.33,0-4.38c-3.59-.07-7.41,1.46-8.84,4.92-.31.75.57,1.4,1.24,1.24Z"/><path class="cls-15" d="M581.1,272.28c-1.43-3.46-5.25-5-8.84-4.92-2.84.05-2.82,4.25,0,4.38s5,1.14,7.6,1.78c.67.16,1.55-.49,1.24-1.24Z"/><path class="cls-16" d="M558.41,291.71a55.44,55.44,0,0,0,13.1,0s-2,5.46-7,5.46C559.92,297.17,558.41,291.71,558.41,291.71Z"/><path class="cls-17" d="M534.14,234.13a.05.05,0,0,0,0-.1.05.05,0,1,0,0,.1Z"/><path class="cls-17" d="M533,234.71c-2.07,5.36-3.79,15.21,2.76,18.47a1,1,0,0,0,1.41-1.41c-1.15-2.35-2.64-4.21-3.09-6.89a25.28,25.28,0,0,1,.55-9.72.85.85,0,0,0-1.63-.45Z"/><path class="cls-17" d="M556.34,238a23.75,23.75,0,0,1,.06-2.8,2.54,2.54,0,0,1,.25-1.06c.17-.28.49-.44.71-.69a.8.8,0,0,0-.35-1.33c-1.15-.36-2.14.69-2.5,1.7-.51,1.45.33,3,.82,4.31a.52.52,0,0,0,1-.13Z"/><path class="cls-17" d="M575,239.36c-.6.93-.8,3.33.83,3.23a.54.54,0,0,0,.5-.38,2,2,0,0,0,.06-.6c0-.27-.22-.43-.33-.67a1.5,1.5,0,0,1,0-1.14c.2-.63-.7-1-1-.44Z"/></g><path class="cls-15" d="M143.89,140.09s-19.33,5.36-14.79,20,9,17,9,17-5.18,2.41-5.33,4.76,5.33,3.66,5.33,3.66-18.94-2.26-22.6,6.12,2.05,17.4,2.05,17.4H221.82s7.36-8.79,0-24.1C214.1,168.81,200,168.81,200,168.81s3.67-2.74,2-6.65-3.95-1.23-3.95-1.23,8.48-17.73-5.93-18.26Z"/><path class="cls-18" d="M160.58,200.37l-.83,8.63h18.67l-.92-9.15C172.31,201.4,166.29,201.19,160.58,200.37Z"/><path class="cls-19" d="M162.76,178.31l-2.13,22.06c5.7.82,11.72,1,16.92-.52l-2.17-21.57Z"/><path class="cls-20" d="M152.57,160.12c0,3.9-2.26,8.69-5,8.69S141,164,141,160.12s2.26-7.06,5-7.06S152.57,156.22,152.57,160.12Z"/><path class="cls-20" d="M185.6,160.12c0,3.9,2.26,8.69,5.05,8.69s6.48-4.79,6.48-8.69-2.25-7.06-5-7.06S185.6,156.22,185.6,160.12Z"/><path class="cls-18" d="M179.47,185.43h0a21.48,21.48,0,0,1-20.19.13l-.34-.18a21.46,21.46,0,0,1-11.44-17.56l-1.4-20.89A21.45,21.45,0,0,1,167.5,124h3.17a21.46,21.46,0,0,1,21.41,22.89L190.66,168A21.47,21.47,0,0,1,179.47,185.43Z"/><path class="cls-15" d="M169.25,188.37a21.9,21.9,0,0,1-10.13-2.5l-.35-.19a21.94,21.94,0,0,1-11.62-17.84L145.75,147a21.8,21.8,0,0,1,21.75-23.27h3.17A21.79,21.79,0,0,1,192.42,147L191,168a21.71,21.71,0,0,1-11.37,17.71h0A21.8,21.8,0,0,1,169.25,188.37Zm-1.75-64a21.12,21.12,0,0,0-21.06,22.52l1.41,20.88a21.26,21.26,0,0,0,11.25,17.28l.34.18a21.07,21.07,0,0,0,19.87-.13h0a21,21,0,0,0,11-17.14l1.41-21.07a21.1,21.1,0,0,0-21.06-22.52Z"/><path class="cls-21" d="M158.52,155.68c0,2-.77,3.6-1.72,3.6s-1.72-1.61-1.72-3.6.77-3.6,1.72-3.6S158.52,153.7,158.52,155.68Z"/><path class="cls-21" d="M157.73,153c.35-1.87-3.75-.95-4.57-1.23-1.41-.49-1.94,1.66-.61,2.2a3.77,3.77,0,0,0,3.2-.37,5.78,5.78,0,0,1,.9-.35c.25-.07.53,0,.77-.1.07,0,.29,0,.31-.15Z"/><path class="cls-21" d="M179.65,155.68c0,2,.77,3.6,1.72,3.6s1.72-1.61,1.72-3.6-.77-3.6-1.72-3.6S179.65,153.7,179.65,155.68Z"/><path class="cls-21" d="M180.51,153.05a8.54,8.54,0,0,0,1,.18,10.07,10.07,0,0,1,1.48.62,3.27,3.27,0,0,0,2.62.1c1.33-.54.81-2.69-.6-2.2-1.22.42-2.6-.36-3.79.2-.15.08-1.27.87-.72,1.1Z"/><path class="cls-20" d="M169.09,154a23.79,23.79,0,0,0-.93,7.17,12.48,12.48,0,0,0,.17,3.23,5,5,0,0,0,1.71,2.85"/><path class="cls-20" d="M168.81,153.8a17.19,17.19,0,0,0-2.09,9.76c.12,1.79,1.13,5,3.49,4.28a.67.67,0,0,0,.46-.46c.34-1.68-1-3.68-1.13-5.44a78.7,78.7,0,0,1-.13-8,.32.32,0,0,0-.6-.16Z"/><path class="cls-20" d="M163.33,172.6s1.88-1.38,6-1.53,5.51,1.53,5.51,1.53-.71,5-6.46,4.4C163.19,176.43,163.33,172.6,163.33,172.6Z"/><path class="cls-21" d="M162.35,172.41a11,11,0,0,0,13.05.09c.13-.1,0-.36-.11-.3-4.15,1.67-8.76,2.31-12.89.1-.06,0-.11.06-.05.11Z"/><path class="cls-21" d="M183.37,132.21s-1.51,11.18,7.79,28.38h0s4-22.63,1-28.38c-1.75-3.36-6.16-2.74-6.16-2.74Z"/><path class="cls-21" d="M146.81,157.5s6.69-3,4.06-14.84c0,0,23.32,1.5,32.5-10.45,0,0,3.1.26,2.6-2.74,0,0-.84-22.32-21.09-21.3s-19.53,24.65-19.53,24.65-8.19.53-7.17,3.75a9.72,9.72,0,0,0,3.51,4.85Z"/><path class="cls-15" d="M152.17,149.17a11.55,11.55,0,0,0,3.51-.27,25.61,25.61,0,0,1,4.55,0c1.42.08,1.33-2,0-2.15-2.43-.32-6.57,0-8.16,2.15a.16.16,0,0,0,.1.24Z"/><path class="cls-15" d="M185.37,147.63c-.7-1.59-3.42-2-5-2.09-1.38-.12-4-.37-4.6,1.21a.32.32,0,0,0,.08.32c1.12.92,2.88.15,4.23.23,1.61.09,3.52,1.16,5.06.81a.33.33,0,0,0,.19-.48Z"/><path class="cls-21" d="M136,184.65a9.13,9.13,0,0,0,5.69,2.94c1.2.11,2.82,0,2.9-1.56.09-1.8-2-1.94-3.29-1.93-2.31,0-5.68.07-7.61,1.42a.39.39,0,0,0,.19.72,16.4,16.4,0,0,0,3.68-.4,24.65,24.65,0,0,1,4.12-.14c.46,0,1.83.29-.42,0-.56-.07-1.13-.11-1.69-.22a27.88,27.88,0,0,1-3.5-1,.07.07,0,0,0-.07.11Z"/><path class="cls-21" d="M136,178.28c.7-.16,5.82-1,5.82-1.3,0,.48-2.87-.62-3.07-.74-.82-.49-1.46-1.18-2.23-1.71s-1.21.49-.78,1a7.71,7.71,0,0,0,4.3,2.62c1.08.21,3,.19,3.46-1,.58-1.42-1-1.46-1.95-1.24a26.88,26.88,0,0,0-5.6,2.28.07.07,0,0,0,0,.12Z"/><path class="cls-21" d="M193,141.94c-.12.64-.29,1.25-.47,1.87a6.9,6.9,0,0,1-.32,1.54c-.32.52-.6.11-.49-.33a1.72,1.72,0,0,1,.78-.86,7,7,0,0,1,1.69-.77.33.33,0,0,0-.18-.63,5.07,5.07,0,0,0-3.11,1.48,1.7,1.7,0,0,0,.38,2.53,1.54,1.54,0,0,0,2.17-.89,5.86,5.86,0,0,0-.07-3.94.2.2,0,0,0-.38,0Z"/><path class="cls-21" d="M198.06,160.46c-.29.41-.6.8-.93,1.18a3.34,3.34,0,0,0-.7,1.33l1.52-.2a1.25,1.25,0,0,1,1.33-1.88c.32.08.46-.42.14-.5a2.65,2.65,0,0,0-2.34.46,2.42,2.42,0,0,0-.65,2.57.84.84,0,0,0,1.52.19,2.77,2.77,0,0,0,.48-1.53c0-.51,0-1,0-1.52a.2.2,0,0,0-.37-.1Z"/><path class="cls-21" d="M200,168.12c-.52.55-1.92,2.2-2.79,1.56l.41.53c-.2-.51,4.33-.49,4.73-.47s.5-.63.1-.77a8.75,8.75,0,0,0-4.2-.63c-1,.14-2.44.64-2.44,1.88s1.29,1.5,2.22,1.16a5.45,5.45,0,0,0,2.58-2.79c.2-.38-.3-.81-.61-.47Z"/><path class="cls-15" d="M138.09,136.49c.81,4.51,5.15,5.54,9.15,6.24a39.31,39.31,0,0,0,16.41-.6c.14,0,.11-.28,0-.26a61.17,61.17,0,0,1-11.71.47c-4.66-.29-11.82-.72-13.76-5.87,0,0-.07,0-.06,0Z"/><rect class="cls-22" x="262.51" y="124.57" width="376.08" height="7.76"/><rect class="cls-3" x="262.51" y="141.38" width="369.22" height="7.76"/><path class="cls-22" d="M632.23,149.64H262v-8.76H632.23Zm-369.22-1H631.23v-6.76H263Z"/><rect class="cls-22" x="262.51" y="159.09" width="369.22" height="31.47"/><rect class="cls-3" x="383.22" y="54.6" width="114.13" height="32.43" rx="12.87"/><path class="cls-2" d="M484.48,87.53H396.09a13.39,13.39,0,0,1-13.37-13.37V67.47A13.39,13.39,0,0,1,396.09,54.1h88.39a13.39,13.39,0,0,1,13.37,13.37v6.69A13.39,13.39,0,0,1,484.48,87.53ZM396.09,55.1a12.39,12.39,0,0,0-12.37,12.37v6.69a12.39,12.39,0,0,0,12.37,12.37h88.39a12.39,12.39,0,0,0,12.37-12.37V67.47A12.39,12.39,0,0,0,484.48,55.1Z"/><path class="cls-2" d="M396.45,73.45a3.86,3.86,0,0,0,1.95.55c1.11,0,1.75-.59,1.75-1.43s-.44-1.24-1.58-1.67c-1.37-.49-2.22-1.2-2.22-2.39s1.09-2.28,2.72-2.28a3.74,3.74,0,0,1,1.86.42l-.3.88a3.38,3.38,0,0,0-1.6-.4c-1.14,0-1.58.69-1.58,1.26,0,.78.51,1.17,1.67,1.62,1.42.55,2.14,1.24,2.14,2.47s-1,2.42-2.94,2.42a4.32,4.32,0,0,1-2.14-.54Z"/><path class="cls-2" d="M404.65,72a1.93,1.93,0,0,0,2.07,2.09,4.06,4.06,0,0,0,1.67-.31l.18.78a4.71,4.71,0,0,1-2,.38,2.8,2.8,0,0,1-3-3c0-1.82,1.07-3.26,2.83-3.26a2.55,2.55,0,0,1,2.49,2.84,3.12,3.12,0,0,1,0,.52Zm3.21-.79a1.56,1.56,0,0,0-1.52-1.78,1.82,1.82,0,0,0-1.68,1.78Z"/><path class="cls-2" d="M411.53,70.37c0-.62,0-1.13,0-1.63h1l.07,1h0a2.22,2.22,0,0,1,2-1.14c.83,0,2.13.5,2.13,2.57v3.6h-1.1V71.29c0-1-.36-1.78-1.4-1.78a1.56,1.56,0,0,0-1.47,1.12,1.64,1.64,0,0,0-.07.52v3.62h-1.1Z"/><path class="cls-2" d="M424.91,65.92v7.29c0,.54,0,1.15,0,1.56h-1l-.05-1h0a2.22,2.22,0,0,1-2,1.18c-1.46,0-2.58-1.23-2.58-3.07,0-2,1.23-3.24,2.7-3.24a2,2,0,0,1,1.82.92h0v-3.6Zm-1.09,5.28a2.5,2.5,0,0,0-.05-.47,1.63,1.63,0,0,0-1.59-1.27c-1.13,0-1.81,1-1.81,2.33S421,74,422.16,74a1.65,1.65,0,0,0,1.61-1.3,2.36,2.36,0,0,0,.05-.48Z"/><path class="cls-2" d="M431.91,66.48a11.62,11.62,0,0,1,2.09-.17,3.48,3.48,0,0,1,2.43.68,2.12,2.12,0,0,1,.66,1.6,2.2,2.2,0,0,1-1.59,2.14v0a2.1,2.1,0,0,1,1.24,1.7,12.28,12.28,0,0,0,.65,2.3h-1.13a11.72,11.72,0,0,1-.56-2c-.25-1.16-.69-1.6-1.68-1.64h-1v3.64h-1.09ZM433,70.31h1.11c1.16,0,1.89-.64,1.89-1.6s-.78-1.55-1.93-1.57a4.42,4.42,0,0,0-1.07.1Z"/><path class="cls-2" d="M440.5,72a1.93,1.93,0,0,0,2.06,2.09,4,4,0,0,0,1.67-.31l.19.78a4.71,4.71,0,0,1-2,.38,2.8,2.8,0,0,1-3-3c0-1.82,1.07-3.26,2.83-3.26a2.55,2.55,0,0,1,2.49,2.84,3.12,3.12,0,0,1,0,.52Zm3.21-.79a1.56,1.56,0,0,0-1.52-1.78,1.82,1.82,0,0,0-1.68,1.78Z"/><path class="cls-2" d="M451.49,73.84h0a2.14,2.14,0,0,1-2,1.07c-1.41,0-2.56-1.22-2.56-3,0-2.26,1.46-3.26,2.74-3.26a2,2,0,0,1,1.85,1.05h0l0-.91h1c0,.51,0,1,0,1.66v6.84h-1.1Zm0-2.66a1.75,1.75,0,0,0-.05-.46,1.6,1.6,0,0,0-1.57-1.25c-1.13,0-1.82,1-1.82,2.32,0,1.2.58,2.25,1.79,2.25a1.64,1.64,0,0,0,1.57-1.2,1.82,1.82,0,0,0,.08-.52Z"/><path class="cls-2" d="M460.7,73.13c0,.62,0,1.17.05,1.64h-1l-.07-1h0a2.29,2.29,0,0,1-2,1.12c-.94,0-2.08-.52-2.08-2.64V68.74h1.1v3.34c0,1.15.35,1.92,1.35,1.92a1.58,1.58,0,0,0,1.44-1,1.64,1.64,0,0,0,.1-.56v-3.7h1.1Z"/><path class="cls-2" d="M464.38,72a1.93,1.93,0,0,0,2.07,2.09,4,4,0,0,0,1.67-.31l.19.78a4.81,4.81,0,0,1-2,.38,2.8,2.8,0,0,1-3-3c0-1.82,1.08-3.26,2.83-3.26a2.56,2.56,0,0,1,2.5,2.84,4.81,4.81,0,0,1,0,.52Zm3.22-.79a1.56,1.56,0,0,0-1.52-1.78,1.82,1.82,0,0,0-1.69,1.78Z"/><path class="cls-2" d="M471.12,73.65a2.89,2.89,0,0,0,1.44.44c.8,0,1.18-.4,1.18-.9s-.32-.81-1.13-1.11c-1.08-.39-1.59-1-1.59-1.71a1.86,1.86,0,0,1,2.08-1.77,3,3,0,0,1,1.48.38l-.27.79a2.34,2.34,0,0,0-1.23-.35c-.65,0-1,.38-1,.83s.36.72,1.14,1c1.05.4,1.59.92,1.59,1.82,0,1.06-.83,1.81-2.26,1.81a3.47,3.47,0,0,1-1.7-.41Z"/><path class="cls-2" d="M478.78,67v1.73h1.57v.83h-1.57v3.26c0,.75.21,1.17.82,1.17a2.18,2.18,0,0,0,.63-.08l0,.83a2.8,2.8,0,0,1-1,.15,1.51,1.51,0,0,1-1.18-.46,2.25,2.25,0,0,1-.43-1.57v-3.3h-.93v-.83h.93V67.29Z"/><path class="cls-23" d="M527.87,78a5.35,5.35,0,0,1-2.22.4,3.93,3.93,0,0,1-4.15-4.25,4.19,4.19,0,0,1,4.39-4.42,4.5,4.5,0,0,1,2,.38l-.27.88a3.9,3.9,0,0,0-1.69-.35,3.13,3.13,0,0,0-3.28,3.47,3.05,3.05,0,0,0,3.23,3.38,4.39,4.39,0,0,0,1.77-.35Z"/><path class="cls-23" d="M533.7,78.22l-.09-.76h0a2.25,2.25,0,0,1-1.85.9,1.71,1.71,0,0,1-1.84-1.73c0-1.46,1.29-2.26,3.62-2.25v-.12a1.24,1.24,0,0,0-1.37-1.4,3,3,0,0,0-1.57.45l-.25-.72a3.69,3.69,0,0,1,2-.54c1.85,0,2.3,1.26,2.3,2.47v2.26a7.94,7.94,0,0,0,.1,1.44Zm-.16-3.08c-1.2,0-2.56.19-2.56,1.36a1,1,0,0,0,1,1,1.52,1.52,0,0,0,1.46-1,1.43,1.43,0,0,0,.06-.35Z"/><path class="cls-23" d="M537.62,73.82c0-.62,0-1.13,0-1.63h1l.06,1h0a2.21,2.21,0,0,1,2-1.14c.84,0,2.13.5,2.13,2.57v3.6h-1.09V74.75c0-1-.36-1.79-1.4-1.79a1.56,1.56,0,0,0-1.47,1.12,1.61,1.61,0,0,0-.07.51v3.63h-1.1Z"/><path class="cls-23" d="M550.09,78a4,4,0,0,1-1.73.35,2.87,2.87,0,0,1-3-3.08,3.06,3.06,0,0,1,3.24-3.2,3.66,3.66,0,0,1,1.52.31l-.25.84a2.65,2.65,0,0,0-1.27-.28,2.28,2.28,0,0,0,0,4.54,3.2,3.2,0,0,0,1.34-.3Z"/><path class="cls-23" d="M553.16,75.41a1.93,1.93,0,0,0,2.07,2.09,4,4,0,0,0,1.67-.31l.19.78a4.81,4.81,0,0,1-2,.38,2.8,2.8,0,0,1-3-3c0-1.82,1.07-3.26,2.83-3.26a2.56,2.56,0,0,1,2.5,2.84,4.81,4.81,0,0,1,0,.52Zm3.22-.79a1.56,1.56,0,0,0-1.52-1.78,1.82,1.82,0,0,0-1.69,1.78Z"/><path class="cls-23" d="M560.05,69.37h1.09v8.85h-1.09Z"/></svg>