<?xml version="1.0" encoding="utf-8"?>
<!-- Generator: Adobe Illustrator 23.0.2, SVG Export Plug-In . SVG Version: 6.00 Build 0)  -->
<svg version="1.1" id="Layer_1" xmlns="http://www.w3.org/2000/svg" xmlns:xlink="http://www.w3.org/1999/xlink" x="0px" y="0px"
	 viewBox="0 0 444.4 500.8" style="enable-background:new 0 0 444.4 500.8;" xml:space="preserve">
<style type="text/css">
	.st0{fill:#CAFCF7;}
	.st1{opacity:0.1;}
	.st2{opacity:0.14;}
	.st3{clip-path:url(#SVGID_2_);}
	.st4{fill:#34E2D9;}
	.st5{fill:#FFFFFF;}
	.st6{fill:#E0E0E0;}
	.st7{fill:#D1D3D4;}
</style>
<title>2</title>
<g>
	<path class="st0" d="M38.6,254.5l81.9-82.8c0,0-123.8-165,78.8-96.9s-23.8-19.4-23.8-19.4s456.4-255.1,180.1,335.7l-105,21.7
		C250.6,412.8-117.7,654.9,38.6,254.5z"/>
	<path class="st1" d="M51.7,424.8c0,0-1.7,3.5-3.2,8.5c-4.5,15-7.3,43.9,41.9,34c65.6-13.1,85.3-13.3,85.3-13.3l17-8.8l-16.7-17.3"
		/>
	<g class="st2">
		<defs>
			<path id="SVGID_1_" class="st2" d="M391.9,116h-334c-7.6,0-13.7-6.1-13.7-13.7V49.7c0-7.6,6.1-13.7,13.7-13.7h334
				c7.6,0,13.7,6.1,13.7,13.7v52.6C405.6,109.8,399.4,116,391.9,116z"/>
		</defs>
		<clipPath id="SVGID_2_">
			<use xlink:href="#SVGID_1_"  style="overflow:visible;"/>
		</clipPath>
		<path class="st3" d="M42.1,278.6l80.2-92.2c0,0-121.3-183.6,77.2-107.8s-23.3-21.6-23.3-21.6s447.1-283.8,176.4,373.5l-102.8,24.2
			C249.7,454.8-111,724.2,42.1,278.6z"/>
	</g>
	<path class="st4" d="M245.4,500.8c-9.9,0-20.7-1.8-32.2-5.4c-26.8-8.3-58.1-26.4-93.1-53.8l0.8-1c34.9,27.3,66,45.3,92.7,53.6
		c22,6.8,41.1,7.1,56.7,0.8c35.1-14.2,41.5-57.3,41.6-57.7l0-0.2l0.1-0.1l59.3-76.4c-5.3-5-60.7-56.7-123.9-102.2
		c-38.8-28-73-48.2-101.5-60.1c-35.5-14.8-62.2-16.6-79.4-5.5c-21.4,13.8-32.6,29.9-33.6,47.7c-1.7,33.1,33.3,61.6,33.6,61.9l-0.8,1
		c-0.4-0.3-35.8-29.2-34.1-62.9c0.9-18.3,12.4-34.7,34.1-48.7c17.6-11.4,44.7-9.6,80.6,5.4c28.6,11.9,62.8,32.2,101.7,60.2
		C314.3,305,371.9,359.5,372.5,360l0.4,0.4L313,437.6c-0.2,1.4-2,11.9-7.6,23.7c-5.5,11.7-16,27.3-34.8,34.9
		C263,499.2,254.6,500.8,245.4,500.8z"/>
	<g>
		<path class="st5" d="M376.5,104.5H54.5c-7.6,0-13.7-6.1-13.7-13.7V50.1c0-7.6,6.1-13.7,13.7-13.7h322.1c7.6,0,13.7,6.1,13.7,13.7
			v40.7C390.2,98.4,384.1,104.5,376.5,104.5z"/>
		<path class="st6" d="M381.7,104.8H49.3c-4.9,0-8.9-4-8.9-8.9v-51c0-4.9,4-8.9,8.9-8.9h332.3c4.9,0,8.9,4,8.9,8.9v51
			C390.6,100.8,386.6,104.8,381.7,104.8z M49.3,36.7c-4.6,0-8.3,3.7-8.3,8.3v51c0,4.6,3.7,8.3,8.3,8.3h332.3c4.6,0,8.3-3.7,8.3-8.3
			v-51c0-4.6-3.7-8.3-8.3-8.3H49.3z"/>
	</g>
	<g>
		<path class="st5" d="M376.5,445.2H54.5c-7.6,0-13.7-6.1-13.7-13.7V136.3c0-7.6,6.1-13.7,13.7-13.7h322.1c7.6,0,13.7,6.1,13.7,13.7
			v295.2C390.2,439.1,384.1,445.2,376.5,445.2z"/>
		<path class="st6" d="M381.7,445.5H49.3c-4.9,0-8.9-4-8.9-8.9V131.2c0-4.9,4-8.9,8.9-8.9h332.3c4.9,0,8.9,4,8.9,8.9v305.5
			C390.6,441.6,386.6,445.5,381.7,445.5z M49.3,122.9c-4.6,0-8.3,3.7-8.3,8.3v305.5c0,4.6,3.7,8.3,8.3,8.3h332.3
			c4.6,0,8.3-3.7,8.3-8.3V131.2c0-4.6-3.7-8.3-8.3-8.3H49.3z"/>
	</g>
	<g>
		<g>
			<path class="st7" d="M108,83.4l-6.7-6.7c-1,1.6-2.3,2.9-3.9,3.9l6.7,6.7c1.1,1.1,2.8,1.1,3.9,0C109.1,86.3,109.1,84.5,108,83.4
				L108,83.4z M108,83.4"/>
			<path class="st7" d="M101.5,69.8c0-6.1-4.9-11-11-11c-6.1,0-11,4.9-11,11c0,6.1,4.9,11,11,11C96.5,80.8,101.5,75.9,101.5,69.8
				L101.5,69.8z M90.5,78.1c-4.6,0-8.3-3.7-8.3-8.3c0-4.6,3.7-8.3,8.3-8.3c4.6,0,8.3,3.7,8.3,8.3C98.7,74.4,95,78.1,90.5,78.1
				L90.5,78.1z M90.5,78.1"/>
			<path class="st7" d="M84,69.8h1.8c0-2.5,2.1-4.6,4.6-4.6v-1.8C86.9,63.4,84,66.3,84,69.8L84,69.8z M84,69.8"/>
		</g>
	</g>
	<g>
		<path class="st7" d="M131.2,74.7c0.2,1.8,1.9,2.9,4.3,2.9c2.3,0,3.9-1.2,3.9-2.8c0-1.4-0.9-2.3-3.2-2.8l-1.9-0.4
			c-3.4-0.7-4.8-2.3-4.8-4.6c0-2.8,2.4-4.7,5.9-4.7c3.3,0,5.8,2,5.8,4.8h-2.1c-0.2-1.8-1.6-3-3.8-3c-2.1,0-3.7,1-3.7,2.7
			c0,1.3,0.9,2.2,3.2,2.7l1.9,0.4c3.5,0.8,4.9,2.2,4.9,4.5c0,3.1-2.4,5-6.2,5c-3.7,0-6.1-1.9-6.3-4.8H131.2z"/>
		<path class="st7" d="M153.9,75.7c-0.3,2.1-2.4,3.7-5,3.7c-3.5,0-5.6-2.4-5.6-6.2c0-3.7,2.1-6.3,5.5-6.3c3.3,0,5.3,2.4,5.3,6v0.8
			h-8.7v0.1c0,2.3,1.4,3.8,3.5,3.8c1.5,0,2.7-0.8,3-1.9H153.9z M145.4,72.1h6.6c0-2-1.3-3.5-3.2-3.5
			C146.9,68.7,145.5,70.1,145.4,72.1z"/>
		<path class="st7" d="M155.8,75.8c0-2.1,1.6-3.4,4.4-3.5l3.5-0.2v-1c0-1.5-1-2.4-2.6-2.4c-1.6,0-2.5,0.7-2.8,1.9h-1.9
			c0.1-2.1,1.9-3.7,4.8-3.7c2.8,0,4.6,1.5,4.6,3.9v8.3h-1.9v-2.1h0c-0.7,1.4-2.3,2.3-3.9,2.3C157.4,79.4,155.8,77.9,155.8,75.8z
			 M163.7,74.6v-1l-3.2,0.2c-1.6,0.1-2.6,0.8-2.6,2c0,1.1,1,1.9,2.4,1.9C162.2,77.7,163.7,76.3,163.7,74.6z"/>
		<path class="st7" d="M168.5,67.1h1.9v2h0c0.4-1.3,1.5-2.2,2.9-2.2c0.3,0,0.6,0.1,0.8,0.1v2c-0.2-0.1-0.6-0.1-1.1-0.1
			c-1.6,0-2.6,1.1-2.6,2.8v7.5h-2V67.1z"/>
		<path class="st7" d="M183.5,71.1c-0.3-1.3-1.3-2.4-3.1-2.4c-2.1,0-3.5,1.7-3.5,4.5c0,2.8,1.4,4.5,3.5,4.5c1.6,0,2.7-0.9,3.1-2.3h2
			c-0.3,2.4-2.3,4.1-5.1,4.1c-3.3,0-5.6-2.4-5.6-6.2c0-3.8,2.2-6.2,5.5-6.2c3,0,4.8,2,5.1,4.2H183.5z"/>
		<path class="st7" d="M187.7,62.4h2V69h0c0.7-1.3,2-2.1,3.8-2.1c2.6,0,4.2,1.8,4.2,4.5v7.8h-2v-7.4c0-1.9-1-3.1-2.9-3.1
			c-2,0-3.2,1.4-3.2,3.5v7h-2V62.4z"/>
		<path class="st7" d="M200.5,63.7c0-0.7,0.6-1.3,1.3-1.3c0.7,0,1.3,0.6,1.3,1.3c0,0.7-0.6,1.3-1.3,1.3
			C201.1,65,200.5,64.4,200.5,63.7z M200.7,67.1h2v12.1h-2V67.1z"/>
		<path class="st7" d="M205.7,67.1h1.9V69h0c0.7-1.3,2-2.1,3.8-2.1c2.6,0,4.2,1.7,4.2,4.4v7.8h-2v-7.5c0-1.9-0.9-3-2.8-3
			c-1.9,0-3.1,1.3-3.1,3.4v7.1h-2V67.1z"/>
		<path class="st7" d="M218.4,80.2h2.1c0.4,1.1,1.6,1.8,3.1,1.8c2.1,0,3.4-1.2,3.4-3v-1.9h0c-0.7,1.3-2.2,2.2-3.9,2.2
			c-3.1,0-5.1-2.4-5.1-6.2c0-3.8,2-6.2,5.1-6.2c1.7,0,3.1,0.8,3.9,2.2h0v-2h1.9v11.8c0,2.9-2.1,4.8-5.5,4.8
			C220.8,83.7,218.7,82.2,218.4,80.2z M226.9,73.1c0-2.7-1.4-4.4-3.5-4.4c-2.1,0-3.4,1.7-3.4,4.4c0,2.7,1.4,4.4,3.4,4.4
			C225.5,77.5,226.9,75.8,226.9,73.1z"/>
		<path class="st7" d="M236.7,63.7c0-0.7,0.6-1.3,1.3-1.3c0.7,0,1.3,0.6,1.3,1.3c0,0.7-0.6,1.3-1.3,1.3
			C237.3,65,236.7,64.4,236.7,63.7z M237,67.1h2v12.1h-2V67.1z"/>
		<path class="st7" d="M242,67.1h1.9V69h0c0.7-1.3,2-2.1,3.8-2.1c2.6,0,4.2,1.7,4.2,4.4v7.8h-2v-7.5c0-1.9-0.9-3-2.8-3
			c-1.9,0-3.1,1.3-3.1,3.4v7.1h-2V67.1z"/>
		<path class="st7" d="M259.3,75.8c0-2.1,1.6-3.4,4.4-3.5l3.5-0.2v-1c0-1.5-1-2.4-2.6-2.4c-1.6,0-2.5,0.7-2.8,1.9h-1.9
			c0.1-2.1,1.9-3.7,4.8-3.7c2.8,0,4.6,1.5,4.6,3.9v8.3h-1.9v-2.1h0c-0.7,1.4-2.3,2.3-3.9,2.3C261,79.4,259.3,77.9,259.3,75.8z
			 M267.2,74.6v-1l-3.2,0.2c-1.6,0.1-2.6,0.8-2.6,2c0,1.1,1,1.9,2.4,1.9C265.7,77.7,267.2,76.3,267.2,74.6z"/>
		<path class="st7" d="M272.1,62.4h2v16.7h-2V62.4z"/>
		<path class="st7" d="M277.2,62.4h2v16.7h-2V62.4z"/>
		<path class="st7" d="M287.1,63.7c0-0.7,0.6-1.3,1.3-1.3c0.7,0,1.3,0.6,1.3,1.3c0,0.7-0.6,1.3-1.3,1.3
			C287.7,65,287.1,64.4,287.1,63.7z M287.4,67.1h2v12.1h-2V67.1z"/>
		<path class="st7" d="M292.4,67.1h1.9V69h0c0.7-1.3,2-2.1,3.8-2.1c2.6,0,4.2,1.7,4.2,4.4v7.8h-2v-7.5c0-1.9-0.9-3-2.8-3
			c-1.9,0-3.1,1.3-3.1,3.4v7.1h-2V67.1z"/>
		<path class="st7" d="M307.2,77.1L307.2,77.1l0,2h-1.9V62.4h2v6.7h0c0.8-1.4,2.2-2.2,3.9-2.2c3,0,5.1,2.5,5.1,6.2
			c0,3.8-2,6.2-5.1,6.2C309.4,79.4,308,78.5,307.2,77.1z M307.2,73.1c0,2.7,1.5,4.5,3.5,4.5c2.1,0,3.5-1.7,3.5-4.5
			c0-2.7-1.3-4.5-3.5-4.5C308.7,68.7,307.2,70.5,307.2,73.1z"/>
		<path class="st7" d="M317.9,73.1c0-3.9,2.3-6.2,5.6-6.2c3.3,0,5.6,2.4,5.6,6.2c0,3.8-2.3,6.2-5.6,6.2
			C320.2,79.4,317.9,77,317.9,73.1z M327,73.1c0-2.8-1.4-4.5-3.5-4.5s-3.5,1.6-3.5,4.5s1.4,4.5,3.5,4.5S327,76,327,73.1z"/>
		<path class="st7" d="M335.4,74.6l-2.9,4.6h-2.2l4.1-6l-4-6h2.3l2.9,4.5h0l2.9-4.5h2.3l-4.1,6l4,6.1h-2.2L335.4,74.6L335.4,74.6z"
			/>
		<path class="st7" d="M342.9,78c0-0.7,0.6-1.3,1.3-1.3s1.3,0.6,1.3,1.3s-0.6,1.3-1.3,1.3S342.9,78.7,342.9,78z"/>
		<path class="st7" d="M349.2,78c0-0.7,0.6-1.3,1.3-1.3s1.3,0.6,1.3,1.3s-0.6,1.3-1.3,1.3S349.2,78.7,349.2,78z"/>
		<path class="st7" d="M355.4,78c0-0.7,0.6-1.3,1.3-1.3s1.3,0.6,1.3,1.3s-0.6,1.3-1.3,1.3S355.4,78.7,355.4,78z"/>
	</g>
	<g>
		<path class="st5" d="M352.2,201.4H80.7c-8.2,0-14.9-6.7-14.9-14.9v-22.7c0-8.2,6.7-14.9,14.9-14.9h271.5c8.2,0,14.9,6.7,14.9,14.9
			v22.7C367.1,194.7,360.4,201.4,352.2,201.4z"/>
		<path class="st7" d="M357.8,201.7H75.1c-5.3,0-9.6-4.3-9.6-9.6v-33.9c0-5.3,4.3-9.6,9.6-9.6h282.7c5.3,0,9.6,4.3,9.6,9.6v33.9
			C367.4,197.4,363.1,201.7,357.8,201.7z M75.1,149.2c-5,0-9,4-9,9v33.9c0,5,4,9,9,9h282.7c5,0,9-4,9-9v-33.9c0-5-4-9-9-9H75.1z"/>
	</g>
	<g>
		<path class="st5" d="M352.2,273.3H80.7c-8.2,0-14.9-6.7-14.9-14.9v-22.7c0-8.2,6.7-14.9,14.9-14.9h271.5c8.2,0,14.9,6.7,14.9,14.9
			v22.7C367.1,266.6,360.4,273.3,352.2,273.3z"/>
		<path class="st6" d="M357.8,273.6H75.1c-5.3,0-9.6-4.3-9.6-9.6v-33.9c0-5.3,4.3-9.6,9.6-9.6h282.7c5.3,0,9.6,4.3,9.6,9.6V264
			C367.4,269.3,363.1,273.6,357.8,273.6z M75.1,221.1c-5,0-9,4-9,9V264c0,5,4,9,9,9h282.7c5,0,9-4,9-9v-33.9c0-5-4-9-9-9H75.1z"/>
	</g>
	<g>
		<path class="st5" d="M352.2,345.8H80.7c-8.2,0-14.9-6.7-14.9-14.9v-22.7c0-8.2,6.7-14.9,14.9-14.9h271.5c8.2,0,14.9,6.7,14.9,14.9
			v22.7C367.1,339.1,360.4,345.8,352.2,345.8z"/>
		<path class="st6" d="M357.8,346.1H75.1c-5.3,0-9.6-4.3-9.6-9.6v-33.9c0-5.3,4.3-9.6,9.6-9.6h282.7c5.3,0,9.6,4.3,9.6,9.6v33.9
			C367.4,341.8,363.1,346.1,357.8,346.1z M75.1,293.6c-5,0-9,4-9,9v33.9c0,5,4,9,9,9h282.7c5,0,9-4,9-9v-33.9c0-5-4-9-9-9H75.1z"/>
	</g>
	<g>
		<path class="st5" d="M352.2,417.1H80.7c-8.2,0-14.9-6.7-14.9-14.9v-22.7c0-8.2,6.7-14.9,14.9-14.9h271.5c8.2,0,14.9,6.7,14.9,14.9
			v22.7C367.1,410.4,360.4,417.1,352.2,417.1z"/>
		<path class="st6" d="M357.8,417.4H75.1c-5.3,0-9.6-4.3-9.6-9.6v-33.9c0-5.3,4.3-9.6,9.6-9.6h282.7c5.3,0,9.6,4.3,9.6,9.6v33.9
			C367.4,413.1,363.1,417.4,357.8,417.4z M75.1,364.9c-5,0-9,4-9,9v33.9c0,5,4,9,9,9h282.7c5,0,9-4,9-9v-33.9c0-5-4-9-9-9H75.1z"/>
	</g>
	<g>
		<path class="st5" d="M97,183.9h-9.4c-2.4,0-4.4-2-4.4-4.4v-9.4c0-2.4,2-4.4,4.4-4.4H97c2.4,0,4.4,2,4.4,4.4v9.4
			C101.4,181.9,99.4,183.9,97,183.9z"/>
		<path class="st4" d="M98.7,184.2H86c-1.7,0-3.1-1.4-3.1-3.1v-12.7c0-1.7,1.4-3.1,3.1-3.1h12.7c1.7,0,3.1,1.4,3.1,3.1v12.7
			C101.7,182.8,100.4,184.2,98.7,184.2z M86,166.1c-1.3,0-2.4,1.1-2.4,2.4v12.7c0,1.3,1.1,2.4,2.4,2.4h12.7c1.3,0,2.4-1.1,2.4-2.4
			v-12.7c0-1.3-1.1-2.4-2.4-2.4H86z"/>
	</g>
	<g>
		<rect x="120.5" y="166.1" class="st7" width="222.6" height="5.6"/>
		<g>
			<rect x="120.5" y="178.3" class="st5" width="170.6" height="5.6"/>
			<path class="st7" d="M291.4,184.2H120.2V178h171.2V184.2z M120.8,183.6h170v-5h-170V183.6z"/>
		</g>
	</g>
	<path class="st4" d="M97,255.8h-9.4c-2.4,0-4.4-2-4.4-4.4V242c0-2.4,2-4.4,4.4-4.4H97c2.4,0,4.4,2,4.4,4.4v9.4
		C101.4,253.8,99.4,255.8,97,255.8z"/>
	<g>
		<rect x="120.5" y="238" class="st7" width="188.2" height="5.6"/>
		<g>
			<rect x="120.5" y="250.2" class="st5" width="144.3" height="5.6"/>
			<path class="st7" d="M265,256.1H120.2v-6.2H265V256.1z M120.8,255.5h143.6v-5H120.8V255.5z"/>
		</g>
	</g>
	<g>
		<path class="st5" d="M97,328.9h-9.4c-2.4,0-4.4-2-4.4-4.4v-9.4c0-2.4,2-4.4,4.4-4.4H97c2.4,0,4.4,2,4.4,4.4v9.4
			C101.4,327,99.4,328.9,97,328.9z"/>
		<path class="st4" d="M98.7,329.2H86c-1.7,0-3.1-1.4-3.1-3.1v-12.7c0-1.7,1.4-3.1,3.1-3.1h12.7c1.7,0,3.1,1.4,3.1,3.1v12.7
			C101.7,327.9,100.4,329.2,98.7,329.2z M86,311.1c-1.3,0-2.4,1.1-2.4,2.4v12.7c0,1.3,1.1,2.4,2.4,2.4h12.7c1.3,0,2.4-1.1,2.4-2.4
			v-12.7c0-1.3-1.1-2.4-2.4-2.4H86z"/>
	</g>
	<g>
		<rect x="120.5" y="311.2" class="st7" width="222.6" height="5.6"/>
		<g>
			<rect x="120.5" y="323.3" class="st5" width="170.6" height="5.6"/>
			<path class="st7" d="M291.4,329.3H120.2V323h171.2V329.3z M120.8,328.6h170v-5h-170V328.6z"/>
		</g>
	</g>
	<path class="st4" d="M97,400.2h-9.4c-2.4,0-4.4-2-4.4-4.4v-9.4c0-2.4,2-4.4,4.4-4.4H97c2.4,0,4.4,2,4.4,4.4v9.4
		C101.4,398.2,99.4,400.2,97,400.2z"/>
	<g>
		<rect x="120.5" y="382.4" class="st7" width="222.6" height="5.6"/>
		<g>
			<rect x="120.5" y="394.6" class="st5" width="170.6" height="5.6"/>
			<path class="st7" d="M291.4,400.5H120.2v-6.2h171.2V400.5z M120.8,399.9h170v-5h-170V399.9z"/>
		</g>
	</g>
</g>
</svg>
