<?xml version="1.0" encoding="utf-8"?>
<!-- Generator: Adobe Illustrator 23.0.2, SVG Export Plug-In . SVG Version: 6.00 Build 0)  -->
<svg version="1.1" id="Layer_1" xmlns="http://www.w3.org/2000/svg" xmlns:xlink="http://www.w3.org/1999/xlink" x="0px" y="0px"
	 viewBox="0 0 745 636" style="enable-background:new 0 0 745 636;" xml:space="preserve">
<style type="text/css">
	.st0{clip-path:url(#SVGID_2_);fill:#FEF0D0;}
</style>
<title>Home</title>
<g>
	<defs>
		<path id="SVGID_1_" d="M737.5,636H7.5c-4.1,0-7.5-3.4-7.5-7.5V7.5C0,3.4,3.4,0,7.5,0h730c4.1,0,7.5,3.4,7.5,7.5v621
			C745,632.6,741.6,636,737.5,636z"/>
	</defs>
	<clipPath id="SVGID_2_">
		<use xlink:href="#SVGID_1_"  style="overflow:visible;"/>
	</clipPath>
	<path class="st0" d="M496.5-67.5c0,0,24,114-9,184s195,18,159,298s-397,72-245,251s367,8,367,8l61-207l-45-344c0,0-57-196-60-196
		S496.5-67.5,496.5-67.5z"/>
</g>
</svg>
