<svg id="Layer_1" data-name="Layer 1" xmlns="http://www.w3.org/2000/svg" viewBox="0 0 97 94.01"><defs><style>.cls-1{fill:#455360;}</style></defs><title>Notes icon</title><path class="cls-1" d="M547,270.45l-4.94-4.94a5.18,5.18,0,0,0-7.31,0l-26.66,26.66-3.67,13.48-.9.89a1.72,1.72,0,0,0,0,2.44v0h0a1.73,1.73,0,0,0,1.21.5A1.78,1.78,0,0,0,506,309l.9-.9,13.47-3.68L547,277.76A5.18,5.18,0,0,0,547,270.45Zm-34.91,22.62,17.74-17.74,7.35,7.35-17.74,17.74Zm-1.56,3.34,5.57,5.57-7.67,2.1Zm34-21.1-4.92,4.92-7.35-7.35,4.92-4.92a1.71,1.71,0,0,1,2.41,0l4.94,4.94A1.71,1.71,0,0,1,544.54,275.31Z" transform="translate(-451.5 -215.5)"/><path class="cls-1" d="M498.27,236.28a1.74,1.74,0,0,0,0,3.47h31.18a1.74,1.74,0,0,0,0-3.47Z" transform="translate(-451.5 -215.5)"/><path class="cls-1" d="M531.18,262.27a1.74,1.74,0,0,0-1.73-1.74H498.27a1.74,1.74,0,0,0,0,3.47h31.18A1.74,1.74,0,0,0,531.18,262.27Z" transform="translate(-451.5 -215.5)"/><path class="cls-1" d="M487.15,228a1.73,1.73,0,0,0-2.44.19l-10.83,12.62-6.62-5a1.73,1.73,0,0,0-2.08,2.77l7.92,5.94a1.75,1.75,0,0,0,1,.34,1.72,1.72,0,0,0,1.32-.6l11.88-13.86A1.74,1.74,0,0,0,487.15,228Z" transform="translate(-451.5 -215.5)"/><path class="cls-1" d="M487.15,252.29a1.73,1.73,0,0,0-2.44.19L473.88,265.1l-6.62-5a1.73,1.73,0,0,0-2.08,2.77l7.92,5.94a1.75,1.75,0,0,0,1,.34,1.72,1.72,0,0,0,1.32-.6l11.88-13.86A1.74,1.74,0,0,0,487.15,252.29Z" transform="translate(-451.5 -215.5)"/><path class="cls-1" d="M484.7,278.46l-10.82,12.62-6.62-5a1.73,1.73,0,0,0-2.08,2.77l7.92,5.94a1.75,1.75,0,0,0,1,.34,1.72,1.72,0,0,0,1.32-.6l11.88-13.86a1.73,1.73,0,0,0-2.64-2.25Z" transform="translate(-451.5 -215.5)"/><path class="cls-1" d="M494.8,305.57H472.59A17.65,17.65,0,0,1,455,287.94V236.59A17.65,17.65,0,0,1,472.59,219H524a17.64,17.64,0,0,1,17.62,17.63v20.48a1.74,1.74,0,0,0,3.47,0V236.59A21.11,21.11,0,0,0,524,215.5H472.59a21.11,21.11,0,0,0-21.09,21.09v51.35A21.11,21.11,0,0,0,472.59,309H494.8a1.73,1.73,0,1,0,0-3.46Z" transform="translate(-451.5 -215.5)"/></svg>